%TF.GenerationSoftware,KiCad,Pcbnew,7.0.6*%
%TF.CreationDate,2023-07-25T16:44:31+08:00*%
%TF.ProjectId,LM350A_Liner_Power_KiCad,4c4d3335-3041-45f4-9c69-6e65725f506f,rev?*%
%TF.SameCoordinates,Original*%
%TF.FileFunction,Copper,L2,Bot*%
%TF.FilePolarity,Positive*%
%FSLAX46Y46*%
G04 Gerber Fmt 4.6, Leading zero omitted, Abs format (unit mm)*
G04 Created by KiCad (PCBNEW 7.0.6) date 2023-07-25 16:44:31*
%MOMM*%
%LPD*%
G01*
G04 APERTURE LIST*
%TA.AperFunction,ComponentPad*%
%ADD10C,3.200000*%
%TD*%
%TA.AperFunction,ComponentPad*%
%ADD11C,1.600000*%
%TD*%
%TA.AperFunction,ComponentPad*%
%ADD12C,2.400000*%
%TD*%
%TA.AperFunction,SMDPad,CuDef*%
%ADD13R,0.600000X0.600000*%
%TD*%
%TA.AperFunction,ComponentPad*%
%ADD14R,1.905000X2.000000*%
%TD*%
%TA.AperFunction,ComponentPad*%
%ADD15O,1.905000X2.000000*%
%TD*%
%TA.AperFunction,ViaPad*%
%ADD16C,1.219200*%
%TD*%
%TA.AperFunction,ViaPad*%
%ADD17C,0.812800*%
%TD*%
%TA.AperFunction,Conductor*%
%ADD18C,1.270000*%
%TD*%
%TA.AperFunction,Conductor*%
%ADD19C,0.254000*%
%TD*%
G04 APERTURE END LIST*
D10*
%TO.P,J3,1,Pin_1*%
%TO.N,Net-(J3-Pin_1)*%
X114300000Y-99060000D03*
%TO.P,J3,2,Pin_2*%
%TO.N,Net-(J3-Pin_2)*%
X114300000Y-104140000D03*
%TD*%
%TO.P,J2,1,Pin_1*%
%TO.N,GNDREF*%
X190500000Y-132080000D03*
%TO.P,J2,2,Pin_2*%
X190500000Y-127000000D03*
%TO.P,J2,3,Pin_3*%
X190500000Y-121920000D03*
%TO.P,J2,4,Pin_4*%
X190500000Y-116840000D03*
%TD*%
D11*
%TO.P,L1,1,1*%
%TO.N,Net-(J3-Pin_1)*%
X128420000Y-86280000D03*
%TO.P,L1,2,2*%
%TO.N,/Vin*%
X128420000Y-76280000D03*
%TO.P,L1,3,3*%
%TO.N,GNDREF*%
X115420000Y-76280000D03*
%TO.P,L1,4,4*%
%TO.N,Net-(J3-Pin_2)*%
X115420000Y-86280000D03*
%TD*%
D12*
%TO.P,SW1,1,A*%
%TO.N,Net-(SW1-A)*%
X185420000Y-106300000D03*
%TO.P,SW1,2,B*%
%TO.N,POWER_OUT*%
X185420000Y-101600000D03*
%TO.P,SW1,3,C*%
%TO.N,/Vout*%
X185420000Y-96900000D03*
%TD*%
D10*
%TO.P,J1,1,Pin_1*%
%TO.N,POWER_OUT*%
X190500000Y-86360000D03*
%TO.P,J1,2,Pin_2*%
X190500000Y-81280000D03*
%TO.P,J1,3,Pin_3*%
X190500000Y-76200000D03*
%TO.P,J1,4,Pin_4*%
X190500000Y-71120000D03*
%TD*%
D13*
%TO.P,D5,1,K*%
%TO.N,Net-(D2-K)*%
X155905200Y-115951000D03*
%TO.P,D5,2,A*%
%TO.N,POWER_OUT*%
X155905200Y-117068600D03*
%TD*%
D14*
%TO.P,U1,1,ADJ*%
%TO.N,/Vfb*%
X154940000Y-88900000D03*
D15*
%TO.P,U1,2,VO*%
%TO.N,/Vout*%
X152400000Y-88900000D03*
%TO.P,U1,3,VI*%
%TO.N,/Vin*%
X149860000Y-88900000D03*
%TD*%
D13*
%TO.P,D4,1,K*%
%TO.N,Net-(D2-K)*%
X148437600Y-116001800D03*
%TO.P,D4,2,A*%
%TO.N,POWER_OUT*%
X148437600Y-117119400D03*
%TD*%
D16*
%TO.N,/Vfb*%
X168910000Y-71120000D03*
X162560000Y-86360000D03*
%TO.N,GNDREF*%
X107400000Y-61600000D03*
X142400000Y-56600000D03*
X172400000Y-56600000D03*
X122400000Y-56600000D03*
X107400000Y-111600000D03*
X197400000Y-111600000D03*
X132400000Y-56600000D03*
X132400000Y-146600000D03*
X112400000Y-56600000D03*
X162400000Y-56600000D03*
X192400000Y-56600000D03*
X107400000Y-121600000D03*
X197400000Y-101600000D03*
X197400000Y-141600000D03*
X172400000Y-146600000D03*
X142400000Y-146600000D03*
X182400000Y-146600000D03*
X107400000Y-71600000D03*
X107400000Y-131600000D03*
X182400000Y-56600000D03*
X152400000Y-56600000D03*
X107400000Y-91600000D03*
X197400000Y-81600000D03*
X112400000Y-146600000D03*
X107400000Y-141600000D03*
X107400000Y-101600000D03*
X162560000Y-97790000D03*
X152400000Y-146600000D03*
X197400000Y-71600000D03*
X122400000Y-146600000D03*
X197400000Y-121600000D03*
X197400000Y-131600000D03*
X192400000Y-146600000D03*
X197400000Y-91600000D03*
X197400000Y-61600000D03*
X162400000Y-146600000D03*
X107400000Y-81600000D03*
D17*
%TO.N,Net-(D2-K)*%
X191770000Y-99060000D03*
%TD*%
D18*
%TO.N,/Vfb*%
X176530000Y-82550000D02*
X172720000Y-86360000D01*
X172720000Y-86360000D02*
X162560000Y-86360000D01*
X168910000Y-71120000D02*
X172720000Y-71120000D01*
X172720000Y-71120000D02*
X176530000Y-74930000D01*
X176530000Y-74930000D02*
X176530000Y-82550000D01*
D19*
%TO.N,Net-(D2-K)*%
X189865000Y-103505000D02*
X180340000Y-103505000D01*
X147320000Y-118110000D02*
X146685000Y-117475000D01*
X191770000Y-101600000D02*
X189865000Y-103505000D01*
X146685000Y-116586000D02*
X147320000Y-115951000D01*
X146685000Y-117475000D02*
X146685000Y-116586000D01*
X147320000Y-115951000D02*
X155905200Y-115951000D01*
X191770000Y-99060000D02*
X191770000Y-101600000D01*
X180340000Y-103505000D02*
X165735000Y-118110000D01*
X165735000Y-118110000D02*
X147320000Y-118110000D01*
%TO.N,POWER_OUT*%
X185420000Y-101600000D02*
X180975000Y-101600000D01*
X180975000Y-101600000D02*
X166052500Y-116522500D01*
X148437600Y-117119400D02*
X165455600Y-117119400D01*
X165455600Y-117119400D02*
X166052500Y-116522500D01*
%TD*%
%TA.AperFunction,Conductor*%
%TO.N,GNDREF*%
G36*
X190527520Y-53694462D02*
G01*
X190531319Y-53694692D01*
X190578109Y-53698943D01*
X191154659Y-53751335D01*
X191158401Y-53751790D01*
X191427414Y-53792733D01*
X191777188Y-53845968D01*
X191780932Y-53846654D01*
X192392892Y-53978019D01*
X192396572Y-53978926D01*
X192999484Y-54147000D01*
X193003112Y-54148130D01*
X193594782Y-54352303D01*
X193598341Y-54353653D01*
X194176590Y-54593172D01*
X194180061Y-54594734D01*
X194742796Y-54868731D01*
X194746166Y-54870500D01*
X194973533Y-54998735D01*
X195291342Y-55177979D01*
X195294576Y-55179935D01*
X195820202Y-55519778D01*
X195823302Y-55521916D01*
X196179284Y-55783853D01*
X196327447Y-55892874D01*
X196330444Y-55895222D01*
X196811258Y-56295930D01*
X196814107Y-56298454D01*
X197269848Y-56727460D01*
X197272539Y-56730151D01*
X197701545Y-57185892D01*
X197704069Y-57188741D01*
X198104777Y-57669555D01*
X198107125Y-57672552D01*
X198154703Y-57737212D01*
X198478078Y-58176691D01*
X198480226Y-58179804D01*
X198716835Y-58545760D01*
X198820057Y-58705411D01*
X198822026Y-58708668D01*
X199129499Y-59253833D01*
X199131268Y-59257203D01*
X199405265Y-59819938D01*
X199406827Y-59823409D01*
X199646346Y-60401658D01*
X199647696Y-60405217D01*
X199851869Y-60996887D01*
X199853001Y-61000521D01*
X200021069Y-61603411D01*
X200021980Y-61607107D01*
X200153345Y-62219067D01*
X200154031Y-62222811D01*
X200248208Y-62841590D01*
X200248667Y-62845369D01*
X200305307Y-63468680D01*
X200305537Y-63472479D01*
X200324500Y-64100000D01*
X200324500Y-139100000D01*
X200305537Y-139727520D01*
X200305307Y-139731319D01*
X200248667Y-140354630D01*
X200248208Y-140358409D01*
X200154031Y-140977188D01*
X200153345Y-140980932D01*
X200021980Y-141592892D01*
X200021069Y-141596588D01*
X199853001Y-142199478D01*
X199851869Y-142203112D01*
X199647696Y-142794782D01*
X199646346Y-142798341D01*
X199406827Y-143376590D01*
X199405265Y-143380061D01*
X199131268Y-143942796D01*
X199129499Y-143946166D01*
X198822026Y-144491331D01*
X198820057Y-144494588D01*
X198480229Y-145020191D01*
X198478067Y-145023324D01*
X198107125Y-145527447D01*
X198104777Y-145530444D01*
X197704069Y-146011258D01*
X197701545Y-146014107D01*
X197272539Y-146469848D01*
X197269848Y-146472539D01*
X196814107Y-146901545D01*
X196811258Y-146904069D01*
X196330444Y-147304777D01*
X196327447Y-147307125D01*
X195823324Y-147678067D01*
X195820191Y-147680229D01*
X195294588Y-148020057D01*
X195291331Y-148022026D01*
X194746166Y-148329499D01*
X194742796Y-148331268D01*
X194180061Y-148605265D01*
X194176590Y-148606827D01*
X193598341Y-148846346D01*
X193594782Y-148847696D01*
X193003112Y-149051869D01*
X192999478Y-149053001D01*
X192396588Y-149221069D01*
X192392892Y-149221980D01*
X191780932Y-149353345D01*
X191777188Y-149354031D01*
X191158409Y-149448208D01*
X191154630Y-149448667D01*
X190531319Y-149505307D01*
X190527520Y-149505537D01*
X189900000Y-149524500D01*
X114900000Y-149524500D01*
X114272479Y-149505537D01*
X114268680Y-149505307D01*
X113645369Y-149448667D01*
X113641590Y-149448208D01*
X113022811Y-149354031D01*
X113019067Y-149353345D01*
X112407107Y-149221980D01*
X112403411Y-149221069D01*
X111800521Y-149053001D01*
X111796887Y-149051869D01*
X111205217Y-148847696D01*
X111201658Y-148846346D01*
X110623409Y-148606827D01*
X110619938Y-148605265D01*
X110057203Y-148331268D01*
X110053833Y-148329499D01*
X109508668Y-148022026D01*
X109505411Y-148020057D01*
X109113410Y-147766609D01*
X108979804Y-147680226D01*
X108976691Y-147678078D01*
X108667734Y-147450743D01*
X108472552Y-147307125D01*
X108469555Y-147304777D01*
X107988741Y-146904069D01*
X107985892Y-146901545D01*
X107530151Y-146472539D01*
X107527460Y-146469848D01*
X107098454Y-146014107D01*
X107095930Y-146011258D01*
X106695222Y-145530444D01*
X106692874Y-145527447D01*
X106428700Y-145168425D01*
X106321916Y-145023302D01*
X106319778Y-145020202D01*
X105979935Y-144494576D01*
X105977973Y-144491331D01*
X105670500Y-143946166D01*
X105668731Y-143942796D01*
X105394734Y-143380061D01*
X105393172Y-143376590D01*
X105153653Y-142798341D01*
X105152303Y-142794782D01*
X104948130Y-142203112D01*
X104946998Y-142199478D01*
X104941665Y-142180346D01*
X104778926Y-141596572D01*
X104778019Y-141592892D01*
X104646654Y-140980932D01*
X104645968Y-140977188D01*
X104563678Y-140436512D01*
X104551790Y-140358401D01*
X104551335Y-140354659D01*
X104494692Y-139731319D01*
X104494462Y-139727520D01*
X104475500Y-139100000D01*
X104475500Y-139099999D01*
X111819654Y-139099999D01*
X111839022Y-139444885D01*
X111896883Y-139785434D01*
X111992514Y-140117378D01*
X112124699Y-140436501D01*
X112124704Y-140436512D01*
X112165709Y-140510705D01*
X112291791Y-140738836D01*
X112291798Y-140738847D01*
X112491678Y-141020550D01*
X112491685Y-141020559D01*
X112491689Y-141020564D01*
X112491696Y-141020572D01*
X112491697Y-141020573D01*
X112721865Y-141278134D01*
X112906857Y-141443451D01*
X112979436Y-141508311D01*
X112979442Y-141508315D01*
X112979449Y-141508321D01*
X113261152Y-141708201D01*
X113261163Y-141708208D01*
X113397715Y-141783677D01*
X113563488Y-141875296D01*
X113563499Y-141875300D01*
X113563498Y-141875300D01*
X113814390Y-141979223D01*
X113882626Y-142007487D01*
X114214559Y-142103115D01*
X114555111Y-142160977D01*
X114900000Y-142180346D01*
X115244889Y-142160977D01*
X115585441Y-142103115D01*
X115917374Y-142007487D01*
X116236512Y-141875296D01*
X116538843Y-141708204D01*
X116820564Y-141508311D01*
X117078134Y-141278134D01*
X117308311Y-141020564D01*
X117508204Y-140738843D01*
X117675296Y-140436512D01*
X117807487Y-140117374D01*
X117903115Y-139785441D01*
X117960977Y-139444889D01*
X117980346Y-139100000D01*
X186819654Y-139100000D01*
X186839022Y-139444885D01*
X186896883Y-139785434D01*
X186992514Y-140117378D01*
X187124699Y-140436501D01*
X187124704Y-140436512D01*
X187165709Y-140510705D01*
X187291791Y-140738836D01*
X187291798Y-140738847D01*
X187491678Y-141020550D01*
X187491685Y-141020559D01*
X187491689Y-141020564D01*
X187491696Y-141020572D01*
X187491697Y-141020573D01*
X187721865Y-141278134D01*
X187906857Y-141443451D01*
X187979436Y-141508311D01*
X187979442Y-141508315D01*
X187979449Y-141508321D01*
X188261152Y-141708201D01*
X188261163Y-141708208D01*
X188397715Y-141783677D01*
X188563488Y-141875296D01*
X188563499Y-141875300D01*
X188563498Y-141875300D01*
X188814390Y-141979223D01*
X188882626Y-142007487D01*
X189214559Y-142103115D01*
X189555111Y-142160977D01*
X189900000Y-142180346D01*
X190244889Y-142160977D01*
X190585441Y-142103115D01*
X190917374Y-142007487D01*
X191236512Y-141875296D01*
X191538843Y-141708204D01*
X191820564Y-141508311D01*
X192078134Y-141278134D01*
X192308311Y-141020564D01*
X192508204Y-140738843D01*
X192675296Y-140436512D01*
X192807487Y-140117374D01*
X192903115Y-139785441D01*
X192960977Y-139444889D01*
X192980346Y-139100000D01*
X192960977Y-138755111D01*
X192903115Y-138414559D01*
X192807487Y-138082626D01*
X192675296Y-137763488D01*
X192527538Y-137496139D01*
X192508208Y-137461163D01*
X192508201Y-137461152D01*
X192308321Y-137179449D01*
X192308315Y-137179442D01*
X192308311Y-137179436D01*
X192293028Y-137162334D01*
X192078134Y-136921865D01*
X191820573Y-136691697D01*
X191820572Y-136691696D01*
X191820564Y-136691689D01*
X191820559Y-136691685D01*
X191820550Y-136691678D01*
X191538847Y-136491798D01*
X191538836Y-136491791D01*
X191310705Y-136365709D01*
X191236512Y-136324704D01*
X191236505Y-136324701D01*
X191236501Y-136324699D01*
X190917378Y-136192514D01*
X190585434Y-136096883D01*
X190244885Y-136039022D01*
X189900000Y-136019654D01*
X189555114Y-136039022D01*
X189214565Y-136096883D01*
X188882621Y-136192514D01*
X188563498Y-136324699D01*
X188563475Y-136324711D01*
X188261163Y-136491791D01*
X188261152Y-136491798D01*
X187979449Y-136691678D01*
X187979426Y-136691697D01*
X187721865Y-136921865D01*
X187491697Y-137179426D01*
X187491678Y-137179449D01*
X187291798Y-137461152D01*
X187291791Y-137461163D01*
X187124711Y-137763475D01*
X187124699Y-137763498D01*
X186992514Y-138082621D01*
X186896883Y-138414565D01*
X186839022Y-138755114D01*
X186819654Y-139100000D01*
X117980346Y-139100000D01*
X117960977Y-138755111D01*
X117903115Y-138414559D01*
X117807487Y-138082626D01*
X117675296Y-137763488D01*
X117527538Y-137496139D01*
X117508208Y-137461163D01*
X117508201Y-137461152D01*
X117308321Y-137179449D01*
X117308315Y-137179442D01*
X117308311Y-137179436D01*
X117293028Y-137162334D01*
X117078134Y-136921865D01*
X116820573Y-136691697D01*
X116820572Y-136691696D01*
X116820564Y-136691689D01*
X116820559Y-136691685D01*
X116820550Y-136691678D01*
X116538847Y-136491798D01*
X116538836Y-136491791D01*
X116310705Y-136365709D01*
X116236512Y-136324704D01*
X116236505Y-136324701D01*
X116236501Y-136324699D01*
X115917378Y-136192514D01*
X115585434Y-136096883D01*
X115244885Y-136039022D01*
X114923292Y-136020962D01*
X114900000Y-136019654D01*
X114899999Y-136019654D01*
X114555114Y-136039022D01*
X114214565Y-136096883D01*
X113882621Y-136192514D01*
X113563498Y-136324699D01*
X113563475Y-136324711D01*
X113261163Y-136491791D01*
X113261152Y-136491798D01*
X112979449Y-136691678D01*
X112979426Y-136691697D01*
X112721865Y-136921865D01*
X112491697Y-137179426D01*
X112491678Y-137179449D01*
X112291798Y-137461152D01*
X112291791Y-137461163D01*
X112124711Y-137763475D01*
X112124699Y-137763498D01*
X111992514Y-138082621D01*
X111896883Y-138414565D01*
X111839022Y-138755114D01*
X111819654Y-139099999D01*
X104475500Y-139099999D01*
X104475500Y-139075469D01*
X104475500Y-132080004D01*
X188387074Y-132080004D01*
X188406752Y-132367696D01*
X188406753Y-132367702D01*
X188465425Y-132650054D01*
X188465427Y-132650062D01*
X188562002Y-132921798D01*
X188694672Y-133177836D01*
X188694676Y-133177842D01*
X188838787Y-133382001D01*
X189781155Y-132439633D01*
X189870577Y-132581948D01*
X189998052Y-132709423D01*
X190140364Y-132798843D01*
X189199630Y-133739577D01*
X189281514Y-133806194D01*
X189527922Y-133956038D01*
X189792422Y-134070926D01*
X190070111Y-134148731D01*
X190070120Y-134148733D01*
X190355795Y-134187999D01*
X190355809Y-134188000D01*
X190644191Y-134188000D01*
X190644204Y-134187999D01*
X190929879Y-134148733D01*
X190929888Y-134148731D01*
X191207577Y-134070926D01*
X191472077Y-133956038D01*
X191718490Y-133806191D01*
X191800367Y-133739578D01*
X191800367Y-133739577D01*
X190859634Y-132798844D01*
X191001948Y-132709423D01*
X191129423Y-132581948D01*
X191218843Y-132439634D01*
X192161211Y-133382002D01*
X192161212Y-133382001D01*
X192305319Y-133177850D01*
X192305328Y-133177835D01*
X192437997Y-132921798D01*
X192534572Y-132650062D01*
X192534574Y-132650054D01*
X192593246Y-132367702D01*
X192593247Y-132367696D01*
X192612926Y-132080004D01*
X192612926Y-132079995D01*
X192593247Y-131792303D01*
X192593246Y-131792297D01*
X192534574Y-131509945D01*
X192534572Y-131509937D01*
X192437997Y-131238201D01*
X192305327Y-130982163D01*
X192305324Y-130982157D01*
X192161211Y-130777997D01*
X191218843Y-131720364D01*
X191129423Y-131578052D01*
X191001948Y-131450577D01*
X190859634Y-131361155D01*
X191800368Y-130420421D01*
X191718485Y-130353805D01*
X191472077Y-130203961D01*
X191207577Y-130089073D01*
X190929888Y-130011268D01*
X190929879Y-130011266D01*
X190644204Y-129972000D01*
X190355795Y-129972000D01*
X190070120Y-130011266D01*
X190070111Y-130011268D01*
X189792422Y-130089073D01*
X189527918Y-130203962D01*
X189281517Y-130353802D01*
X189199631Y-130420421D01*
X189199630Y-130420422D01*
X190140364Y-131361156D01*
X189998052Y-131450577D01*
X189870577Y-131578052D01*
X189781156Y-131720364D01*
X188838787Y-130777996D01*
X188694674Y-130982160D01*
X188694672Y-130982163D01*
X188562002Y-131238201D01*
X188465427Y-131509937D01*
X188465425Y-131509945D01*
X188406753Y-131792297D01*
X188406752Y-131792303D01*
X188387074Y-132079995D01*
X188387074Y-132080004D01*
X104475500Y-132080004D01*
X104475500Y-127000004D01*
X188387074Y-127000004D01*
X188406752Y-127287696D01*
X188406753Y-127287702D01*
X188465425Y-127570054D01*
X188465427Y-127570062D01*
X188562002Y-127841798D01*
X188694672Y-128097836D01*
X188694676Y-128097842D01*
X188838787Y-128302002D01*
X189781155Y-127359634D01*
X189870577Y-127501948D01*
X189998052Y-127629423D01*
X190140364Y-127718843D01*
X189199630Y-128659577D01*
X189281514Y-128726194D01*
X189527922Y-128876038D01*
X189792422Y-128990926D01*
X190070111Y-129068731D01*
X190070120Y-129068733D01*
X190355795Y-129107999D01*
X190355809Y-129108000D01*
X190644191Y-129108000D01*
X190644204Y-129107999D01*
X190929879Y-129068733D01*
X190929888Y-129068731D01*
X191207577Y-128990926D01*
X191472077Y-128876038D01*
X191718490Y-128726191D01*
X191800367Y-128659578D01*
X191800367Y-128659577D01*
X190859634Y-127718844D01*
X191001948Y-127629423D01*
X191129423Y-127501948D01*
X191218844Y-127359634D01*
X192161211Y-128302002D01*
X192161212Y-128302001D01*
X192305319Y-128097850D01*
X192305328Y-128097835D01*
X192437997Y-127841798D01*
X192534572Y-127570062D01*
X192534574Y-127570054D01*
X192593246Y-127287702D01*
X192593247Y-127287696D01*
X192612926Y-127000004D01*
X192612926Y-126999995D01*
X192593247Y-126712303D01*
X192593246Y-126712297D01*
X192534574Y-126429945D01*
X192534572Y-126429937D01*
X192437997Y-126158201D01*
X192305327Y-125902163D01*
X192305324Y-125902157D01*
X192161211Y-125697997D01*
X191218843Y-126640364D01*
X191129423Y-126498052D01*
X191001948Y-126370577D01*
X190859634Y-126281155D01*
X191800368Y-125340422D01*
X191800367Y-125340421D01*
X191718485Y-125273805D01*
X191472077Y-125123961D01*
X191207577Y-125009073D01*
X190929888Y-124931268D01*
X190929879Y-124931266D01*
X190644204Y-124892000D01*
X190355795Y-124892000D01*
X190070120Y-124931266D01*
X190070111Y-124931268D01*
X189792422Y-125009073D01*
X189527918Y-125123962D01*
X189281517Y-125273802D01*
X189199631Y-125340421D01*
X189199630Y-125340421D01*
X190140365Y-126281156D01*
X189998052Y-126370577D01*
X189870577Y-126498052D01*
X189781156Y-126640365D01*
X188838787Y-125697996D01*
X188694674Y-125902160D01*
X188694672Y-125902163D01*
X188562002Y-126158201D01*
X188465427Y-126429937D01*
X188465425Y-126429945D01*
X188406753Y-126712297D01*
X188406752Y-126712303D01*
X188387074Y-126999995D01*
X188387074Y-127000004D01*
X104475500Y-127000004D01*
X104475500Y-121920004D01*
X188387074Y-121920004D01*
X188406752Y-122207696D01*
X188406753Y-122207702D01*
X188465425Y-122490054D01*
X188465427Y-122490062D01*
X188562002Y-122761798D01*
X188694672Y-123017836D01*
X188694676Y-123017842D01*
X188838787Y-123222002D01*
X189781155Y-122279634D01*
X189870577Y-122421948D01*
X189998052Y-122549423D01*
X190140364Y-122638843D01*
X189199630Y-123579577D01*
X189281514Y-123646194D01*
X189527922Y-123796038D01*
X189792422Y-123910926D01*
X190070111Y-123988731D01*
X190070120Y-123988733D01*
X190355795Y-124027999D01*
X190355809Y-124028000D01*
X190644191Y-124028000D01*
X190644204Y-124027999D01*
X190929879Y-123988733D01*
X190929888Y-123988731D01*
X191207577Y-123910926D01*
X191472077Y-123796038D01*
X191718490Y-123646191D01*
X191800367Y-123579578D01*
X191800367Y-123579577D01*
X190859634Y-122638844D01*
X191001948Y-122549423D01*
X191129423Y-122421948D01*
X191218844Y-122279634D01*
X192161211Y-123222002D01*
X192161212Y-123222001D01*
X192305319Y-123017850D01*
X192305328Y-123017835D01*
X192437997Y-122761798D01*
X192534572Y-122490062D01*
X192534574Y-122490054D01*
X192593246Y-122207702D01*
X192593247Y-122207696D01*
X192612926Y-121920004D01*
X192612926Y-121919995D01*
X192593247Y-121632303D01*
X192593246Y-121632297D01*
X192534574Y-121349945D01*
X192534572Y-121349937D01*
X192437997Y-121078201D01*
X192305327Y-120822163D01*
X192305324Y-120822157D01*
X192161211Y-120617997D01*
X191218843Y-121560364D01*
X191129423Y-121418052D01*
X191001948Y-121290577D01*
X190859634Y-121201155D01*
X191800368Y-120260422D01*
X191800367Y-120260421D01*
X191718485Y-120193805D01*
X191472077Y-120043961D01*
X191207577Y-119929073D01*
X190929888Y-119851268D01*
X190929879Y-119851266D01*
X190644204Y-119812000D01*
X190355795Y-119812000D01*
X190070120Y-119851266D01*
X190070111Y-119851268D01*
X189792422Y-119929073D01*
X189527918Y-120043962D01*
X189281517Y-120193802D01*
X189199631Y-120260421D01*
X189199630Y-120260421D01*
X190140365Y-121201156D01*
X189998052Y-121290577D01*
X189870577Y-121418052D01*
X189781156Y-121560365D01*
X188838787Y-120617996D01*
X188694674Y-120822160D01*
X188694672Y-120822163D01*
X188562002Y-121078201D01*
X188465427Y-121349937D01*
X188465425Y-121349945D01*
X188406753Y-121632297D01*
X188406752Y-121632303D01*
X188387074Y-121919995D01*
X188387074Y-121920004D01*
X104475500Y-121920004D01*
X104475500Y-116565879D01*
X146044765Y-116565879D01*
X146049220Y-116613010D01*
X146049500Y-116618943D01*
X146049500Y-117390931D01*
X146047748Y-117406801D01*
X146048038Y-117406829D01*
X146047292Y-117414718D01*
X146047292Y-117414719D01*
X146049500Y-117484985D01*
X146049500Y-117514983D01*
X146049500Y-117514986D01*
X146049499Y-117514986D01*
X146050382Y-117521977D01*
X146050847Y-117527885D01*
X146052334Y-117575202D01*
X146052335Y-117575207D01*
X146058014Y-117594756D01*
X146062021Y-117614107D01*
X146064572Y-117634295D01*
X146064572Y-117634297D01*
X146081998Y-117678313D01*
X146083921Y-117683929D01*
X146097129Y-117729390D01*
X146097131Y-117729395D01*
X146107492Y-117746914D01*
X146116189Y-117764666D01*
X146123681Y-117783588D01*
X146151510Y-117821892D01*
X146154764Y-117826845D01*
X146163533Y-117841672D01*
X146178865Y-117867598D01*
X146193250Y-117881983D01*
X146206090Y-117897016D01*
X146218054Y-117913483D01*
X146218057Y-117913486D01*
X146254536Y-117943664D01*
X146258929Y-117947661D01*
X146811188Y-118499921D01*
X146821171Y-118512382D01*
X146821396Y-118512197D01*
X146826447Y-118518303D01*
X146877693Y-118566426D01*
X146898899Y-118587633D01*
X146898903Y-118587636D01*
X146898906Y-118587639D01*
X146904472Y-118591956D01*
X146908973Y-118595800D01*
X146943494Y-118628217D01*
X146961329Y-118638022D01*
X146977849Y-118648874D01*
X146993934Y-118661350D01*
X147037390Y-118680154D01*
X147042712Y-118682762D01*
X147084197Y-118705569D01*
X147103918Y-118710632D01*
X147122620Y-118717037D01*
X147141289Y-118725116D01*
X147141290Y-118725116D01*
X147141292Y-118725117D01*
X147171453Y-118729893D01*
X147188048Y-118732522D01*
X147193860Y-118733724D01*
X147239718Y-118745500D01*
X147260067Y-118745500D01*
X147279776Y-118747050D01*
X147299880Y-118750235D01*
X147333562Y-118747051D01*
X147347012Y-118745780D01*
X147352945Y-118745500D01*
X165650930Y-118745500D01*
X165666798Y-118747252D01*
X165666826Y-118746962D01*
X165674718Y-118747708D01*
X165674718Y-118747707D01*
X165674719Y-118747708D01*
X165744985Y-118745500D01*
X165774983Y-118745500D01*
X165781969Y-118744617D01*
X165787873Y-118744152D01*
X165835205Y-118742665D01*
X165854751Y-118736985D01*
X165874102Y-118732978D01*
X165894299Y-118730427D01*
X165938332Y-118712992D01*
X165943915Y-118711081D01*
X165989393Y-118697869D01*
X166006907Y-118687510D01*
X166024656Y-118678814D01*
X166043588Y-118671319D01*
X166081903Y-118643480D01*
X166086840Y-118640237D01*
X166127598Y-118616134D01*
X166141984Y-118601747D01*
X166157018Y-118588906D01*
X166173487Y-118576942D01*
X166203678Y-118540446D01*
X166207646Y-118536084D01*
X167903726Y-116840004D01*
X188387074Y-116840004D01*
X188406752Y-117127696D01*
X188406753Y-117127702D01*
X188465425Y-117410054D01*
X188465427Y-117410062D01*
X188562002Y-117681798D01*
X188694672Y-117937836D01*
X188694676Y-117937842D01*
X188838787Y-118142002D01*
X189781155Y-117199634D01*
X189870577Y-117341948D01*
X189998052Y-117469423D01*
X190140364Y-117558843D01*
X189199630Y-118499577D01*
X189281514Y-118566194D01*
X189527922Y-118716038D01*
X189792422Y-118830926D01*
X190070111Y-118908731D01*
X190070120Y-118908733D01*
X190355795Y-118947999D01*
X190355809Y-118948000D01*
X190644191Y-118948000D01*
X190644204Y-118947999D01*
X190929879Y-118908733D01*
X190929888Y-118908731D01*
X191207577Y-118830926D01*
X191472077Y-118716038D01*
X191718490Y-118566191D01*
X191800367Y-118499578D01*
X191800367Y-118499577D01*
X190859634Y-117558844D01*
X191001948Y-117469423D01*
X191129423Y-117341948D01*
X191218844Y-117199634D01*
X192161211Y-118142002D01*
X192161212Y-118142001D01*
X192305319Y-117937850D01*
X192305328Y-117937835D01*
X192437997Y-117681798D01*
X192534572Y-117410062D01*
X192534574Y-117410054D01*
X192593246Y-117127702D01*
X192593247Y-117127696D01*
X192612926Y-116840004D01*
X192612926Y-116839995D01*
X192593247Y-116552303D01*
X192593246Y-116552297D01*
X192534574Y-116269945D01*
X192534572Y-116269937D01*
X192437997Y-115998201D01*
X192305327Y-115742163D01*
X192305324Y-115742157D01*
X192161211Y-115537997D01*
X191218843Y-116480364D01*
X191129423Y-116338052D01*
X191001948Y-116210577D01*
X190859634Y-116121155D01*
X191800368Y-115180422D01*
X191800367Y-115180421D01*
X191718485Y-115113805D01*
X191472077Y-114963961D01*
X191207577Y-114849073D01*
X190929888Y-114771268D01*
X190929879Y-114771266D01*
X190644204Y-114732000D01*
X190355795Y-114732000D01*
X190070120Y-114771266D01*
X190070111Y-114771268D01*
X189792422Y-114849073D01*
X189527918Y-114963962D01*
X189281517Y-115113802D01*
X189199631Y-115180421D01*
X189199630Y-115180421D01*
X190140365Y-116121156D01*
X189998052Y-116210577D01*
X189870577Y-116338052D01*
X189781156Y-116480364D01*
X188838787Y-115537996D01*
X188694674Y-115742160D01*
X188694672Y-115742163D01*
X188562002Y-115998201D01*
X188465427Y-116269937D01*
X188465425Y-116269945D01*
X188406753Y-116552297D01*
X188406752Y-116552303D01*
X188387074Y-116839995D01*
X188387074Y-116840004D01*
X167903726Y-116840004D01*
X178443733Y-106299999D01*
X183706709Y-106299999D01*
X183725845Y-106555356D01*
X183782826Y-106805002D01*
X183782827Y-106805005D01*
X183876374Y-107043362D01*
X183876376Y-107043366D01*
X184004410Y-107265127D01*
X184004412Y-107265130D01*
X184004413Y-107265131D01*
X184164069Y-107465334D01*
X184351781Y-107639505D01*
X184353572Y-107640726D01*
X184563345Y-107783748D01*
X184563352Y-107783752D01*
X184563355Y-107783754D01*
X184696360Y-107847806D01*
X184794060Y-107894856D01*
X184794073Y-107894861D01*
X185038746Y-107970332D01*
X185038748Y-107970332D01*
X185038757Y-107970335D01*
X185291966Y-108008500D01*
X185291970Y-108008500D01*
X185548030Y-108008500D01*
X185548034Y-108008500D01*
X185801243Y-107970335D01*
X185955112Y-107922873D01*
X186045929Y-107894860D01*
X186045930Y-107894859D01*
X186045935Y-107894858D01*
X186276646Y-107783754D01*
X186488219Y-107639505D01*
X186675931Y-107465334D01*
X186835587Y-107265131D01*
X186963622Y-107043369D01*
X187057174Y-106805001D01*
X187114155Y-106555353D01*
X187133291Y-106300000D01*
X187114155Y-106044647D01*
X187057174Y-105794999D01*
X187008525Y-105671042D01*
X186963625Y-105556637D01*
X186963623Y-105556633D01*
X186835589Y-105334872D01*
X186835587Y-105334869D01*
X186675931Y-105134666D01*
X186488219Y-104960495D01*
X186276646Y-104816246D01*
X186276643Y-104816245D01*
X186276641Y-104816243D01*
X186276640Y-104816242D01*
X186045936Y-104705142D01*
X186045929Y-104705139D01*
X185801253Y-104629667D01*
X185801245Y-104629665D01*
X185801243Y-104629665D01*
X185548034Y-104591500D01*
X185291966Y-104591500D01*
X185038757Y-104629665D01*
X185038755Y-104629665D01*
X185038746Y-104629667D01*
X184794073Y-104705138D01*
X184794060Y-104705143D01*
X184563352Y-104816247D01*
X184563345Y-104816251D01*
X184351787Y-104960490D01*
X184351782Y-104960494D01*
X184164070Y-105134665D01*
X184004410Y-105334872D01*
X183876376Y-105556633D01*
X183876374Y-105556637D01*
X183782827Y-105794994D01*
X183782826Y-105794997D01*
X183725845Y-106044643D01*
X183706709Y-106299999D01*
X178443733Y-106299999D01*
X180566327Y-104177405D01*
X180628640Y-104143379D01*
X180655423Y-104140500D01*
X189716028Y-104140500D01*
X189784149Y-104160502D01*
X189830642Y-104214158D01*
X189836924Y-104231001D01*
X189851210Y-104279656D01*
X189851211Y-104279657D01*
X189913315Y-104376293D01*
X189930231Y-104402615D01*
X189930236Y-104402621D01*
X189975606Y-104454981D01*
X189976522Y-104456097D01*
X190087179Y-104551980D01*
X190087182Y-104551982D01*
X190220131Y-104612698D01*
X190288252Y-104632700D01*
X190432921Y-104653500D01*
X190432925Y-104653500D01*
X193806276Y-104653500D01*
X193823086Y-104652949D01*
X193848088Y-104651309D01*
X193864799Y-104649663D01*
X194000726Y-104631768D01*
X194016986Y-104628533D01*
X194033692Y-104625211D01*
X194033697Y-104625209D01*
X194033700Y-104625209D01*
X194097946Y-104607994D01*
X194129782Y-104597187D01*
X194129787Y-104597185D01*
X194129788Y-104597185D01*
X194252719Y-104546266D01*
X194282867Y-104531397D01*
X194282869Y-104531396D01*
X194282869Y-104531395D01*
X194282873Y-104531394D01*
X194298305Y-104522483D01*
X194340473Y-104498139D01*
X194340472Y-104498139D01*
X194340475Y-104498137D01*
X194340601Y-104498052D01*
X194368420Y-104479465D01*
X194443160Y-104422114D01*
X194473986Y-104398461D01*
X194473987Y-104398459D01*
X194473991Y-104398457D01*
X194473990Y-104398458D01*
X194499264Y-104376293D01*
X194546293Y-104329264D01*
X194568458Y-104303990D01*
X194587129Y-104279658D01*
X194592114Y-104273160D01*
X194649465Y-104198420D01*
X194668139Y-104170472D01*
X194668139Y-104170473D01*
X194701396Y-104112869D01*
X194701397Y-104112867D01*
X194716266Y-104082719D01*
X194767185Y-103959788D01*
X194767185Y-103959787D01*
X194777994Y-103927945D01*
X194795209Y-103863700D01*
X194801768Y-103830726D01*
X194819663Y-103694799D01*
X194821309Y-103678088D01*
X194822949Y-103653086D01*
X194823500Y-103636276D01*
X194823500Y-67813723D01*
X194822949Y-67796913D01*
X194821309Y-67771911D01*
X194819663Y-67755200D01*
X194801768Y-67619273D01*
X194795209Y-67586299D01*
X194777994Y-67522053D01*
X194767187Y-67490217D01*
X194716267Y-67367283D01*
X194701394Y-67337126D01*
X194689933Y-67317276D01*
X194668142Y-67279532D01*
X194668136Y-67279523D01*
X194649459Y-67251571D01*
X194634470Y-67232037D01*
X194568468Y-67146022D01*
X194568467Y-67146022D01*
X194568457Y-67146009D01*
X194546290Y-67120733D01*
X194499266Y-67073708D01*
X194494338Y-67069386D01*
X194473992Y-67051543D01*
X194473993Y-67051544D01*
X194473991Y-67051543D01*
X194432300Y-67019552D01*
X194368422Y-66970536D01*
X194340471Y-66951860D01*
X194340468Y-66951858D01*
X194340465Y-66951856D01*
X194340466Y-66951856D01*
X194282880Y-66918609D01*
X194282877Y-66918607D01*
X194282871Y-66918604D01*
X194252724Y-66903736D01*
X194129776Y-66852810D01*
X194129774Y-66852809D01*
X194129771Y-66852808D01*
X194129772Y-66852808D01*
X194097925Y-66841998D01*
X194097924Y-66841998D01*
X194033697Y-66824790D01*
X194033698Y-66824790D01*
X194000720Y-66818231D01*
X194000719Y-66818231D01*
X193864797Y-66800337D01*
X193848090Y-66798691D01*
X193823089Y-66797051D01*
X193806277Y-66796500D01*
X191809721Y-66796500D01*
X191741600Y-66776498D01*
X191695107Y-66722842D01*
X191685003Y-66652568D01*
X191714497Y-66587988D01*
X191736808Y-66567740D01*
X191820550Y-66508321D01*
X191820550Y-66508320D01*
X191820564Y-66508311D01*
X192078134Y-66278134D01*
X192308311Y-66020564D01*
X192508204Y-65738843D01*
X192675296Y-65436512D01*
X192807487Y-65117374D01*
X192903115Y-64785441D01*
X192960977Y-64444889D01*
X192980346Y-64100000D01*
X192960977Y-63755111D01*
X192903115Y-63414559D01*
X192807487Y-63082626D01*
X192675296Y-62763488D01*
X192584434Y-62599085D01*
X192508208Y-62461163D01*
X192508201Y-62461152D01*
X192308321Y-62179449D01*
X192308315Y-62179442D01*
X192308311Y-62179436D01*
X192217490Y-62077806D01*
X192078134Y-61921865D01*
X191820573Y-61691697D01*
X191820572Y-61691696D01*
X191820564Y-61691689D01*
X191820559Y-61691685D01*
X191820550Y-61691678D01*
X191538847Y-61491798D01*
X191538836Y-61491791D01*
X191303453Y-61361701D01*
X191236512Y-61324704D01*
X191236505Y-61324701D01*
X191236501Y-61324699D01*
X190917378Y-61192514D01*
X190585434Y-61096883D01*
X190244885Y-61039022D01*
X189900000Y-61019654D01*
X189555114Y-61039022D01*
X189214565Y-61096883D01*
X188882621Y-61192514D01*
X188563498Y-61324699D01*
X188563475Y-61324711D01*
X188261163Y-61491791D01*
X188261152Y-61491798D01*
X187979449Y-61691678D01*
X187979426Y-61691697D01*
X187721865Y-61921865D01*
X187491697Y-62179426D01*
X187491678Y-62179449D01*
X187291798Y-62461152D01*
X187291791Y-62461163D01*
X187124711Y-62763475D01*
X187124699Y-62763498D01*
X186992514Y-63082621D01*
X186896883Y-63414565D01*
X186839022Y-63755114D01*
X186819654Y-64099999D01*
X186839022Y-64444885D01*
X186896883Y-64785434D01*
X186992514Y-65117378D01*
X187124699Y-65436501D01*
X187124704Y-65436512D01*
X187165709Y-65510705D01*
X187291791Y-65738836D01*
X187291798Y-65738847D01*
X187491678Y-66020550D01*
X187491685Y-66020559D01*
X187491689Y-66020564D01*
X187491696Y-66020572D01*
X187491697Y-66020573D01*
X187721865Y-66278134D01*
X187906857Y-66443451D01*
X187979436Y-66508311D01*
X187979442Y-66508315D01*
X187979449Y-66508321D01*
X188063192Y-66567740D01*
X188107174Y-66623472D01*
X188114042Y-66694136D01*
X188081617Y-66757295D01*
X188020192Y-66792898D01*
X187990279Y-66796500D01*
X183383723Y-66796500D01*
X183366911Y-66797051D01*
X183341911Y-66798691D01*
X183325204Y-66800337D01*
X183189272Y-66818230D01*
X183189273Y-66818231D01*
X183156302Y-66824789D01*
X183092073Y-66841998D01*
X183092067Y-66841999D01*
X183092067Y-66842000D01*
X183060228Y-66852808D01*
X183060223Y-66852810D01*
X183060222Y-66852810D01*
X182937279Y-66903734D01*
X182937280Y-66903733D01*
X182921997Y-66911270D01*
X182907118Y-66918608D01*
X182849530Y-66951858D01*
X182821578Y-66970535D01*
X182821577Y-66970536D01*
X182821577Y-66970535D01*
X182716001Y-67051549D01*
X182690732Y-67073709D01*
X182690727Y-67073713D01*
X182643713Y-67120727D01*
X182621549Y-67146000D01*
X182621550Y-67145999D01*
X182540535Y-67251577D01*
X182540536Y-67251577D01*
X182540535Y-67251578D01*
X182521858Y-67279530D01*
X182488608Y-67337118D01*
X182481270Y-67351997D01*
X182473733Y-67367280D01*
X182473734Y-67367279D01*
X182422810Y-67490222D01*
X182422810Y-67490223D01*
X182411998Y-67522073D01*
X182394790Y-67586300D01*
X182394790Y-67586301D01*
X182394789Y-67586307D01*
X182388231Y-67619278D01*
X182388231Y-67619279D01*
X182370337Y-67755203D01*
X182368691Y-67771910D01*
X182367051Y-67796910D01*
X182366500Y-67813722D01*
X182366500Y-100838500D01*
X182346498Y-100906621D01*
X182292842Y-100953114D01*
X182240500Y-100964500D01*
X181059075Y-100964500D01*
X181043202Y-100962747D01*
X181043175Y-100963037D01*
X181035282Y-100962290D01*
X180964997Y-100964500D01*
X180935014Y-100964500D01*
X180928029Y-100965382D01*
X180922118Y-100965847D01*
X180874798Y-100967334D01*
X180874790Y-100967336D01*
X180855243Y-100973014D01*
X180835893Y-100977021D01*
X180815704Y-100979572D01*
X180815703Y-100979572D01*
X180771681Y-100997000D01*
X180766067Y-100998922D01*
X180720611Y-101012129D01*
X180720604Y-101012132D01*
X180703083Y-101022493D01*
X180685343Y-101031184D01*
X180666411Y-101038680D01*
X180628112Y-101066506D01*
X180623152Y-101069764D01*
X180582400Y-101093867D01*
X180568010Y-101108256D01*
X180552986Y-101121088D01*
X180536513Y-101133057D01*
X180506323Y-101169549D01*
X180502327Y-101173940D01*
X165576498Y-116099769D01*
X165576483Y-116099783D01*
X165229272Y-116446995D01*
X165166959Y-116481020D01*
X165140176Y-116483900D01*
X156834163Y-116483900D01*
X156766042Y-116463898D01*
X156719549Y-116410242D01*
X156708885Y-116344433D01*
X156713004Y-116306112D01*
X156713700Y-116299638D01*
X156713700Y-115602362D01*
X156713699Y-115602350D01*
X156707190Y-115541803D01*
X156707188Y-115541795D01*
X156671034Y-115444865D01*
X156656089Y-115404796D01*
X156656088Y-115404794D01*
X156656087Y-115404792D01*
X156568461Y-115287738D01*
X156451407Y-115200112D01*
X156451402Y-115200110D01*
X156314404Y-115149011D01*
X156314396Y-115149009D01*
X156253849Y-115142500D01*
X156253838Y-115142500D01*
X155556562Y-115142500D01*
X155556550Y-115142500D01*
X155496003Y-115149009D01*
X155495995Y-115149011D01*
X155358997Y-115200110D01*
X155358992Y-115200112D01*
X155238427Y-115290368D01*
X155171907Y-115315179D01*
X155162918Y-115315500D01*
X149112022Y-115315500D01*
X149043901Y-115295498D01*
X149036513Y-115290368D01*
X148983807Y-115250912D01*
X148983802Y-115250910D01*
X148846804Y-115199811D01*
X148846796Y-115199809D01*
X148786249Y-115193300D01*
X148786238Y-115193300D01*
X148088962Y-115193300D01*
X148088950Y-115193300D01*
X148028403Y-115199809D01*
X148028395Y-115199811D01*
X147891397Y-115250910D01*
X147891392Y-115250912D01*
X147838687Y-115290368D01*
X147772167Y-115315179D01*
X147763178Y-115315500D01*
X147404075Y-115315500D01*
X147388202Y-115313747D01*
X147388175Y-115314037D01*
X147380282Y-115313290D01*
X147309997Y-115315500D01*
X147280014Y-115315500D01*
X147273029Y-115316382D01*
X147267118Y-115316847D01*
X147219798Y-115318334D01*
X147219790Y-115318336D01*
X147200243Y-115324014D01*
X147180893Y-115328021D01*
X147160704Y-115330572D01*
X147160703Y-115330572D01*
X147116681Y-115348000D01*
X147111067Y-115349922D01*
X147065607Y-115363131D01*
X147048080Y-115373495D01*
X147030339Y-115382186D01*
X147011411Y-115389681D01*
X146973110Y-115417507D01*
X146968149Y-115420766D01*
X146927402Y-115444865D01*
X146913005Y-115459261D01*
X146897978Y-115472095D01*
X146881513Y-115484058D01*
X146851328Y-115520543D01*
X146847332Y-115524934D01*
X146295077Y-116077188D01*
X146282616Y-116087173D01*
X146282801Y-116087397D01*
X146276697Y-116092446D01*
X146228574Y-116143692D01*
X146207358Y-116164909D01*
X146207353Y-116164914D01*
X146203032Y-116170483D01*
X146199185Y-116174987D01*
X146166785Y-116209490D01*
X146166784Y-116209492D01*
X146156976Y-116227332D01*
X146146124Y-116243850D01*
X146133654Y-116259925D01*
X146133650Y-116259932D01*
X146114843Y-116303388D01*
X146112233Y-116308716D01*
X146089433Y-116350191D01*
X146089430Y-116350199D01*
X146084370Y-116369907D01*
X146077968Y-116388607D01*
X146069882Y-116407293D01*
X146069881Y-116407297D01*
X146062476Y-116454051D01*
X146061272Y-116459865D01*
X146049500Y-116505717D01*
X146049500Y-116526065D01*
X146047949Y-116545775D01*
X146044765Y-116565878D01*
X146044765Y-116565879D01*
X104475500Y-116565879D01*
X104475500Y-107446277D01*
X109976500Y-107446277D01*
X109977051Y-107463089D01*
X109978691Y-107488089D01*
X109980337Y-107504797D01*
X109998231Y-107640719D01*
X109998231Y-107640720D01*
X110004790Y-107673698D01*
X110004790Y-107673697D01*
X110021998Y-107737924D01*
X110021998Y-107737925D01*
X110022000Y-107737933D01*
X110022001Y-107737934D01*
X110032809Y-107769774D01*
X110032815Y-107769788D01*
X110083736Y-107892724D01*
X110098604Y-107922871D01*
X110098605Y-107922873D01*
X110131856Y-107980466D01*
X110131856Y-107980465D01*
X110131857Y-107980466D01*
X110131860Y-107980471D01*
X110150536Y-108008422D01*
X110231538Y-108113986D01*
X110231543Y-108113992D01*
X110253708Y-108139267D01*
X110253709Y-108139267D01*
X110300733Y-108186291D01*
X110326010Y-108208458D01*
X110431574Y-108289460D01*
X110431577Y-108289462D01*
X110431578Y-108289463D01*
X110459519Y-108308135D01*
X110459519Y-108308134D01*
X110459521Y-108308135D01*
X110459524Y-108308137D01*
X110470807Y-108314652D01*
X110517119Y-108341391D01*
X110517124Y-108341393D01*
X110517125Y-108341394D01*
X110547283Y-108356266D01*
X110670217Y-108407187D01*
X110702053Y-108417994D01*
X110766299Y-108435209D01*
X110799274Y-108441768D01*
X110935201Y-108459663D01*
X110951912Y-108461309D01*
X110976914Y-108462949D01*
X110993724Y-108463500D01*
X126496276Y-108463500D01*
X126513086Y-108462949D01*
X126538088Y-108461309D01*
X126554799Y-108459663D01*
X126690726Y-108441768D01*
X126706986Y-108438533D01*
X126723692Y-108435211D01*
X126723697Y-108435209D01*
X126723700Y-108435209D01*
X126787946Y-108417994D01*
X126819782Y-108407187D01*
X126819787Y-108407185D01*
X126819788Y-108407185D01*
X126942719Y-108356266D01*
X126972867Y-108341397D01*
X126972869Y-108341396D01*
X126972869Y-108341395D01*
X126972873Y-108341394D01*
X126988305Y-108332484D01*
X127030473Y-108308139D01*
X127030472Y-108308139D01*
X127030475Y-108308137D01*
X127030601Y-108308052D01*
X127058420Y-108289465D01*
X127163991Y-108208457D01*
X127163990Y-108208458D01*
X127189264Y-108186293D01*
X127236293Y-108139264D01*
X127258458Y-108113990D01*
X127339465Y-108008420D01*
X127358139Y-107980472D01*
X127358139Y-107980473D01*
X127382483Y-107938305D01*
X127391394Y-107922873D01*
X127391397Y-107922867D01*
X127406266Y-107892719D01*
X127457185Y-107769788D01*
X127457185Y-107769787D01*
X127457187Y-107769782D01*
X127467994Y-107737946D01*
X127485209Y-107673700D01*
X127491768Y-107640726D01*
X127509663Y-107504799D01*
X127511309Y-107488088D01*
X127512949Y-107463086D01*
X127513500Y-107446276D01*
X127513500Y-89007929D01*
X148399000Y-89007929D01*
X148413987Y-89188800D01*
X148413989Y-89188809D01*
X148473423Y-89423508D01*
X148473426Y-89423515D01*
X148570684Y-89645241D01*
X148703113Y-89847940D01*
X148867093Y-90026070D01*
X148867098Y-90026074D01*
X148867100Y-90026076D01*
X149058170Y-90174792D01*
X149271112Y-90290030D01*
X149500117Y-90368648D01*
X149738938Y-90408500D01*
X149738942Y-90408500D01*
X149981058Y-90408500D01*
X149981062Y-90408500D01*
X150219883Y-90368648D01*
X150448888Y-90290030D01*
X150661830Y-90174792D01*
X150852900Y-90026076D01*
X150868440Y-90009196D01*
X151016884Y-89847942D01*
X151016883Y-89847942D01*
X151016886Y-89847940D01*
X151024514Y-89836264D01*
X151078512Y-89790174D01*
X151148860Y-89780595D01*
X151213219Y-89810568D01*
X151235480Y-89836257D01*
X151243113Y-89847939D01*
X151407093Y-90026070D01*
X151407098Y-90026074D01*
X151407100Y-90026076D01*
X151598170Y-90174792D01*
X151811112Y-90290030D01*
X152040117Y-90368648D01*
X152278938Y-90408500D01*
X152278942Y-90408500D01*
X152521058Y-90408500D01*
X152521062Y-90408500D01*
X152759883Y-90368648D01*
X152988888Y-90290030D01*
X153201830Y-90174792D01*
X153334094Y-90071846D01*
X153400135Y-90045790D01*
X153469780Y-90059575D01*
X153520917Y-90108825D01*
X153529538Y-90127241D01*
X153536610Y-90146202D01*
X153536612Y-90146206D01*
X153536612Y-90146207D01*
X153624238Y-90263261D01*
X153741292Y-90350887D01*
X153741294Y-90350888D01*
X153741296Y-90350889D01*
X153788904Y-90368646D01*
X153878295Y-90401988D01*
X153878303Y-90401990D01*
X153938850Y-90408499D01*
X153938855Y-90408499D01*
X153938862Y-90408500D01*
X153938868Y-90408500D01*
X155941132Y-90408500D01*
X155941138Y-90408500D01*
X155941145Y-90408499D01*
X155941149Y-90408499D01*
X156001696Y-90401990D01*
X156001699Y-90401989D01*
X156001701Y-90401989D01*
X156138704Y-90350889D01*
X156255761Y-90263261D01*
X156343389Y-90146204D01*
X156394489Y-90009201D01*
X156401000Y-89948638D01*
X156401000Y-87851362D01*
X156400999Y-87851350D01*
X156394490Y-87790803D01*
X156394488Y-87790795D01*
X156343389Y-87653797D01*
X156343387Y-87653792D01*
X156255761Y-87536738D01*
X156138707Y-87449112D01*
X156138702Y-87449110D01*
X156001704Y-87398011D01*
X156001696Y-87398009D01*
X155941149Y-87391500D01*
X155941138Y-87391500D01*
X153938862Y-87391500D01*
X153938850Y-87391500D01*
X153878303Y-87398009D01*
X153878295Y-87398011D01*
X153741297Y-87449110D01*
X153741292Y-87449112D01*
X153624238Y-87536738D01*
X153536612Y-87653792D01*
X153536610Y-87653797D01*
X153529538Y-87672757D01*
X153486990Y-87729592D01*
X153420469Y-87754400D01*
X153351095Y-87739307D01*
X153334096Y-87728155D01*
X153201830Y-87625208D01*
X153201829Y-87625207D01*
X153104125Y-87572332D01*
X152988888Y-87509970D01*
X152988885Y-87509969D01*
X152988884Y-87509968D01*
X152759887Y-87431353D01*
X152759880Y-87431351D01*
X152657670Y-87414295D01*
X152521062Y-87391500D01*
X152278938Y-87391500D01*
X152164789Y-87410548D01*
X152040119Y-87431351D01*
X152040112Y-87431353D01*
X151811115Y-87509968D01*
X151811112Y-87509970D01*
X151598170Y-87625207D01*
X151598169Y-87625208D01*
X151407093Y-87773929D01*
X151243114Y-87952058D01*
X151235482Y-87963741D01*
X151181478Y-88009828D01*
X151111130Y-88019403D01*
X151046773Y-87989425D01*
X151024518Y-87963741D01*
X151016885Y-87952058D01*
X150852906Y-87773929D01*
X150827815Y-87754400D01*
X150661830Y-87625208D01*
X150661829Y-87625207D01*
X150564125Y-87572332D01*
X150448888Y-87509970D01*
X150448885Y-87509969D01*
X150448884Y-87509968D01*
X150219887Y-87431353D01*
X150219880Y-87431351D01*
X150117670Y-87414295D01*
X149981062Y-87391500D01*
X149738938Y-87391500D01*
X149624789Y-87410548D01*
X149500119Y-87431351D01*
X149500112Y-87431353D01*
X149271115Y-87509968D01*
X149271112Y-87509970D01*
X149058170Y-87625207D01*
X149058169Y-87625208D01*
X148867093Y-87773929D01*
X148703113Y-87952059D01*
X148570684Y-88154758D01*
X148473426Y-88376484D01*
X148473423Y-88376491D01*
X148413989Y-88611190D01*
X148413987Y-88611199D01*
X148399000Y-88792071D01*
X148399000Y-89007929D01*
X127513500Y-89007929D01*
X127513500Y-87484688D01*
X127533502Y-87416568D01*
X127587158Y-87370075D01*
X127657432Y-87359971D01*
X127711770Y-87381475D01*
X127763251Y-87417523D01*
X127970757Y-87514284D01*
X128191913Y-87573543D01*
X128420000Y-87593498D01*
X128648087Y-87573543D01*
X128869243Y-87514284D01*
X129076749Y-87417523D01*
X129264300Y-87286198D01*
X129426198Y-87124300D01*
X129557523Y-86936749D01*
X129654284Y-86729243D01*
X129713543Y-86508087D01*
X129717229Y-86465961D01*
X161416500Y-86465961D01*
X161424375Y-86508087D01*
X161455441Y-86674278D01*
X161531993Y-86871880D01*
X161531998Y-86871891D01*
X161643558Y-87052066D01*
X161786326Y-87208675D01*
X161786329Y-87208677D01*
X161955446Y-87336389D01*
X162145150Y-87430850D01*
X162348982Y-87488845D01*
X162507128Y-87503500D01*
X162507132Y-87503500D01*
X172692123Y-87503500D01*
X172695033Y-87503567D01*
X172773037Y-87507173D01*
X172850373Y-87496385D01*
X172853259Y-87496051D01*
X172931013Y-87488846D01*
X172931015Y-87488845D01*
X172931018Y-87488845D01*
X172952374Y-87482768D01*
X172960916Y-87480965D01*
X172982927Y-87477896D01*
X173057025Y-87453059D01*
X173059734Y-87452221D01*
X173134850Y-87430850D01*
X173154738Y-87420946D01*
X173162797Y-87417608D01*
X173183862Y-87410549D01*
X173252109Y-87372533D01*
X173254580Y-87371230D01*
X173324554Y-87336389D01*
X173342287Y-87322996D01*
X173349590Y-87318238D01*
X173369002Y-87307426D01*
X173429090Y-87257528D01*
X173431345Y-87255742D01*
X173493671Y-87208677D01*
X173546287Y-87150958D01*
X173548256Y-87148895D01*
X177318895Y-83378256D01*
X177320958Y-83376288D01*
X177322705Y-83374694D01*
X177378677Y-83323671D01*
X177425746Y-83261340D01*
X177427532Y-83259085D01*
X177477426Y-83199001D01*
X177488230Y-83179602D01*
X177492997Y-83172286D01*
X177506389Y-83154554D01*
X177541195Y-83084652D01*
X177542549Y-83082084D01*
X177562340Y-83046552D01*
X177580549Y-83013862D01*
X177587608Y-82992797D01*
X177590946Y-82984738D01*
X177600850Y-82964850D01*
X177622221Y-82889734D01*
X177623059Y-82887025D01*
X177647896Y-82812927D01*
X177650967Y-82790906D01*
X177652766Y-82782380D01*
X177658845Y-82761018D01*
X177663278Y-82713172D01*
X177666048Y-82683283D01*
X177666383Y-82680391D01*
X177667888Y-82669597D01*
X177677174Y-82603037D01*
X177673567Y-82525018D01*
X177673500Y-82522108D01*
X177673500Y-74957890D01*
X177673567Y-74954979D01*
X177674213Y-74940987D01*
X177677174Y-74876963D01*
X177666383Y-74799609D01*
X177666048Y-74796717D01*
X177662986Y-74763675D01*
X177658845Y-74718982D01*
X177652766Y-74697617D01*
X177650965Y-74689083D01*
X177647896Y-74667073D01*
X177623063Y-74592985D01*
X177622217Y-74590251D01*
X177600850Y-74515150D01*
X177590950Y-74495268D01*
X177587609Y-74487204D01*
X177580549Y-74466138D01*
X177563760Y-74435996D01*
X177542558Y-74397931D01*
X177541200Y-74395356D01*
X177506389Y-74325447D01*
X177506389Y-74325446D01*
X177492993Y-74307707D01*
X177488232Y-74300400D01*
X177477426Y-74280999D01*
X177427549Y-74220933D01*
X177425744Y-74218653D01*
X177402021Y-74187242D01*
X177378677Y-74156329D01*
X177378672Y-74156324D01*
X177378671Y-74156323D01*
X177320958Y-74103711D01*
X177318875Y-74101722D01*
X173548298Y-70331145D01*
X173546288Y-70329040D01*
X173493669Y-70271321D01*
X173431337Y-70224249D01*
X173429085Y-70222466D01*
X173369002Y-70172574D01*
X173368993Y-70172569D01*
X173368990Y-70172567D01*
X173349597Y-70161764D01*
X173342285Y-70157001D01*
X173324554Y-70143611D01*
X173305565Y-70134156D01*
X173254644Y-70108799D01*
X173252070Y-70107442D01*
X173183862Y-70069451D01*
X173162800Y-70062391D01*
X173154732Y-70059050D01*
X173134857Y-70049153D01*
X173134852Y-70049151D01*
X173134850Y-70049150D01*
X173134846Y-70049149D01*
X173134844Y-70049148D01*
X173059756Y-70027784D01*
X173056996Y-70026929D01*
X172982927Y-70002104D01*
X172960921Y-69999033D01*
X172952380Y-69997232D01*
X172931019Y-69991154D01*
X172853275Y-69983950D01*
X172850385Y-69983615D01*
X172773041Y-69972827D01*
X172773036Y-69972827D01*
X172695033Y-69976433D01*
X172692123Y-69976500D01*
X168857128Y-69976500D01*
X168698983Y-69991154D01*
X168495158Y-70049147D01*
X168495150Y-70049150D01*
X168305444Y-70143612D01*
X168136326Y-70271324D01*
X167993558Y-70427933D01*
X167881998Y-70608108D01*
X167881993Y-70608119D01*
X167805441Y-70805721D01*
X167805440Y-70805725D01*
X167805440Y-70805726D01*
X167766500Y-71014039D01*
X167766500Y-71225961D01*
X167805440Y-71434274D01*
X167805441Y-71434278D01*
X167881993Y-71631880D01*
X167881998Y-71631891D01*
X167993558Y-71812066D01*
X168136326Y-71968675D01*
X168136329Y-71968677D01*
X168305446Y-72096389D01*
X168495150Y-72190850D01*
X168698982Y-72248845D01*
X168857128Y-72263500D01*
X168857132Y-72263500D01*
X172194157Y-72263500D01*
X172262278Y-72283502D01*
X172283252Y-72300405D01*
X175349595Y-75366748D01*
X175383621Y-75429060D01*
X175386500Y-75455843D01*
X175386500Y-82024156D01*
X175366498Y-82092277D01*
X175349595Y-82113251D01*
X172283252Y-85179595D01*
X172220940Y-85213621D01*
X172194157Y-85216500D01*
X162507128Y-85216500D01*
X162348983Y-85231154D01*
X162145158Y-85289147D01*
X162145150Y-85289150D01*
X161955444Y-85383612D01*
X161786326Y-85511324D01*
X161643558Y-85667933D01*
X161531998Y-85848108D01*
X161531993Y-85848119D01*
X161455441Y-86045721D01*
X161455440Y-86045725D01*
X161455440Y-86045726D01*
X161416500Y-86254039D01*
X161416500Y-86465961D01*
X129717229Y-86465961D01*
X129733498Y-86280000D01*
X129713543Y-86051913D01*
X129654284Y-85830757D01*
X129557523Y-85623251D01*
X129426198Y-85435700D01*
X129264300Y-85273802D01*
X129182464Y-85216500D01*
X129076749Y-85142477D01*
X128869246Y-85045717D01*
X128869240Y-85045715D01*
X128775771Y-85020670D01*
X128648087Y-84986457D01*
X128420000Y-84966502D01*
X128191913Y-84986457D01*
X127970759Y-85045715D01*
X127970753Y-85045717D01*
X127763251Y-85142476D01*
X127711770Y-85178524D01*
X127644496Y-85201211D01*
X127575636Y-85183926D01*
X127527052Y-85132156D01*
X127513500Y-85075310D01*
X127513500Y-77484689D01*
X127533502Y-77416568D01*
X127587158Y-77370075D01*
X127657432Y-77359971D01*
X127711770Y-77381475D01*
X127763251Y-77417523D01*
X127970757Y-77514284D01*
X128191913Y-77573543D01*
X128420000Y-77593498D01*
X128648087Y-77573543D01*
X128869243Y-77514284D01*
X129076749Y-77417523D01*
X129264300Y-77286198D01*
X129426198Y-77124300D01*
X129557523Y-76936749D01*
X129654284Y-76729243D01*
X129713543Y-76508087D01*
X129733498Y-76280000D01*
X129713543Y-76051913D01*
X129654284Y-75830757D01*
X129557523Y-75623251D01*
X129426198Y-75435700D01*
X129264300Y-75273802D01*
X129076749Y-75142477D01*
X129054615Y-75132156D01*
X128869246Y-75045717D01*
X128869240Y-75045715D01*
X128775771Y-75020670D01*
X128648087Y-74986457D01*
X128420000Y-74966502D01*
X128191913Y-74986457D01*
X127970759Y-75045715D01*
X127970753Y-75045717D01*
X127763251Y-75142476D01*
X127711770Y-75178524D01*
X127644496Y-75201211D01*
X127575636Y-75183926D01*
X127527052Y-75132156D01*
X127513500Y-75075310D01*
X127513500Y-71623723D01*
X127512949Y-71606913D01*
X127511309Y-71581912D01*
X127509663Y-71565201D01*
X127492426Y-71434274D01*
X127491768Y-71429273D01*
X127485209Y-71396299D01*
X127467994Y-71332053D01*
X127457187Y-71300217D01*
X127406267Y-71177283D01*
X127391394Y-71147126D01*
X127375733Y-71120001D01*
X127358142Y-71089532D01*
X127358136Y-71089523D01*
X127339459Y-71061571D01*
X127302986Y-71014039D01*
X127258468Y-70956022D01*
X127258467Y-70956022D01*
X127258457Y-70956009D01*
X127236290Y-70930733D01*
X127189266Y-70883708D01*
X127184338Y-70879386D01*
X127163992Y-70861543D01*
X127163993Y-70861544D01*
X127163991Y-70861543D01*
X127058422Y-70780536D01*
X127030465Y-70761856D01*
X127030466Y-70761856D01*
X126972880Y-70728609D01*
X126972877Y-70728607D01*
X126972871Y-70728604D01*
X126942724Y-70713736D01*
X126819776Y-70662810D01*
X126819774Y-70662809D01*
X126819771Y-70662808D01*
X126819772Y-70662808D01*
X126787925Y-70651998D01*
X126787924Y-70651998D01*
X126723697Y-70634790D01*
X126723698Y-70634790D01*
X126690720Y-70628231D01*
X126690719Y-70628231D01*
X126554797Y-70610337D01*
X126538090Y-70608691D01*
X126513089Y-70607051D01*
X126496277Y-70606500D01*
X110993723Y-70606500D01*
X110976911Y-70607051D01*
X110951911Y-70608691D01*
X110935204Y-70610337D01*
X110799273Y-70628230D01*
X110799273Y-70628231D01*
X110766302Y-70634789D01*
X110702073Y-70651998D01*
X110702067Y-70651999D01*
X110702067Y-70652000D01*
X110670228Y-70662808D01*
X110670223Y-70662810D01*
X110670222Y-70662810D01*
X110547279Y-70713734D01*
X110547280Y-70713733D01*
X110531997Y-70721270D01*
X110517118Y-70728608D01*
X110459530Y-70761858D01*
X110431578Y-70780535D01*
X110431577Y-70780536D01*
X110431577Y-70780535D01*
X110326001Y-70861549D01*
X110300732Y-70883709D01*
X110300727Y-70883713D01*
X110253713Y-70930727D01*
X110231549Y-70956000D01*
X110231550Y-70955999D01*
X110150535Y-71061577D01*
X110150536Y-71061577D01*
X110150535Y-71061578D01*
X110131858Y-71089530D01*
X110098608Y-71147118D01*
X110091270Y-71161997D01*
X110083733Y-71177280D01*
X110083734Y-71177279D01*
X110032810Y-71300222D01*
X110032810Y-71300223D01*
X110021998Y-71332073D01*
X110004790Y-71396300D01*
X110004790Y-71396301D01*
X110004789Y-71396307D01*
X109998231Y-71429278D01*
X109998231Y-71429279D01*
X109980337Y-71565203D01*
X109978691Y-71581910D01*
X109977051Y-71606910D01*
X109976500Y-71623722D01*
X109976500Y-107446277D01*
X104475500Y-107446277D01*
X104475499Y-64099999D01*
X111819654Y-64099999D01*
X111839022Y-64444885D01*
X111896883Y-64785434D01*
X111992514Y-65117378D01*
X112124699Y-65436501D01*
X112124704Y-65436512D01*
X112165709Y-65510705D01*
X112291791Y-65738836D01*
X112291798Y-65738847D01*
X112491678Y-66020550D01*
X112491685Y-66020559D01*
X112491689Y-66020564D01*
X112491696Y-66020572D01*
X112491697Y-66020573D01*
X112721865Y-66278134D01*
X112906857Y-66443451D01*
X112979436Y-66508311D01*
X112979442Y-66508315D01*
X112979449Y-66508321D01*
X113261152Y-66708201D01*
X113261163Y-66708208D01*
X113384726Y-66776498D01*
X113563488Y-66875296D01*
X113668050Y-66918607D01*
X113814390Y-66979223D01*
X113882626Y-67007487D01*
X114214559Y-67103115D01*
X114555111Y-67160977D01*
X114900000Y-67180346D01*
X115244889Y-67160977D01*
X115585441Y-67103115D01*
X115917374Y-67007487D01*
X116236512Y-66875296D01*
X116538843Y-66708204D01*
X116820564Y-66508311D01*
X117078134Y-66278134D01*
X117308311Y-66020564D01*
X117508204Y-65738843D01*
X117675296Y-65436512D01*
X117807487Y-65117374D01*
X117903115Y-64785441D01*
X117960977Y-64444889D01*
X117980346Y-64100000D01*
X117960977Y-63755111D01*
X117903115Y-63414559D01*
X117807487Y-63082626D01*
X117675296Y-62763488D01*
X117584434Y-62599085D01*
X117508208Y-62461163D01*
X117508201Y-62461152D01*
X117308321Y-62179449D01*
X117308315Y-62179442D01*
X117308311Y-62179436D01*
X117217490Y-62077806D01*
X117078134Y-61921865D01*
X116820573Y-61691697D01*
X116820572Y-61691696D01*
X116820564Y-61691689D01*
X116820559Y-61691685D01*
X116820550Y-61691678D01*
X116538847Y-61491798D01*
X116538836Y-61491791D01*
X116303453Y-61361701D01*
X116236512Y-61324704D01*
X116236505Y-61324701D01*
X116236501Y-61324699D01*
X115917378Y-61192514D01*
X115585434Y-61096883D01*
X115244885Y-61039022D01*
X114900000Y-61019654D01*
X114555114Y-61039022D01*
X114214565Y-61096883D01*
X113882621Y-61192514D01*
X113563498Y-61324699D01*
X113563475Y-61324711D01*
X113261163Y-61491791D01*
X113261152Y-61491798D01*
X112979449Y-61691678D01*
X112979426Y-61691697D01*
X112721865Y-61921865D01*
X112491697Y-62179426D01*
X112491678Y-62179449D01*
X112291798Y-62461152D01*
X112291791Y-62461163D01*
X112124711Y-62763475D01*
X112124699Y-62763498D01*
X111992514Y-63082621D01*
X111896883Y-63414565D01*
X111839022Y-63755114D01*
X111819654Y-64099999D01*
X104475499Y-64099999D01*
X104494462Y-63472479D01*
X104494692Y-63468680D01*
X104498610Y-63425564D01*
X104551335Y-62845336D01*
X104551791Y-62841590D01*
X104560026Y-62787487D01*
X104645968Y-62222811D01*
X104646654Y-62219067D01*
X104655161Y-62179436D01*
X104778020Y-61607099D01*
X104778924Y-61603434D01*
X104947002Y-61000505D01*
X104948130Y-60996887D01*
X105152303Y-60405217D01*
X105153653Y-60401658D01*
X105239748Y-60193808D01*
X105393174Y-59823402D01*
X105394727Y-59819952D01*
X105668736Y-59257192D01*
X105670500Y-59253833D01*
X105977988Y-58708642D01*
X105979925Y-58705437D01*
X106319788Y-58179781D01*
X106321905Y-58176712D01*
X106692879Y-57672545D01*
X106695222Y-57669555D01*
X106732513Y-57624809D01*
X107095942Y-57188726D01*
X107098442Y-57185904D01*
X107527465Y-56730145D01*
X107530151Y-56727460D01*
X107844758Y-56431309D01*
X107985904Y-56298442D01*
X107988726Y-56295942D01*
X108469555Y-55895222D01*
X108472552Y-55892874D01*
X108976712Y-55521905D01*
X108979781Y-55519788D01*
X109505437Y-55179925D01*
X109508642Y-55177988D01*
X110053839Y-54870496D01*
X110057192Y-54868736D01*
X110619952Y-54594727D01*
X110623402Y-54593174D01*
X111201665Y-54353650D01*
X111205210Y-54352305D01*
X111796898Y-54148126D01*
X111800505Y-54147002D01*
X112403434Y-53978924D01*
X112407099Y-53978020D01*
X113019071Y-53846653D01*
X113022811Y-53845968D01*
X113184569Y-53821348D01*
X113641602Y-53751789D01*
X113645336Y-53751335D01*
X114268680Y-53694691D01*
X114272479Y-53694462D01*
X114900000Y-53675500D01*
X114924531Y-53675500D01*
X189875469Y-53675500D01*
X189900000Y-53675500D01*
X190527520Y-53694462D01*
G37*
%TD.AperFunction*%
%TD*%
%TA.AperFunction,Conductor*%
%TO.N,Net-(J3-Pin_2)*%
G36*
X126496097Y-71120540D02*
G01*
X126548934Y-71127495D01*
X126607037Y-71135145D01*
X126638799Y-71143655D01*
X126730679Y-71181713D01*
X126759158Y-71198156D01*
X126838053Y-71258694D01*
X126861305Y-71281946D01*
X126921841Y-71360837D01*
X126938288Y-71389323D01*
X126976342Y-71481194D01*
X126984855Y-71512965D01*
X126999460Y-71623901D01*
X127000000Y-71632133D01*
X127000000Y-107437866D01*
X126999460Y-107446098D01*
X126984855Y-107557034D01*
X126976342Y-107588805D01*
X126938288Y-107680676D01*
X126921841Y-107709162D01*
X126861308Y-107788050D01*
X126838050Y-107811308D01*
X126759162Y-107871841D01*
X126730676Y-107888288D01*
X126638805Y-107926342D01*
X126607034Y-107934855D01*
X126496098Y-107949460D01*
X126487866Y-107950000D01*
X111002134Y-107950000D01*
X110993902Y-107949460D01*
X110882965Y-107934855D01*
X110851194Y-107926342D01*
X110759323Y-107888288D01*
X110730839Y-107871842D01*
X110651946Y-107811305D01*
X110628694Y-107788053D01*
X110568156Y-107709158D01*
X110551713Y-107680679D01*
X110513655Y-107588799D01*
X110505145Y-107557037D01*
X110490540Y-107446098D01*
X110490540Y-107446097D01*
X110490000Y-107437866D01*
X110490000Y-104140004D01*
X112187074Y-104140004D01*
X112206752Y-104427696D01*
X112206753Y-104427702D01*
X112265425Y-104710054D01*
X112265427Y-104710062D01*
X112362002Y-104981798D01*
X112494672Y-105237836D01*
X112494676Y-105237842D01*
X112638787Y-105442002D01*
X113581155Y-104499634D01*
X113670577Y-104641948D01*
X113798052Y-104769423D01*
X113940364Y-104858843D01*
X112999630Y-105799577D01*
X113081514Y-105866194D01*
X113327922Y-106016038D01*
X113592422Y-106130926D01*
X113870111Y-106208731D01*
X113870120Y-106208733D01*
X114155795Y-106247999D01*
X114155809Y-106248000D01*
X114444191Y-106248000D01*
X114444204Y-106247999D01*
X114729879Y-106208733D01*
X114729888Y-106208731D01*
X115007577Y-106130926D01*
X115272077Y-106016038D01*
X115518490Y-105866191D01*
X115600367Y-105799578D01*
X115600367Y-105799577D01*
X114659634Y-104858844D01*
X114801948Y-104769423D01*
X114929423Y-104641948D01*
X115018843Y-104499634D01*
X115961211Y-105442002D01*
X115961212Y-105442001D01*
X116105319Y-105237850D01*
X116105328Y-105237835D01*
X116237997Y-104981798D01*
X116334572Y-104710062D01*
X116334574Y-104710054D01*
X116393246Y-104427702D01*
X116393247Y-104427696D01*
X116412926Y-104140004D01*
X116412926Y-104139995D01*
X116393247Y-103852303D01*
X116393246Y-103852297D01*
X116334574Y-103569945D01*
X116334572Y-103569937D01*
X116237997Y-103298201D01*
X116105327Y-103042163D01*
X116105324Y-103042157D01*
X115961211Y-102837997D01*
X115018843Y-103780364D01*
X114929423Y-103638052D01*
X114801948Y-103510577D01*
X114659634Y-103421155D01*
X115600368Y-102480422D01*
X115600367Y-102480421D01*
X115518485Y-102413805D01*
X115272077Y-102263961D01*
X115007577Y-102149073D01*
X114729888Y-102071268D01*
X114729879Y-102071266D01*
X114444204Y-102032000D01*
X114155795Y-102032000D01*
X113870120Y-102071266D01*
X113870111Y-102071268D01*
X113592422Y-102149073D01*
X113327918Y-102263962D01*
X113081517Y-102413802D01*
X112999631Y-102480421D01*
X112999630Y-102480421D01*
X113940365Y-103421156D01*
X113798052Y-103510577D01*
X113670577Y-103638052D01*
X113581156Y-103780365D01*
X112638787Y-102837996D01*
X112494674Y-103042160D01*
X112494672Y-103042163D01*
X112362002Y-103298201D01*
X112265427Y-103569937D01*
X112265425Y-103569945D01*
X112206753Y-103852297D01*
X112206752Y-103852303D01*
X112187074Y-104139995D01*
X112187074Y-104140004D01*
X110490000Y-104140004D01*
X110490000Y-99060003D01*
X112186573Y-99060003D01*
X112206256Y-99347765D01*
X112206257Y-99347770D01*
X112206258Y-99347778D01*
X112238443Y-99502661D01*
X112264943Y-99630189D01*
X112264945Y-99630196D01*
X112361541Y-99901992D01*
X112494247Y-100158103D01*
X112660591Y-100393758D01*
X112857474Y-100604568D01*
X112857483Y-100604575D01*
X112857487Y-100604579D01*
X113081220Y-100786600D01*
X113081222Y-100786601D01*
X113081228Y-100786606D01*
X113327686Y-100936481D01*
X113592256Y-101051400D01*
X113870011Y-101129223D01*
X114155761Y-101168499D01*
X114155775Y-101168500D01*
X114444225Y-101168500D01*
X114444238Y-101168499D01*
X114656000Y-101139392D01*
X114729989Y-101129223D01*
X115007744Y-101051400D01*
X115272314Y-100936481D01*
X115518772Y-100786606D01*
X115742526Y-100604568D01*
X115939409Y-100393758D01*
X116105753Y-100158103D01*
X116238459Y-99901992D01*
X116335055Y-99630196D01*
X116393742Y-99347778D01*
X116413427Y-99060000D01*
X116393742Y-98772222D01*
X116335055Y-98489804D01*
X116238459Y-98218008D01*
X116105753Y-97961897D01*
X115939409Y-97726242D01*
X115742526Y-97515432D01*
X115742516Y-97515424D01*
X115742512Y-97515420D01*
X115518779Y-97333399D01*
X115518775Y-97333396D01*
X115518772Y-97333394D01*
X115272314Y-97183519D01*
X115272310Y-97183517D01*
X115272308Y-97183516D01*
X115163713Y-97136347D01*
X115007744Y-97068600D01*
X114780354Y-97004888D01*
X114729986Y-96990776D01*
X114729988Y-96990776D01*
X114444238Y-96951500D01*
X114444225Y-96951500D01*
X114155775Y-96951500D01*
X114155761Y-96951500D01*
X113870012Y-96990776D01*
X113697572Y-97039091D01*
X113592256Y-97068600D01*
X113592253Y-97068601D01*
X113592254Y-97068601D01*
X113327691Y-97183516D01*
X113081220Y-97333399D01*
X112857487Y-97515420D01*
X112857471Y-97515435D01*
X112660591Y-97726242D01*
X112494247Y-97961896D01*
X112494247Y-97961897D01*
X112361541Y-98218007D01*
X112264945Y-98489802D01*
X112264943Y-98489810D01*
X112206257Y-98772229D01*
X112206256Y-98772234D01*
X112186573Y-99059996D01*
X112186573Y-99060003D01*
X110490000Y-99060003D01*
X110490000Y-86280000D01*
X114107004Y-86280000D01*
X114126951Y-86508002D01*
X114186186Y-86729068D01*
X114186188Y-86729073D01*
X114282913Y-86936501D01*
X114332899Y-87007888D01*
X114935638Y-86405149D01*
X114960507Y-86489844D01*
X115038239Y-86610798D01*
X115146900Y-86704952D01*
X115277685Y-86764680D01*
X115292412Y-86766797D01*
X114692110Y-87367098D01*
X114692110Y-87367100D01*
X114763498Y-87417086D01*
X114970926Y-87513811D01*
X114970931Y-87513813D01*
X115191999Y-87573048D01*
X115191995Y-87573048D01*
X115420000Y-87592995D01*
X115648002Y-87573048D01*
X115869068Y-87513813D01*
X115869073Y-87513811D01*
X116076497Y-87417088D01*
X116147888Y-87367099D01*
X116147888Y-87367097D01*
X115547588Y-86766797D01*
X115562315Y-86764680D01*
X115693100Y-86704952D01*
X115801761Y-86610798D01*
X115879493Y-86489844D01*
X115904360Y-86405151D01*
X116507097Y-87007888D01*
X116507099Y-87007888D01*
X116557088Y-86936497D01*
X116653811Y-86729073D01*
X116653813Y-86729068D01*
X116713048Y-86508002D01*
X116732995Y-86280000D01*
X116713048Y-86051997D01*
X116653813Y-85830931D01*
X116653811Y-85830926D01*
X116557086Y-85623498D01*
X116507100Y-85552110D01*
X116507098Y-85552110D01*
X115904360Y-86154848D01*
X115879493Y-86070156D01*
X115801761Y-85949202D01*
X115693100Y-85855048D01*
X115562315Y-85795320D01*
X115547587Y-85793202D01*
X116147888Y-85192899D01*
X116147888Y-85192898D01*
X116076501Y-85142913D01*
X115869073Y-85046188D01*
X115869068Y-85046186D01*
X115648000Y-84986951D01*
X115648004Y-84986951D01*
X115420000Y-84967004D01*
X115191997Y-84986951D01*
X114970931Y-85046186D01*
X114970926Y-85046188D01*
X114763500Y-85142913D01*
X114692109Y-85192900D01*
X115292411Y-85793202D01*
X115277685Y-85795320D01*
X115146900Y-85855048D01*
X115038239Y-85949202D01*
X114960507Y-86070156D01*
X114935639Y-86154848D01*
X114332900Y-85552109D01*
X114282913Y-85623500D01*
X114186188Y-85830926D01*
X114186186Y-85830931D01*
X114126951Y-86051997D01*
X114107004Y-86280000D01*
X110490000Y-86280000D01*
X110490000Y-76280000D01*
X114106502Y-76280000D01*
X114126457Y-76508087D01*
X114185716Y-76729243D01*
X114282477Y-76936749D01*
X114413802Y-77124300D01*
X114575700Y-77286198D01*
X114763251Y-77417523D01*
X114970757Y-77514284D01*
X115191913Y-77573543D01*
X115420000Y-77593498D01*
X115648087Y-77573543D01*
X115869243Y-77514284D01*
X116076749Y-77417523D01*
X116264300Y-77286198D01*
X116426198Y-77124300D01*
X116557523Y-76936749D01*
X116654284Y-76729243D01*
X116713543Y-76508087D01*
X116733498Y-76280000D01*
X116713543Y-76051913D01*
X116654284Y-75830757D01*
X116557523Y-75623251D01*
X116426198Y-75435700D01*
X116264300Y-75273802D01*
X116076749Y-75142477D01*
X116076749Y-75142476D01*
X115869246Y-75045717D01*
X115869240Y-75045715D01*
X115775771Y-75020670D01*
X115648087Y-74986457D01*
X115420000Y-74966502D01*
X115191913Y-74986457D01*
X114970759Y-75045715D01*
X114970753Y-75045717D01*
X114763250Y-75142477D01*
X114575703Y-75273799D01*
X114575697Y-75273804D01*
X114413804Y-75435697D01*
X114413799Y-75435703D01*
X114282477Y-75623250D01*
X114185717Y-75830753D01*
X114185716Y-75830757D01*
X114126457Y-76051913D01*
X114106502Y-76280000D01*
X110490000Y-76280000D01*
X110490000Y-71632133D01*
X110490540Y-71623902D01*
X110495993Y-71582479D01*
X110505145Y-71512960D01*
X110513654Y-71481202D01*
X110551714Y-71389316D01*
X110568153Y-71360844D01*
X110628698Y-71281941D01*
X110651941Y-71258698D01*
X110730844Y-71198153D01*
X110759316Y-71181714D01*
X110851202Y-71143654D01*
X110882960Y-71135145D01*
X110945994Y-71126846D01*
X110993903Y-71120540D01*
X111002134Y-71120000D01*
X126487866Y-71120000D01*
X126496097Y-71120540D01*
G37*
%TD.AperFunction*%
%TD*%
%TA.AperFunction,Conductor*%
%TO.N,POWER_OUT*%
G36*
X193806097Y-67310540D02*
G01*
X193858934Y-67317495D01*
X193917037Y-67325145D01*
X193948799Y-67333655D01*
X194040679Y-67371713D01*
X194069158Y-67388156D01*
X194148053Y-67448694D01*
X194171305Y-67471946D01*
X194231841Y-67550837D01*
X194248288Y-67579323D01*
X194286342Y-67671194D01*
X194294855Y-67702965D01*
X194309460Y-67813901D01*
X194310000Y-67822133D01*
X194310000Y-103627866D01*
X194309460Y-103636098D01*
X194294855Y-103747034D01*
X194286342Y-103778805D01*
X194248288Y-103870676D01*
X194231841Y-103899162D01*
X194171308Y-103978050D01*
X194148050Y-104001308D01*
X194069162Y-104061841D01*
X194040676Y-104078288D01*
X193948805Y-104116342D01*
X193917034Y-104124855D01*
X193806098Y-104139460D01*
X193797866Y-104140000D01*
X190432921Y-104140000D01*
X190364800Y-104119998D01*
X190318307Y-104066342D01*
X190308203Y-103996068D01*
X190337697Y-103931488D01*
X190343826Y-103924905D01*
X191230673Y-103038058D01*
X192159918Y-102108812D01*
X192172378Y-102098833D01*
X192172192Y-102098608D01*
X192178293Y-102093559D01*
X192178303Y-102093553D01*
X192226426Y-102042306D01*
X192247639Y-102021094D01*
X192251957Y-102015525D01*
X192255801Y-102011024D01*
X192288217Y-101976506D01*
X192298017Y-101958677D01*
X192308876Y-101942147D01*
X192321349Y-101926068D01*
X192321348Y-101926068D01*
X192321350Y-101926067D01*
X192340160Y-101882597D01*
X192342759Y-101877291D01*
X192365569Y-101835803D01*
X192370629Y-101816094D01*
X192377036Y-101797382D01*
X192385115Y-101778713D01*
X192385115Y-101778712D01*
X192385117Y-101778708D01*
X192392524Y-101731936D01*
X192393727Y-101726132D01*
X192405499Y-101680288D01*
X192405500Y-101680281D01*
X192405500Y-101659934D01*
X192407051Y-101640223D01*
X192410235Y-101620121D01*
X192405780Y-101572988D01*
X192405500Y-101567055D01*
X192405500Y-99769869D01*
X192425502Y-99701748D01*
X192437858Y-99685565D01*
X192514247Y-99600727D01*
X192610407Y-99434173D01*
X192669837Y-99251266D01*
X192689940Y-99060000D01*
X192669837Y-98868734D01*
X192610407Y-98685827D01*
X192514247Y-98519273D01*
X192457907Y-98456701D01*
X192385560Y-98376350D01*
X192229972Y-98263310D01*
X192229971Y-98263309D01*
X192054277Y-98185085D01*
X191866161Y-98145100D01*
X191866160Y-98145100D01*
X191673840Y-98145100D01*
X191673839Y-98145100D01*
X191485722Y-98185085D01*
X191310028Y-98263309D01*
X191310027Y-98263310D01*
X191154439Y-98376350D01*
X191025750Y-98519276D01*
X190929594Y-98685824D01*
X190929590Y-98685832D01*
X190870162Y-98868733D01*
X190850060Y-99059999D01*
X190870162Y-99251266D01*
X190929590Y-99434167D01*
X190929594Y-99434175D01*
X191025750Y-99600723D01*
X191025751Y-99600725D01*
X191025753Y-99600727D01*
X191102137Y-99685560D01*
X191132853Y-99749566D01*
X191134500Y-99769869D01*
X191134500Y-101284576D01*
X191114498Y-101352697D01*
X191097595Y-101373671D01*
X189638672Y-102832595D01*
X189576360Y-102866620D01*
X189549577Y-102869500D01*
X186853863Y-102869500D01*
X186785742Y-102849498D01*
X186739249Y-102795842D01*
X186729145Y-102725568D01*
X186755352Y-102664940D01*
X186835175Y-102564844D01*
X186963171Y-102343148D01*
X186963173Y-102343144D01*
X187056693Y-102104856D01*
X187056694Y-102104854D01*
X187113658Y-101855281D01*
X187132788Y-101599999D01*
X187113658Y-101344718D01*
X187056694Y-101095145D01*
X187056693Y-101095143D01*
X186963173Y-100856855D01*
X186963171Y-100856851D01*
X186835175Y-100635155D01*
X186794747Y-100584460D01*
X186212332Y-101166874D01*
X186203716Y-101147522D01*
X186092514Y-100994466D01*
X185951920Y-100867874D01*
X185851115Y-100809674D01*
X186435578Y-100225211D01*
X186276390Y-100116678D01*
X186276389Y-100116677D01*
X186045753Y-100005610D01*
X186045746Y-100005607D01*
X185801141Y-99930156D01*
X185801129Y-99930154D01*
X185547992Y-99892000D01*
X185292008Y-99892000D01*
X185038870Y-99930154D01*
X185038862Y-99930155D01*
X184794239Y-100005613D01*
X184563611Y-100116677D01*
X184563603Y-100116682D01*
X184404421Y-100225210D01*
X184404421Y-100225212D01*
X184988884Y-100809675D01*
X184888080Y-100867874D01*
X184747486Y-100994466D01*
X184636284Y-101147521D01*
X184627666Y-101166876D01*
X184045252Y-100584461D01*
X184045250Y-100584461D01*
X184004828Y-100635148D01*
X184004825Y-100635153D01*
X183876828Y-100856851D01*
X183876826Y-100856855D01*
X183783306Y-101095143D01*
X183783305Y-101095145D01*
X183726341Y-101344718D01*
X183707211Y-101599999D01*
X183726341Y-101855281D01*
X183783305Y-102104854D01*
X183783306Y-102104856D01*
X183876826Y-102343144D01*
X183876828Y-102343148D01*
X184004824Y-102564844D01*
X184084648Y-102664940D01*
X184111482Y-102730670D01*
X184098520Y-102800474D01*
X184049877Y-102852188D01*
X183986137Y-102869500D01*
X183006000Y-102869500D01*
X182937879Y-102849498D01*
X182891386Y-102795842D01*
X182880000Y-102743500D01*
X182880000Y-96899999D01*
X183706709Y-96899999D01*
X183725845Y-97155356D01*
X183782826Y-97405002D01*
X183782827Y-97405005D01*
X183876374Y-97643362D01*
X183876376Y-97643366D01*
X184004410Y-97865127D01*
X184004412Y-97865130D01*
X184004413Y-97865131D01*
X184164069Y-98065334D01*
X184351781Y-98239505D01*
X184351787Y-98239509D01*
X184563345Y-98383748D01*
X184563352Y-98383752D01*
X184563355Y-98383754D01*
X184696360Y-98447806D01*
X184794060Y-98494856D01*
X184794073Y-98494861D01*
X185038746Y-98570332D01*
X185038748Y-98570332D01*
X185038757Y-98570335D01*
X185291966Y-98608500D01*
X185291970Y-98608500D01*
X185548030Y-98608500D01*
X185548034Y-98608500D01*
X185801243Y-98570335D01*
X185801253Y-98570332D01*
X186045929Y-98494860D01*
X186045930Y-98494859D01*
X186045935Y-98494858D01*
X186276646Y-98383754D01*
X186488219Y-98239505D01*
X186675931Y-98065334D01*
X186835587Y-97865131D01*
X186963622Y-97643369D01*
X187057174Y-97405001D01*
X187114155Y-97155353D01*
X187133291Y-96900000D01*
X187114155Y-96644647D01*
X187057174Y-96394999D01*
X187052013Y-96381849D01*
X186963625Y-96156637D01*
X186963623Y-96156633D01*
X186835589Y-95934872D01*
X186835587Y-95934869D01*
X186675931Y-95734666D01*
X186488219Y-95560495D01*
X186276646Y-95416246D01*
X186276643Y-95416245D01*
X186276641Y-95416243D01*
X186276640Y-95416242D01*
X186045936Y-95305142D01*
X186045929Y-95305139D01*
X185801253Y-95229667D01*
X185801245Y-95229665D01*
X185801243Y-95229665D01*
X185548034Y-95191500D01*
X185291966Y-95191500D01*
X185038757Y-95229665D01*
X185038755Y-95229665D01*
X185038746Y-95229667D01*
X184794073Y-95305138D01*
X184794060Y-95305143D01*
X184563352Y-95416247D01*
X184563345Y-95416251D01*
X184351787Y-95560490D01*
X184351782Y-95560494D01*
X184164070Y-95734665D01*
X184004410Y-95934872D01*
X183876376Y-96156633D01*
X183876374Y-96156637D01*
X183782827Y-96394994D01*
X183782826Y-96394997D01*
X183725845Y-96644643D01*
X183706709Y-96899999D01*
X182880000Y-96899999D01*
X182880000Y-86360004D01*
X188387074Y-86360004D01*
X188406752Y-86647696D01*
X188406753Y-86647702D01*
X188465425Y-86930054D01*
X188465427Y-86930062D01*
X188562002Y-87201798D01*
X188694672Y-87457836D01*
X188694676Y-87457842D01*
X188838787Y-87662002D01*
X189781155Y-86719634D01*
X189870577Y-86861948D01*
X189998052Y-86989423D01*
X190140364Y-87078843D01*
X189199630Y-88019577D01*
X189281514Y-88086194D01*
X189527922Y-88236038D01*
X189792422Y-88350926D01*
X190070111Y-88428731D01*
X190070120Y-88428733D01*
X190355795Y-88467999D01*
X190355809Y-88468000D01*
X190644191Y-88468000D01*
X190644204Y-88467999D01*
X190929879Y-88428733D01*
X190929888Y-88428731D01*
X191207577Y-88350926D01*
X191472077Y-88236038D01*
X191718490Y-88086191D01*
X191800367Y-88019578D01*
X191800367Y-88019577D01*
X190859634Y-87078844D01*
X191001948Y-86989423D01*
X191129423Y-86861948D01*
X191218844Y-86719634D01*
X192161211Y-87662002D01*
X192161212Y-87662001D01*
X192305319Y-87457850D01*
X192305328Y-87457835D01*
X192437997Y-87201798D01*
X192534572Y-86930062D01*
X192534574Y-86930054D01*
X192593246Y-86647702D01*
X192593247Y-86647696D01*
X192612926Y-86360004D01*
X192612926Y-86359995D01*
X192593247Y-86072303D01*
X192593246Y-86072297D01*
X192534574Y-85789945D01*
X192534572Y-85789937D01*
X192437997Y-85518201D01*
X192305327Y-85262163D01*
X192305324Y-85262157D01*
X192161211Y-85057997D01*
X191218843Y-86000364D01*
X191129423Y-85858052D01*
X191001948Y-85730577D01*
X190859634Y-85641155D01*
X191800368Y-84700422D01*
X191800367Y-84700421D01*
X191718485Y-84633805D01*
X191472077Y-84483961D01*
X191207577Y-84369073D01*
X190929888Y-84291268D01*
X190929879Y-84291266D01*
X190644204Y-84252000D01*
X190355795Y-84252000D01*
X190070120Y-84291266D01*
X190070111Y-84291268D01*
X189792422Y-84369073D01*
X189527918Y-84483962D01*
X189281517Y-84633802D01*
X189199631Y-84700421D01*
X189199630Y-84700421D01*
X190140365Y-85641156D01*
X189998052Y-85730577D01*
X189870577Y-85858052D01*
X189781156Y-86000365D01*
X188838787Y-85057996D01*
X188694674Y-85262160D01*
X188694672Y-85262163D01*
X188562002Y-85518201D01*
X188465427Y-85789937D01*
X188465425Y-85789945D01*
X188406753Y-86072297D01*
X188406752Y-86072303D01*
X188387074Y-86359995D01*
X188387074Y-86360004D01*
X182880000Y-86360004D01*
X182880000Y-81280004D01*
X188387074Y-81280004D01*
X188406752Y-81567696D01*
X188406753Y-81567702D01*
X188465425Y-81850054D01*
X188465427Y-81850062D01*
X188562002Y-82121798D01*
X188694672Y-82377836D01*
X188694676Y-82377842D01*
X188838787Y-82582002D01*
X189781155Y-81639634D01*
X189870577Y-81781948D01*
X189998052Y-81909423D01*
X190140364Y-81998843D01*
X189199630Y-82939577D01*
X189281514Y-83006194D01*
X189527922Y-83156038D01*
X189792422Y-83270926D01*
X190070111Y-83348731D01*
X190070120Y-83348733D01*
X190355795Y-83387999D01*
X190355809Y-83388000D01*
X190644191Y-83388000D01*
X190644204Y-83387999D01*
X190929879Y-83348733D01*
X190929888Y-83348731D01*
X191207577Y-83270926D01*
X191472077Y-83156038D01*
X191718490Y-83006191D01*
X191800367Y-82939578D01*
X191800367Y-82939577D01*
X190859634Y-81998844D01*
X191001948Y-81909423D01*
X191129423Y-81781948D01*
X191218844Y-81639634D01*
X192161211Y-82582002D01*
X192161212Y-82582001D01*
X192305319Y-82377850D01*
X192305328Y-82377835D01*
X192437997Y-82121798D01*
X192534572Y-81850062D01*
X192534574Y-81850054D01*
X192593246Y-81567702D01*
X192593247Y-81567696D01*
X192612926Y-81280004D01*
X192612926Y-81279995D01*
X192593247Y-80992303D01*
X192593246Y-80992297D01*
X192534574Y-80709945D01*
X192534572Y-80709937D01*
X192437997Y-80438201D01*
X192305327Y-80182163D01*
X192305324Y-80182157D01*
X192161211Y-79977997D01*
X191218843Y-80920364D01*
X191129423Y-80778052D01*
X191001948Y-80650577D01*
X190859634Y-80561155D01*
X191800368Y-79620422D01*
X191800367Y-79620421D01*
X191718485Y-79553805D01*
X191472077Y-79403961D01*
X191207577Y-79289073D01*
X190929888Y-79211268D01*
X190929879Y-79211266D01*
X190644204Y-79172000D01*
X190355795Y-79172000D01*
X190070120Y-79211266D01*
X190070111Y-79211268D01*
X189792422Y-79289073D01*
X189527918Y-79403962D01*
X189281517Y-79553802D01*
X189199631Y-79620421D01*
X189199630Y-79620421D01*
X190140365Y-80561156D01*
X189998052Y-80650577D01*
X189870577Y-80778052D01*
X189781156Y-80920365D01*
X188838787Y-79977996D01*
X188694674Y-80182160D01*
X188694672Y-80182163D01*
X188562002Y-80438201D01*
X188465427Y-80709937D01*
X188465425Y-80709945D01*
X188406753Y-80992297D01*
X188406752Y-80992303D01*
X188387074Y-81279995D01*
X188387074Y-81280004D01*
X182880000Y-81280004D01*
X182880000Y-76200004D01*
X188387074Y-76200004D01*
X188406752Y-76487696D01*
X188406753Y-76487702D01*
X188465425Y-76770054D01*
X188465427Y-76770062D01*
X188562002Y-77041798D01*
X188694672Y-77297836D01*
X188694676Y-77297842D01*
X188838787Y-77502002D01*
X189781155Y-76559634D01*
X189870577Y-76701948D01*
X189998052Y-76829423D01*
X190140364Y-76918843D01*
X189199630Y-77859577D01*
X189281514Y-77926194D01*
X189527922Y-78076038D01*
X189792422Y-78190926D01*
X190070111Y-78268731D01*
X190070120Y-78268733D01*
X190355795Y-78307999D01*
X190355809Y-78308000D01*
X190644191Y-78308000D01*
X190644204Y-78307999D01*
X190929879Y-78268733D01*
X190929888Y-78268731D01*
X191207577Y-78190926D01*
X191472077Y-78076038D01*
X191718490Y-77926191D01*
X191800367Y-77859578D01*
X191800367Y-77859577D01*
X190859634Y-76918844D01*
X191001948Y-76829423D01*
X191129423Y-76701948D01*
X191218843Y-76559634D01*
X192161211Y-77502002D01*
X192161212Y-77502001D01*
X192305319Y-77297850D01*
X192305328Y-77297835D01*
X192437997Y-77041798D01*
X192534572Y-76770062D01*
X192534574Y-76770054D01*
X192593246Y-76487702D01*
X192593247Y-76487696D01*
X192612926Y-76200004D01*
X192612926Y-76199995D01*
X192593247Y-75912303D01*
X192593246Y-75912297D01*
X192534574Y-75629945D01*
X192534572Y-75629937D01*
X192437997Y-75358201D01*
X192305327Y-75102163D01*
X192305324Y-75102157D01*
X192161211Y-74897997D01*
X191218843Y-75840364D01*
X191129423Y-75698052D01*
X191001948Y-75570577D01*
X190859634Y-75481155D01*
X191800368Y-74540421D01*
X191718485Y-74473805D01*
X191472077Y-74323961D01*
X191207577Y-74209073D01*
X190929888Y-74131268D01*
X190929879Y-74131266D01*
X190644204Y-74092000D01*
X190355795Y-74092000D01*
X190070120Y-74131266D01*
X190070111Y-74131268D01*
X189792422Y-74209073D01*
X189527918Y-74323962D01*
X189281517Y-74473802D01*
X189199631Y-74540421D01*
X189199630Y-74540422D01*
X190140364Y-75481156D01*
X189998052Y-75570577D01*
X189870577Y-75698052D01*
X189781156Y-75840365D01*
X188838787Y-74897996D01*
X188694674Y-75102160D01*
X188694672Y-75102163D01*
X188562002Y-75358201D01*
X188465427Y-75629937D01*
X188465425Y-75629945D01*
X188406753Y-75912297D01*
X188406752Y-75912303D01*
X188387074Y-76199995D01*
X188387074Y-76200004D01*
X182880000Y-76200004D01*
X182880000Y-71120004D01*
X188387074Y-71120004D01*
X188406752Y-71407696D01*
X188406753Y-71407702D01*
X188465425Y-71690054D01*
X188465427Y-71690062D01*
X188562002Y-71961798D01*
X188694672Y-72217836D01*
X188694676Y-72217842D01*
X188838787Y-72422001D01*
X189781155Y-71479633D01*
X189870577Y-71621948D01*
X189998052Y-71749423D01*
X190140364Y-71838843D01*
X189199630Y-72779577D01*
X189281514Y-72846194D01*
X189527922Y-72996038D01*
X189792422Y-73110926D01*
X190070111Y-73188731D01*
X190070120Y-73188733D01*
X190355795Y-73227999D01*
X190355809Y-73228000D01*
X190644191Y-73228000D01*
X190644204Y-73227999D01*
X190929879Y-73188733D01*
X190929888Y-73188731D01*
X191207577Y-73110926D01*
X191472077Y-72996038D01*
X191718490Y-72846191D01*
X191800367Y-72779578D01*
X191800367Y-72779577D01*
X190859634Y-71838844D01*
X191001948Y-71749423D01*
X191129423Y-71621948D01*
X191218843Y-71479634D01*
X192161211Y-72422002D01*
X192161212Y-72422001D01*
X192305319Y-72217850D01*
X192305328Y-72217835D01*
X192437997Y-71961798D01*
X192534572Y-71690062D01*
X192534574Y-71690054D01*
X192593246Y-71407702D01*
X192593247Y-71407696D01*
X192612926Y-71120004D01*
X192612926Y-71119995D01*
X192593247Y-70832303D01*
X192593246Y-70832297D01*
X192534574Y-70549945D01*
X192534572Y-70549937D01*
X192437997Y-70278201D01*
X192305327Y-70022163D01*
X192305324Y-70022157D01*
X192161211Y-69817997D01*
X191218843Y-70760364D01*
X191129423Y-70618052D01*
X191001948Y-70490577D01*
X190859633Y-70401155D01*
X191800368Y-69460421D01*
X191718485Y-69393805D01*
X191472077Y-69243961D01*
X191207577Y-69129073D01*
X190929888Y-69051268D01*
X190929879Y-69051266D01*
X190644204Y-69012000D01*
X190355795Y-69012000D01*
X190070120Y-69051266D01*
X190070111Y-69051268D01*
X189792422Y-69129073D01*
X189527918Y-69243962D01*
X189281517Y-69393802D01*
X189199631Y-69460421D01*
X189199630Y-69460421D01*
X190140365Y-70401156D01*
X189998052Y-70490577D01*
X189870577Y-70618052D01*
X189781156Y-70760364D01*
X188838787Y-69817996D01*
X188694674Y-70022160D01*
X188694672Y-70022163D01*
X188562002Y-70278201D01*
X188465427Y-70549937D01*
X188465425Y-70549945D01*
X188406753Y-70832297D01*
X188406752Y-70832303D01*
X188387074Y-71119995D01*
X188387074Y-71120004D01*
X182880000Y-71120004D01*
X182880000Y-67822133D01*
X182880540Y-67813902D01*
X182885993Y-67772479D01*
X182895145Y-67702960D01*
X182903654Y-67671202D01*
X182941714Y-67579316D01*
X182958153Y-67550844D01*
X183018698Y-67471941D01*
X183041941Y-67448698D01*
X183120844Y-67388153D01*
X183149316Y-67371714D01*
X183241202Y-67333654D01*
X183272960Y-67325145D01*
X183335994Y-67316846D01*
X183383903Y-67310540D01*
X183392134Y-67310000D01*
X193797866Y-67310000D01*
X193806097Y-67310540D01*
G37*
%TD.AperFunction*%
%TD*%
M02*
