M48
; DRILL file {KiCad 7.0.6} date Tue Jul 25 16:44:35 2023
; FORMAT={-:-/ absolute / inch / decimal}
; #@! TF.CreationDate,2023-07-25T16:44:35+08:00
; #@! TF.GenerationSoftware,Kicad,Pcbnew,7.0.6
; #@! TF.FileFunction,Plated,1,2,PTH
FMAT,2
INCH
; #@! TA.AperFunction,Plated,PTH,ViaDrill
T1C0.0160
; #@! TA.AperFunction,Plated,PTH,ViaDrill
T2C0.0240
; #@! TA.AperFunction,Plated,PTH,ComponentDrill
T3C0.0394
; #@! TA.AperFunction,Plated,PTH,ComponentDrill
T4C0.0433
; #@! TA.AperFunction,Plated,PTH,ComponentDrill
T5C0.0630
; #@! TA.AperFunction,Plated,PTH,ComponentDrill
T6C0.0709
%
G90
G05
T1
X7.55Y-3.9
T2
X4.2283Y-2.4252
X4.2283Y-2.8189
X4.2283Y-3.2126
X4.2283Y-3.6063
X4.2283Y-4.0
X4.2283Y-4.3937
X4.2283Y-4.7874
X4.2283Y-5.1811
X4.2283Y-5.5748
X4.4252Y-2.2283
X4.4252Y-5.7717
X4.8189Y-2.2283
X4.8189Y-5.7717
X5.2126Y-2.2283
X5.2126Y-5.7717
X5.6063Y-2.2283
X5.6063Y-5.7717
X6.0Y-2.2283
X6.0Y-5.7717
X6.3937Y-2.2283
X6.3937Y-5.7717
X6.4Y-3.4
X6.4Y-3.85
X6.65Y-2.8
X6.7874Y-2.2283
X6.7874Y-5.7717
X7.1811Y-2.2283
X7.1811Y-5.7717
X7.5748Y-2.2283
X7.5748Y-5.7717
X7.7717Y-2.4252
X7.7717Y-2.8189
X7.7717Y-3.2126
X7.7717Y-3.6063
X7.7717Y-4.0
X7.7717Y-4.3937
X7.7717Y-4.7874
X7.7717Y-5.1811
X7.7717Y-5.5748
T3
X4.5441Y-3.0031
X4.5441Y-3.3969
X5.0559Y-3.0031
X5.0559Y-3.3969
T4
X5.9Y-3.5
X6.0Y-3.5
X6.1Y-3.5
T5
X4.5Y-3.9
X4.5Y-4.1
X7.5Y-2.8
X7.5Y-3.0
X7.5Y-3.2
X7.5Y-3.4
X7.5Y-4.6
X7.5Y-4.8
X7.5Y-5.0
X7.5Y-5.2
T6
X7.3Y-3.815
X7.3Y-4.0
X7.3Y-4.185
T0
M30
