%TF.GenerationSoftware,KiCad,Pcbnew,7.0.6*%
%TF.CreationDate,2023-07-18T18:02:52+08:00*%
%TF.ProjectId,RelayModuleMK1_KiCad,52656c61-794d-46f6-9475-6c654d4b315f,rev?*%
%TF.SameCoordinates,Original*%
%TF.FileFunction,Legend,Top*%
%TF.FilePolarity,Positive*%
%FSLAX46Y46*%
G04 Gerber Fmt 4.6, Leading zero omitted, Abs format (unit mm)*
G04 Created by KiCad (PCBNEW 7.0.6) date 2023-07-18 18:02:52*
%MOMM*%
%LPD*%
G01*
G04 APERTURE LIST*
%ADD10C,0.152000*%
%ADD11C,0.200000*%
%ADD12C,0.300000*%
%ADD13C,0.150000*%
%ADD14C,0.120000*%
G04 APERTURE END LIST*
D10*
X264160000Y-33655000D02*
X264160000Y-31750000D01*
X223520000Y-118745000D02*
X238760000Y-118745000D01*
X213360000Y-33655000D02*
X213360000Y-31750000D01*
X269240000Y-33655000D02*
X254000000Y-33655000D01*
X238760000Y-118745000D02*
X254000000Y-118745000D01*
X228600000Y-118745000D02*
X228600000Y-120650000D01*
X264160000Y-118745000D02*
X264160000Y-120650000D01*
X213360000Y-118745000D02*
X213360000Y-120650000D01*
X254000000Y-118745000D02*
X269240000Y-118745000D01*
X238760000Y-120597500D02*
X238760000Y-108002500D01*
X243840000Y-118745000D02*
X243840000Y-120650000D01*
X269240000Y-120597500D02*
X269240000Y-108002500D01*
X238760000Y-31802500D02*
X238760000Y-44397500D01*
X259080000Y-33655000D02*
X259080000Y-31750000D01*
X233680000Y-33655000D02*
X233680000Y-31750000D01*
X254000000Y-120597500D02*
X254000000Y-108002500D01*
X254000000Y-33655000D02*
X238760000Y-33655000D01*
X238760000Y-33655000D02*
X223520000Y-33655000D01*
X233680000Y-118745000D02*
X233680000Y-120650000D01*
X248920000Y-33655000D02*
X248920000Y-31750000D01*
X269240000Y-31750000D02*
X269240000Y-44345000D01*
X208280000Y-120650000D02*
X208280000Y-108055000D01*
X223520000Y-33655000D02*
X208280000Y-33655000D01*
X248920000Y-118745000D02*
X248920000Y-120650000D01*
X254000000Y-31802500D02*
X254000000Y-44397500D01*
X223520000Y-31802500D02*
X223520000Y-44397500D01*
X223520000Y-120597500D02*
X223520000Y-108002500D01*
X208280000Y-118745000D02*
X223520000Y-118745000D01*
X259080000Y-118745000D02*
X259080000Y-120650000D01*
X228600000Y-33655000D02*
X228600000Y-31750000D01*
X218440000Y-33655000D02*
X218440000Y-31750000D01*
X218440000Y-118745000D02*
X218440000Y-120650000D01*
X243840000Y-33655000D02*
X243840000Y-31750000D01*
X208280000Y-31802500D02*
X208280000Y-44397500D01*
D11*
X247343898Y-32086828D02*
X247391517Y-32015400D01*
X247391517Y-32015400D02*
X247534374Y-31943971D01*
X247534374Y-31943971D02*
X247629612Y-31943971D01*
X247629612Y-31943971D02*
X247772469Y-32015400D01*
X247772469Y-32015400D02*
X247867707Y-32158257D01*
X247867707Y-32158257D02*
X247915326Y-32301114D01*
X247915326Y-32301114D02*
X247962945Y-32586828D01*
X247962945Y-32586828D02*
X247962945Y-32801114D01*
X247962945Y-32801114D02*
X247915326Y-33086828D01*
X247915326Y-33086828D02*
X247867707Y-33229685D01*
X247867707Y-33229685D02*
X247772469Y-33372542D01*
X247772469Y-33372542D02*
X247629612Y-33443971D01*
X247629612Y-33443971D02*
X247534374Y-33443971D01*
X247534374Y-33443971D02*
X247391517Y-33372542D01*
X247391517Y-33372542D02*
X247343898Y-33301114D01*
X246724850Y-33443971D02*
X246534374Y-33443971D01*
X246534374Y-33443971D02*
X246439136Y-33372542D01*
X246439136Y-33372542D02*
X246343898Y-33229685D01*
X246343898Y-33229685D02*
X246296279Y-32943971D01*
X246296279Y-32943971D02*
X246296279Y-32443971D01*
X246296279Y-32443971D02*
X246343898Y-32158257D01*
X246343898Y-32158257D02*
X246439136Y-32015400D01*
X246439136Y-32015400D02*
X246534374Y-31943971D01*
X246534374Y-31943971D02*
X246724850Y-31943971D01*
X246724850Y-31943971D02*
X246820088Y-32015400D01*
X246820088Y-32015400D02*
X246915326Y-32158257D01*
X246915326Y-32158257D02*
X246962945Y-32443971D01*
X246962945Y-32443971D02*
X246962945Y-32943971D01*
X246962945Y-32943971D02*
X246915326Y-33229685D01*
X246915326Y-33229685D02*
X246820088Y-33372542D01*
X246820088Y-33372542D02*
X246724850Y-33443971D01*
X245867707Y-31943971D02*
X245867707Y-33443971D01*
X245867707Y-33443971D02*
X245534374Y-32372542D01*
X245534374Y-32372542D02*
X245201041Y-33443971D01*
X245201041Y-33443971D02*
X245201041Y-31943971D01*
X244772469Y-33301114D02*
X244724850Y-33372542D01*
X244724850Y-33372542D02*
X244629612Y-33443971D01*
X244629612Y-33443971D02*
X244391517Y-33443971D01*
X244391517Y-33443971D02*
X244296279Y-33372542D01*
X244296279Y-33372542D02*
X244248660Y-33301114D01*
X244248660Y-33301114D02*
X244201041Y-33158257D01*
X244201041Y-33158257D02*
X244201041Y-33015400D01*
X244201041Y-33015400D02*
X244248660Y-32801114D01*
X244248660Y-32801114D02*
X244820088Y-31943971D01*
X244820088Y-31943971D02*
X244201041Y-31943971D01*
X260084673Y-120456028D02*
X260084673Y-118956028D01*
X260560863Y-120456028D02*
X260560863Y-118956028D01*
X260560863Y-118956028D02*
X261132291Y-120456028D01*
X261132291Y-120456028D02*
X261132291Y-118956028D01*
X261513244Y-118956028D02*
X262132291Y-118956028D01*
X262132291Y-118956028D02*
X261798958Y-119527457D01*
X261798958Y-119527457D02*
X261941815Y-119527457D01*
X261941815Y-119527457D02*
X262037053Y-119598885D01*
X262037053Y-119598885D02*
X262084672Y-119670314D01*
X262084672Y-119670314D02*
X262132291Y-119813171D01*
X262132291Y-119813171D02*
X262132291Y-120170314D01*
X262132291Y-120170314D02*
X262084672Y-120313171D01*
X262084672Y-120313171D02*
X262037053Y-120384600D01*
X262037053Y-120384600D02*
X261941815Y-120456028D01*
X261941815Y-120456028D02*
X261656101Y-120456028D01*
X261656101Y-120456028D02*
X261560863Y-120384600D01*
X261560863Y-120384600D02*
X261513244Y-120313171D01*
X262560863Y-119884600D02*
X263322768Y-119884600D01*
X262941815Y-120456028D02*
X262941815Y-119313171D01*
X242009850Y-33443971D02*
X241819374Y-33443971D01*
X241819374Y-33443971D02*
X241724136Y-33372542D01*
X241724136Y-33372542D02*
X241628898Y-33229685D01*
X241628898Y-33229685D02*
X241581279Y-32943971D01*
X241581279Y-32943971D02*
X241581279Y-32443971D01*
X241581279Y-32443971D02*
X241628898Y-32158257D01*
X241628898Y-32158257D02*
X241724136Y-32015400D01*
X241724136Y-32015400D02*
X241819374Y-31943971D01*
X241819374Y-31943971D02*
X242009850Y-31943971D01*
X242009850Y-31943971D02*
X242105088Y-32015400D01*
X242105088Y-32015400D02*
X242200326Y-32158257D01*
X242200326Y-32158257D02*
X242247945Y-32443971D01*
X242247945Y-32443971D02*
X242247945Y-32943971D01*
X242247945Y-32943971D02*
X242200326Y-33229685D01*
X242200326Y-33229685D02*
X242105088Y-33372542D01*
X242105088Y-33372542D02*
X242009850Y-33443971D01*
X240819374Y-32729685D02*
X240676517Y-32658257D01*
X240676517Y-32658257D02*
X240628898Y-32586828D01*
X240628898Y-32586828D02*
X240581279Y-32443971D01*
X240581279Y-32443971D02*
X240581279Y-32229685D01*
X240581279Y-32229685D02*
X240628898Y-32086828D01*
X240628898Y-32086828D02*
X240676517Y-32015400D01*
X240676517Y-32015400D02*
X240771755Y-31943971D01*
X240771755Y-31943971D02*
X241152707Y-31943971D01*
X241152707Y-31943971D02*
X241152707Y-33443971D01*
X241152707Y-33443971D02*
X240819374Y-33443971D01*
X240819374Y-33443971D02*
X240724136Y-33372542D01*
X240724136Y-33372542D02*
X240676517Y-33301114D01*
X240676517Y-33301114D02*
X240628898Y-33158257D01*
X240628898Y-33158257D02*
X240628898Y-33015400D01*
X240628898Y-33015400D02*
X240676517Y-32872542D01*
X240676517Y-32872542D02*
X240724136Y-32801114D01*
X240724136Y-32801114D02*
X240819374Y-32729685D01*
X240819374Y-32729685D02*
X241152707Y-32729685D01*
X240200326Y-33301114D02*
X240152707Y-33372542D01*
X240152707Y-33372542D02*
X240057469Y-33443971D01*
X240057469Y-33443971D02*
X239819374Y-33443971D01*
X239819374Y-33443971D02*
X239724136Y-33372542D01*
X239724136Y-33372542D02*
X239676517Y-33301114D01*
X239676517Y-33301114D02*
X239628898Y-33158257D01*
X239628898Y-33158257D02*
X239628898Y-33015400D01*
X239628898Y-33015400D02*
X239676517Y-32801114D01*
X239676517Y-32801114D02*
X240247945Y-31943971D01*
X240247945Y-31943971D02*
X239628898Y-31943971D01*
X224381816Y-118956028D02*
X224715149Y-120456028D01*
X224715149Y-120456028D02*
X225048482Y-118956028D01*
X225381816Y-120456028D02*
X225381816Y-118956028D01*
X225381816Y-118956028D02*
X225619911Y-118956028D01*
X225619911Y-118956028D02*
X225762768Y-119027457D01*
X225762768Y-119027457D02*
X225858006Y-119170314D01*
X225858006Y-119170314D02*
X225905625Y-119313171D01*
X225905625Y-119313171D02*
X225953244Y-119598885D01*
X225953244Y-119598885D02*
X225953244Y-119813171D01*
X225953244Y-119813171D02*
X225905625Y-120098885D01*
X225905625Y-120098885D02*
X225858006Y-120241742D01*
X225858006Y-120241742D02*
X225762768Y-120384600D01*
X225762768Y-120384600D02*
X225619911Y-120456028D01*
X225619911Y-120456028D02*
X225381816Y-120456028D01*
X226381816Y-120456028D02*
X226381816Y-118956028D01*
X226381816Y-118956028D02*
X226619911Y-118956028D01*
X226619911Y-118956028D02*
X226762768Y-119027457D01*
X226762768Y-119027457D02*
X226858006Y-119170314D01*
X226858006Y-119170314D02*
X226905625Y-119313171D01*
X226905625Y-119313171D02*
X226953244Y-119598885D01*
X226953244Y-119598885D02*
X226953244Y-119813171D01*
X226953244Y-119813171D02*
X226905625Y-120098885D01*
X226905625Y-120098885D02*
X226858006Y-120241742D01*
X226858006Y-120241742D02*
X226762768Y-120384600D01*
X226762768Y-120384600D02*
X226619911Y-120456028D01*
X226619911Y-120456028D02*
X226381816Y-120456028D01*
X227905625Y-120456028D02*
X227334197Y-120456028D01*
X227619911Y-120456028D02*
X227619911Y-118956028D01*
X227619911Y-118956028D02*
X227524673Y-119170314D01*
X227524673Y-119170314D02*
X227429435Y-119313171D01*
X227429435Y-119313171D02*
X227334197Y-119384600D01*
X239621816Y-118956028D02*
X239955149Y-120456028D01*
X239955149Y-120456028D02*
X240288482Y-118956028D01*
X240621816Y-120456028D02*
X240621816Y-118956028D01*
X240621816Y-118956028D02*
X240859911Y-118956028D01*
X240859911Y-118956028D02*
X241002768Y-119027457D01*
X241002768Y-119027457D02*
X241098006Y-119170314D01*
X241098006Y-119170314D02*
X241145625Y-119313171D01*
X241145625Y-119313171D02*
X241193244Y-119598885D01*
X241193244Y-119598885D02*
X241193244Y-119813171D01*
X241193244Y-119813171D02*
X241145625Y-120098885D01*
X241145625Y-120098885D02*
X241098006Y-120241742D01*
X241098006Y-120241742D02*
X241002768Y-120384600D01*
X241002768Y-120384600D02*
X240859911Y-120456028D01*
X240859911Y-120456028D02*
X240621816Y-120456028D01*
X241621816Y-120456028D02*
X241621816Y-118956028D01*
X241621816Y-118956028D02*
X241859911Y-118956028D01*
X241859911Y-118956028D02*
X242002768Y-119027457D01*
X242002768Y-119027457D02*
X242098006Y-119170314D01*
X242098006Y-119170314D02*
X242145625Y-119313171D01*
X242145625Y-119313171D02*
X242193244Y-119598885D01*
X242193244Y-119598885D02*
X242193244Y-119813171D01*
X242193244Y-119813171D02*
X242145625Y-120098885D01*
X242145625Y-120098885D02*
X242098006Y-120241742D01*
X242098006Y-120241742D02*
X242002768Y-120384600D01*
X242002768Y-120384600D02*
X241859911Y-120456028D01*
X241859911Y-120456028D02*
X241621816Y-120456028D01*
X242574197Y-119098885D02*
X242621816Y-119027457D01*
X242621816Y-119027457D02*
X242717054Y-118956028D01*
X242717054Y-118956028D02*
X242955149Y-118956028D01*
X242955149Y-118956028D02*
X243050387Y-119027457D01*
X243050387Y-119027457D02*
X243098006Y-119098885D01*
X243098006Y-119098885D02*
X243145625Y-119241742D01*
X243145625Y-119241742D02*
X243145625Y-119384600D01*
X243145625Y-119384600D02*
X243098006Y-119598885D01*
X243098006Y-119598885D02*
X242526578Y-120456028D01*
X242526578Y-120456028D02*
X243145625Y-120456028D01*
X257249850Y-33443971D02*
X257059374Y-33443971D01*
X257059374Y-33443971D02*
X256964136Y-33372542D01*
X256964136Y-33372542D02*
X256868898Y-33229685D01*
X256868898Y-33229685D02*
X256821279Y-32943971D01*
X256821279Y-32943971D02*
X256821279Y-32443971D01*
X256821279Y-32443971D02*
X256868898Y-32158257D01*
X256868898Y-32158257D02*
X256964136Y-32015400D01*
X256964136Y-32015400D02*
X257059374Y-31943971D01*
X257059374Y-31943971D02*
X257249850Y-31943971D01*
X257249850Y-31943971D02*
X257345088Y-32015400D01*
X257345088Y-32015400D02*
X257440326Y-32158257D01*
X257440326Y-32158257D02*
X257487945Y-32443971D01*
X257487945Y-32443971D02*
X257487945Y-32943971D01*
X257487945Y-32943971D02*
X257440326Y-33229685D01*
X257440326Y-33229685D02*
X257345088Y-33372542D01*
X257345088Y-33372542D02*
X257249850Y-33443971D01*
X256059374Y-32729685D02*
X255916517Y-32658257D01*
X255916517Y-32658257D02*
X255868898Y-32586828D01*
X255868898Y-32586828D02*
X255821279Y-32443971D01*
X255821279Y-32443971D02*
X255821279Y-32229685D01*
X255821279Y-32229685D02*
X255868898Y-32086828D01*
X255868898Y-32086828D02*
X255916517Y-32015400D01*
X255916517Y-32015400D02*
X256011755Y-31943971D01*
X256011755Y-31943971D02*
X256392707Y-31943971D01*
X256392707Y-31943971D02*
X256392707Y-33443971D01*
X256392707Y-33443971D02*
X256059374Y-33443971D01*
X256059374Y-33443971D02*
X255964136Y-33372542D01*
X255964136Y-33372542D02*
X255916517Y-33301114D01*
X255916517Y-33301114D02*
X255868898Y-33158257D01*
X255868898Y-33158257D02*
X255868898Y-33015400D01*
X255868898Y-33015400D02*
X255916517Y-32872542D01*
X255916517Y-32872542D02*
X255964136Y-32801114D01*
X255964136Y-32801114D02*
X256059374Y-32729685D01*
X256059374Y-32729685D02*
X256392707Y-32729685D01*
X255487945Y-33443971D02*
X254868898Y-33443971D01*
X254868898Y-33443971D02*
X255202231Y-32872542D01*
X255202231Y-32872542D02*
X255059374Y-32872542D01*
X255059374Y-32872542D02*
X254964136Y-32801114D01*
X254964136Y-32801114D02*
X254916517Y-32729685D01*
X254916517Y-32729685D02*
X254868898Y-32586828D01*
X254868898Y-32586828D02*
X254868898Y-32229685D01*
X254868898Y-32229685D02*
X254916517Y-32086828D01*
X254916517Y-32086828D02*
X254964136Y-32015400D01*
X254964136Y-32015400D02*
X255059374Y-31943971D01*
X255059374Y-31943971D02*
X255345088Y-31943971D01*
X255345088Y-31943971D02*
X255440326Y-32015400D01*
X255440326Y-32015400D02*
X255487945Y-32086828D01*
X209141816Y-118956028D02*
X209475149Y-120456028D01*
X209475149Y-120456028D02*
X209808482Y-118956028D01*
X210141816Y-120456028D02*
X210141816Y-118956028D01*
X210141816Y-118956028D02*
X210379911Y-118956028D01*
X210379911Y-118956028D02*
X210522768Y-119027457D01*
X210522768Y-119027457D02*
X210618006Y-119170314D01*
X210618006Y-119170314D02*
X210665625Y-119313171D01*
X210665625Y-119313171D02*
X210713244Y-119598885D01*
X210713244Y-119598885D02*
X210713244Y-119813171D01*
X210713244Y-119813171D02*
X210665625Y-120098885D01*
X210665625Y-120098885D02*
X210618006Y-120241742D01*
X210618006Y-120241742D02*
X210522768Y-120384600D01*
X210522768Y-120384600D02*
X210379911Y-120456028D01*
X210379911Y-120456028D02*
X210141816Y-120456028D01*
X211141816Y-120456028D02*
X211141816Y-118956028D01*
X211141816Y-118956028D02*
X211379911Y-118956028D01*
X211379911Y-118956028D02*
X211522768Y-119027457D01*
X211522768Y-119027457D02*
X211618006Y-119170314D01*
X211618006Y-119170314D02*
X211665625Y-119313171D01*
X211665625Y-119313171D02*
X211713244Y-119598885D01*
X211713244Y-119598885D02*
X211713244Y-119813171D01*
X211713244Y-119813171D02*
X211665625Y-120098885D01*
X211665625Y-120098885D02*
X211618006Y-120241742D01*
X211618006Y-120241742D02*
X211522768Y-120384600D01*
X211522768Y-120384600D02*
X211379911Y-120456028D01*
X211379911Y-120456028D02*
X211141816Y-120456028D01*
X212332292Y-118956028D02*
X212427530Y-118956028D01*
X212427530Y-118956028D02*
X212522768Y-119027457D01*
X212522768Y-119027457D02*
X212570387Y-119098885D01*
X212570387Y-119098885D02*
X212618006Y-119241742D01*
X212618006Y-119241742D02*
X212665625Y-119527457D01*
X212665625Y-119527457D02*
X212665625Y-119884600D01*
X212665625Y-119884600D02*
X212618006Y-120170314D01*
X212618006Y-120170314D02*
X212570387Y-120313171D01*
X212570387Y-120313171D02*
X212522768Y-120384600D01*
X212522768Y-120384600D02*
X212427530Y-120456028D01*
X212427530Y-120456028D02*
X212332292Y-120456028D01*
X212332292Y-120456028D02*
X212237054Y-120384600D01*
X212237054Y-120384600D02*
X212189435Y-120313171D01*
X212189435Y-120313171D02*
X212141816Y-120170314D01*
X212141816Y-120170314D02*
X212094197Y-119884600D01*
X212094197Y-119884600D02*
X212094197Y-119527457D01*
X212094197Y-119527457D02*
X212141816Y-119241742D01*
X212141816Y-119241742D02*
X212189435Y-119098885D01*
X212189435Y-119098885D02*
X212237054Y-119027457D01*
X212237054Y-119027457D02*
X212332292Y-118956028D01*
X219444673Y-120456028D02*
X219444673Y-118956028D01*
X219920863Y-120456028D02*
X219920863Y-118956028D01*
X219920863Y-118956028D02*
X220492291Y-120456028D01*
X220492291Y-120456028D02*
X220492291Y-118956028D01*
X221158958Y-118956028D02*
X221254196Y-118956028D01*
X221254196Y-118956028D02*
X221349434Y-119027457D01*
X221349434Y-119027457D02*
X221397053Y-119098885D01*
X221397053Y-119098885D02*
X221444672Y-119241742D01*
X221444672Y-119241742D02*
X221492291Y-119527457D01*
X221492291Y-119527457D02*
X221492291Y-119884600D01*
X221492291Y-119884600D02*
X221444672Y-120170314D01*
X221444672Y-120170314D02*
X221397053Y-120313171D01*
X221397053Y-120313171D02*
X221349434Y-120384600D01*
X221349434Y-120384600D02*
X221254196Y-120456028D01*
X221254196Y-120456028D02*
X221158958Y-120456028D01*
X221158958Y-120456028D02*
X221063720Y-120384600D01*
X221063720Y-120384600D02*
X221016101Y-120313171D01*
X221016101Y-120313171D02*
X220968482Y-120170314D01*
X220968482Y-120170314D02*
X220920863Y-119884600D01*
X220920863Y-119884600D02*
X220920863Y-119527457D01*
X220920863Y-119527457D02*
X220968482Y-119241742D01*
X220968482Y-119241742D02*
X221016101Y-119098885D01*
X221016101Y-119098885D02*
X221063720Y-119027457D01*
X221063720Y-119027457D02*
X221158958Y-118956028D01*
X221920863Y-119884600D02*
X222682768Y-119884600D01*
X244844673Y-120456028D02*
X244844673Y-118956028D01*
X245320863Y-120456028D02*
X245320863Y-118956028D01*
X245320863Y-118956028D02*
X245892291Y-120456028D01*
X245892291Y-120456028D02*
X245892291Y-118956028D01*
X246320863Y-119098885D02*
X246368482Y-119027457D01*
X246368482Y-119027457D02*
X246463720Y-118956028D01*
X246463720Y-118956028D02*
X246701815Y-118956028D01*
X246701815Y-118956028D02*
X246797053Y-119027457D01*
X246797053Y-119027457D02*
X246844672Y-119098885D01*
X246844672Y-119098885D02*
X246892291Y-119241742D01*
X246892291Y-119241742D02*
X246892291Y-119384600D01*
X246892291Y-119384600D02*
X246844672Y-119598885D01*
X246844672Y-119598885D02*
X246273244Y-120456028D01*
X246273244Y-120456028D02*
X246892291Y-120456028D01*
X247320863Y-119884600D02*
X248082768Y-119884600D01*
X247701815Y-120456028D02*
X247701815Y-119313171D01*
X249924673Y-120456028D02*
X249924673Y-118956028D01*
X250400863Y-120456028D02*
X250400863Y-118956028D01*
X250400863Y-118956028D02*
X250972291Y-120456028D01*
X250972291Y-120456028D02*
X250972291Y-118956028D01*
X251400863Y-119098885D02*
X251448482Y-119027457D01*
X251448482Y-119027457D02*
X251543720Y-118956028D01*
X251543720Y-118956028D02*
X251781815Y-118956028D01*
X251781815Y-118956028D02*
X251877053Y-119027457D01*
X251877053Y-119027457D02*
X251924672Y-119098885D01*
X251924672Y-119098885D02*
X251972291Y-119241742D01*
X251972291Y-119241742D02*
X251972291Y-119384600D01*
X251972291Y-119384600D02*
X251924672Y-119598885D01*
X251924672Y-119598885D02*
X251353244Y-120456028D01*
X251353244Y-120456028D02*
X251972291Y-120456028D01*
X252400863Y-119884600D02*
X253162768Y-119884600D01*
X234684673Y-120456028D02*
X234684673Y-118956028D01*
X235160863Y-120456028D02*
X235160863Y-118956028D01*
X235160863Y-118956028D02*
X235732291Y-120456028D01*
X235732291Y-120456028D02*
X235732291Y-118956028D01*
X236732291Y-120456028D02*
X236160863Y-120456028D01*
X236446577Y-120456028D02*
X236446577Y-118956028D01*
X236446577Y-118956028D02*
X236351339Y-119170314D01*
X236351339Y-119170314D02*
X236256101Y-119313171D01*
X236256101Y-119313171D02*
X236160863Y-119384600D01*
X237160863Y-119884600D02*
X237922768Y-119884600D01*
X226769850Y-33443971D02*
X226579374Y-33443971D01*
X226579374Y-33443971D02*
X226484136Y-33372542D01*
X226484136Y-33372542D02*
X226388898Y-33229685D01*
X226388898Y-33229685D02*
X226341279Y-32943971D01*
X226341279Y-32943971D02*
X226341279Y-32443971D01*
X226341279Y-32443971D02*
X226388898Y-32158257D01*
X226388898Y-32158257D02*
X226484136Y-32015400D01*
X226484136Y-32015400D02*
X226579374Y-31943971D01*
X226579374Y-31943971D02*
X226769850Y-31943971D01*
X226769850Y-31943971D02*
X226865088Y-32015400D01*
X226865088Y-32015400D02*
X226960326Y-32158257D01*
X226960326Y-32158257D02*
X227007945Y-32443971D01*
X227007945Y-32443971D02*
X227007945Y-32943971D01*
X227007945Y-32943971D02*
X226960326Y-33229685D01*
X226960326Y-33229685D02*
X226865088Y-33372542D01*
X226865088Y-33372542D02*
X226769850Y-33443971D01*
X225579374Y-32729685D02*
X225436517Y-32658257D01*
X225436517Y-32658257D02*
X225388898Y-32586828D01*
X225388898Y-32586828D02*
X225341279Y-32443971D01*
X225341279Y-32443971D02*
X225341279Y-32229685D01*
X225341279Y-32229685D02*
X225388898Y-32086828D01*
X225388898Y-32086828D02*
X225436517Y-32015400D01*
X225436517Y-32015400D02*
X225531755Y-31943971D01*
X225531755Y-31943971D02*
X225912707Y-31943971D01*
X225912707Y-31943971D02*
X225912707Y-33443971D01*
X225912707Y-33443971D02*
X225579374Y-33443971D01*
X225579374Y-33443971D02*
X225484136Y-33372542D01*
X225484136Y-33372542D02*
X225436517Y-33301114D01*
X225436517Y-33301114D02*
X225388898Y-33158257D01*
X225388898Y-33158257D02*
X225388898Y-33015400D01*
X225388898Y-33015400D02*
X225436517Y-32872542D01*
X225436517Y-32872542D02*
X225484136Y-32801114D01*
X225484136Y-32801114D02*
X225579374Y-32729685D01*
X225579374Y-32729685D02*
X225912707Y-32729685D01*
X224388898Y-31943971D02*
X224960326Y-31943971D01*
X224674612Y-31943971D02*
X224674612Y-33443971D01*
X224674612Y-33443971D02*
X224769850Y-33229685D01*
X224769850Y-33229685D02*
X224865088Y-33086828D01*
X224865088Y-33086828D02*
X224960326Y-33015400D01*
X221689850Y-33443971D02*
X221499374Y-33443971D01*
X221499374Y-33443971D02*
X221404136Y-33372542D01*
X221404136Y-33372542D02*
X221308898Y-33229685D01*
X221308898Y-33229685D02*
X221261279Y-32943971D01*
X221261279Y-32943971D02*
X221261279Y-32443971D01*
X221261279Y-32443971D02*
X221308898Y-32158257D01*
X221308898Y-32158257D02*
X221404136Y-32015400D01*
X221404136Y-32015400D02*
X221499374Y-31943971D01*
X221499374Y-31943971D02*
X221689850Y-31943971D01*
X221689850Y-31943971D02*
X221785088Y-32015400D01*
X221785088Y-32015400D02*
X221880326Y-32158257D01*
X221880326Y-32158257D02*
X221927945Y-32443971D01*
X221927945Y-32443971D02*
X221927945Y-32943971D01*
X221927945Y-32943971D02*
X221880326Y-33229685D01*
X221880326Y-33229685D02*
X221785088Y-33372542D01*
X221785088Y-33372542D02*
X221689850Y-33443971D01*
X220880326Y-32372542D02*
X220404136Y-32372542D01*
X220975564Y-31943971D02*
X220642231Y-33443971D01*
X220642231Y-33443971D02*
X220308898Y-31943971D01*
X219785088Y-33443971D02*
X219689850Y-33443971D01*
X219689850Y-33443971D02*
X219594612Y-33372542D01*
X219594612Y-33372542D02*
X219546993Y-33301114D01*
X219546993Y-33301114D02*
X219499374Y-33158257D01*
X219499374Y-33158257D02*
X219451755Y-32872542D01*
X219451755Y-32872542D02*
X219451755Y-32515400D01*
X219451755Y-32515400D02*
X219499374Y-32229685D01*
X219499374Y-32229685D02*
X219546993Y-32086828D01*
X219546993Y-32086828D02*
X219594612Y-32015400D01*
X219594612Y-32015400D02*
X219689850Y-31943971D01*
X219689850Y-31943971D02*
X219785088Y-31943971D01*
X219785088Y-31943971D02*
X219880326Y-32015400D01*
X219880326Y-32015400D02*
X219927945Y-32086828D01*
X219927945Y-32086828D02*
X219975564Y-32229685D01*
X219975564Y-32229685D02*
X220023183Y-32515400D01*
X220023183Y-32515400D02*
X220023183Y-32872542D01*
X220023183Y-32872542D02*
X219975564Y-33158257D01*
X219975564Y-33158257D02*
X219927945Y-33301114D01*
X219927945Y-33301114D02*
X219880326Y-33372542D01*
X219880326Y-33372542D02*
X219785088Y-33443971D01*
X216863898Y-32086828D02*
X216911517Y-32015400D01*
X216911517Y-32015400D02*
X217054374Y-31943971D01*
X217054374Y-31943971D02*
X217149612Y-31943971D01*
X217149612Y-31943971D02*
X217292469Y-32015400D01*
X217292469Y-32015400D02*
X217387707Y-32158257D01*
X217387707Y-32158257D02*
X217435326Y-32301114D01*
X217435326Y-32301114D02*
X217482945Y-32586828D01*
X217482945Y-32586828D02*
X217482945Y-32801114D01*
X217482945Y-32801114D02*
X217435326Y-33086828D01*
X217435326Y-33086828D02*
X217387707Y-33229685D01*
X217387707Y-33229685D02*
X217292469Y-33372542D01*
X217292469Y-33372542D02*
X217149612Y-33443971D01*
X217149612Y-33443971D02*
X217054374Y-33443971D01*
X217054374Y-33443971D02*
X216911517Y-33372542D01*
X216911517Y-33372542D02*
X216863898Y-33301114D01*
X216244850Y-33443971D02*
X216054374Y-33443971D01*
X216054374Y-33443971D02*
X215959136Y-33372542D01*
X215959136Y-33372542D02*
X215863898Y-33229685D01*
X215863898Y-33229685D02*
X215816279Y-32943971D01*
X215816279Y-32943971D02*
X215816279Y-32443971D01*
X215816279Y-32443971D02*
X215863898Y-32158257D01*
X215863898Y-32158257D02*
X215959136Y-32015400D01*
X215959136Y-32015400D02*
X216054374Y-31943971D01*
X216054374Y-31943971D02*
X216244850Y-31943971D01*
X216244850Y-31943971D02*
X216340088Y-32015400D01*
X216340088Y-32015400D02*
X216435326Y-32158257D01*
X216435326Y-32158257D02*
X216482945Y-32443971D01*
X216482945Y-32443971D02*
X216482945Y-32943971D01*
X216482945Y-32943971D02*
X216435326Y-33229685D01*
X216435326Y-33229685D02*
X216340088Y-33372542D01*
X216340088Y-33372542D02*
X216244850Y-33443971D01*
X215387707Y-31943971D02*
X215387707Y-33443971D01*
X215387707Y-33443971D02*
X215054374Y-32372542D01*
X215054374Y-32372542D02*
X214721041Y-33443971D01*
X214721041Y-33443971D02*
X214721041Y-31943971D01*
X214054374Y-33443971D02*
X213959136Y-33443971D01*
X213959136Y-33443971D02*
X213863898Y-33372542D01*
X213863898Y-33372542D02*
X213816279Y-33301114D01*
X213816279Y-33301114D02*
X213768660Y-33158257D01*
X213768660Y-33158257D02*
X213721041Y-32872542D01*
X213721041Y-32872542D02*
X213721041Y-32515400D01*
X213721041Y-32515400D02*
X213768660Y-32229685D01*
X213768660Y-32229685D02*
X213816279Y-32086828D01*
X213816279Y-32086828D02*
X213863898Y-32015400D01*
X213863898Y-32015400D02*
X213959136Y-31943971D01*
X213959136Y-31943971D02*
X214054374Y-31943971D01*
X214054374Y-31943971D02*
X214149612Y-32015400D01*
X214149612Y-32015400D02*
X214197231Y-32086828D01*
X214197231Y-32086828D02*
X214244850Y-32229685D01*
X214244850Y-32229685D02*
X214292469Y-32515400D01*
X214292469Y-32515400D02*
X214292469Y-32872542D01*
X214292469Y-32872542D02*
X214244850Y-33158257D01*
X214244850Y-33158257D02*
X214197231Y-33301114D01*
X214197231Y-33301114D02*
X214149612Y-33372542D01*
X214149612Y-33372542D02*
X214054374Y-33443971D01*
X267409850Y-33443971D02*
X267219374Y-33443971D01*
X267219374Y-33443971D02*
X267124136Y-33372542D01*
X267124136Y-33372542D02*
X267028898Y-33229685D01*
X267028898Y-33229685D02*
X266981279Y-32943971D01*
X266981279Y-32943971D02*
X266981279Y-32443971D01*
X266981279Y-32443971D02*
X267028898Y-32158257D01*
X267028898Y-32158257D02*
X267124136Y-32015400D01*
X267124136Y-32015400D02*
X267219374Y-31943971D01*
X267219374Y-31943971D02*
X267409850Y-31943971D01*
X267409850Y-31943971D02*
X267505088Y-32015400D01*
X267505088Y-32015400D02*
X267600326Y-32158257D01*
X267600326Y-32158257D02*
X267647945Y-32443971D01*
X267647945Y-32443971D02*
X267647945Y-32943971D01*
X267647945Y-32943971D02*
X267600326Y-33229685D01*
X267600326Y-33229685D02*
X267505088Y-33372542D01*
X267505088Y-33372542D02*
X267409850Y-33443971D01*
X266600326Y-32372542D02*
X266124136Y-32372542D01*
X266695564Y-31943971D02*
X266362231Y-33443971D01*
X266362231Y-33443971D02*
X266028898Y-31943971D01*
X265790802Y-33443971D02*
X265171755Y-33443971D01*
X265171755Y-33443971D02*
X265505088Y-32872542D01*
X265505088Y-32872542D02*
X265362231Y-32872542D01*
X265362231Y-32872542D02*
X265266993Y-32801114D01*
X265266993Y-32801114D02*
X265219374Y-32729685D01*
X265219374Y-32729685D02*
X265171755Y-32586828D01*
X265171755Y-32586828D02*
X265171755Y-32229685D01*
X265171755Y-32229685D02*
X265219374Y-32086828D01*
X265219374Y-32086828D02*
X265266993Y-32015400D01*
X265266993Y-32015400D02*
X265362231Y-31943971D01*
X265362231Y-31943971D02*
X265647945Y-31943971D01*
X265647945Y-31943971D02*
X265743183Y-32015400D01*
X265743183Y-32015400D02*
X265790802Y-32086828D01*
X236929850Y-33443971D02*
X236739374Y-33443971D01*
X236739374Y-33443971D02*
X236644136Y-33372542D01*
X236644136Y-33372542D02*
X236548898Y-33229685D01*
X236548898Y-33229685D02*
X236501279Y-32943971D01*
X236501279Y-32943971D02*
X236501279Y-32443971D01*
X236501279Y-32443971D02*
X236548898Y-32158257D01*
X236548898Y-32158257D02*
X236644136Y-32015400D01*
X236644136Y-32015400D02*
X236739374Y-31943971D01*
X236739374Y-31943971D02*
X236929850Y-31943971D01*
X236929850Y-31943971D02*
X237025088Y-32015400D01*
X237025088Y-32015400D02*
X237120326Y-32158257D01*
X237120326Y-32158257D02*
X237167945Y-32443971D01*
X237167945Y-32443971D02*
X237167945Y-32943971D01*
X237167945Y-32943971D02*
X237120326Y-33229685D01*
X237120326Y-33229685D02*
X237025088Y-33372542D01*
X237025088Y-33372542D02*
X236929850Y-33443971D01*
X236120326Y-32372542D02*
X235644136Y-32372542D01*
X236215564Y-31943971D02*
X235882231Y-33443971D01*
X235882231Y-33443971D02*
X235548898Y-31943971D01*
X234691755Y-31943971D02*
X235263183Y-31943971D01*
X234977469Y-31943971D02*
X234977469Y-33443971D01*
X234977469Y-33443971D02*
X235072707Y-33229685D01*
X235072707Y-33229685D02*
X235167945Y-33086828D01*
X235167945Y-33086828D02*
X235263183Y-33015400D01*
X211529850Y-33443971D02*
X211339374Y-33443971D01*
X211339374Y-33443971D02*
X211244136Y-33372542D01*
X211244136Y-33372542D02*
X211148898Y-33229685D01*
X211148898Y-33229685D02*
X211101279Y-32943971D01*
X211101279Y-32943971D02*
X211101279Y-32443971D01*
X211101279Y-32443971D02*
X211148898Y-32158257D01*
X211148898Y-32158257D02*
X211244136Y-32015400D01*
X211244136Y-32015400D02*
X211339374Y-31943971D01*
X211339374Y-31943971D02*
X211529850Y-31943971D01*
X211529850Y-31943971D02*
X211625088Y-32015400D01*
X211625088Y-32015400D02*
X211720326Y-32158257D01*
X211720326Y-32158257D02*
X211767945Y-32443971D01*
X211767945Y-32443971D02*
X211767945Y-32943971D01*
X211767945Y-32943971D02*
X211720326Y-33229685D01*
X211720326Y-33229685D02*
X211625088Y-33372542D01*
X211625088Y-33372542D02*
X211529850Y-33443971D01*
X210339374Y-32729685D02*
X210196517Y-32658257D01*
X210196517Y-32658257D02*
X210148898Y-32586828D01*
X210148898Y-32586828D02*
X210101279Y-32443971D01*
X210101279Y-32443971D02*
X210101279Y-32229685D01*
X210101279Y-32229685D02*
X210148898Y-32086828D01*
X210148898Y-32086828D02*
X210196517Y-32015400D01*
X210196517Y-32015400D02*
X210291755Y-31943971D01*
X210291755Y-31943971D02*
X210672707Y-31943971D01*
X210672707Y-31943971D02*
X210672707Y-33443971D01*
X210672707Y-33443971D02*
X210339374Y-33443971D01*
X210339374Y-33443971D02*
X210244136Y-33372542D01*
X210244136Y-33372542D02*
X210196517Y-33301114D01*
X210196517Y-33301114D02*
X210148898Y-33158257D01*
X210148898Y-33158257D02*
X210148898Y-33015400D01*
X210148898Y-33015400D02*
X210196517Y-32872542D01*
X210196517Y-32872542D02*
X210244136Y-32801114D01*
X210244136Y-32801114D02*
X210339374Y-32729685D01*
X210339374Y-32729685D02*
X210672707Y-32729685D01*
X209482231Y-33443971D02*
X209386993Y-33443971D01*
X209386993Y-33443971D02*
X209291755Y-33372542D01*
X209291755Y-33372542D02*
X209244136Y-33301114D01*
X209244136Y-33301114D02*
X209196517Y-33158257D01*
X209196517Y-33158257D02*
X209148898Y-32872542D01*
X209148898Y-32872542D02*
X209148898Y-32515400D01*
X209148898Y-32515400D02*
X209196517Y-32229685D01*
X209196517Y-32229685D02*
X209244136Y-32086828D01*
X209244136Y-32086828D02*
X209291755Y-32015400D01*
X209291755Y-32015400D02*
X209386993Y-31943971D01*
X209386993Y-31943971D02*
X209482231Y-31943971D01*
X209482231Y-31943971D02*
X209577469Y-32015400D01*
X209577469Y-32015400D02*
X209625088Y-32086828D01*
X209625088Y-32086828D02*
X209672707Y-32229685D01*
X209672707Y-32229685D02*
X209720326Y-32515400D01*
X209720326Y-32515400D02*
X209720326Y-32872542D01*
X209720326Y-32872542D02*
X209672707Y-33158257D01*
X209672707Y-33158257D02*
X209625088Y-33301114D01*
X209625088Y-33301114D02*
X209577469Y-33372542D01*
X209577469Y-33372542D02*
X209482231Y-33443971D01*
D12*
X191840225Y-111402257D02*
X191697368Y-111330828D01*
X191697368Y-111330828D02*
X191483082Y-111330828D01*
X191483082Y-111330828D02*
X191268796Y-111402257D01*
X191268796Y-111402257D02*
X191125939Y-111545114D01*
X191125939Y-111545114D02*
X191054510Y-111687971D01*
X191054510Y-111687971D02*
X190983082Y-111973685D01*
X190983082Y-111973685D02*
X190983082Y-112187971D01*
X190983082Y-112187971D02*
X191054510Y-112473685D01*
X191054510Y-112473685D02*
X191125939Y-112616542D01*
X191125939Y-112616542D02*
X191268796Y-112759400D01*
X191268796Y-112759400D02*
X191483082Y-112830828D01*
X191483082Y-112830828D02*
X191625939Y-112830828D01*
X191625939Y-112830828D02*
X191840225Y-112759400D01*
X191840225Y-112759400D02*
X191911653Y-112687971D01*
X191911653Y-112687971D02*
X191911653Y-112187971D01*
X191911653Y-112187971D02*
X191625939Y-112187971D01*
X192554510Y-112830828D02*
X192554510Y-111330828D01*
X192554510Y-111330828D02*
X193411653Y-112830828D01*
X193411653Y-112830828D02*
X193411653Y-111330828D01*
X194125939Y-112830828D02*
X194125939Y-111330828D01*
X194125939Y-111330828D02*
X194483082Y-111330828D01*
X194483082Y-111330828D02*
X194697368Y-111402257D01*
X194697368Y-111402257D02*
X194840225Y-111545114D01*
X194840225Y-111545114D02*
X194911654Y-111687971D01*
X194911654Y-111687971D02*
X194983082Y-111973685D01*
X194983082Y-111973685D02*
X194983082Y-112187971D01*
X194983082Y-112187971D02*
X194911654Y-112473685D01*
X194911654Y-112473685D02*
X194840225Y-112616542D01*
X194840225Y-112616542D02*
X194697368Y-112759400D01*
X194697368Y-112759400D02*
X194483082Y-112830828D01*
X194483082Y-112830828D02*
X194125939Y-112830828D01*
D11*
X214364673Y-120456028D02*
X214364673Y-118956028D01*
X214840863Y-120456028D02*
X214840863Y-118956028D01*
X214840863Y-118956028D02*
X215412291Y-120456028D01*
X215412291Y-120456028D02*
X215412291Y-118956028D01*
X216078958Y-118956028D02*
X216174196Y-118956028D01*
X216174196Y-118956028D02*
X216269434Y-119027457D01*
X216269434Y-119027457D02*
X216317053Y-119098885D01*
X216317053Y-119098885D02*
X216364672Y-119241742D01*
X216364672Y-119241742D02*
X216412291Y-119527457D01*
X216412291Y-119527457D02*
X216412291Y-119884600D01*
X216412291Y-119884600D02*
X216364672Y-120170314D01*
X216364672Y-120170314D02*
X216317053Y-120313171D01*
X216317053Y-120313171D02*
X216269434Y-120384600D01*
X216269434Y-120384600D02*
X216174196Y-120456028D01*
X216174196Y-120456028D02*
X216078958Y-120456028D01*
X216078958Y-120456028D02*
X215983720Y-120384600D01*
X215983720Y-120384600D02*
X215936101Y-120313171D01*
X215936101Y-120313171D02*
X215888482Y-120170314D01*
X215888482Y-120170314D02*
X215840863Y-119884600D01*
X215840863Y-119884600D02*
X215840863Y-119527457D01*
X215840863Y-119527457D02*
X215888482Y-119241742D01*
X215888482Y-119241742D02*
X215936101Y-119098885D01*
X215936101Y-119098885D02*
X215983720Y-119027457D01*
X215983720Y-119027457D02*
X216078958Y-118956028D01*
X216840863Y-119884600D02*
X217602768Y-119884600D01*
X217221815Y-120456028D02*
X217221815Y-119313171D01*
X262583898Y-32086828D02*
X262631517Y-32015400D01*
X262631517Y-32015400D02*
X262774374Y-31943971D01*
X262774374Y-31943971D02*
X262869612Y-31943971D01*
X262869612Y-31943971D02*
X263012469Y-32015400D01*
X263012469Y-32015400D02*
X263107707Y-32158257D01*
X263107707Y-32158257D02*
X263155326Y-32301114D01*
X263155326Y-32301114D02*
X263202945Y-32586828D01*
X263202945Y-32586828D02*
X263202945Y-32801114D01*
X263202945Y-32801114D02*
X263155326Y-33086828D01*
X263155326Y-33086828D02*
X263107707Y-33229685D01*
X263107707Y-33229685D02*
X263012469Y-33372542D01*
X263012469Y-33372542D02*
X262869612Y-33443971D01*
X262869612Y-33443971D02*
X262774374Y-33443971D01*
X262774374Y-33443971D02*
X262631517Y-33372542D01*
X262631517Y-33372542D02*
X262583898Y-33301114D01*
X261964850Y-33443971D02*
X261774374Y-33443971D01*
X261774374Y-33443971D02*
X261679136Y-33372542D01*
X261679136Y-33372542D02*
X261583898Y-33229685D01*
X261583898Y-33229685D02*
X261536279Y-32943971D01*
X261536279Y-32943971D02*
X261536279Y-32443971D01*
X261536279Y-32443971D02*
X261583898Y-32158257D01*
X261583898Y-32158257D02*
X261679136Y-32015400D01*
X261679136Y-32015400D02*
X261774374Y-31943971D01*
X261774374Y-31943971D02*
X261964850Y-31943971D01*
X261964850Y-31943971D02*
X262060088Y-32015400D01*
X262060088Y-32015400D02*
X262155326Y-32158257D01*
X262155326Y-32158257D02*
X262202945Y-32443971D01*
X262202945Y-32443971D02*
X262202945Y-32943971D01*
X262202945Y-32943971D02*
X262155326Y-33229685D01*
X262155326Y-33229685D02*
X262060088Y-33372542D01*
X262060088Y-33372542D02*
X261964850Y-33443971D01*
X261107707Y-31943971D02*
X261107707Y-33443971D01*
X261107707Y-33443971D02*
X260774374Y-32372542D01*
X260774374Y-32372542D02*
X260441041Y-33443971D01*
X260441041Y-33443971D02*
X260441041Y-31943971D01*
X260060088Y-33443971D02*
X259441041Y-33443971D01*
X259441041Y-33443971D02*
X259774374Y-32872542D01*
X259774374Y-32872542D02*
X259631517Y-32872542D01*
X259631517Y-32872542D02*
X259536279Y-32801114D01*
X259536279Y-32801114D02*
X259488660Y-32729685D01*
X259488660Y-32729685D02*
X259441041Y-32586828D01*
X259441041Y-32586828D02*
X259441041Y-32229685D01*
X259441041Y-32229685D02*
X259488660Y-32086828D01*
X259488660Y-32086828D02*
X259536279Y-32015400D01*
X259536279Y-32015400D02*
X259631517Y-31943971D01*
X259631517Y-31943971D02*
X259917231Y-31943971D01*
X259917231Y-31943971D02*
X260012469Y-32015400D01*
X260012469Y-32015400D02*
X260060088Y-32086828D01*
X265164673Y-120456028D02*
X265164673Y-118956028D01*
X265640863Y-120456028D02*
X265640863Y-118956028D01*
X265640863Y-118956028D02*
X266212291Y-120456028D01*
X266212291Y-120456028D02*
X266212291Y-118956028D01*
X266593244Y-118956028D02*
X267212291Y-118956028D01*
X267212291Y-118956028D02*
X266878958Y-119527457D01*
X266878958Y-119527457D02*
X267021815Y-119527457D01*
X267021815Y-119527457D02*
X267117053Y-119598885D01*
X267117053Y-119598885D02*
X267164672Y-119670314D01*
X267164672Y-119670314D02*
X267212291Y-119813171D01*
X267212291Y-119813171D02*
X267212291Y-120170314D01*
X267212291Y-120170314D02*
X267164672Y-120313171D01*
X267164672Y-120313171D02*
X267117053Y-120384600D01*
X267117053Y-120384600D02*
X267021815Y-120456028D01*
X267021815Y-120456028D02*
X266736101Y-120456028D01*
X266736101Y-120456028D02*
X266640863Y-120384600D01*
X266640863Y-120384600D02*
X266593244Y-120313171D01*
X267640863Y-119884600D02*
X268402768Y-119884600D01*
X252169850Y-33443971D02*
X251979374Y-33443971D01*
X251979374Y-33443971D02*
X251884136Y-33372542D01*
X251884136Y-33372542D02*
X251788898Y-33229685D01*
X251788898Y-33229685D02*
X251741279Y-32943971D01*
X251741279Y-32943971D02*
X251741279Y-32443971D01*
X251741279Y-32443971D02*
X251788898Y-32158257D01*
X251788898Y-32158257D02*
X251884136Y-32015400D01*
X251884136Y-32015400D02*
X251979374Y-31943971D01*
X251979374Y-31943971D02*
X252169850Y-31943971D01*
X252169850Y-31943971D02*
X252265088Y-32015400D01*
X252265088Y-32015400D02*
X252360326Y-32158257D01*
X252360326Y-32158257D02*
X252407945Y-32443971D01*
X252407945Y-32443971D02*
X252407945Y-32943971D01*
X252407945Y-32943971D02*
X252360326Y-33229685D01*
X252360326Y-33229685D02*
X252265088Y-33372542D01*
X252265088Y-33372542D02*
X252169850Y-33443971D01*
X251360326Y-32372542D02*
X250884136Y-32372542D01*
X251455564Y-31943971D02*
X251122231Y-33443971D01*
X251122231Y-33443971D02*
X250788898Y-31943971D01*
X250503183Y-33301114D02*
X250455564Y-33372542D01*
X250455564Y-33372542D02*
X250360326Y-33443971D01*
X250360326Y-33443971D02*
X250122231Y-33443971D01*
X250122231Y-33443971D02*
X250026993Y-33372542D01*
X250026993Y-33372542D02*
X249979374Y-33301114D01*
X249979374Y-33301114D02*
X249931755Y-33158257D01*
X249931755Y-33158257D02*
X249931755Y-33015400D01*
X249931755Y-33015400D02*
X249979374Y-32801114D01*
X249979374Y-32801114D02*
X250550802Y-31943971D01*
X250550802Y-31943971D02*
X249931755Y-31943971D01*
X254861816Y-118956028D02*
X255195149Y-120456028D01*
X255195149Y-120456028D02*
X255528482Y-118956028D01*
X255861816Y-120456028D02*
X255861816Y-118956028D01*
X255861816Y-118956028D02*
X256099911Y-118956028D01*
X256099911Y-118956028D02*
X256242768Y-119027457D01*
X256242768Y-119027457D02*
X256338006Y-119170314D01*
X256338006Y-119170314D02*
X256385625Y-119313171D01*
X256385625Y-119313171D02*
X256433244Y-119598885D01*
X256433244Y-119598885D02*
X256433244Y-119813171D01*
X256433244Y-119813171D02*
X256385625Y-120098885D01*
X256385625Y-120098885D02*
X256338006Y-120241742D01*
X256338006Y-120241742D02*
X256242768Y-120384600D01*
X256242768Y-120384600D02*
X256099911Y-120456028D01*
X256099911Y-120456028D02*
X255861816Y-120456028D01*
X256861816Y-120456028D02*
X256861816Y-118956028D01*
X256861816Y-118956028D02*
X257099911Y-118956028D01*
X257099911Y-118956028D02*
X257242768Y-119027457D01*
X257242768Y-119027457D02*
X257338006Y-119170314D01*
X257338006Y-119170314D02*
X257385625Y-119313171D01*
X257385625Y-119313171D02*
X257433244Y-119598885D01*
X257433244Y-119598885D02*
X257433244Y-119813171D01*
X257433244Y-119813171D02*
X257385625Y-120098885D01*
X257385625Y-120098885D02*
X257338006Y-120241742D01*
X257338006Y-120241742D02*
X257242768Y-120384600D01*
X257242768Y-120384600D02*
X257099911Y-120456028D01*
X257099911Y-120456028D02*
X256861816Y-120456028D01*
X257766578Y-118956028D02*
X258385625Y-118956028D01*
X258385625Y-118956028D02*
X258052292Y-119527457D01*
X258052292Y-119527457D02*
X258195149Y-119527457D01*
X258195149Y-119527457D02*
X258290387Y-119598885D01*
X258290387Y-119598885D02*
X258338006Y-119670314D01*
X258338006Y-119670314D02*
X258385625Y-119813171D01*
X258385625Y-119813171D02*
X258385625Y-120170314D01*
X258385625Y-120170314D02*
X258338006Y-120313171D01*
X258338006Y-120313171D02*
X258290387Y-120384600D01*
X258290387Y-120384600D02*
X258195149Y-120456028D01*
X258195149Y-120456028D02*
X257909435Y-120456028D01*
X257909435Y-120456028D02*
X257814197Y-120384600D01*
X257814197Y-120384600D02*
X257766578Y-120313171D01*
X232103898Y-32086828D02*
X232151517Y-32015400D01*
X232151517Y-32015400D02*
X232294374Y-31943971D01*
X232294374Y-31943971D02*
X232389612Y-31943971D01*
X232389612Y-31943971D02*
X232532469Y-32015400D01*
X232532469Y-32015400D02*
X232627707Y-32158257D01*
X232627707Y-32158257D02*
X232675326Y-32301114D01*
X232675326Y-32301114D02*
X232722945Y-32586828D01*
X232722945Y-32586828D02*
X232722945Y-32801114D01*
X232722945Y-32801114D02*
X232675326Y-33086828D01*
X232675326Y-33086828D02*
X232627707Y-33229685D01*
X232627707Y-33229685D02*
X232532469Y-33372542D01*
X232532469Y-33372542D02*
X232389612Y-33443971D01*
X232389612Y-33443971D02*
X232294374Y-33443971D01*
X232294374Y-33443971D02*
X232151517Y-33372542D01*
X232151517Y-33372542D02*
X232103898Y-33301114D01*
X231484850Y-33443971D02*
X231294374Y-33443971D01*
X231294374Y-33443971D02*
X231199136Y-33372542D01*
X231199136Y-33372542D02*
X231103898Y-33229685D01*
X231103898Y-33229685D02*
X231056279Y-32943971D01*
X231056279Y-32943971D02*
X231056279Y-32443971D01*
X231056279Y-32443971D02*
X231103898Y-32158257D01*
X231103898Y-32158257D02*
X231199136Y-32015400D01*
X231199136Y-32015400D02*
X231294374Y-31943971D01*
X231294374Y-31943971D02*
X231484850Y-31943971D01*
X231484850Y-31943971D02*
X231580088Y-32015400D01*
X231580088Y-32015400D02*
X231675326Y-32158257D01*
X231675326Y-32158257D02*
X231722945Y-32443971D01*
X231722945Y-32443971D02*
X231722945Y-32943971D01*
X231722945Y-32943971D02*
X231675326Y-33229685D01*
X231675326Y-33229685D02*
X231580088Y-33372542D01*
X231580088Y-33372542D02*
X231484850Y-33443971D01*
X230627707Y-31943971D02*
X230627707Y-33443971D01*
X230627707Y-33443971D02*
X230294374Y-32372542D01*
X230294374Y-32372542D02*
X229961041Y-33443971D01*
X229961041Y-33443971D02*
X229961041Y-31943971D01*
X228961041Y-31943971D02*
X229532469Y-31943971D01*
X229246755Y-31943971D02*
X229246755Y-33443971D01*
X229246755Y-33443971D02*
X229341993Y-33229685D01*
X229341993Y-33229685D02*
X229437231Y-33086828D01*
X229437231Y-33086828D02*
X229532469Y-33015400D01*
D12*
X190840225Y-97360828D02*
X191340225Y-98860828D01*
X191340225Y-98860828D02*
X191840225Y-97360828D01*
X193197367Y-98717971D02*
X193125939Y-98789400D01*
X193125939Y-98789400D02*
X192911653Y-98860828D01*
X192911653Y-98860828D02*
X192768796Y-98860828D01*
X192768796Y-98860828D02*
X192554510Y-98789400D01*
X192554510Y-98789400D02*
X192411653Y-98646542D01*
X192411653Y-98646542D02*
X192340224Y-98503685D01*
X192340224Y-98503685D02*
X192268796Y-98217971D01*
X192268796Y-98217971D02*
X192268796Y-98003685D01*
X192268796Y-98003685D02*
X192340224Y-97717971D01*
X192340224Y-97717971D02*
X192411653Y-97575114D01*
X192411653Y-97575114D02*
X192554510Y-97432257D01*
X192554510Y-97432257D02*
X192768796Y-97360828D01*
X192768796Y-97360828D02*
X192911653Y-97360828D01*
X192911653Y-97360828D02*
X193125939Y-97432257D01*
X193125939Y-97432257D02*
X193197367Y-97503685D01*
X194697367Y-98717971D02*
X194625939Y-98789400D01*
X194625939Y-98789400D02*
X194411653Y-98860828D01*
X194411653Y-98860828D02*
X194268796Y-98860828D01*
X194268796Y-98860828D02*
X194054510Y-98789400D01*
X194054510Y-98789400D02*
X193911653Y-98646542D01*
X193911653Y-98646542D02*
X193840224Y-98503685D01*
X193840224Y-98503685D02*
X193768796Y-98217971D01*
X193768796Y-98217971D02*
X193768796Y-98003685D01*
X193768796Y-98003685D02*
X193840224Y-97717971D01*
X193840224Y-97717971D02*
X193911653Y-97575114D01*
X193911653Y-97575114D02*
X194054510Y-97432257D01*
X194054510Y-97432257D02*
X194268796Y-97360828D01*
X194268796Y-97360828D02*
X194411653Y-97360828D01*
X194411653Y-97360828D02*
X194625939Y-97432257D01*
X194625939Y-97432257D02*
X194697367Y-97503685D01*
X195340224Y-98860828D02*
X195340224Y-97360828D01*
X196054510Y-98860828D02*
X196054510Y-97360828D01*
X196054510Y-97360828D02*
X196911653Y-98860828D01*
X196911653Y-98860828D02*
X196911653Y-97360828D01*
D11*
X229604673Y-120456028D02*
X229604673Y-118956028D01*
X230080863Y-120456028D02*
X230080863Y-118956028D01*
X230080863Y-118956028D02*
X230652291Y-120456028D01*
X230652291Y-120456028D02*
X230652291Y-118956028D01*
X231652291Y-120456028D02*
X231080863Y-120456028D01*
X231366577Y-120456028D02*
X231366577Y-118956028D01*
X231366577Y-118956028D02*
X231271339Y-119170314D01*
X231271339Y-119170314D02*
X231176101Y-119313171D01*
X231176101Y-119313171D02*
X231080863Y-119384600D01*
X232080863Y-119884600D02*
X232842768Y-119884600D01*
X232461815Y-120456028D02*
X232461815Y-119313171D01*
D13*
X248739819Y-62126666D02*
X247739819Y-62126666D01*
X247739819Y-62126666D02*
X247739819Y-61888571D01*
X247739819Y-61888571D02*
X247787438Y-61745714D01*
X247787438Y-61745714D02*
X247882676Y-61650476D01*
X247882676Y-61650476D02*
X247977914Y-61602857D01*
X247977914Y-61602857D02*
X248168390Y-61555238D01*
X248168390Y-61555238D02*
X248311247Y-61555238D01*
X248311247Y-61555238D02*
X248501723Y-61602857D01*
X248501723Y-61602857D02*
X248596961Y-61650476D01*
X248596961Y-61650476D02*
X248692200Y-61745714D01*
X248692200Y-61745714D02*
X248739819Y-61888571D01*
X248739819Y-61888571D02*
X248739819Y-62126666D01*
X248454104Y-61174285D02*
X248454104Y-60698095D01*
X248739819Y-61269523D02*
X247739819Y-60936190D01*
X247739819Y-60936190D02*
X248739819Y-60602857D01*
X247835057Y-60317142D02*
X247787438Y-60269523D01*
X247787438Y-60269523D02*
X247739819Y-60174285D01*
X247739819Y-60174285D02*
X247739819Y-59936190D01*
X247739819Y-59936190D02*
X247787438Y-59840952D01*
X247787438Y-59840952D02*
X247835057Y-59793333D01*
X247835057Y-59793333D02*
X247930295Y-59745714D01*
X247930295Y-59745714D02*
X248025533Y-59745714D01*
X248025533Y-59745714D02*
X248168390Y-59793333D01*
X248168390Y-59793333D02*
X248739819Y-60364761D01*
X248739819Y-60364761D02*
X248739819Y-59745714D01*
X230044762Y-108674819D02*
X230044762Y-109389104D01*
X230044762Y-109389104D02*
X229997143Y-109531961D01*
X229997143Y-109531961D02*
X229901905Y-109627200D01*
X229901905Y-109627200D02*
X229759048Y-109674819D01*
X229759048Y-109674819D02*
X229663810Y-109674819D01*
X230520953Y-109674819D02*
X230520953Y-108674819D01*
X230997143Y-109674819D02*
X230997143Y-108674819D01*
X230997143Y-108674819D02*
X231568571Y-109674819D01*
X231568571Y-109674819D02*
X231568571Y-108674819D01*
X232568571Y-109674819D02*
X231997143Y-109674819D01*
X232282857Y-109674819D02*
X232282857Y-108674819D01*
X232282857Y-108674819D02*
X232187619Y-108817676D01*
X232187619Y-108817676D02*
X232092381Y-108912914D01*
X232092381Y-108912914D02*
X231997143Y-108960533D01*
X256359819Y-62198094D02*
X255359819Y-62198094D01*
X255359819Y-62198094D02*
X255359819Y-61959999D01*
X255359819Y-61959999D02*
X255407438Y-61817142D01*
X255407438Y-61817142D02*
X255502676Y-61721904D01*
X255502676Y-61721904D02*
X255597914Y-61674285D01*
X255597914Y-61674285D02*
X255788390Y-61626666D01*
X255788390Y-61626666D02*
X255931247Y-61626666D01*
X255931247Y-61626666D02*
X256121723Y-61674285D01*
X256121723Y-61674285D02*
X256216961Y-61721904D01*
X256216961Y-61721904D02*
X256312200Y-61817142D01*
X256312200Y-61817142D02*
X256359819Y-61959999D01*
X256359819Y-61959999D02*
X256359819Y-62198094D01*
X255836009Y-60864761D02*
X255883628Y-60721904D01*
X255883628Y-60721904D02*
X255931247Y-60674285D01*
X255931247Y-60674285D02*
X256026485Y-60626666D01*
X256026485Y-60626666D02*
X256169342Y-60626666D01*
X256169342Y-60626666D02*
X256264580Y-60674285D01*
X256264580Y-60674285D02*
X256312200Y-60721904D01*
X256312200Y-60721904D02*
X256359819Y-60817142D01*
X256359819Y-60817142D02*
X256359819Y-61198094D01*
X256359819Y-61198094D02*
X255359819Y-61198094D01*
X255359819Y-61198094D02*
X255359819Y-60864761D01*
X255359819Y-60864761D02*
X255407438Y-60769523D01*
X255407438Y-60769523D02*
X255455057Y-60721904D01*
X255455057Y-60721904D02*
X255550295Y-60674285D01*
X255550295Y-60674285D02*
X255645533Y-60674285D01*
X255645533Y-60674285D02*
X255740771Y-60721904D01*
X255740771Y-60721904D02*
X255788390Y-60769523D01*
X255788390Y-60769523D02*
X255836009Y-60864761D01*
X255836009Y-60864761D02*
X255836009Y-61198094D01*
X255359819Y-60293332D02*
X255359819Y-59674285D01*
X255359819Y-59674285D02*
X255740771Y-60007618D01*
X255740771Y-60007618D02*
X255740771Y-59864761D01*
X255740771Y-59864761D02*
X255788390Y-59769523D01*
X255788390Y-59769523D02*
X255836009Y-59721904D01*
X255836009Y-59721904D02*
X255931247Y-59674285D01*
X255931247Y-59674285D02*
X256169342Y-59674285D01*
X256169342Y-59674285D02*
X256264580Y-59721904D01*
X256264580Y-59721904D02*
X256312200Y-59769523D01*
X256312200Y-59769523D02*
X256359819Y-59864761D01*
X256359819Y-59864761D02*
X256359819Y-60150475D01*
X256359819Y-60150475D02*
X256312200Y-60245713D01*
X256312200Y-60245713D02*
X256264580Y-60293332D01*
X197400057Y-84550238D02*
X197352438Y-84645476D01*
X197352438Y-84645476D02*
X197257200Y-84740714D01*
X197257200Y-84740714D02*
X197114342Y-84883571D01*
X197114342Y-84883571D02*
X197066723Y-84978809D01*
X197066723Y-84978809D02*
X197066723Y-85074047D01*
X197304819Y-85026428D02*
X197257200Y-85121666D01*
X197257200Y-85121666D02*
X197161961Y-85216904D01*
X197161961Y-85216904D02*
X196971485Y-85264523D01*
X196971485Y-85264523D02*
X196638152Y-85264523D01*
X196638152Y-85264523D02*
X196447676Y-85216904D01*
X196447676Y-85216904D02*
X196352438Y-85121666D01*
X196352438Y-85121666D02*
X196304819Y-85026428D01*
X196304819Y-85026428D02*
X196304819Y-84835952D01*
X196304819Y-84835952D02*
X196352438Y-84740714D01*
X196352438Y-84740714D02*
X196447676Y-84645476D01*
X196447676Y-84645476D02*
X196638152Y-84597857D01*
X196638152Y-84597857D02*
X196971485Y-84597857D01*
X196971485Y-84597857D02*
X197161961Y-84645476D01*
X197161961Y-84645476D02*
X197257200Y-84740714D01*
X197257200Y-84740714D02*
X197304819Y-84835952D01*
X197304819Y-84835952D02*
X197304819Y-85026428D01*
X197304819Y-83645476D02*
X197304819Y-84216904D01*
X197304819Y-83931190D02*
X196304819Y-83931190D01*
X196304819Y-83931190D02*
X196447676Y-84026428D01*
X196447676Y-84026428D02*
X196542914Y-84121666D01*
X196542914Y-84121666D02*
X196590533Y-84216904D01*
X194764819Y-84621666D02*
X194288628Y-84954999D01*
X194764819Y-85193094D02*
X193764819Y-85193094D01*
X193764819Y-85193094D02*
X193764819Y-84812142D01*
X193764819Y-84812142D02*
X193812438Y-84716904D01*
X193812438Y-84716904D02*
X193860057Y-84669285D01*
X193860057Y-84669285D02*
X193955295Y-84621666D01*
X193955295Y-84621666D02*
X194098152Y-84621666D01*
X194098152Y-84621666D02*
X194193390Y-84669285D01*
X194193390Y-84669285D02*
X194241009Y-84716904D01*
X194241009Y-84716904D02*
X194288628Y-84812142D01*
X194288628Y-84812142D02*
X194288628Y-85193094D01*
X193764819Y-84288332D02*
X193764819Y-83669285D01*
X193764819Y-83669285D02*
X194145771Y-84002618D01*
X194145771Y-84002618D02*
X194145771Y-83859761D01*
X194145771Y-83859761D02*
X194193390Y-83764523D01*
X194193390Y-83764523D02*
X194241009Y-83716904D01*
X194241009Y-83716904D02*
X194336247Y-83669285D01*
X194336247Y-83669285D02*
X194574342Y-83669285D01*
X194574342Y-83669285D02*
X194669580Y-83716904D01*
X194669580Y-83716904D02*
X194717200Y-83764523D01*
X194717200Y-83764523D02*
X194764819Y-83859761D01*
X194764819Y-83859761D02*
X194764819Y-84145475D01*
X194764819Y-84145475D02*
X194717200Y-84240713D01*
X194717200Y-84240713D02*
X194669580Y-84288332D01*
X203654819Y-84621666D02*
X203178628Y-84954999D01*
X203654819Y-85193094D02*
X202654819Y-85193094D01*
X202654819Y-85193094D02*
X202654819Y-84812142D01*
X202654819Y-84812142D02*
X202702438Y-84716904D01*
X202702438Y-84716904D02*
X202750057Y-84669285D01*
X202750057Y-84669285D02*
X202845295Y-84621666D01*
X202845295Y-84621666D02*
X202988152Y-84621666D01*
X202988152Y-84621666D02*
X203083390Y-84669285D01*
X203083390Y-84669285D02*
X203131009Y-84716904D01*
X203131009Y-84716904D02*
X203178628Y-84812142D01*
X203178628Y-84812142D02*
X203178628Y-85193094D01*
X202988152Y-83764523D02*
X203654819Y-83764523D01*
X202607200Y-84002618D02*
X203321485Y-84240713D01*
X203321485Y-84240713D02*
X203321485Y-83621666D01*
X233499819Y-62126666D02*
X232499819Y-62126666D01*
X232499819Y-62126666D02*
X232499819Y-61888571D01*
X232499819Y-61888571D02*
X232547438Y-61745714D01*
X232547438Y-61745714D02*
X232642676Y-61650476D01*
X232642676Y-61650476D02*
X232737914Y-61602857D01*
X232737914Y-61602857D02*
X232928390Y-61555238D01*
X232928390Y-61555238D02*
X233071247Y-61555238D01*
X233071247Y-61555238D02*
X233261723Y-61602857D01*
X233261723Y-61602857D02*
X233356961Y-61650476D01*
X233356961Y-61650476D02*
X233452200Y-61745714D01*
X233452200Y-61745714D02*
X233499819Y-61888571D01*
X233499819Y-61888571D02*
X233499819Y-62126666D01*
X233214104Y-61174285D02*
X233214104Y-60698095D01*
X233499819Y-61269523D02*
X232499819Y-60936190D01*
X232499819Y-60936190D02*
X233499819Y-60602857D01*
X233499819Y-59745714D02*
X233499819Y-60317142D01*
X233499819Y-60031428D02*
X232499819Y-60031428D01*
X232499819Y-60031428D02*
X232642676Y-60126666D01*
X232642676Y-60126666D02*
X232737914Y-60221904D01*
X232737914Y-60221904D02*
X232785533Y-60317142D01*
X260169819Y-61602857D02*
X259693628Y-61936190D01*
X260169819Y-62174285D02*
X259169819Y-62174285D01*
X259169819Y-62174285D02*
X259169819Y-61793333D01*
X259169819Y-61793333D02*
X259217438Y-61698095D01*
X259217438Y-61698095D02*
X259265057Y-61650476D01*
X259265057Y-61650476D02*
X259360295Y-61602857D01*
X259360295Y-61602857D02*
X259503152Y-61602857D01*
X259503152Y-61602857D02*
X259598390Y-61650476D01*
X259598390Y-61650476D02*
X259646009Y-61698095D01*
X259646009Y-61698095D02*
X259693628Y-61793333D01*
X259693628Y-61793333D02*
X259693628Y-62174285D01*
X260169819Y-60650476D02*
X260169819Y-61221904D01*
X260169819Y-60936190D02*
X259169819Y-60936190D01*
X259169819Y-60936190D02*
X259312676Y-61031428D01*
X259312676Y-61031428D02*
X259407914Y-61126666D01*
X259407914Y-61126666D02*
X259455533Y-61221904D01*
X259265057Y-60269523D02*
X259217438Y-60221904D01*
X259217438Y-60221904D02*
X259169819Y-60126666D01*
X259169819Y-60126666D02*
X259169819Y-59888571D01*
X259169819Y-59888571D02*
X259217438Y-59793333D01*
X259217438Y-59793333D02*
X259265057Y-59745714D01*
X259265057Y-59745714D02*
X259360295Y-59698095D01*
X259360295Y-59698095D02*
X259455533Y-59698095D01*
X259455533Y-59698095D02*
X259598390Y-59745714D01*
X259598390Y-59745714D02*
X260169819Y-60317142D01*
X260169819Y-60317142D02*
X260169819Y-59698095D01*
X223974819Y-93130476D02*
X223498628Y-93463809D01*
X223974819Y-93701904D02*
X222974819Y-93701904D01*
X222974819Y-93701904D02*
X222974819Y-93320952D01*
X222974819Y-93320952D02*
X223022438Y-93225714D01*
X223022438Y-93225714D02*
X223070057Y-93178095D01*
X223070057Y-93178095D02*
X223165295Y-93130476D01*
X223165295Y-93130476D02*
X223308152Y-93130476D01*
X223308152Y-93130476D02*
X223403390Y-93178095D01*
X223403390Y-93178095D02*
X223451009Y-93225714D01*
X223451009Y-93225714D02*
X223498628Y-93320952D01*
X223498628Y-93320952D02*
X223498628Y-93701904D01*
X223927200Y-92320952D02*
X223974819Y-92416190D01*
X223974819Y-92416190D02*
X223974819Y-92606666D01*
X223974819Y-92606666D02*
X223927200Y-92701904D01*
X223927200Y-92701904D02*
X223831961Y-92749523D01*
X223831961Y-92749523D02*
X223451009Y-92749523D01*
X223451009Y-92749523D02*
X223355771Y-92701904D01*
X223355771Y-92701904D02*
X223308152Y-92606666D01*
X223308152Y-92606666D02*
X223308152Y-92416190D01*
X223308152Y-92416190D02*
X223355771Y-92320952D01*
X223355771Y-92320952D02*
X223451009Y-92273333D01*
X223451009Y-92273333D02*
X223546247Y-92273333D01*
X223546247Y-92273333D02*
X223641485Y-92749523D01*
X223974819Y-91701904D02*
X223927200Y-91797142D01*
X223927200Y-91797142D02*
X223831961Y-91844761D01*
X223831961Y-91844761D02*
X222974819Y-91844761D01*
X223974819Y-90892380D02*
X223451009Y-90892380D01*
X223451009Y-90892380D02*
X223355771Y-90939999D01*
X223355771Y-90939999D02*
X223308152Y-91035237D01*
X223308152Y-91035237D02*
X223308152Y-91225713D01*
X223308152Y-91225713D02*
X223355771Y-91320951D01*
X223927200Y-90892380D02*
X223974819Y-90987618D01*
X223974819Y-90987618D02*
X223974819Y-91225713D01*
X223974819Y-91225713D02*
X223927200Y-91320951D01*
X223927200Y-91320951D02*
X223831961Y-91368570D01*
X223831961Y-91368570D02*
X223736723Y-91368570D01*
X223736723Y-91368570D02*
X223641485Y-91320951D01*
X223641485Y-91320951D02*
X223593866Y-91225713D01*
X223593866Y-91225713D02*
X223593866Y-90987618D01*
X223593866Y-90987618D02*
X223546247Y-90892380D01*
X223308152Y-90511427D02*
X223974819Y-90273332D01*
X223308152Y-90035237D02*
X223974819Y-90273332D01*
X223974819Y-90273332D02*
X224212914Y-90368570D01*
X224212914Y-90368570D02*
X224260533Y-90416189D01*
X224260533Y-90416189D02*
X224308152Y-90511427D01*
X223974819Y-89130475D02*
X223974819Y-89701903D01*
X223974819Y-89416189D02*
X222974819Y-89416189D01*
X222974819Y-89416189D02*
X223117676Y-89511427D01*
X223117676Y-89511427D02*
X223212914Y-89606665D01*
X223212914Y-89606665D02*
X223260533Y-89701903D01*
X201114819Y-37472857D02*
X200638628Y-37806190D01*
X201114819Y-38044285D02*
X200114819Y-38044285D01*
X200114819Y-38044285D02*
X200114819Y-37663333D01*
X200114819Y-37663333D02*
X200162438Y-37568095D01*
X200162438Y-37568095D02*
X200210057Y-37520476D01*
X200210057Y-37520476D02*
X200305295Y-37472857D01*
X200305295Y-37472857D02*
X200448152Y-37472857D01*
X200448152Y-37472857D02*
X200543390Y-37520476D01*
X200543390Y-37520476D02*
X200591009Y-37568095D01*
X200591009Y-37568095D02*
X200638628Y-37663333D01*
X200638628Y-37663333D02*
X200638628Y-38044285D01*
X201114819Y-36520476D02*
X201114819Y-37091904D01*
X201114819Y-36806190D02*
X200114819Y-36806190D01*
X200114819Y-36806190D02*
X200257676Y-36901428D01*
X200257676Y-36901428D02*
X200352914Y-36996666D01*
X200352914Y-36996666D02*
X200400533Y-37091904D01*
X200114819Y-36187142D02*
X200114819Y-35568095D01*
X200114819Y-35568095D02*
X200495771Y-35901428D01*
X200495771Y-35901428D02*
X200495771Y-35758571D01*
X200495771Y-35758571D02*
X200543390Y-35663333D01*
X200543390Y-35663333D02*
X200591009Y-35615714D01*
X200591009Y-35615714D02*
X200686247Y-35568095D01*
X200686247Y-35568095D02*
X200924342Y-35568095D01*
X200924342Y-35568095D02*
X201019580Y-35615714D01*
X201019580Y-35615714D02*
X201067200Y-35663333D01*
X201067200Y-35663333D02*
X201114819Y-35758571D01*
X201114819Y-35758571D02*
X201114819Y-36044285D01*
X201114819Y-36044285D02*
X201067200Y-36139523D01*
X201067200Y-36139523D02*
X201019580Y-36187142D01*
X190404819Y-71286666D02*
X189928628Y-71619999D01*
X190404819Y-71858094D02*
X189404819Y-71858094D01*
X189404819Y-71858094D02*
X189404819Y-71477142D01*
X189404819Y-71477142D02*
X189452438Y-71381904D01*
X189452438Y-71381904D02*
X189500057Y-71334285D01*
X189500057Y-71334285D02*
X189595295Y-71286666D01*
X189595295Y-71286666D02*
X189738152Y-71286666D01*
X189738152Y-71286666D02*
X189833390Y-71334285D01*
X189833390Y-71334285D02*
X189881009Y-71381904D01*
X189881009Y-71381904D02*
X189928628Y-71477142D01*
X189928628Y-71477142D02*
X189928628Y-71858094D01*
X189404819Y-70381904D02*
X189404819Y-70858094D01*
X189404819Y-70858094D02*
X189881009Y-70905713D01*
X189881009Y-70905713D02*
X189833390Y-70858094D01*
X189833390Y-70858094D02*
X189785771Y-70762856D01*
X189785771Y-70762856D02*
X189785771Y-70524761D01*
X189785771Y-70524761D02*
X189833390Y-70429523D01*
X189833390Y-70429523D02*
X189881009Y-70381904D01*
X189881009Y-70381904D02*
X189976247Y-70334285D01*
X189976247Y-70334285D02*
X190214342Y-70334285D01*
X190214342Y-70334285D02*
X190309580Y-70381904D01*
X190309580Y-70381904D02*
X190357200Y-70429523D01*
X190357200Y-70429523D02*
X190404819Y-70524761D01*
X190404819Y-70524761D02*
X190404819Y-70762856D01*
X190404819Y-70762856D02*
X190357200Y-70858094D01*
X190357200Y-70858094D02*
X190309580Y-70905713D01*
X190404819Y-61602857D02*
X189928628Y-61936190D01*
X190404819Y-62174285D02*
X189404819Y-62174285D01*
X189404819Y-62174285D02*
X189404819Y-61793333D01*
X189404819Y-61793333D02*
X189452438Y-61698095D01*
X189452438Y-61698095D02*
X189500057Y-61650476D01*
X189500057Y-61650476D02*
X189595295Y-61602857D01*
X189595295Y-61602857D02*
X189738152Y-61602857D01*
X189738152Y-61602857D02*
X189833390Y-61650476D01*
X189833390Y-61650476D02*
X189881009Y-61698095D01*
X189881009Y-61698095D02*
X189928628Y-61793333D01*
X189928628Y-61793333D02*
X189928628Y-62174285D01*
X190404819Y-60650476D02*
X190404819Y-61221904D01*
X190404819Y-60936190D02*
X189404819Y-60936190D01*
X189404819Y-60936190D02*
X189547676Y-61031428D01*
X189547676Y-61031428D02*
X189642914Y-61126666D01*
X189642914Y-61126666D02*
X189690533Y-61221904D01*
X190404819Y-59698095D02*
X190404819Y-60269523D01*
X190404819Y-59983809D02*
X189404819Y-59983809D01*
X189404819Y-59983809D02*
X189547676Y-60079047D01*
X189547676Y-60079047D02*
X189642914Y-60174285D01*
X189642914Y-60174285D02*
X189690533Y-60269523D01*
X190319819Y-76366666D02*
X189843628Y-76699999D01*
X190319819Y-76938094D02*
X189319819Y-76938094D01*
X189319819Y-76938094D02*
X189319819Y-76557142D01*
X189319819Y-76557142D02*
X189367438Y-76461904D01*
X189367438Y-76461904D02*
X189415057Y-76414285D01*
X189415057Y-76414285D02*
X189510295Y-76366666D01*
X189510295Y-76366666D02*
X189653152Y-76366666D01*
X189653152Y-76366666D02*
X189748390Y-76414285D01*
X189748390Y-76414285D02*
X189796009Y-76461904D01*
X189796009Y-76461904D02*
X189843628Y-76557142D01*
X189843628Y-76557142D02*
X189843628Y-76938094D01*
X190319819Y-75414285D02*
X190319819Y-75985713D01*
X190319819Y-75699999D02*
X189319819Y-75699999D01*
X189319819Y-75699999D02*
X189462676Y-75795237D01*
X189462676Y-75795237D02*
X189557914Y-75890475D01*
X189557914Y-75890475D02*
X189605533Y-75985713D01*
X263979819Y-62126666D02*
X262979819Y-62126666D01*
X262979819Y-62126666D02*
X262979819Y-61888571D01*
X262979819Y-61888571D02*
X263027438Y-61745714D01*
X263027438Y-61745714D02*
X263122676Y-61650476D01*
X263122676Y-61650476D02*
X263217914Y-61602857D01*
X263217914Y-61602857D02*
X263408390Y-61555238D01*
X263408390Y-61555238D02*
X263551247Y-61555238D01*
X263551247Y-61555238D02*
X263741723Y-61602857D01*
X263741723Y-61602857D02*
X263836961Y-61650476D01*
X263836961Y-61650476D02*
X263932200Y-61745714D01*
X263932200Y-61745714D02*
X263979819Y-61888571D01*
X263979819Y-61888571D02*
X263979819Y-62126666D01*
X263694104Y-61174285D02*
X263694104Y-60698095D01*
X263979819Y-61269523D02*
X262979819Y-60936190D01*
X262979819Y-60936190D02*
X263979819Y-60602857D01*
X262979819Y-60364761D02*
X262979819Y-59745714D01*
X262979819Y-59745714D02*
X263360771Y-60079047D01*
X263360771Y-60079047D02*
X263360771Y-59936190D01*
X263360771Y-59936190D02*
X263408390Y-59840952D01*
X263408390Y-59840952D02*
X263456009Y-59793333D01*
X263456009Y-59793333D02*
X263551247Y-59745714D01*
X263551247Y-59745714D02*
X263789342Y-59745714D01*
X263789342Y-59745714D02*
X263884580Y-59793333D01*
X263884580Y-59793333D02*
X263932200Y-59840952D01*
X263932200Y-59840952D02*
X263979819Y-59936190D01*
X263979819Y-59936190D02*
X263979819Y-60221904D01*
X263979819Y-60221904D02*
X263932200Y-60317142D01*
X263932200Y-60317142D02*
X263884580Y-60364761D01*
X203559580Y-36996666D02*
X203607200Y-37044285D01*
X203607200Y-37044285D02*
X203654819Y-37187142D01*
X203654819Y-37187142D02*
X203654819Y-37282380D01*
X203654819Y-37282380D02*
X203607200Y-37425237D01*
X203607200Y-37425237D02*
X203511961Y-37520475D01*
X203511961Y-37520475D02*
X203416723Y-37568094D01*
X203416723Y-37568094D02*
X203226247Y-37615713D01*
X203226247Y-37615713D02*
X203083390Y-37615713D01*
X203083390Y-37615713D02*
X202892914Y-37568094D01*
X202892914Y-37568094D02*
X202797676Y-37520475D01*
X202797676Y-37520475D02*
X202702438Y-37425237D01*
X202702438Y-37425237D02*
X202654819Y-37282380D01*
X202654819Y-37282380D02*
X202654819Y-37187142D01*
X202654819Y-37187142D02*
X202702438Y-37044285D01*
X202702438Y-37044285D02*
X202750057Y-36996666D01*
X203654819Y-36044285D02*
X203654819Y-36615713D01*
X203654819Y-36329999D02*
X202654819Y-36329999D01*
X202654819Y-36329999D02*
X202797676Y-36425237D01*
X202797676Y-36425237D02*
X202892914Y-36520475D01*
X202892914Y-36520475D02*
X202940533Y-36615713D01*
X269694819Y-93130476D02*
X269218628Y-93463809D01*
X269694819Y-93701904D02*
X268694819Y-93701904D01*
X268694819Y-93701904D02*
X268694819Y-93320952D01*
X268694819Y-93320952D02*
X268742438Y-93225714D01*
X268742438Y-93225714D02*
X268790057Y-93178095D01*
X268790057Y-93178095D02*
X268885295Y-93130476D01*
X268885295Y-93130476D02*
X269028152Y-93130476D01*
X269028152Y-93130476D02*
X269123390Y-93178095D01*
X269123390Y-93178095D02*
X269171009Y-93225714D01*
X269171009Y-93225714D02*
X269218628Y-93320952D01*
X269218628Y-93320952D02*
X269218628Y-93701904D01*
X269647200Y-92320952D02*
X269694819Y-92416190D01*
X269694819Y-92416190D02*
X269694819Y-92606666D01*
X269694819Y-92606666D02*
X269647200Y-92701904D01*
X269647200Y-92701904D02*
X269551961Y-92749523D01*
X269551961Y-92749523D02*
X269171009Y-92749523D01*
X269171009Y-92749523D02*
X269075771Y-92701904D01*
X269075771Y-92701904D02*
X269028152Y-92606666D01*
X269028152Y-92606666D02*
X269028152Y-92416190D01*
X269028152Y-92416190D02*
X269075771Y-92320952D01*
X269075771Y-92320952D02*
X269171009Y-92273333D01*
X269171009Y-92273333D02*
X269266247Y-92273333D01*
X269266247Y-92273333D02*
X269361485Y-92749523D01*
X269694819Y-91701904D02*
X269647200Y-91797142D01*
X269647200Y-91797142D02*
X269551961Y-91844761D01*
X269551961Y-91844761D02*
X268694819Y-91844761D01*
X269694819Y-90892380D02*
X269171009Y-90892380D01*
X269171009Y-90892380D02*
X269075771Y-90939999D01*
X269075771Y-90939999D02*
X269028152Y-91035237D01*
X269028152Y-91035237D02*
X269028152Y-91225713D01*
X269028152Y-91225713D02*
X269075771Y-91320951D01*
X269647200Y-90892380D02*
X269694819Y-90987618D01*
X269694819Y-90987618D02*
X269694819Y-91225713D01*
X269694819Y-91225713D02*
X269647200Y-91320951D01*
X269647200Y-91320951D02*
X269551961Y-91368570D01*
X269551961Y-91368570D02*
X269456723Y-91368570D01*
X269456723Y-91368570D02*
X269361485Y-91320951D01*
X269361485Y-91320951D02*
X269313866Y-91225713D01*
X269313866Y-91225713D02*
X269313866Y-90987618D01*
X269313866Y-90987618D02*
X269266247Y-90892380D01*
X269028152Y-90511427D02*
X269694819Y-90273332D01*
X269028152Y-90035237D02*
X269694819Y-90273332D01*
X269694819Y-90273332D02*
X269932914Y-90368570D01*
X269932914Y-90368570D02*
X269980533Y-90416189D01*
X269980533Y-90416189D02*
X270028152Y-90511427D01*
X269028152Y-89225713D02*
X269694819Y-89225713D01*
X268647200Y-89463808D02*
X269361485Y-89701903D01*
X269361485Y-89701903D02*
X269361485Y-89082856D01*
X194849761Y-53255057D02*
X194754523Y-53207438D01*
X194754523Y-53207438D02*
X194659285Y-53112200D01*
X194659285Y-53112200D02*
X194516428Y-52969342D01*
X194516428Y-52969342D02*
X194421190Y-52921723D01*
X194421190Y-52921723D02*
X194325952Y-52921723D01*
X194373571Y-53159819D02*
X194278333Y-53112200D01*
X194278333Y-53112200D02*
X194183095Y-53016961D01*
X194183095Y-53016961D02*
X194135476Y-52826485D01*
X194135476Y-52826485D02*
X194135476Y-52493152D01*
X194135476Y-52493152D02*
X194183095Y-52302676D01*
X194183095Y-52302676D02*
X194278333Y-52207438D01*
X194278333Y-52207438D02*
X194373571Y-52159819D01*
X194373571Y-52159819D02*
X194564047Y-52159819D01*
X194564047Y-52159819D02*
X194659285Y-52207438D01*
X194659285Y-52207438D02*
X194754523Y-52302676D01*
X194754523Y-52302676D02*
X194802142Y-52493152D01*
X194802142Y-52493152D02*
X194802142Y-52826485D01*
X194802142Y-52826485D02*
X194754523Y-53016961D01*
X194754523Y-53016961D02*
X194659285Y-53112200D01*
X194659285Y-53112200D02*
X194564047Y-53159819D01*
X194564047Y-53159819D02*
X194373571Y-53159819D01*
X195659285Y-52493152D02*
X195659285Y-53159819D01*
X195421190Y-52112200D02*
X195183095Y-52826485D01*
X195183095Y-52826485D02*
X195802142Y-52826485D01*
X190319819Y-66206666D02*
X189843628Y-66539999D01*
X190319819Y-66778094D02*
X189319819Y-66778094D01*
X189319819Y-66778094D02*
X189319819Y-66397142D01*
X189319819Y-66397142D02*
X189367438Y-66301904D01*
X189367438Y-66301904D02*
X189415057Y-66254285D01*
X189415057Y-66254285D02*
X189510295Y-66206666D01*
X189510295Y-66206666D02*
X189653152Y-66206666D01*
X189653152Y-66206666D02*
X189748390Y-66254285D01*
X189748390Y-66254285D02*
X189796009Y-66301904D01*
X189796009Y-66301904D02*
X189843628Y-66397142D01*
X189843628Y-66397142D02*
X189843628Y-66778094D01*
X189748390Y-65635237D02*
X189700771Y-65730475D01*
X189700771Y-65730475D02*
X189653152Y-65778094D01*
X189653152Y-65778094D02*
X189557914Y-65825713D01*
X189557914Y-65825713D02*
X189510295Y-65825713D01*
X189510295Y-65825713D02*
X189415057Y-65778094D01*
X189415057Y-65778094D02*
X189367438Y-65730475D01*
X189367438Y-65730475D02*
X189319819Y-65635237D01*
X189319819Y-65635237D02*
X189319819Y-65444761D01*
X189319819Y-65444761D02*
X189367438Y-65349523D01*
X189367438Y-65349523D02*
X189415057Y-65301904D01*
X189415057Y-65301904D02*
X189510295Y-65254285D01*
X189510295Y-65254285D02*
X189557914Y-65254285D01*
X189557914Y-65254285D02*
X189653152Y-65301904D01*
X189653152Y-65301904D02*
X189700771Y-65349523D01*
X189700771Y-65349523D02*
X189748390Y-65444761D01*
X189748390Y-65444761D02*
X189748390Y-65635237D01*
X189748390Y-65635237D02*
X189796009Y-65730475D01*
X189796009Y-65730475D02*
X189843628Y-65778094D01*
X189843628Y-65778094D02*
X189938866Y-65825713D01*
X189938866Y-65825713D02*
X190129342Y-65825713D01*
X190129342Y-65825713D02*
X190224580Y-65778094D01*
X190224580Y-65778094D02*
X190272200Y-65730475D01*
X190272200Y-65730475D02*
X190319819Y-65635237D01*
X190319819Y-65635237D02*
X190319819Y-65444761D01*
X190319819Y-65444761D02*
X190272200Y-65349523D01*
X190272200Y-65349523D02*
X190224580Y-65301904D01*
X190224580Y-65301904D02*
X190129342Y-65254285D01*
X190129342Y-65254285D02*
X189938866Y-65254285D01*
X189938866Y-65254285D02*
X189843628Y-65301904D01*
X189843628Y-65301904D02*
X189796009Y-65349523D01*
X189796009Y-65349523D02*
X189748390Y-65444761D01*
X248141904Y-43725180D02*
X248141904Y-43010895D01*
X248141904Y-43010895D02*
X248189523Y-42868038D01*
X248189523Y-42868038D02*
X248284761Y-42772800D01*
X248284761Y-42772800D02*
X248427618Y-42725180D01*
X248427618Y-42725180D02*
X248522856Y-42725180D01*
X247475237Y-43725180D02*
X247284761Y-43725180D01*
X247284761Y-43725180D02*
X247189523Y-43677561D01*
X247189523Y-43677561D02*
X247094285Y-43582323D01*
X247094285Y-43582323D02*
X247046666Y-43391847D01*
X247046666Y-43391847D02*
X247046666Y-43058514D01*
X247046666Y-43058514D02*
X247094285Y-42868038D01*
X247094285Y-42868038D02*
X247189523Y-42772800D01*
X247189523Y-42772800D02*
X247284761Y-42725180D01*
X247284761Y-42725180D02*
X247475237Y-42725180D01*
X247475237Y-42725180D02*
X247570475Y-42772800D01*
X247570475Y-42772800D02*
X247665713Y-42868038D01*
X247665713Y-42868038D02*
X247713332Y-43058514D01*
X247713332Y-43058514D02*
X247713332Y-43391847D01*
X247713332Y-43391847D02*
X247665713Y-43582323D01*
X247665713Y-43582323D02*
X247570475Y-43677561D01*
X247570475Y-43677561D02*
X247475237Y-43725180D01*
X246618094Y-43725180D02*
X246618094Y-42915657D01*
X246618094Y-42915657D02*
X246570475Y-42820419D01*
X246570475Y-42820419D02*
X246522856Y-42772800D01*
X246522856Y-42772800D02*
X246427618Y-42725180D01*
X246427618Y-42725180D02*
X246237142Y-42725180D01*
X246237142Y-42725180D02*
X246141904Y-42772800D01*
X246141904Y-42772800D02*
X246094285Y-42820419D01*
X246094285Y-42820419D02*
X246046666Y-42915657D01*
X246046666Y-42915657D02*
X246046666Y-43725180D01*
X245713332Y-43725180D02*
X245141904Y-43725180D01*
X245427618Y-42725180D02*
X245427618Y-43725180D01*
X244856189Y-43629942D02*
X244808570Y-43677561D01*
X244808570Y-43677561D02*
X244713332Y-43725180D01*
X244713332Y-43725180D02*
X244475237Y-43725180D01*
X244475237Y-43725180D02*
X244379999Y-43677561D01*
X244379999Y-43677561D02*
X244332380Y-43629942D01*
X244332380Y-43629942D02*
X244284761Y-43534704D01*
X244284761Y-43534704D02*
X244284761Y-43439466D01*
X244284761Y-43439466D02*
X244332380Y-43296609D01*
X244332380Y-43296609D02*
X244903808Y-42725180D01*
X244903808Y-42725180D02*
X244284761Y-42725180D01*
X217661904Y-43725180D02*
X217661904Y-43010895D01*
X217661904Y-43010895D02*
X217709523Y-42868038D01*
X217709523Y-42868038D02*
X217804761Y-42772800D01*
X217804761Y-42772800D02*
X217947618Y-42725180D01*
X217947618Y-42725180D02*
X218042856Y-42725180D01*
X216995237Y-43725180D02*
X216804761Y-43725180D01*
X216804761Y-43725180D02*
X216709523Y-43677561D01*
X216709523Y-43677561D02*
X216614285Y-43582323D01*
X216614285Y-43582323D02*
X216566666Y-43391847D01*
X216566666Y-43391847D02*
X216566666Y-43058514D01*
X216566666Y-43058514D02*
X216614285Y-42868038D01*
X216614285Y-42868038D02*
X216709523Y-42772800D01*
X216709523Y-42772800D02*
X216804761Y-42725180D01*
X216804761Y-42725180D02*
X216995237Y-42725180D01*
X216995237Y-42725180D02*
X217090475Y-42772800D01*
X217090475Y-42772800D02*
X217185713Y-42868038D01*
X217185713Y-42868038D02*
X217233332Y-43058514D01*
X217233332Y-43058514D02*
X217233332Y-43391847D01*
X217233332Y-43391847D02*
X217185713Y-43582323D01*
X217185713Y-43582323D02*
X217090475Y-43677561D01*
X217090475Y-43677561D02*
X216995237Y-43725180D01*
X216138094Y-43725180D02*
X216138094Y-42915657D01*
X216138094Y-42915657D02*
X216090475Y-42820419D01*
X216090475Y-42820419D02*
X216042856Y-42772800D01*
X216042856Y-42772800D02*
X215947618Y-42725180D01*
X215947618Y-42725180D02*
X215757142Y-42725180D01*
X215757142Y-42725180D02*
X215661904Y-42772800D01*
X215661904Y-42772800D02*
X215614285Y-42820419D01*
X215614285Y-42820419D02*
X215566666Y-42915657D01*
X215566666Y-42915657D02*
X215566666Y-43725180D01*
X215233332Y-43725180D02*
X214661904Y-43725180D01*
X214947618Y-42725180D02*
X214947618Y-43725180D01*
X214138094Y-43725180D02*
X214042856Y-43725180D01*
X214042856Y-43725180D02*
X213947618Y-43677561D01*
X213947618Y-43677561D02*
X213899999Y-43629942D01*
X213899999Y-43629942D02*
X213852380Y-43534704D01*
X213852380Y-43534704D02*
X213804761Y-43344228D01*
X213804761Y-43344228D02*
X213804761Y-43106133D01*
X213804761Y-43106133D02*
X213852380Y-42915657D01*
X213852380Y-42915657D02*
X213899999Y-42820419D01*
X213899999Y-42820419D02*
X213947618Y-42772800D01*
X213947618Y-42772800D02*
X214042856Y-42725180D01*
X214042856Y-42725180D02*
X214138094Y-42725180D01*
X214138094Y-42725180D02*
X214233332Y-42772800D01*
X214233332Y-42772800D02*
X214280951Y-42820419D01*
X214280951Y-42820419D02*
X214328570Y-42915657D01*
X214328570Y-42915657D02*
X214376189Y-43106133D01*
X214376189Y-43106133D02*
X214376189Y-43344228D01*
X214376189Y-43344228D02*
X214328570Y-43534704D01*
X214328570Y-43534704D02*
X214280951Y-43629942D01*
X214280951Y-43629942D02*
X214233332Y-43677561D01*
X214233332Y-43677561D02*
X214138094Y-43725180D01*
X205655057Y-84550238D02*
X205607438Y-84645476D01*
X205607438Y-84645476D02*
X205512200Y-84740714D01*
X205512200Y-84740714D02*
X205369342Y-84883571D01*
X205369342Y-84883571D02*
X205321723Y-84978809D01*
X205321723Y-84978809D02*
X205321723Y-85074047D01*
X205559819Y-85026428D02*
X205512200Y-85121666D01*
X205512200Y-85121666D02*
X205416961Y-85216904D01*
X205416961Y-85216904D02*
X205226485Y-85264523D01*
X205226485Y-85264523D02*
X204893152Y-85264523D01*
X204893152Y-85264523D02*
X204702676Y-85216904D01*
X204702676Y-85216904D02*
X204607438Y-85121666D01*
X204607438Y-85121666D02*
X204559819Y-85026428D01*
X204559819Y-85026428D02*
X204559819Y-84835952D01*
X204559819Y-84835952D02*
X204607438Y-84740714D01*
X204607438Y-84740714D02*
X204702676Y-84645476D01*
X204702676Y-84645476D02*
X204893152Y-84597857D01*
X204893152Y-84597857D02*
X205226485Y-84597857D01*
X205226485Y-84597857D02*
X205416961Y-84645476D01*
X205416961Y-84645476D02*
X205512200Y-84740714D01*
X205512200Y-84740714D02*
X205559819Y-84835952D01*
X205559819Y-84835952D02*
X205559819Y-85026428D01*
X204655057Y-84216904D02*
X204607438Y-84169285D01*
X204607438Y-84169285D02*
X204559819Y-84074047D01*
X204559819Y-84074047D02*
X204559819Y-83835952D01*
X204559819Y-83835952D02*
X204607438Y-83740714D01*
X204607438Y-83740714D02*
X204655057Y-83693095D01*
X204655057Y-83693095D02*
X204750295Y-83645476D01*
X204750295Y-83645476D02*
X204845533Y-83645476D01*
X204845533Y-83645476D02*
X204988390Y-83693095D01*
X204988390Y-83693095D02*
X205559819Y-84264523D01*
X205559819Y-84264523D02*
X205559819Y-83645476D01*
X202469761Y-53255057D02*
X202374523Y-53207438D01*
X202374523Y-53207438D02*
X202279285Y-53112200D01*
X202279285Y-53112200D02*
X202136428Y-52969342D01*
X202136428Y-52969342D02*
X202041190Y-52921723D01*
X202041190Y-52921723D02*
X201945952Y-52921723D01*
X201993571Y-53159819D02*
X201898333Y-53112200D01*
X201898333Y-53112200D02*
X201803095Y-53016961D01*
X201803095Y-53016961D02*
X201755476Y-52826485D01*
X201755476Y-52826485D02*
X201755476Y-52493152D01*
X201755476Y-52493152D02*
X201803095Y-52302676D01*
X201803095Y-52302676D02*
X201898333Y-52207438D01*
X201898333Y-52207438D02*
X201993571Y-52159819D01*
X201993571Y-52159819D02*
X202184047Y-52159819D01*
X202184047Y-52159819D02*
X202279285Y-52207438D01*
X202279285Y-52207438D02*
X202374523Y-52302676D01*
X202374523Y-52302676D02*
X202422142Y-52493152D01*
X202422142Y-52493152D02*
X202422142Y-52826485D01*
X202422142Y-52826485D02*
X202374523Y-53016961D01*
X202374523Y-53016961D02*
X202279285Y-53112200D01*
X202279285Y-53112200D02*
X202184047Y-53159819D01*
X202184047Y-53159819D02*
X201993571Y-53159819D01*
X202755476Y-52159819D02*
X203374523Y-52159819D01*
X203374523Y-52159819D02*
X203041190Y-52540771D01*
X203041190Y-52540771D02*
X203184047Y-52540771D01*
X203184047Y-52540771D02*
X203279285Y-52588390D01*
X203279285Y-52588390D02*
X203326904Y-52636009D01*
X203326904Y-52636009D02*
X203374523Y-52731247D01*
X203374523Y-52731247D02*
X203374523Y-52969342D01*
X203374523Y-52969342D02*
X203326904Y-53064580D01*
X203326904Y-53064580D02*
X203279285Y-53112200D01*
X203279285Y-53112200D02*
X203184047Y-53159819D01*
X203184047Y-53159819D02*
X202898333Y-53159819D01*
X202898333Y-53159819D02*
X202803095Y-53112200D01*
X202803095Y-53112200D02*
X202755476Y-53064580D01*
X205573333Y-53159819D02*
X205240000Y-52683628D01*
X205001905Y-53159819D02*
X205001905Y-52159819D01*
X205001905Y-52159819D02*
X205382857Y-52159819D01*
X205382857Y-52159819D02*
X205478095Y-52207438D01*
X205478095Y-52207438D02*
X205525714Y-52255057D01*
X205525714Y-52255057D02*
X205573333Y-52350295D01*
X205573333Y-52350295D02*
X205573333Y-52493152D01*
X205573333Y-52493152D02*
X205525714Y-52588390D01*
X205525714Y-52588390D02*
X205478095Y-52636009D01*
X205478095Y-52636009D02*
X205382857Y-52683628D01*
X205382857Y-52683628D02*
X205001905Y-52683628D01*
X205906667Y-52159819D02*
X206573333Y-52159819D01*
X206573333Y-52159819D02*
X206144762Y-53159819D01*
X241119819Y-62198094D02*
X240119819Y-62198094D01*
X240119819Y-62198094D02*
X240119819Y-61959999D01*
X240119819Y-61959999D02*
X240167438Y-61817142D01*
X240167438Y-61817142D02*
X240262676Y-61721904D01*
X240262676Y-61721904D02*
X240357914Y-61674285D01*
X240357914Y-61674285D02*
X240548390Y-61626666D01*
X240548390Y-61626666D02*
X240691247Y-61626666D01*
X240691247Y-61626666D02*
X240881723Y-61674285D01*
X240881723Y-61674285D02*
X240976961Y-61721904D01*
X240976961Y-61721904D02*
X241072200Y-61817142D01*
X241072200Y-61817142D02*
X241119819Y-61959999D01*
X241119819Y-61959999D02*
X241119819Y-62198094D01*
X240596009Y-60864761D02*
X240643628Y-60721904D01*
X240643628Y-60721904D02*
X240691247Y-60674285D01*
X240691247Y-60674285D02*
X240786485Y-60626666D01*
X240786485Y-60626666D02*
X240929342Y-60626666D01*
X240929342Y-60626666D02*
X241024580Y-60674285D01*
X241024580Y-60674285D02*
X241072200Y-60721904D01*
X241072200Y-60721904D02*
X241119819Y-60817142D01*
X241119819Y-60817142D02*
X241119819Y-61198094D01*
X241119819Y-61198094D02*
X240119819Y-61198094D01*
X240119819Y-61198094D02*
X240119819Y-60864761D01*
X240119819Y-60864761D02*
X240167438Y-60769523D01*
X240167438Y-60769523D02*
X240215057Y-60721904D01*
X240215057Y-60721904D02*
X240310295Y-60674285D01*
X240310295Y-60674285D02*
X240405533Y-60674285D01*
X240405533Y-60674285D02*
X240500771Y-60721904D01*
X240500771Y-60721904D02*
X240548390Y-60769523D01*
X240548390Y-60769523D02*
X240596009Y-60864761D01*
X240596009Y-60864761D02*
X240596009Y-61198094D01*
X240215057Y-60245713D02*
X240167438Y-60198094D01*
X240167438Y-60198094D02*
X240119819Y-60102856D01*
X240119819Y-60102856D02*
X240119819Y-59864761D01*
X240119819Y-59864761D02*
X240167438Y-59769523D01*
X240167438Y-59769523D02*
X240215057Y-59721904D01*
X240215057Y-59721904D02*
X240310295Y-59674285D01*
X240310295Y-59674285D02*
X240405533Y-59674285D01*
X240405533Y-59674285D02*
X240548390Y-59721904D01*
X240548390Y-59721904D02*
X241119819Y-60293332D01*
X241119819Y-60293332D02*
X241119819Y-59674285D01*
X263381904Y-43725180D02*
X263381904Y-43010895D01*
X263381904Y-43010895D02*
X263429523Y-42868038D01*
X263429523Y-42868038D02*
X263524761Y-42772800D01*
X263524761Y-42772800D02*
X263667618Y-42725180D01*
X263667618Y-42725180D02*
X263762856Y-42725180D01*
X262715237Y-43725180D02*
X262524761Y-43725180D01*
X262524761Y-43725180D02*
X262429523Y-43677561D01*
X262429523Y-43677561D02*
X262334285Y-43582323D01*
X262334285Y-43582323D02*
X262286666Y-43391847D01*
X262286666Y-43391847D02*
X262286666Y-43058514D01*
X262286666Y-43058514D02*
X262334285Y-42868038D01*
X262334285Y-42868038D02*
X262429523Y-42772800D01*
X262429523Y-42772800D02*
X262524761Y-42725180D01*
X262524761Y-42725180D02*
X262715237Y-42725180D01*
X262715237Y-42725180D02*
X262810475Y-42772800D01*
X262810475Y-42772800D02*
X262905713Y-42868038D01*
X262905713Y-42868038D02*
X262953332Y-43058514D01*
X262953332Y-43058514D02*
X262953332Y-43391847D01*
X262953332Y-43391847D02*
X262905713Y-43582323D01*
X262905713Y-43582323D02*
X262810475Y-43677561D01*
X262810475Y-43677561D02*
X262715237Y-43725180D01*
X261858094Y-43725180D02*
X261858094Y-42915657D01*
X261858094Y-42915657D02*
X261810475Y-42820419D01*
X261810475Y-42820419D02*
X261762856Y-42772800D01*
X261762856Y-42772800D02*
X261667618Y-42725180D01*
X261667618Y-42725180D02*
X261477142Y-42725180D01*
X261477142Y-42725180D02*
X261381904Y-42772800D01*
X261381904Y-42772800D02*
X261334285Y-42820419D01*
X261334285Y-42820419D02*
X261286666Y-42915657D01*
X261286666Y-42915657D02*
X261286666Y-43725180D01*
X260953332Y-43725180D02*
X260381904Y-43725180D01*
X260667618Y-42725180D02*
X260667618Y-43725180D01*
X260143808Y-43725180D02*
X259524761Y-43725180D01*
X259524761Y-43725180D02*
X259858094Y-43344228D01*
X259858094Y-43344228D02*
X259715237Y-43344228D01*
X259715237Y-43344228D02*
X259619999Y-43296609D01*
X259619999Y-43296609D02*
X259572380Y-43248990D01*
X259572380Y-43248990D02*
X259524761Y-43153752D01*
X259524761Y-43153752D02*
X259524761Y-42915657D01*
X259524761Y-42915657D02*
X259572380Y-42820419D01*
X259572380Y-42820419D02*
X259619999Y-42772800D01*
X259619999Y-42772800D02*
X259715237Y-42725180D01*
X259715237Y-42725180D02*
X260000951Y-42725180D01*
X260000951Y-42725180D02*
X260096189Y-42772800D01*
X260096189Y-42772800D02*
X260143808Y-42820419D01*
X254454819Y-93130476D02*
X253978628Y-93463809D01*
X254454819Y-93701904D02*
X253454819Y-93701904D01*
X253454819Y-93701904D02*
X253454819Y-93320952D01*
X253454819Y-93320952D02*
X253502438Y-93225714D01*
X253502438Y-93225714D02*
X253550057Y-93178095D01*
X253550057Y-93178095D02*
X253645295Y-93130476D01*
X253645295Y-93130476D02*
X253788152Y-93130476D01*
X253788152Y-93130476D02*
X253883390Y-93178095D01*
X253883390Y-93178095D02*
X253931009Y-93225714D01*
X253931009Y-93225714D02*
X253978628Y-93320952D01*
X253978628Y-93320952D02*
X253978628Y-93701904D01*
X254407200Y-92320952D02*
X254454819Y-92416190D01*
X254454819Y-92416190D02*
X254454819Y-92606666D01*
X254454819Y-92606666D02*
X254407200Y-92701904D01*
X254407200Y-92701904D02*
X254311961Y-92749523D01*
X254311961Y-92749523D02*
X253931009Y-92749523D01*
X253931009Y-92749523D02*
X253835771Y-92701904D01*
X253835771Y-92701904D02*
X253788152Y-92606666D01*
X253788152Y-92606666D02*
X253788152Y-92416190D01*
X253788152Y-92416190D02*
X253835771Y-92320952D01*
X253835771Y-92320952D02*
X253931009Y-92273333D01*
X253931009Y-92273333D02*
X254026247Y-92273333D01*
X254026247Y-92273333D02*
X254121485Y-92749523D01*
X254454819Y-91701904D02*
X254407200Y-91797142D01*
X254407200Y-91797142D02*
X254311961Y-91844761D01*
X254311961Y-91844761D02*
X253454819Y-91844761D01*
X254454819Y-90892380D02*
X253931009Y-90892380D01*
X253931009Y-90892380D02*
X253835771Y-90939999D01*
X253835771Y-90939999D02*
X253788152Y-91035237D01*
X253788152Y-91035237D02*
X253788152Y-91225713D01*
X253788152Y-91225713D02*
X253835771Y-91320951D01*
X254407200Y-90892380D02*
X254454819Y-90987618D01*
X254454819Y-90987618D02*
X254454819Y-91225713D01*
X254454819Y-91225713D02*
X254407200Y-91320951D01*
X254407200Y-91320951D02*
X254311961Y-91368570D01*
X254311961Y-91368570D02*
X254216723Y-91368570D01*
X254216723Y-91368570D02*
X254121485Y-91320951D01*
X254121485Y-91320951D02*
X254073866Y-91225713D01*
X254073866Y-91225713D02*
X254073866Y-90987618D01*
X254073866Y-90987618D02*
X254026247Y-90892380D01*
X253788152Y-90511427D02*
X254454819Y-90273332D01*
X253788152Y-90035237D02*
X254454819Y-90273332D01*
X254454819Y-90273332D02*
X254692914Y-90368570D01*
X254692914Y-90368570D02*
X254740533Y-90416189D01*
X254740533Y-90416189D02*
X254788152Y-90511427D01*
X253454819Y-89749522D02*
X253454819Y-89130475D01*
X253454819Y-89130475D02*
X253835771Y-89463808D01*
X253835771Y-89463808D02*
X253835771Y-89320951D01*
X253835771Y-89320951D02*
X253883390Y-89225713D01*
X253883390Y-89225713D02*
X253931009Y-89178094D01*
X253931009Y-89178094D02*
X254026247Y-89130475D01*
X254026247Y-89130475D02*
X254264342Y-89130475D01*
X254264342Y-89130475D02*
X254359580Y-89178094D01*
X254359580Y-89178094D02*
X254407200Y-89225713D01*
X254407200Y-89225713D02*
X254454819Y-89320951D01*
X254454819Y-89320951D02*
X254454819Y-89606665D01*
X254454819Y-89606665D02*
X254407200Y-89701903D01*
X254407200Y-89701903D02*
X254359580Y-89749522D01*
X198574819Y-37472857D02*
X198098628Y-37806190D01*
X198574819Y-38044285D02*
X197574819Y-38044285D01*
X197574819Y-38044285D02*
X197574819Y-37663333D01*
X197574819Y-37663333D02*
X197622438Y-37568095D01*
X197622438Y-37568095D02*
X197670057Y-37520476D01*
X197670057Y-37520476D02*
X197765295Y-37472857D01*
X197765295Y-37472857D02*
X197908152Y-37472857D01*
X197908152Y-37472857D02*
X198003390Y-37520476D01*
X198003390Y-37520476D02*
X198051009Y-37568095D01*
X198051009Y-37568095D02*
X198098628Y-37663333D01*
X198098628Y-37663333D02*
X198098628Y-38044285D01*
X198574819Y-36520476D02*
X198574819Y-37091904D01*
X198574819Y-36806190D02*
X197574819Y-36806190D01*
X197574819Y-36806190D02*
X197717676Y-36901428D01*
X197717676Y-36901428D02*
X197812914Y-36996666D01*
X197812914Y-36996666D02*
X197860533Y-37091904D01*
X197908152Y-35663333D02*
X198574819Y-35663333D01*
X197527200Y-35901428D02*
X198241485Y-36139523D01*
X198241485Y-36139523D02*
X198241485Y-35520476D01*
X239214819Y-93130476D02*
X238738628Y-93463809D01*
X239214819Y-93701904D02*
X238214819Y-93701904D01*
X238214819Y-93701904D02*
X238214819Y-93320952D01*
X238214819Y-93320952D02*
X238262438Y-93225714D01*
X238262438Y-93225714D02*
X238310057Y-93178095D01*
X238310057Y-93178095D02*
X238405295Y-93130476D01*
X238405295Y-93130476D02*
X238548152Y-93130476D01*
X238548152Y-93130476D02*
X238643390Y-93178095D01*
X238643390Y-93178095D02*
X238691009Y-93225714D01*
X238691009Y-93225714D02*
X238738628Y-93320952D01*
X238738628Y-93320952D02*
X238738628Y-93701904D01*
X239167200Y-92320952D02*
X239214819Y-92416190D01*
X239214819Y-92416190D02*
X239214819Y-92606666D01*
X239214819Y-92606666D02*
X239167200Y-92701904D01*
X239167200Y-92701904D02*
X239071961Y-92749523D01*
X239071961Y-92749523D02*
X238691009Y-92749523D01*
X238691009Y-92749523D02*
X238595771Y-92701904D01*
X238595771Y-92701904D02*
X238548152Y-92606666D01*
X238548152Y-92606666D02*
X238548152Y-92416190D01*
X238548152Y-92416190D02*
X238595771Y-92320952D01*
X238595771Y-92320952D02*
X238691009Y-92273333D01*
X238691009Y-92273333D02*
X238786247Y-92273333D01*
X238786247Y-92273333D02*
X238881485Y-92749523D01*
X239214819Y-91701904D02*
X239167200Y-91797142D01*
X239167200Y-91797142D02*
X239071961Y-91844761D01*
X239071961Y-91844761D02*
X238214819Y-91844761D01*
X239214819Y-90892380D02*
X238691009Y-90892380D01*
X238691009Y-90892380D02*
X238595771Y-90939999D01*
X238595771Y-90939999D02*
X238548152Y-91035237D01*
X238548152Y-91035237D02*
X238548152Y-91225713D01*
X238548152Y-91225713D02*
X238595771Y-91320951D01*
X239167200Y-90892380D02*
X239214819Y-90987618D01*
X239214819Y-90987618D02*
X239214819Y-91225713D01*
X239214819Y-91225713D02*
X239167200Y-91320951D01*
X239167200Y-91320951D02*
X239071961Y-91368570D01*
X239071961Y-91368570D02*
X238976723Y-91368570D01*
X238976723Y-91368570D02*
X238881485Y-91320951D01*
X238881485Y-91320951D02*
X238833866Y-91225713D01*
X238833866Y-91225713D02*
X238833866Y-90987618D01*
X238833866Y-90987618D02*
X238786247Y-90892380D01*
X238548152Y-90511427D02*
X239214819Y-90273332D01*
X238548152Y-90035237D02*
X239214819Y-90273332D01*
X239214819Y-90273332D02*
X239452914Y-90368570D01*
X239452914Y-90368570D02*
X239500533Y-90416189D01*
X239500533Y-90416189D02*
X239548152Y-90511427D01*
X238310057Y-89701903D02*
X238262438Y-89654284D01*
X238262438Y-89654284D02*
X238214819Y-89559046D01*
X238214819Y-89559046D02*
X238214819Y-89320951D01*
X238214819Y-89320951D02*
X238262438Y-89225713D01*
X238262438Y-89225713D02*
X238310057Y-89178094D01*
X238310057Y-89178094D02*
X238405295Y-89130475D01*
X238405295Y-89130475D02*
X238500533Y-89130475D01*
X238500533Y-89130475D02*
X238643390Y-89178094D01*
X238643390Y-89178094D02*
X239214819Y-89749522D01*
X239214819Y-89749522D02*
X239214819Y-89130475D01*
X232901904Y-43725180D02*
X232901904Y-43010895D01*
X232901904Y-43010895D02*
X232949523Y-42868038D01*
X232949523Y-42868038D02*
X233044761Y-42772800D01*
X233044761Y-42772800D02*
X233187618Y-42725180D01*
X233187618Y-42725180D02*
X233282856Y-42725180D01*
X232235237Y-43725180D02*
X232044761Y-43725180D01*
X232044761Y-43725180D02*
X231949523Y-43677561D01*
X231949523Y-43677561D02*
X231854285Y-43582323D01*
X231854285Y-43582323D02*
X231806666Y-43391847D01*
X231806666Y-43391847D02*
X231806666Y-43058514D01*
X231806666Y-43058514D02*
X231854285Y-42868038D01*
X231854285Y-42868038D02*
X231949523Y-42772800D01*
X231949523Y-42772800D02*
X232044761Y-42725180D01*
X232044761Y-42725180D02*
X232235237Y-42725180D01*
X232235237Y-42725180D02*
X232330475Y-42772800D01*
X232330475Y-42772800D02*
X232425713Y-42868038D01*
X232425713Y-42868038D02*
X232473332Y-43058514D01*
X232473332Y-43058514D02*
X232473332Y-43391847D01*
X232473332Y-43391847D02*
X232425713Y-43582323D01*
X232425713Y-43582323D02*
X232330475Y-43677561D01*
X232330475Y-43677561D02*
X232235237Y-43725180D01*
X231378094Y-43725180D02*
X231378094Y-42915657D01*
X231378094Y-42915657D02*
X231330475Y-42820419D01*
X231330475Y-42820419D02*
X231282856Y-42772800D01*
X231282856Y-42772800D02*
X231187618Y-42725180D01*
X231187618Y-42725180D02*
X230997142Y-42725180D01*
X230997142Y-42725180D02*
X230901904Y-42772800D01*
X230901904Y-42772800D02*
X230854285Y-42820419D01*
X230854285Y-42820419D02*
X230806666Y-42915657D01*
X230806666Y-42915657D02*
X230806666Y-43725180D01*
X230473332Y-43725180D02*
X229901904Y-43725180D01*
X230187618Y-42725180D02*
X230187618Y-43725180D01*
X229044761Y-42725180D02*
X229616189Y-42725180D01*
X229330475Y-42725180D02*
X229330475Y-43725180D01*
X229330475Y-43725180D02*
X229425713Y-43582323D01*
X229425713Y-43582323D02*
X229520951Y-43487085D01*
X229520951Y-43487085D02*
X229616189Y-43439466D01*
X203827142Y-115389819D02*
X203493809Y-114913628D01*
X203255714Y-115389819D02*
X203255714Y-114389819D01*
X203255714Y-114389819D02*
X203636666Y-114389819D01*
X203636666Y-114389819D02*
X203731904Y-114437438D01*
X203731904Y-114437438D02*
X203779523Y-114485057D01*
X203779523Y-114485057D02*
X203827142Y-114580295D01*
X203827142Y-114580295D02*
X203827142Y-114723152D01*
X203827142Y-114723152D02*
X203779523Y-114818390D01*
X203779523Y-114818390D02*
X203731904Y-114866009D01*
X203731904Y-114866009D02*
X203636666Y-114913628D01*
X203636666Y-114913628D02*
X203255714Y-114913628D01*
X204779523Y-115389819D02*
X204208095Y-115389819D01*
X204493809Y-115389819D02*
X204493809Y-114389819D01*
X204493809Y-114389819D02*
X204398571Y-114532676D01*
X204398571Y-114532676D02*
X204303333Y-114627914D01*
X204303333Y-114627914D02*
X204208095Y-114675533D01*
X205684285Y-114389819D02*
X205208095Y-114389819D01*
X205208095Y-114389819D02*
X205160476Y-114866009D01*
X205160476Y-114866009D02*
X205208095Y-114818390D01*
X205208095Y-114818390D02*
X205303333Y-114770771D01*
X205303333Y-114770771D02*
X205541428Y-114770771D01*
X205541428Y-114770771D02*
X205636666Y-114818390D01*
X205636666Y-114818390D02*
X205684285Y-114866009D01*
X205684285Y-114866009D02*
X205731904Y-114961247D01*
X205731904Y-114961247D02*
X205731904Y-115199342D01*
X205731904Y-115199342D02*
X205684285Y-115294580D01*
X205684285Y-115294580D02*
X205636666Y-115342200D01*
X205636666Y-115342200D02*
X205541428Y-115389819D01*
X205541428Y-115389819D02*
X205303333Y-115389819D01*
X205303333Y-115389819D02*
X205208095Y-115342200D01*
X205208095Y-115342200D02*
X205160476Y-115294580D01*
X210639819Y-62198094D02*
X209639819Y-62198094D01*
X209639819Y-62198094D02*
X209639819Y-61959999D01*
X209639819Y-61959999D02*
X209687438Y-61817142D01*
X209687438Y-61817142D02*
X209782676Y-61721904D01*
X209782676Y-61721904D02*
X209877914Y-61674285D01*
X209877914Y-61674285D02*
X210068390Y-61626666D01*
X210068390Y-61626666D02*
X210211247Y-61626666D01*
X210211247Y-61626666D02*
X210401723Y-61674285D01*
X210401723Y-61674285D02*
X210496961Y-61721904D01*
X210496961Y-61721904D02*
X210592200Y-61817142D01*
X210592200Y-61817142D02*
X210639819Y-61959999D01*
X210639819Y-61959999D02*
X210639819Y-62198094D01*
X210116009Y-60864761D02*
X210163628Y-60721904D01*
X210163628Y-60721904D02*
X210211247Y-60674285D01*
X210211247Y-60674285D02*
X210306485Y-60626666D01*
X210306485Y-60626666D02*
X210449342Y-60626666D01*
X210449342Y-60626666D02*
X210544580Y-60674285D01*
X210544580Y-60674285D02*
X210592200Y-60721904D01*
X210592200Y-60721904D02*
X210639819Y-60817142D01*
X210639819Y-60817142D02*
X210639819Y-61198094D01*
X210639819Y-61198094D02*
X209639819Y-61198094D01*
X209639819Y-61198094D02*
X209639819Y-60864761D01*
X209639819Y-60864761D02*
X209687438Y-60769523D01*
X209687438Y-60769523D02*
X209735057Y-60721904D01*
X209735057Y-60721904D02*
X209830295Y-60674285D01*
X209830295Y-60674285D02*
X209925533Y-60674285D01*
X209925533Y-60674285D02*
X210020771Y-60721904D01*
X210020771Y-60721904D02*
X210068390Y-60769523D01*
X210068390Y-60769523D02*
X210116009Y-60864761D01*
X210116009Y-60864761D02*
X210116009Y-61198094D01*
X209639819Y-60007618D02*
X209639819Y-59912380D01*
X209639819Y-59912380D02*
X209687438Y-59817142D01*
X209687438Y-59817142D02*
X209735057Y-59769523D01*
X209735057Y-59769523D02*
X209830295Y-59721904D01*
X209830295Y-59721904D02*
X210020771Y-59674285D01*
X210020771Y-59674285D02*
X210258866Y-59674285D01*
X210258866Y-59674285D02*
X210449342Y-59721904D01*
X210449342Y-59721904D02*
X210544580Y-59769523D01*
X210544580Y-59769523D02*
X210592200Y-59817142D01*
X210592200Y-59817142D02*
X210639819Y-59912380D01*
X210639819Y-59912380D02*
X210639819Y-60007618D01*
X210639819Y-60007618D02*
X210592200Y-60102856D01*
X210592200Y-60102856D02*
X210544580Y-60150475D01*
X210544580Y-60150475D02*
X210449342Y-60198094D01*
X210449342Y-60198094D02*
X210258866Y-60245713D01*
X210258866Y-60245713D02*
X210020771Y-60245713D01*
X210020771Y-60245713D02*
X209830295Y-60198094D01*
X209830295Y-60198094D02*
X209735057Y-60150475D01*
X209735057Y-60150475D02*
X209687438Y-60102856D01*
X209687438Y-60102856D02*
X209639819Y-60007618D01*
X194143333Y-87354580D02*
X194095714Y-87402200D01*
X194095714Y-87402200D02*
X193952857Y-87449819D01*
X193952857Y-87449819D02*
X193857619Y-87449819D01*
X193857619Y-87449819D02*
X193714762Y-87402200D01*
X193714762Y-87402200D02*
X193619524Y-87306961D01*
X193619524Y-87306961D02*
X193571905Y-87211723D01*
X193571905Y-87211723D02*
X193524286Y-87021247D01*
X193524286Y-87021247D02*
X193524286Y-86878390D01*
X193524286Y-86878390D02*
X193571905Y-86687914D01*
X193571905Y-86687914D02*
X193619524Y-86592676D01*
X193619524Y-86592676D02*
X193714762Y-86497438D01*
X193714762Y-86497438D02*
X193857619Y-86449819D01*
X193857619Y-86449819D02*
X193952857Y-86449819D01*
X193952857Y-86449819D02*
X194095714Y-86497438D01*
X194095714Y-86497438D02*
X194143333Y-86545057D01*
X194524286Y-86545057D02*
X194571905Y-86497438D01*
X194571905Y-86497438D02*
X194667143Y-86449819D01*
X194667143Y-86449819D02*
X194905238Y-86449819D01*
X194905238Y-86449819D02*
X195000476Y-86497438D01*
X195000476Y-86497438D02*
X195048095Y-86545057D01*
X195048095Y-86545057D02*
X195095714Y-86640295D01*
X195095714Y-86640295D02*
X195095714Y-86735533D01*
X195095714Y-86735533D02*
X195048095Y-86878390D01*
X195048095Y-86878390D02*
X194476667Y-87449819D01*
X194476667Y-87449819D02*
X195095714Y-87449819D01*
X225879819Y-62198094D02*
X224879819Y-62198094D01*
X224879819Y-62198094D02*
X224879819Y-61959999D01*
X224879819Y-61959999D02*
X224927438Y-61817142D01*
X224927438Y-61817142D02*
X225022676Y-61721904D01*
X225022676Y-61721904D02*
X225117914Y-61674285D01*
X225117914Y-61674285D02*
X225308390Y-61626666D01*
X225308390Y-61626666D02*
X225451247Y-61626666D01*
X225451247Y-61626666D02*
X225641723Y-61674285D01*
X225641723Y-61674285D02*
X225736961Y-61721904D01*
X225736961Y-61721904D02*
X225832200Y-61817142D01*
X225832200Y-61817142D02*
X225879819Y-61959999D01*
X225879819Y-61959999D02*
X225879819Y-62198094D01*
X225356009Y-60864761D02*
X225403628Y-60721904D01*
X225403628Y-60721904D02*
X225451247Y-60674285D01*
X225451247Y-60674285D02*
X225546485Y-60626666D01*
X225546485Y-60626666D02*
X225689342Y-60626666D01*
X225689342Y-60626666D02*
X225784580Y-60674285D01*
X225784580Y-60674285D02*
X225832200Y-60721904D01*
X225832200Y-60721904D02*
X225879819Y-60817142D01*
X225879819Y-60817142D02*
X225879819Y-61198094D01*
X225879819Y-61198094D02*
X224879819Y-61198094D01*
X224879819Y-61198094D02*
X224879819Y-60864761D01*
X224879819Y-60864761D02*
X224927438Y-60769523D01*
X224927438Y-60769523D02*
X224975057Y-60721904D01*
X224975057Y-60721904D02*
X225070295Y-60674285D01*
X225070295Y-60674285D02*
X225165533Y-60674285D01*
X225165533Y-60674285D02*
X225260771Y-60721904D01*
X225260771Y-60721904D02*
X225308390Y-60769523D01*
X225308390Y-60769523D02*
X225356009Y-60864761D01*
X225356009Y-60864761D02*
X225356009Y-61198094D01*
X225879819Y-59674285D02*
X225879819Y-60245713D01*
X225879819Y-59959999D02*
X224879819Y-59959999D01*
X224879819Y-59959999D02*
X225022676Y-60055237D01*
X225022676Y-60055237D02*
X225117914Y-60150475D01*
X225117914Y-60150475D02*
X225165533Y-60245713D01*
X260524762Y-108674819D02*
X260524762Y-109389104D01*
X260524762Y-109389104D02*
X260477143Y-109531961D01*
X260477143Y-109531961D02*
X260381905Y-109627200D01*
X260381905Y-109627200D02*
X260239048Y-109674819D01*
X260239048Y-109674819D02*
X260143810Y-109674819D01*
X261000953Y-109674819D02*
X261000953Y-108674819D01*
X261477143Y-109674819D02*
X261477143Y-108674819D01*
X261477143Y-108674819D02*
X262048571Y-109674819D01*
X262048571Y-109674819D02*
X262048571Y-108674819D01*
X262429524Y-108674819D02*
X263048571Y-108674819D01*
X263048571Y-108674819D02*
X262715238Y-109055771D01*
X262715238Y-109055771D02*
X262858095Y-109055771D01*
X262858095Y-109055771D02*
X262953333Y-109103390D01*
X262953333Y-109103390D02*
X263000952Y-109151009D01*
X263000952Y-109151009D02*
X263048571Y-109246247D01*
X263048571Y-109246247D02*
X263048571Y-109484342D01*
X263048571Y-109484342D02*
X263000952Y-109579580D01*
X263000952Y-109579580D02*
X262953333Y-109627200D01*
X262953333Y-109627200D02*
X262858095Y-109674819D01*
X262858095Y-109674819D02*
X262572381Y-109674819D01*
X262572381Y-109674819D02*
X262477143Y-109627200D01*
X262477143Y-109627200D02*
X262429524Y-109579580D01*
X214804762Y-108674819D02*
X214804762Y-109389104D01*
X214804762Y-109389104D02*
X214757143Y-109531961D01*
X214757143Y-109531961D02*
X214661905Y-109627200D01*
X214661905Y-109627200D02*
X214519048Y-109674819D01*
X214519048Y-109674819D02*
X214423810Y-109674819D01*
X215280953Y-109674819D02*
X215280953Y-108674819D01*
X215757143Y-109674819D02*
X215757143Y-108674819D01*
X215757143Y-108674819D02*
X216328571Y-109674819D01*
X216328571Y-109674819D02*
X216328571Y-108674819D01*
X216995238Y-108674819D02*
X217090476Y-108674819D01*
X217090476Y-108674819D02*
X217185714Y-108722438D01*
X217185714Y-108722438D02*
X217233333Y-108770057D01*
X217233333Y-108770057D02*
X217280952Y-108865295D01*
X217280952Y-108865295D02*
X217328571Y-109055771D01*
X217328571Y-109055771D02*
X217328571Y-109293866D01*
X217328571Y-109293866D02*
X217280952Y-109484342D01*
X217280952Y-109484342D02*
X217233333Y-109579580D01*
X217233333Y-109579580D02*
X217185714Y-109627200D01*
X217185714Y-109627200D02*
X217090476Y-109674819D01*
X217090476Y-109674819D02*
X216995238Y-109674819D01*
X216995238Y-109674819D02*
X216900000Y-109627200D01*
X216900000Y-109627200D02*
X216852381Y-109579580D01*
X216852381Y-109579580D02*
X216804762Y-109484342D01*
X216804762Y-109484342D02*
X216757143Y-109293866D01*
X216757143Y-109293866D02*
X216757143Y-109055771D01*
X216757143Y-109055771D02*
X216804762Y-108865295D01*
X216804762Y-108865295D02*
X216852381Y-108770057D01*
X216852381Y-108770057D02*
X216900000Y-108722438D01*
X216900000Y-108722438D02*
X216995238Y-108674819D01*
X193764819Y-60451904D02*
X194574342Y-60451904D01*
X194574342Y-60451904D02*
X194669580Y-60404285D01*
X194669580Y-60404285D02*
X194717200Y-60356666D01*
X194717200Y-60356666D02*
X194764819Y-60261428D01*
X194764819Y-60261428D02*
X194764819Y-60070952D01*
X194764819Y-60070952D02*
X194717200Y-59975714D01*
X194717200Y-59975714D02*
X194669580Y-59928095D01*
X194669580Y-59928095D02*
X194574342Y-59880476D01*
X194574342Y-59880476D02*
X193764819Y-59880476D01*
X194764819Y-58880476D02*
X194764819Y-59451904D01*
X194764819Y-59166190D02*
X193764819Y-59166190D01*
X193764819Y-59166190D02*
X193907676Y-59261428D01*
X193907676Y-59261428D02*
X194002914Y-59356666D01*
X194002914Y-59356666D02*
X194050533Y-59451904D01*
X229689819Y-61126666D02*
X229213628Y-61459999D01*
X229689819Y-61698094D02*
X228689819Y-61698094D01*
X228689819Y-61698094D02*
X228689819Y-61317142D01*
X228689819Y-61317142D02*
X228737438Y-61221904D01*
X228737438Y-61221904D02*
X228785057Y-61174285D01*
X228785057Y-61174285D02*
X228880295Y-61126666D01*
X228880295Y-61126666D02*
X229023152Y-61126666D01*
X229023152Y-61126666D02*
X229118390Y-61174285D01*
X229118390Y-61174285D02*
X229166009Y-61221904D01*
X229166009Y-61221904D02*
X229213628Y-61317142D01*
X229213628Y-61317142D02*
X229213628Y-61698094D01*
X228689819Y-60269523D02*
X228689819Y-60459999D01*
X228689819Y-60459999D02*
X228737438Y-60555237D01*
X228737438Y-60555237D02*
X228785057Y-60602856D01*
X228785057Y-60602856D02*
X228927914Y-60698094D01*
X228927914Y-60698094D02*
X229118390Y-60745713D01*
X229118390Y-60745713D02*
X229499342Y-60745713D01*
X229499342Y-60745713D02*
X229594580Y-60698094D01*
X229594580Y-60698094D02*
X229642200Y-60650475D01*
X229642200Y-60650475D02*
X229689819Y-60555237D01*
X229689819Y-60555237D02*
X229689819Y-60364761D01*
X229689819Y-60364761D02*
X229642200Y-60269523D01*
X229642200Y-60269523D02*
X229594580Y-60221904D01*
X229594580Y-60221904D02*
X229499342Y-60174285D01*
X229499342Y-60174285D02*
X229261247Y-60174285D01*
X229261247Y-60174285D02*
X229166009Y-60221904D01*
X229166009Y-60221904D02*
X229118390Y-60269523D01*
X229118390Y-60269523D02*
X229070771Y-60364761D01*
X229070771Y-60364761D02*
X229070771Y-60555237D01*
X229070771Y-60555237D02*
X229118390Y-60650475D01*
X229118390Y-60650475D02*
X229166009Y-60698094D01*
X229166009Y-60698094D02*
X229261247Y-60745713D01*
X198651905Y-115389819D02*
X198651905Y-114389819D01*
X198651905Y-114389819D02*
X198890000Y-114389819D01*
X198890000Y-114389819D02*
X199032857Y-114437438D01*
X199032857Y-114437438D02*
X199128095Y-114532676D01*
X199128095Y-114532676D02*
X199175714Y-114627914D01*
X199175714Y-114627914D02*
X199223333Y-114818390D01*
X199223333Y-114818390D02*
X199223333Y-114961247D01*
X199223333Y-114961247D02*
X199175714Y-115151723D01*
X199175714Y-115151723D02*
X199128095Y-115246961D01*
X199128095Y-115246961D02*
X199032857Y-115342200D01*
X199032857Y-115342200D02*
X198890000Y-115389819D01*
X198890000Y-115389819D02*
X198651905Y-115389819D01*
X199604286Y-114485057D02*
X199651905Y-114437438D01*
X199651905Y-114437438D02*
X199747143Y-114389819D01*
X199747143Y-114389819D02*
X199985238Y-114389819D01*
X199985238Y-114389819D02*
X200080476Y-114437438D01*
X200080476Y-114437438D02*
X200128095Y-114485057D01*
X200128095Y-114485057D02*
X200175714Y-114580295D01*
X200175714Y-114580295D02*
X200175714Y-114675533D01*
X200175714Y-114675533D02*
X200128095Y-114818390D01*
X200128095Y-114818390D02*
X199556667Y-115389819D01*
X199556667Y-115389819D02*
X200175714Y-115389819D01*
X245284762Y-108674819D02*
X245284762Y-109389104D01*
X245284762Y-109389104D02*
X245237143Y-109531961D01*
X245237143Y-109531961D02*
X245141905Y-109627200D01*
X245141905Y-109627200D02*
X244999048Y-109674819D01*
X244999048Y-109674819D02*
X244903810Y-109674819D01*
X245760953Y-109674819D02*
X245760953Y-108674819D01*
X246237143Y-109674819D02*
X246237143Y-108674819D01*
X246237143Y-108674819D02*
X246808571Y-109674819D01*
X246808571Y-109674819D02*
X246808571Y-108674819D01*
X247237143Y-108770057D02*
X247284762Y-108722438D01*
X247284762Y-108722438D02*
X247380000Y-108674819D01*
X247380000Y-108674819D02*
X247618095Y-108674819D01*
X247618095Y-108674819D02*
X247713333Y-108722438D01*
X247713333Y-108722438D02*
X247760952Y-108770057D01*
X247760952Y-108770057D02*
X247808571Y-108865295D01*
X247808571Y-108865295D02*
X247808571Y-108960533D01*
X247808571Y-108960533D02*
X247760952Y-109103390D01*
X247760952Y-109103390D02*
X247189524Y-109674819D01*
X247189524Y-109674819D02*
X247808571Y-109674819D01*
X214449819Y-61126666D02*
X213973628Y-61459999D01*
X214449819Y-61698094D02*
X213449819Y-61698094D01*
X213449819Y-61698094D02*
X213449819Y-61317142D01*
X213449819Y-61317142D02*
X213497438Y-61221904D01*
X213497438Y-61221904D02*
X213545057Y-61174285D01*
X213545057Y-61174285D02*
X213640295Y-61126666D01*
X213640295Y-61126666D02*
X213783152Y-61126666D01*
X213783152Y-61126666D02*
X213878390Y-61174285D01*
X213878390Y-61174285D02*
X213926009Y-61221904D01*
X213926009Y-61221904D02*
X213973628Y-61317142D01*
X213973628Y-61317142D02*
X213973628Y-61698094D01*
X213545057Y-60745713D02*
X213497438Y-60698094D01*
X213497438Y-60698094D02*
X213449819Y-60602856D01*
X213449819Y-60602856D02*
X213449819Y-60364761D01*
X213449819Y-60364761D02*
X213497438Y-60269523D01*
X213497438Y-60269523D02*
X213545057Y-60221904D01*
X213545057Y-60221904D02*
X213640295Y-60174285D01*
X213640295Y-60174285D02*
X213735533Y-60174285D01*
X213735533Y-60174285D02*
X213878390Y-60221904D01*
X213878390Y-60221904D02*
X214449819Y-60793332D01*
X214449819Y-60793332D02*
X214449819Y-60174285D01*
X244929819Y-61126666D02*
X244453628Y-61459999D01*
X244929819Y-61698094D02*
X243929819Y-61698094D01*
X243929819Y-61698094D02*
X243929819Y-61317142D01*
X243929819Y-61317142D02*
X243977438Y-61221904D01*
X243977438Y-61221904D02*
X244025057Y-61174285D01*
X244025057Y-61174285D02*
X244120295Y-61126666D01*
X244120295Y-61126666D02*
X244263152Y-61126666D01*
X244263152Y-61126666D02*
X244358390Y-61174285D01*
X244358390Y-61174285D02*
X244406009Y-61221904D01*
X244406009Y-61221904D02*
X244453628Y-61317142D01*
X244453628Y-61317142D02*
X244453628Y-61698094D01*
X244929819Y-60650475D02*
X244929819Y-60459999D01*
X244929819Y-60459999D02*
X244882200Y-60364761D01*
X244882200Y-60364761D02*
X244834580Y-60317142D01*
X244834580Y-60317142D02*
X244691723Y-60221904D01*
X244691723Y-60221904D02*
X244501247Y-60174285D01*
X244501247Y-60174285D02*
X244120295Y-60174285D01*
X244120295Y-60174285D02*
X244025057Y-60221904D01*
X244025057Y-60221904D02*
X243977438Y-60269523D01*
X243977438Y-60269523D02*
X243929819Y-60364761D01*
X243929819Y-60364761D02*
X243929819Y-60555237D01*
X243929819Y-60555237D02*
X243977438Y-60650475D01*
X243977438Y-60650475D02*
X244025057Y-60698094D01*
X244025057Y-60698094D02*
X244120295Y-60745713D01*
X244120295Y-60745713D02*
X244358390Y-60745713D01*
X244358390Y-60745713D02*
X244453628Y-60698094D01*
X244453628Y-60698094D02*
X244501247Y-60650475D01*
X244501247Y-60650475D02*
X244548866Y-60555237D01*
X244548866Y-60555237D02*
X244548866Y-60364761D01*
X244548866Y-60364761D02*
X244501247Y-60269523D01*
X244501247Y-60269523D02*
X244453628Y-60221904D01*
X244453628Y-60221904D02*
X244358390Y-60174285D01*
X205394819Y-49021904D02*
X206204342Y-49021904D01*
X206204342Y-49021904D02*
X206299580Y-48974285D01*
X206299580Y-48974285D02*
X206347200Y-48926666D01*
X206347200Y-48926666D02*
X206394819Y-48831428D01*
X206394819Y-48831428D02*
X206394819Y-48640952D01*
X206394819Y-48640952D02*
X206347200Y-48545714D01*
X206347200Y-48545714D02*
X206299580Y-48498095D01*
X206299580Y-48498095D02*
X206204342Y-48450476D01*
X206204342Y-48450476D02*
X205394819Y-48450476D01*
X205490057Y-48021904D02*
X205442438Y-47974285D01*
X205442438Y-47974285D02*
X205394819Y-47879047D01*
X205394819Y-47879047D02*
X205394819Y-47640952D01*
X205394819Y-47640952D02*
X205442438Y-47545714D01*
X205442438Y-47545714D02*
X205490057Y-47498095D01*
X205490057Y-47498095D02*
X205585295Y-47450476D01*
X205585295Y-47450476D02*
X205680533Y-47450476D01*
X205680533Y-47450476D02*
X205823390Y-47498095D01*
X205823390Y-47498095D02*
X206394819Y-48069523D01*
X206394819Y-48069523D02*
X206394819Y-47450476D01*
X205319405Y-100784819D02*
X205319405Y-99784819D01*
X205319405Y-99784819D02*
X205557500Y-99784819D01*
X205557500Y-99784819D02*
X205700357Y-99832438D01*
X205700357Y-99832438D02*
X205795595Y-99927676D01*
X205795595Y-99927676D02*
X205843214Y-100022914D01*
X205843214Y-100022914D02*
X205890833Y-100213390D01*
X205890833Y-100213390D02*
X205890833Y-100356247D01*
X205890833Y-100356247D02*
X205843214Y-100546723D01*
X205843214Y-100546723D02*
X205795595Y-100641961D01*
X205795595Y-100641961D02*
X205700357Y-100737200D01*
X205700357Y-100737200D02*
X205557500Y-100784819D01*
X205557500Y-100784819D02*
X205319405Y-100784819D01*
X206843214Y-100784819D02*
X206271786Y-100784819D01*
X206557500Y-100784819D02*
X206557500Y-99784819D01*
X206557500Y-99784819D02*
X206462262Y-99927676D01*
X206462262Y-99927676D02*
X206367024Y-100022914D01*
X206367024Y-100022914D02*
X206271786Y-100070533D01*
X218259819Y-62126666D02*
X217259819Y-62126666D01*
X217259819Y-62126666D02*
X217259819Y-61888571D01*
X217259819Y-61888571D02*
X217307438Y-61745714D01*
X217307438Y-61745714D02*
X217402676Y-61650476D01*
X217402676Y-61650476D02*
X217497914Y-61602857D01*
X217497914Y-61602857D02*
X217688390Y-61555238D01*
X217688390Y-61555238D02*
X217831247Y-61555238D01*
X217831247Y-61555238D02*
X218021723Y-61602857D01*
X218021723Y-61602857D02*
X218116961Y-61650476D01*
X218116961Y-61650476D02*
X218212200Y-61745714D01*
X218212200Y-61745714D02*
X218259819Y-61888571D01*
X218259819Y-61888571D02*
X218259819Y-62126666D01*
X217974104Y-61174285D02*
X217974104Y-60698095D01*
X218259819Y-61269523D02*
X217259819Y-60936190D01*
X217259819Y-60936190D02*
X218259819Y-60602857D01*
X217259819Y-60079047D02*
X217259819Y-59983809D01*
X217259819Y-59983809D02*
X217307438Y-59888571D01*
X217307438Y-59888571D02*
X217355057Y-59840952D01*
X217355057Y-59840952D02*
X217450295Y-59793333D01*
X217450295Y-59793333D02*
X217640771Y-59745714D01*
X217640771Y-59745714D02*
X217878866Y-59745714D01*
X217878866Y-59745714D02*
X218069342Y-59793333D01*
X218069342Y-59793333D02*
X218164580Y-59840952D01*
X218164580Y-59840952D02*
X218212200Y-59888571D01*
X218212200Y-59888571D02*
X218259819Y-59983809D01*
X218259819Y-59983809D02*
X218259819Y-60079047D01*
X218259819Y-60079047D02*
X218212200Y-60174285D01*
X218212200Y-60174285D02*
X218164580Y-60221904D01*
X218164580Y-60221904D02*
X218069342Y-60269523D01*
X218069342Y-60269523D02*
X217878866Y-60317142D01*
X217878866Y-60317142D02*
X217640771Y-60317142D01*
X217640771Y-60317142D02*
X217450295Y-60269523D01*
X217450295Y-60269523D02*
X217355057Y-60221904D01*
X217355057Y-60221904D02*
X217307438Y-60174285D01*
X217307438Y-60174285D02*
X217259819Y-60079047D01*
X197477142Y-53159819D02*
X197143809Y-52683628D01*
X196905714Y-53159819D02*
X196905714Y-52159819D01*
X196905714Y-52159819D02*
X197286666Y-52159819D01*
X197286666Y-52159819D02*
X197381904Y-52207438D01*
X197381904Y-52207438D02*
X197429523Y-52255057D01*
X197429523Y-52255057D02*
X197477142Y-52350295D01*
X197477142Y-52350295D02*
X197477142Y-52493152D01*
X197477142Y-52493152D02*
X197429523Y-52588390D01*
X197429523Y-52588390D02*
X197381904Y-52636009D01*
X197381904Y-52636009D02*
X197286666Y-52683628D01*
X197286666Y-52683628D02*
X196905714Y-52683628D01*
X198429523Y-53159819D02*
X197858095Y-53159819D01*
X198143809Y-53159819D02*
X198143809Y-52159819D01*
X198143809Y-52159819D02*
X198048571Y-52302676D01*
X198048571Y-52302676D02*
X197953333Y-52397914D01*
X197953333Y-52397914D02*
X197858095Y-52445533D01*
X199048571Y-52159819D02*
X199143809Y-52159819D01*
X199143809Y-52159819D02*
X199239047Y-52207438D01*
X199239047Y-52207438D02*
X199286666Y-52255057D01*
X199286666Y-52255057D02*
X199334285Y-52350295D01*
X199334285Y-52350295D02*
X199381904Y-52540771D01*
X199381904Y-52540771D02*
X199381904Y-52778866D01*
X199381904Y-52778866D02*
X199334285Y-52969342D01*
X199334285Y-52969342D02*
X199286666Y-53064580D01*
X199286666Y-53064580D02*
X199239047Y-53112200D01*
X199239047Y-53112200D02*
X199143809Y-53159819D01*
X199143809Y-53159819D02*
X199048571Y-53159819D01*
X199048571Y-53159819D02*
X198953333Y-53112200D01*
X198953333Y-53112200D02*
X198905714Y-53064580D01*
X198905714Y-53064580D02*
X198858095Y-52969342D01*
X198858095Y-52969342D02*
X198810476Y-52778866D01*
X198810476Y-52778866D02*
X198810476Y-52540771D01*
X198810476Y-52540771D02*
X198858095Y-52350295D01*
X198858095Y-52350295D02*
X198905714Y-52255057D01*
X198905714Y-52255057D02*
X198953333Y-52207438D01*
X198953333Y-52207438D02*
X199048571Y-52159819D01*
D14*
%TO.C,DA2*%
X251325000Y-58675000D02*
X249055000Y-58675000D01*
X249055000Y-58675000D02*
X249055000Y-62560000D01*
X251325000Y-62560000D02*
X251325000Y-58675000D01*
%TO.C,JIN1*%
X227330000Y-102870000D02*
X229870000Y-102870000D01*
X229870000Y-99060000D02*
X232410000Y-99060000D01*
X229870000Y-102870000D02*
X229870000Y-99060000D01*
X231140000Y-106680000D02*
X227330000Y-102870000D01*
X232410000Y-99060000D02*
X232410000Y-102870000D01*
X232410000Y-102870000D02*
X234950000Y-102870000D01*
X234950000Y-102870000D02*
X231140000Y-106680000D01*
X223520000Y-94585000D02*
X238760000Y-94585000D01*
X238760000Y-94585000D02*
X238760000Y-108055000D01*
X238760000Y-108055000D02*
X223520000Y-108055000D01*
X223520000Y-108055000D02*
X223520000Y-94585000D01*
%TO.C,DB3*%
X256675000Y-63245000D02*
X258945000Y-63245000D01*
X258945000Y-63245000D02*
X258945000Y-59360000D01*
X256675000Y-59360000D02*
X256675000Y-63245000D01*
%TO.C,Q1*%
X196560000Y-81280000D02*
X196560000Y-83080000D01*
X196560000Y-81280000D02*
X196560000Y-80480000D01*
X199680000Y-81280000D02*
X199680000Y-82080000D01*
X199680000Y-81280000D02*
X199680000Y-80480000D01*
%TO.C,R3*%
X195220000Y-80552936D02*
X195220000Y-82007064D01*
X193400000Y-80552936D02*
X193400000Y-82007064D01*
%TO.C,R4*%
X202840000Y-80552936D02*
X202840000Y-82007064D01*
X201020000Y-80552936D02*
X201020000Y-82007064D01*
%TO.C,DA1*%
X236085000Y-58675000D02*
X233815000Y-58675000D01*
X233815000Y-58675000D02*
X233815000Y-62560000D01*
X236085000Y-62560000D02*
X236085000Y-58675000D01*
%TO.C,R12*%
X262530000Y-60232936D02*
X262530000Y-61687064D01*
X260710000Y-60232936D02*
X260710000Y-61687064D01*
%TO.C,Relay1*%
X209450000Y-93260000D02*
X222350000Y-93260000D01*
X222350000Y-93260000D02*
X222350000Y-64060000D01*
X222350000Y-64060000D02*
X209450000Y-64060000D01*
X209450000Y-64060000D02*
X209450000Y-93260000D01*
%TO.C,R13*%
X199030000Y-39912936D02*
X199030000Y-41367064D01*
X197210000Y-39912936D02*
X197210000Y-41367064D01*
%TO.C,R5*%
X190860000Y-71847064D02*
X190860000Y-70392936D01*
X192680000Y-71847064D02*
X192680000Y-70392936D01*
%TO.C,R11*%
X190860000Y-61687064D02*
X190860000Y-60232936D01*
X192680000Y-61687064D02*
X192680000Y-60232936D01*
%TO.C,R1*%
X192680000Y-75472936D02*
X192680000Y-76927064D01*
X190860000Y-75472936D02*
X190860000Y-76927064D01*
%TO.C,DA3*%
X266565000Y-58675000D02*
X264295000Y-58675000D01*
X264295000Y-58675000D02*
X264295000Y-62560000D01*
X266565000Y-62560000D02*
X266565000Y-58675000D01*
%TO.C,C1*%
X202290000Y-41351252D02*
X202290000Y-39928748D01*
X204110000Y-41351252D02*
X204110000Y-39928748D01*
%TO.C,Relay4*%
X255170000Y-93260000D02*
X268070000Y-93260000D01*
X268070000Y-93260000D02*
X268070000Y-64060000D01*
X268070000Y-64060000D02*
X255170000Y-64060000D01*
X255170000Y-64060000D02*
X255170000Y-93260000D01*
%TO.C,Q4*%
X195870000Y-55880000D02*
X195870000Y-54080000D01*
X195870000Y-55880000D02*
X195870000Y-56680000D01*
X192750000Y-55880000D02*
X192750000Y-55080000D01*
X192750000Y-55880000D02*
X192750000Y-56680000D01*
%TO.C,R8*%
X192680000Y-65312936D02*
X192680000Y-66767064D01*
X190860000Y-65312936D02*
X190860000Y-66767064D01*
%TO.C,JOUT2*%
X250190000Y-49530000D02*
X247650000Y-49530000D01*
X247650000Y-53340000D02*
X245110000Y-53340000D01*
X247650000Y-49530000D02*
X247650000Y-53340000D01*
X246380000Y-45720000D02*
X250190000Y-49530000D01*
X245110000Y-53340000D02*
X245110000Y-49530000D01*
X245110000Y-49530000D02*
X242570000Y-49530000D01*
X242570000Y-49530000D02*
X246380000Y-45720000D01*
X254000000Y-57815000D02*
X238760000Y-57815000D01*
X238760000Y-57815000D02*
X238760000Y-44345000D01*
X238760000Y-44345000D02*
X254000000Y-44345000D01*
X254000000Y-44345000D02*
X254000000Y-57815000D01*
%TO.C,JOUT0*%
X219710000Y-49530000D02*
X217170000Y-49530000D01*
X217170000Y-53340000D02*
X214630000Y-53340000D01*
X217170000Y-49530000D02*
X217170000Y-53340000D01*
X215900000Y-45720000D02*
X219710000Y-49530000D01*
X214630000Y-53340000D02*
X214630000Y-49530000D01*
X214630000Y-49530000D02*
X212090000Y-49530000D01*
X212090000Y-49530000D02*
X215900000Y-45720000D01*
X223520000Y-57815000D02*
X208280000Y-57815000D01*
X208280000Y-57815000D02*
X208280000Y-44345000D01*
X208280000Y-44345000D02*
X223520000Y-44345000D01*
X223520000Y-44345000D02*
X223520000Y-57815000D01*
%TO.C,Q2*%
X204180000Y-81280000D02*
X204180000Y-83080000D01*
X204180000Y-81280000D02*
X204180000Y-80480000D01*
X207300000Y-81280000D02*
X207300000Y-82080000D01*
X207300000Y-81280000D02*
X207300000Y-80480000D01*
%TO.C,Q3*%
X203490000Y-55880000D02*
X203490000Y-54080000D01*
X203490000Y-55880000D02*
X203490000Y-56680000D01*
X200370000Y-55880000D02*
X200370000Y-55080000D01*
X200370000Y-55880000D02*
X200370000Y-56680000D01*
%TO.C,R7*%
X204830000Y-56607064D02*
X204830000Y-55152936D01*
X206650000Y-56607064D02*
X206650000Y-55152936D01*
%TO.C,DB2*%
X241435000Y-63245000D02*
X243705000Y-63245000D01*
X243705000Y-63245000D02*
X243705000Y-59360000D01*
X241435000Y-59360000D02*
X241435000Y-63245000D01*
%TO.C,JOUT3*%
X265430000Y-49530000D02*
X262890000Y-49530000D01*
X262890000Y-53340000D02*
X260350000Y-53340000D01*
X262890000Y-49530000D02*
X262890000Y-53340000D01*
X261620000Y-45720000D02*
X265430000Y-49530000D01*
X260350000Y-53340000D02*
X260350000Y-49530000D01*
X260350000Y-49530000D02*
X257810000Y-49530000D01*
X257810000Y-49530000D02*
X261620000Y-45720000D01*
X269240000Y-57815000D02*
X254000000Y-57815000D01*
X254000000Y-57815000D02*
X254000000Y-44345000D01*
X254000000Y-44345000D02*
X269240000Y-44345000D01*
X269240000Y-44345000D02*
X269240000Y-57815000D01*
%TO.C,J1*%
X195580000Y-101600000D02*
X195580000Y-104140000D01*
X199390000Y-104140000D02*
X199390000Y-106680000D01*
X195580000Y-104140000D02*
X199390000Y-104140000D01*
X191770000Y-105410000D02*
X195580000Y-101600000D01*
X199390000Y-106680000D02*
X195580000Y-106680000D01*
X195580000Y-106680000D02*
X195580000Y-109220000D01*
X195580000Y-109220000D02*
X191770000Y-105410000D01*
X203865000Y-100330000D02*
X190395000Y-100330000D01*
X190395000Y-100330000D02*
X190395000Y-110490000D01*
X190395000Y-110490000D02*
X203865000Y-110490000D01*
X203865000Y-110490000D02*
X203865000Y-100330000D01*
%TO.C,Relay3*%
X239930000Y-93260000D02*
X252830000Y-93260000D01*
X252830000Y-93260000D02*
X252830000Y-64060000D01*
X252830000Y-64060000D02*
X239930000Y-64060000D01*
X239930000Y-64060000D02*
X239930000Y-93260000D01*
%TO.C,R14*%
X199750000Y-41367064D02*
X199750000Y-39912936D01*
X201570000Y-41367064D02*
X201570000Y-39912936D01*
%TO.C,Relay2*%
X224690000Y-93260000D02*
X237590000Y-93260000D01*
X237590000Y-93260000D02*
X237590000Y-64060000D01*
X237590000Y-64060000D02*
X224690000Y-64060000D01*
X224690000Y-64060000D02*
X224690000Y-93260000D01*
%TO.C,JOUT1*%
X234950000Y-49530000D02*
X232410000Y-49530000D01*
X232410000Y-53340000D02*
X229870000Y-53340000D01*
X232410000Y-49530000D02*
X232410000Y-53340000D01*
X231140000Y-45720000D02*
X234950000Y-49530000D01*
X229870000Y-53340000D02*
X229870000Y-49530000D01*
X229870000Y-49530000D02*
X227330000Y-49530000D01*
X227330000Y-49530000D02*
X231140000Y-45720000D01*
X238760000Y-57815000D02*
X223520000Y-57815000D01*
X223520000Y-57815000D02*
X223520000Y-44345000D01*
X223520000Y-44345000D02*
X238760000Y-44345000D01*
X238760000Y-44345000D02*
X238760000Y-57815000D01*
%TO.C,R15*%
X203742936Y-112120000D02*
X205197064Y-112120000D01*
X203742936Y-113940000D02*
X205197064Y-113940000D01*
%TO.C,DB0*%
X210955000Y-63245000D02*
X213225000Y-63245000D01*
X213225000Y-63245000D02*
X213225000Y-59360000D01*
X210955000Y-59360000D02*
X210955000Y-63245000D01*
%TO.C,C2*%
X196215000Y-90170000D02*
X197485000Y-90170000D01*
X196850000Y-89535000D02*
X196850000Y-90805000D01*
X207160000Y-91440000D02*
G75*
G03*
X207160000Y-91440000I-6500000J0D01*
G01*
%TO.C,DB1*%
X226195000Y-63245000D02*
X228465000Y-63245000D01*
X228465000Y-63245000D02*
X228465000Y-59360000D01*
X226195000Y-59360000D02*
X226195000Y-63245000D01*
%TO.C,JIN3*%
X257810000Y-102870000D02*
X260350000Y-102870000D01*
X260350000Y-99060000D02*
X262890000Y-99060000D01*
X260350000Y-102870000D02*
X260350000Y-99060000D01*
X261620000Y-106680000D02*
X257810000Y-102870000D01*
X262890000Y-99060000D02*
X262890000Y-102870000D01*
X262890000Y-102870000D02*
X265430000Y-102870000D01*
X265430000Y-102870000D02*
X261620000Y-106680000D01*
X254000000Y-94585000D02*
X269240000Y-94585000D01*
X269240000Y-94585000D02*
X269240000Y-108055000D01*
X269240000Y-108055000D02*
X254000000Y-108055000D01*
X254000000Y-108055000D02*
X254000000Y-94585000D01*
%TO.C,JIN0*%
X212090000Y-102870000D02*
X214630000Y-102870000D01*
X214630000Y-99060000D02*
X217170000Y-99060000D01*
X214630000Y-102870000D02*
X214630000Y-99060000D01*
X215900000Y-106680000D02*
X212090000Y-102870000D01*
X217170000Y-99060000D02*
X217170000Y-102870000D01*
X217170000Y-102870000D02*
X219710000Y-102870000D01*
X219710000Y-102870000D02*
X215900000Y-106680000D01*
X208280000Y-94585000D02*
X223520000Y-94585000D01*
X223520000Y-94585000D02*
X223520000Y-108055000D01*
X223520000Y-108055000D02*
X208280000Y-108055000D01*
X208280000Y-108055000D02*
X208280000Y-94585000D01*
%TO.C,U1*%
X196850000Y-58420000D02*
X204470000Y-58420000D01*
X204470000Y-58420000D02*
X204470000Y-78740000D01*
X204470000Y-78740000D02*
X196850000Y-78740000D01*
X196850000Y-78740000D02*
X196850000Y-58420000D01*
X197485000Y-58420000D02*
G75*
G03*
X198755000Y-58420000I635000J0D01*
G01*
%TO.C,R6*%
X232050000Y-60232936D02*
X232050000Y-61687064D01*
X230230000Y-60232936D02*
X230230000Y-61687064D01*
%TO.C,D2*%
X197105000Y-111895000D02*
X197105000Y-114165000D01*
X197105000Y-114165000D02*
X200990000Y-114165000D01*
X200990000Y-111895000D02*
X197105000Y-111895000D01*
%TO.C,JIN2*%
X242570000Y-102870000D02*
X245110000Y-102870000D01*
X245110000Y-99060000D02*
X247650000Y-99060000D01*
X245110000Y-102870000D02*
X245110000Y-99060000D01*
X246380000Y-106680000D02*
X242570000Y-102870000D01*
X247650000Y-99060000D02*
X247650000Y-102870000D01*
X247650000Y-102870000D02*
X250190000Y-102870000D01*
X250190000Y-102870000D02*
X246380000Y-106680000D01*
X238760000Y-94585000D02*
X254000000Y-94585000D01*
X254000000Y-94585000D02*
X254000000Y-108055000D01*
X254000000Y-108055000D02*
X238760000Y-108055000D01*
X238760000Y-108055000D02*
X238760000Y-94585000D01*
%TO.C,R2*%
X216810000Y-60232936D02*
X216810000Y-61687064D01*
X214990000Y-60232936D02*
X214990000Y-61687064D01*
%TO.C,R9*%
X247290000Y-60232936D02*
X247290000Y-61687064D01*
X245470000Y-60232936D02*
X245470000Y-61687064D01*
%TO.C,U2*%
X205095000Y-48260000D02*
X205095000Y-44810000D01*
X205095000Y-48260000D02*
X205095000Y-50210000D01*
X196225000Y-48260000D02*
X196225000Y-46310000D01*
X196225000Y-48260000D02*
X196225000Y-50210000D01*
%TO.C,D1*%
X204407500Y-108285000D02*
X207707500Y-108285000D01*
X204407500Y-108285000D02*
X204407500Y-102775000D01*
X207707500Y-108285000D02*
X207707500Y-102775000D01*
%TO.C,DA0*%
X220845000Y-58675000D02*
X218575000Y-58675000D01*
X218575000Y-58675000D02*
X218575000Y-62560000D01*
X220845000Y-62560000D02*
X220845000Y-58675000D01*
%TO.C,R10*%
X197210000Y-56607064D02*
X197210000Y-55152936D01*
X199030000Y-56607064D02*
X199030000Y-55152936D01*
%TD*%
M02*
