M48
; DRILL file {KiCad 7.0.6} date Tue Jul 18 18:02:56 2023
; FORMAT={-:-/ absolute / inch / decimal}
; #@! TF.CreationDate,2023-07-18T18:02:56+08:00
; #@! TF.GenerationSoftware,Kicad,Pcbnew,7.0.6
; #@! TF.FileFunction,Plated,1,2,PTH
FMAT,2
INCH
; #@! TA.AperFunction,Plated,PTH,ViaDrill
T1C0.0157
; #@! TA.AperFunction,Plated,PTH,ViaDrill
T2C0.0160
; #@! TA.AperFunction,Plated,PTH,ViaDrill
T3C0.0240
; #@! TA.AperFunction,Plated,PTH,ComponentDrill
T4C0.0315
; #@! TA.AperFunction,Plated,PTH,ComponentDrill
T5C0.0512
; #@! TA.AperFunction,Plated,PTH,ComponentDrill
T6C0.0630
; #@! TA.AperFunction,Plated,PTH,ComponentDrill
T7C0.1260
%
G90
G05
T1
X7.75Y-1.725
X7.8Y-1.925
X7.85Y-1.725
X7.9Y-1.925
X8.0Y-1.875
X8.0Y-1.925
X8.025Y-2.45
X8.025Y-2.55
X8.025Y-2.85
X8.025Y-2.95
X8.05Y-1.875
X8.05Y-1.925
X8.4Y-2.1
X9.0Y-2.1
X9.6Y-2.1
X10.2Y-2.1
T2
X7.675Y-4.0
X7.675Y-4.05
X7.8375Y-3.3
X7.9125Y-2.4875
X7.975Y-2.55
X8.1375Y-3.3
T3
X7.55Y-3.6
X8.0Y-2.75
X8.075Y-1.5419
X8.1125Y-4.3
X8.125Y-2.05
X8.175Y-2.35
T4
X7.8016Y-3.6
X7.9984Y-3.6
T5
X8.3524Y-2.6047
X8.3524Y-2.8016
X8.3524Y-2.9984
X8.3524Y-3.589
X8.6476Y-2.6047
X8.6476Y-2.8016
X8.6476Y-2.9984
X8.6476Y-3.589
X8.9524Y-2.6047
X8.9524Y-2.8016
X8.9524Y-2.9984
X8.9524Y-3.589
X9.2476Y-2.6047
X9.2476Y-2.8016
X9.2476Y-2.9984
X9.2476Y-3.589
X9.5524Y-2.6047
X9.5524Y-2.8016
X9.5524Y-2.9984
X9.5524Y-3.589
X9.8476Y-2.6047
X9.8476Y-2.8016
X9.8476Y-2.9984
X9.8476Y-3.589
X10.1524Y-2.6047
X10.1524Y-2.8016
X10.1524Y-2.9984
X10.1524Y-3.589
X10.4476Y-2.6047
X10.4476Y-2.8016
X10.4476Y-2.9984
X10.4476Y-3.589
T6
X7.95Y-4.05
X7.95Y-4.25
X8.3Y-2.2
X8.3Y-3.8
X8.5Y-2.2
X8.5Y-3.8
X8.7Y-2.2
X8.7Y-3.8
X8.9Y-2.2
X8.9Y-3.8
X9.1Y-2.2
X9.1Y-3.8
X9.3Y-2.2
X9.3Y-3.8
X9.5Y-2.2
X9.5Y-3.8
X9.7Y-2.2
X9.7Y-3.8
X9.9Y-2.2
X9.9Y-3.8
X10.1Y-2.2
X10.1Y-3.8
X10.3Y-2.2
X10.3Y-3.8
X10.5Y-2.2
X10.5Y-3.8
T7
X7.2Y-1.45
X7.2Y-4.55
X10.8Y-1.45
X10.8Y-4.55
T0
M30
