%TF.GenerationSoftware,KiCad,Pcbnew,7.0.6*%
%TF.CreationDate,2023-07-18T18:02:52+08:00*%
%TF.ProjectId,RelayModuleMK1_KiCad,52656c61-794d-46f6-9475-6c654d4b315f,rev?*%
%TF.SameCoordinates,Original*%
%TF.FileFunction,Soldermask,Bot*%
%TF.FilePolarity,Negative*%
%FSLAX46Y46*%
G04 Gerber Fmt 4.6, Leading zero omitted, Abs format (unit mm)*
G04 Created by KiCad (PCBNEW 7.0.6) date 2023-07-18 18:02:52*
%MOMM*%
%LPD*%
G01*
G04 APERTURE LIST*
%ADD10C,3.200000*%
%ADD11C,3.000000*%
%ADD12C,6.400000*%
%ADD13R,1.600000X1.600000*%
%ADD14C,1.600000*%
G04 APERTURE END LIST*
D10*
%TO.C,JIN1*%
X226060000Y-96520000D03*
X231140000Y-96520000D03*
X236220000Y-96520000D03*
%TD*%
D11*
%TO.C,Relay1*%
X219650000Y-91160000D03*
X219650000Y-76160000D03*
X219650000Y-71160000D03*
X219650000Y-66160000D03*
X212150000Y-66160000D03*
X212150000Y-71160000D03*
X212150000Y-76160000D03*
X212150000Y-91160000D03*
%TD*%
D12*
%TO.C,REF\u002A\u002A*%
X182880000Y-115570000D03*
%TD*%
D11*
%TO.C,Relay4*%
X265370000Y-91160000D03*
X265370000Y-76160000D03*
X265370000Y-71160000D03*
X265370000Y-66160000D03*
X257870000Y-66160000D03*
X257870000Y-71160000D03*
X257870000Y-76160000D03*
X257870000Y-91160000D03*
%TD*%
D10*
%TO.C,JOUT2*%
X251460000Y-55880000D03*
X246380000Y-55880000D03*
X241300000Y-55880000D03*
%TD*%
%TO.C,JOUT0*%
X220980000Y-55880000D03*
X215900000Y-55880000D03*
X210820000Y-55880000D03*
%TD*%
D12*
%TO.C,REF\u002A\u002A*%
X182880000Y-36830000D03*
%TD*%
D10*
%TO.C,JOUT3*%
X266700000Y-55880000D03*
X261620000Y-55880000D03*
X256540000Y-55880000D03*
%TD*%
%TO.C,J1*%
X201930000Y-102870000D03*
X201930000Y-107950000D03*
%TD*%
D11*
%TO.C,Relay3*%
X250130000Y-91160000D03*
X250130000Y-76160000D03*
X250130000Y-71160000D03*
X250130000Y-66160000D03*
X242630000Y-66160000D03*
X242630000Y-71160000D03*
X242630000Y-76160000D03*
X242630000Y-91160000D03*
%TD*%
%TO.C,Relay2*%
X234890000Y-91160000D03*
X234890000Y-76160000D03*
X234890000Y-71160000D03*
X234890000Y-66160000D03*
X227390000Y-66160000D03*
X227390000Y-71160000D03*
X227390000Y-76160000D03*
X227390000Y-91160000D03*
%TD*%
D10*
%TO.C,JOUT1*%
X236220000Y-55880000D03*
X231140000Y-55880000D03*
X226060000Y-55880000D03*
%TD*%
D13*
%TO.C,C2*%
X198160000Y-91440000D03*
D14*
X203160000Y-91440000D03*
%TD*%
D10*
%TO.C,JIN3*%
X256540000Y-96520000D03*
X261620000Y-96520000D03*
X266700000Y-96520000D03*
%TD*%
%TO.C,JIN0*%
X210820000Y-96520000D03*
X215900000Y-96520000D03*
X220980000Y-96520000D03*
%TD*%
%TO.C,JIN2*%
X241300000Y-96520000D03*
X246380000Y-96520000D03*
X251460000Y-96520000D03*
%TD*%
D12*
%TO.C,REF\u002A\u002A*%
X274320000Y-36830000D03*
%TD*%
%TO.C,REF\u002A\u002A*%
X274320000Y-115570000D03*
%TD*%
M02*
