%TF.GenerationSoftware,KiCad,Pcbnew,7.0.6*%
%TF.CreationDate,2023-07-18T18:02:52+08:00*%
%TF.ProjectId,RelayModuleMK1_KiCad,52656c61-794d-46f6-9475-6c654d4b315f,rev?*%
%TF.SameCoordinates,Original*%
%TF.FileFunction,Copper,L2,Bot*%
%TF.FilePolarity,Positive*%
%FSLAX46Y46*%
G04 Gerber Fmt 4.6, Leading zero omitted, Abs format (unit mm)*
G04 Created by KiCad (PCBNEW 7.0.6) date 2023-07-18 18:02:52*
%MOMM*%
%LPD*%
G01*
G04 APERTURE LIST*
%TA.AperFunction,ComponentPad*%
%ADD10C,3.200000*%
%TD*%
%TA.AperFunction,ComponentPad*%
%ADD11C,3.000000*%
%TD*%
%TA.AperFunction,ComponentPad*%
%ADD12C,6.400000*%
%TD*%
%TA.AperFunction,ComponentPad*%
%ADD13R,1.600000X1.600000*%
%TD*%
%TA.AperFunction,ComponentPad*%
%ADD14C,1.600000*%
%TD*%
%TA.AperFunction,ViaPad*%
%ADD15C,1.219200*%
%TD*%
%TA.AperFunction,ViaPad*%
%ADD16C,0.812800*%
%TD*%
%TA.AperFunction,ViaPad*%
%ADD17C,0.800000*%
%TD*%
%TA.AperFunction,Conductor*%
%ADD18C,0.508000*%
%TD*%
%TA.AperFunction,Conductor*%
%ADD19C,0.254000*%
%TD*%
G04 APERTURE END LIST*
D10*
%TO.P,JIN1,1,Pin_1*%
%TO.N,VDD1*%
X226060000Y-96520000D03*
%TO.P,JIN1,2,Pin_2*%
%TO.N,IN1+*%
X231140000Y-96520000D03*
%TO.P,JIN1,3,Pin_3*%
%TO.N,IN1-*%
X236220000Y-96520000D03*
%TD*%
D11*
%TO.P,Relay1,1,1*%
%TO.N,VCC_PWR*%
X219650000Y-91160000D03*
%TO.P,Relay1,2,2*%
%TO.N,OUT_A0*%
X219650000Y-76160000D03*
%TO.P,Relay1,3,3*%
%TO.N,OUT_COM0*%
X219650000Y-71160000D03*
%TO.P,Relay1,4,4*%
%TO.N,OUT_B0*%
X219650000Y-66160000D03*
%TO.P,Relay1,5,5*%
X212150000Y-66160000D03*
%TO.P,Relay1,6,6*%
%TO.N,OUT_COM0*%
X212150000Y-71160000D03*
%TO.P,Relay1,7,7*%
%TO.N,OUT_A0*%
X212150000Y-76160000D03*
%TO.P,Relay1,8,8*%
%TO.N,Net-(U2C-+)*%
X212150000Y-91160000D03*
%TD*%
D12*
%TO.P,REF\u002A\u002A,1*%
%TO.N,N/C*%
X182880000Y-115570000D03*
%TD*%
D11*
%TO.P,Relay4,1,1*%
%TO.N,VCC_PWR*%
X265370000Y-91160000D03*
%TO.P,Relay4,2,2*%
%TO.N,OUT_A3*%
X265370000Y-76160000D03*
%TO.P,Relay4,3,3*%
%TO.N,OUT_COM3*%
X265370000Y-71160000D03*
%TO.P,Relay4,4,4*%
%TO.N,OUT_B3*%
X265370000Y-66160000D03*
%TO.P,Relay4,5,5*%
X257870000Y-66160000D03*
%TO.P,Relay4,6,6*%
%TO.N,OUT_COM3*%
X257870000Y-71160000D03*
%TO.P,Relay4,7,7*%
%TO.N,OUT_A3*%
X257870000Y-76160000D03*
%TO.P,Relay4,8,8*%
%TO.N,Net-(U2A-+)*%
X257870000Y-91160000D03*
%TD*%
D10*
%TO.P,JOUT2,1,Pin_1*%
%TO.N,OUT_A2*%
X251460000Y-55880000D03*
%TO.P,JOUT2,2,Pin_2*%
%TO.N,OUT_COM2*%
X246380000Y-55880000D03*
%TO.P,JOUT2,3,Pin_3*%
%TO.N,OUT_B2*%
X241300000Y-55880000D03*
%TD*%
%TO.P,JOUT0,1,Pin_1*%
%TO.N,OUT_A0*%
X220980000Y-55880000D03*
%TO.P,JOUT0,2,Pin_2*%
%TO.N,OUT_COM0*%
X215900000Y-55880000D03*
%TO.P,JOUT0,3,Pin_3*%
%TO.N,OUT_B0*%
X210820000Y-55880000D03*
%TD*%
D12*
%TO.P,REF\u002A\u002A,1*%
%TO.N,N/C*%
X182880000Y-36830000D03*
%TD*%
D10*
%TO.P,JOUT3,1,Pin_1*%
%TO.N,OUT_A3*%
X266700000Y-55880000D03*
%TO.P,JOUT3,2,Pin_2*%
%TO.N,OUT_COM3*%
X261620000Y-55880000D03*
%TO.P,JOUT3,3,Pin_3*%
%TO.N,OUT_B3*%
X256540000Y-55880000D03*
%TD*%
%TO.P,J1,1,Pin_1*%
%TO.N,Net-(D1-A)*%
X201930000Y-102870000D03*
%TO.P,J1,2,Pin_2*%
%TO.N,GNDPWR*%
X201930000Y-107950000D03*
%TD*%
D11*
%TO.P,Relay3,1,1*%
%TO.N,VCC_PWR*%
X250130000Y-91160000D03*
%TO.P,Relay3,2,2*%
%TO.N,OUT_A2*%
X250130000Y-76160000D03*
%TO.P,Relay3,3,3*%
%TO.N,OUT_COM2*%
X250130000Y-71160000D03*
%TO.P,Relay3,4,4*%
%TO.N,OUT_B2*%
X250130000Y-66160000D03*
%TO.P,Relay3,5,5*%
X242630000Y-66160000D03*
%TO.P,Relay3,6,6*%
%TO.N,OUT_COM2*%
X242630000Y-71160000D03*
%TO.P,Relay3,7,7*%
%TO.N,OUT_A2*%
X242630000Y-76160000D03*
%TO.P,Relay3,8,8*%
%TO.N,Net-(U2B-+)*%
X242630000Y-91160000D03*
%TD*%
%TO.P,Relay2,1,1*%
%TO.N,VCC_PWR*%
X234890000Y-91160000D03*
%TO.P,Relay2,2,2*%
%TO.N,OUT_A1*%
X234890000Y-76160000D03*
%TO.P,Relay2,3,3*%
%TO.N,OUT_COM1*%
X234890000Y-71160000D03*
%TO.P,Relay2,4,4*%
%TO.N,OUT_B1*%
X234890000Y-66160000D03*
%TO.P,Relay2,5,5*%
X227390000Y-66160000D03*
%TO.P,Relay2,6,6*%
%TO.N,OUT_COM1*%
X227390000Y-71160000D03*
%TO.P,Relay2,7,7*%
%TO.N,OUT_A1*%
X227390000Y-76160000D03*
%TO.P,Relay2,8,8*%
%TO.N,Net-(U2D-+)*%
X227390000Y-91160000D03*
%TD*%
D10*
%TO.P,JOUT1,1,Pin_1*%
%TO.N,OUT_A1*%
X236220000Y-55880000D03*
%TO.P,JOUT1,2,Pin_2*%
%TO.N,OUT_COM1*%
X231140000Y-55880000D03*
%TO.P,JOUT1,3,Pin_3*%
%TO.N,OUT_B1*%
X226060000Y-55880000D03*
%TD*%
D13*
%TO.P,C2,1*%
%TO.N,VCC_PWR*%
X198160000Y-91440000D03*
D14*
%TO.P,C2,2*%
%TO.N,GNDPWR*%
X203160000Y-91440000D03*
%TD*%
D10*
%TO.P,JIN3,1,Pin_1*%
%TO.N,VDD3*%
X256540000Y-96520000D03*
%TO.P,JIN3,2,Pin_2*%
%TO.N,IN3+*%
X261620000Y-96520000D03*
%TO.P,JIN3,3,Pin_3*%
%TO.N,IN3-*%
X266700000Y-96520000D03*
%TD*%
%TO.P,JIN0,1,Pin_1*%
%TO.N,VDD0*%
X210820000Y-96520000D03*
%TO.P,JIN0,2,Pin_2*%
%TO.N,IN0+*%
X215900000Y-96520000D03*
%TO.P,JIN0,3,Pin_3*%
%TO.N,IN0-*%
X220980000Y-96520000D03*
%TD*%
%TO.P,JIN2,1,Pin_1*%
%TO.N,VDD2*%
X241300000Y-96520000D03*
%TO.P,JIN2,2,Pin_2*%
%TO.N,IN2+*%
X246380000Y-96520000D03*
%TO.P,JIN2,3,Pin_3*%
%TO.N,IN2-*%
X251460000Y-96520000D03*
%TD*%
D12*
%TO.P,REF\u002A\u002A,1*%
%TO.N,N/C*%
X274320000Y-36830000D03*
%TD*%
%TO.P,REF\u002A\u002A,1*%
%TO.N,N/C*%
X274320000Y-115570000D03*
%TD*%
D15*
%TO.N,VCC_PWR*%
X206057500Y-109220000D03*
%TO.N,GNDPWR*%
X207645000Y-59690000D03*
X206375000Y-52070000D03*
X205105000Y-39165000D03*
X203200000Y-69850000D03*
X191770000Y-91440000D03*
D16*
%TO.N,IN0-*%
X199072500Y-83820000D03*
%TO.N,IN1-*%
X206692500Y-83820000D03*
%TO.N,IN2+*%
X202565000Y-64770000D03*
%TO.N,IN2-*%
X200977500Y-63182500D03*
%TO.N,IN3+*%
X194945000Y-102870000D03*
%TO.N,IN3-*%
X194945000Y-101600000D03*
D17*
%TO.N,Net-(R2-Pad1)*%
X203200000Y-48895000D03*
X213360000Y-53340000D03*
%TO.N,Net-(R6-Pad1)*%
X204470000Y-48895000D03*
X228600000Y-53340000D03*
%TO.N,Net-(R9-Pad1)*%
X204470000Y-47625000D03*
X243840000Y-53340000D03*
%TO.N,Net-(R12-Pad1)*%
X259080000Y-53340000D03*
X203200000Y-47625000D03*
%TO.N,Net-(U2A-+)*%
X199390000Y-43815000D03*
X203835000Y-62230000D03*
%TO.N,Net-(U2B-+)*%
X196850000Y-43815000D03*
X203835000Y-64770000D03*
%TO.N,Net-(U2C-+)*%
X203835000Y-74930000D03*
X200660000Y-48895000D03*
%TO.N,Net-(U2D-+)*%
X203835000Y-72390000D03*
X198120000Y-48895000D03*
%TD*%
D18*
%TO.N,VCC_PWR*%
X221910000Y-88900000D02*
X219650000Y-91160000D01*
X234890000Y-91160000D02*
X232630000Y-88900000D01*
X217390000Y-88900000D02*
X219650000Y-91160000D01*
X200660000Y-88900000D02*
X217390000Y-88900000D01*
X209550000Y-100330000D02*
X207010000Y-97790000D01*
X204470000Y-97790000D02*
X198120000Y-91440000D01*
X209550000Y-107950000D02*
X209550000Y-100330000D01*
X232630000Y-88900000D02*
X221910000Y-88900000D01*
X198160000Y-91440000D02*
X198160000Y-91400000D01*
X206057500Y-109220000D02*
X208280000Y-109220000D01*
X208280000Y-109220000D02*
X209550000Y-107950000D01*
X207010000Y-97790000D02*
X204470000Y-97790000D01*
X198160000Y-91400000D02*
X200660000Y-88900000D01*
D19*
%TO.N,IN0-*%
X196850000Y-109220000D02*
X198120000Y-110490000D01*
X220980000Y-109220000D02*
X220980000Y-96520000D01*
X219710000Y-110490000D02*
X220980000Y-109220000D01*
X196850000Y-86042500D02*
X196850000Y-109220000D01*
X198120000Y-110490000D02*
X219710000Y-110490000D01*
X199072500Y-83820000D02*
X196850000Y-86042500D01*
%TO.N,IN1-*%
X198755000Y-82550000D02*
X196215000Y-85090000D01*
X205422500Y-82550000D02*
X198755000Y-82550000D01*
X234950000Y-111125000D02*
X236220000Y-109855000D01*
X206692500Y-83820000D02*
X205422500Y-82550000D01*
X236220000Y-109855000D02*
X236220000Y-96520000D01*
X197485000Y-111125000D02*
X234950000Y-111125000D01*
X196215000Y-85090000D02*
X196215000Y-109855000D01*
X196215000Y-109855000D02*
X197485000Y-111125000D01*
%TO.N,IN2+*%
X246380000Y-91440000D02*
X246380000Y-96520000D01*
X209550000Y-82550000D02*
X213360000Y-86360000D01*
X241300000Y-86360000D02*
X246380000Y-91440000D01*
X209550000Y-71755000D02*
X209550000Y-82550000D01*
X213360000Y-86360000D02*
X241300000Y-86360000D01*
X202565000Y-64770000D02*
X209550000Y-71755000D01*
%TO.N,IN2-*%
X200977500Y-65087500D02*
X208915000Y-73025000D01*
X245110000Y-99060000D02*
X248920000Y-99060000D01*
X243840000Y-95885000D02*
X243840000Y-97790000D01*
X200977500Y-63182500D02*
X200977500Y-65087500D01*
X212725000Y-86995000D02*
X234950000Y-86995000D01*
X208915000Y-83185000D02*
X212725000Y-86995000D01*
X234950000Y-86995000D02*
X243840000Y-95885000D01*
X208915000Y-73025000D02*
X208915000Y-83185000D01*
X243840000Y-97790000D02*
X245110000Y-99060000D01*
X248920000Y-99060000D02*
X251460000Y-96520000D01*
%TO.N,IN3+*%
X260350000Y-113030000D02*
X261620000Y-111760000D01*
X194945000Y-102870000D02*
X194945000Y-111760000D01*
X196215000Y-113030000D02*
X260350000Y-113030000D01*
X194945000Y-111760000D02*
X196215000Y-113030000D01*
X261620000Y-111760000D02*
X261620000Y-96520000D01*
%TO.N,IN3-*%
X193675000Y-102870000D02*
X193675000Y-112395000D01*
X193675000Y-112395000D02*
X194945000Y-113665000D01*
X265430000Y-113665000D02*
X266700000Y-112395000D01*
X266700000Y-112395000D02*
X266700000Y-96520000D01*
X194945000Y-101600000D02*
X193675000Y-102870000D01*
X194945000Y-113665000D02*
X265430000Y-113665000D01*
D18*
%TO.N,OUT_A0*%
X217170000Y-59690000D02*
X217170000Y-71140000D01*
X217170000Y-71140000D02*
X212150000Y-76160000D01*
X220980000Y-55880000D02*
X217170000Y-59690000D01*
%TO.N,OUT_COM0*%
X214630000Y-68680000D02*
X214630000Y-57150000D01*
X212150000Y-71160000D02*
X214630000Y-68680000D01*
X214630000Y-57150000D02*
X215900000Y-55880000D01*
%TO.N,OUT_B0*%
X212150000Y-57210000D02*
X210820000Y-55880000D01*
X212150000Y-66160000D02*
X212150000Y-57210000D01*
%TO.N,OUT_A1*%
X232350000Y-59750000D02*
X232350000Y-71020000D01*
X232350000Y-71020000D02*
X227330000Y-76040000D01*
X236220000Y-55880000D02*
X232350000Y-59750000D01*
%TO.N,OUT_COM1*%
X229810000Y-68560000D02*
X229810000Y-57210000D01*
X229810000Y-57210000D02*
X231140000Y-55880000D01*
X227330000Y-71040000D02*
X229810000Y-68560000D01*
%TO.N,OUT_B1*%
X227330000Y-57150000D02*
X226060000Y-55880000D01*
X227330000Y-66040000D02*
X227330000Y-57150000D01*
%TO.N,OUT_A2*%
X247590000Y-71020000D02*
X242570000Y-76040000D01*
X247590000Y-59750000D02*
X247590000Y-71020000D01*
X251460000Y-55880000D02*
X247590000Y-59750000D01*
%TO.N,OUT_COM2*%
X245050000Y-57210000D02*
X246380000Y-55880000D01*
X245050000Y-68560000D02*
X245050000Y-57210000D01*
X242570000Y-71040000D02*
X245050000Y-68560000D01*
%TO.N,OUT_B2*%
X242570000Y-57150000D02*
X241300000Y-55880000D01*
X242570000Y-66040000D02*
X242570000Y-57150000D01*
%TO.N,OUT_A3*%
X262830000Y-71020000D02*
X257810000Y-76040000D01*
X262830000Y-59750000D02*
X262830000Y-71020000D01*
X266640000Y-55940000D02*
X262830000Y-59750000D01*
%TO.N,OUT_COM3*%
X257810000Y-71040000D02*
X260290000Y-68560000D01*
X260290000Y-68560000D02*
X260290000Y-57210000D01*
X260290000Y-57210000D02*
X261620000Y-55880000D01*
%TO.N,OUT_B3*%
X257810000Y-66040000D02*
X257810000Y-57150000D01*
X257810000Y-57150000D02*
X256480000Y-55820000D01*
D19*
%TO.N,Net-(R2-Pad1)*%
X203200000Y-48895000D02*
X204470000Y-50165000D01*
X204470000Y-50165000D02*
X210185000Y-50165000D01*
X210185000Y-50165000D02*
X213360000Y-53340000D01*
%TO.N,Net-(R6-Pad1)*%
X224155000Y-48895000D02*
X228600000Y-53340000D01*
X204470000Y-48895000D02*
X224155000Y-48895000D01*
%TO.N,Net-(R9-Pad1)*%
X238125000Y-47625000D02*
X243840000Y-53340000D01*
X204470000Y-47625000D02*
X238125000Y-47625000D01*
%TO.N,Net-(R12-Pad1)*%
X203200000Y-47625000D02*
X204470000Y-46355000D01*
X204470000Y-46355000D02*
X252095000Y-46355000D01*
X252095000Y-46355000D02*
X259080000Y-53340000D01*
%TO.N,Net-(U2A-+)*%
X203835000Y-52070000D02*
X203835000Y-62230000D01*
X199390000Y-43815000D02*
X202247500Y-46672500D01*
X202247500Y-50482500D02*
X203835000Y-52070000D01*
X202247500Y-46672500D02*
X202247500Y-50482500D01*
%TO.N,Net-(U2B-+)*%
X196850000Y-43815000D02*
X196850000Y-46355000D01*
X202565000Y-63500000D02*
X203835000Y-64770000D01*
X202565000Y-52070000D02*
X202565000Y-63500000D01*
X196850000Y-46355000D02*
X197485000Y-46990000D01*
X201612500Y-47942500D02*
X201612500Y-51117500D01*
X197485000Y-46990000D02*
X200660000Y-46990000D01*
X200660000Y-46990000D02*
X201612500Y-47942500D01*
X201612500Y-51117500D02*
X202565000Y-52070000D01*
%TO.N,Net-(U2C-+)*%
X196850000Y-73660000D02*
X198120000Y-74930000D01*
X198120000Y-74930000D02*
X203835000Y-74930000D01*
X198120000Y-47625000D02*
X196850000Y-48895000D01*
X200660000Y-48895000D02*
X199390000Y-47625000D01*
X199390000Y-47625000D02*
X198120000Y-47625000D01*
X196850000Y-48895000D02*
X196850000Y-73660000D01*
%TO.N,Net-(U2D-+)*%
X198120000Y-71120000D02*
X198120000Y-48895000D01*
X198120000Y-71120000D02*
X199390000Y-72390000D01*
X199390000Y-72390000D02*
X203835000Y-72390000D01*
%TD*%
%TA.AperFunction,Conductor*%
%TO.N,GNDPWR*%
G36*
X198366094Y-92768502D02*
G01*
X198387067Y-92785404D01*
X201137371Y-95535709D01*
X203885058Y-98283396D01*
X203897031Y-98297250D01*
X203911601Y-98316821D01*
X203952269Y-98350945D01*
X203956315Y-98354653D01*
X203962235Y-98360573D01*
X203962236Y-98360574D01*
X203988379Y-98381245D01*
X204048148Y-98431397D01*
X204054279Y-98435429D01*
X204054244Y-98435480D01*
X204060697Y-98439591D01*
X204060729Y-98439540D01*
X204066973Y-98443391D01*
X204066977Y-98443393D01*
X204066980Y-98443395D01*
X204137711Y-98476377D01*
X204207434Y-98511394D01*
X204214333Y-98513905D01*
X204214311Y-98513963D01*
X204221537Y-98516474D01*
X204221557Y-98516416D01*
X204228525Y-98518725D01*
X204304938Y-98534502D01*
X204380872Y-98552499D01*
X204380873Y-98552499D01*
X204380877Y-98552500D01*
X204380881Y-98552500D01*
X204388166Y-98553352D01*
X204388158Y-98553412D01*
X204395773Y-98554190D01*
X204395779Y-98554129D01*
X204403083Y-98554767D01*
X204403091Y-98554769D01*
X204481076Y-98552500D01*
X206641973Y-98552500D01*
X206710094Y-98572502D01*
X206731068Y-98589405D01*
X208750595Y-100608932D01*
X208784621Y-100671244D01*
X208787500Y-100698027D01*
X208787500Y-107581972D01*
X208767498Y-107650093D01*
X208750595Y-107671067D01*
X208001067Y-108420595D01*
X207938755Y-108454621D01*
X207911972Y-108457500D01*
X206929542Y-108457500D01*
X206861421Y-108437498D01*
X206844656Y-108424615D01*
X206734191Y-108323913D01*
X206734190Y-108323912D01*
X206558026Y-108214836D01*
X206558019Y-108214832D01*
X206558015Y-108214830D01*
X206439648Y-108168974D01*
X206364794Y-108139976D01*
X206161107Y-108101900D01*
X205953893Y-108101900D01*
X205953892Y-108101900D01*
X205750205Y-108139976D01*
X205617279Y-108191472D01*
X205556985Y-108214830D01*
X205556984Y-108214830D01*
X205556983Y-108214831D01*
X205556973Y-108214836D01*
X205380809Y-108323912D01*
X205380808Y-108323913D01*
X205227675Y-108463512D01*
X205102800Y-108628874D01*
X205102796Y-108628879D01*
X205010439Y-108814356D01*
X205010433Y-108814372D01*
X204953729Y-109013667D01*
X204953729Y-109013670D01*
X204934610Y-109220000D01*
X204938337Y-109260223D01*
X204953729Y-109426332D01*
X205010433Y-109625627D01*
X205010436Y-109625635D01*
X205033691Y-109672337D01*
X205046149Y-109742232D01*
X205018842Y-109807767D01*
X204960439Y-109848135D01*
X204920900Y-109854500D01*
X203283849Y-109854500D01*
X203215728Y-109834498D01*
X203169235Y-109780842D01*
X203159131Y-109710568D01*
X203188625Y-109645988D01*
X203204331Y-109630761D01*
X203329401Y-109529007D01*
X203329401Y-109529006D01*
X202399934Y-108599538D01*
X202431948Y-108579423D01*
X202559423Y-108451948D01*
X202579538Y-108419934D01*
X203508183Y-109348579D01*
X203508185Y-109348579D01*
X203569020Y-109283443D01*
X203569021Y-109283442D01*
X203735319Y-109047849D01*
X203735327Y-109047836D01*
X203867997Y-108791798D01*
X203964572Y-108520062D01*
X203964574Y-108520054D01*
X204023246Y-108237702D01*
X204023247Y-108237696D01*
X204042926Y-107950004D01*
X204042926Y-107949995D01*
X204023247Y-107662303D01*
X204023246Y-107662297D01*
X203964574Y-107379945D01*
X203964572Y-107379937D01*
X203867997Y-107108201D01*
X203735327Y-106852163D01*
X203735319Y-106852150D01*
X203569023Y-106616561D01*
X203508185Y-106551419D01*
X203508183Y-106551419D01*
X202579537Y-107480064D01*
X202559423Y-107448052D01*
X202431948Y-107320577D01*
X202399934Y-107300461D01*
X203329402Y-106370993D01*
X203329401Y-106370991D01*
X203148490Y-106223808D01*
X202902077Y-106073961D01*
X202637577Y-105959073D01*
X202359888Y-105881268D01*
X202359879Y-105881266D01*
X202074204Y-105842000D01*
X201785795Y-105842000D01*
X201500120Y-105881266D01*
X201500111Y-105881268D01*
X201222422Y-105959073D01*
X200957922Y-106073961D01*
X200711514Y-106223805D01*
X200530597Y-106370991D01*
X200530596Y-106370992D01*
X201460065Y-107300461D01*
X201428052Y-107320577D01*
X201300577Y-107448052D01*
X201280461Y-107480065D01*
X200351814Y-106551419D01*
X200351812Y-106551419D01*
X200290980Y-106616555D01*
X200290978Y-106616558D01*
X200124680Y-106852150D01*
X200124672Y-106852163D01*
X199992002Y-107108201D01*
X199895427Y-107379937D01*
X199895425Y-107379945D01*
X199836753Y-107662297D01*
X199836752Y-107662303D01*
X199817074Y-107949995D01*
X199817074Y-107950004D01*
X199836752Y-108237696D01*
X199836753Y-108237702D01*
X199895425Y-108520054D01*
X199895427Y-108520062D01*
X199992002Y-108791798D01*
X200124672Y-109047836D01*
X200124680Y-109047849D01*
X200290976Y-109283438D01*
X200351813Y-109348579D01*
X200351815Y-109348579D01*
X201280461Y-108419933D01*
X201300577Y-108451948D01*
X201428052Y-108579423D01*
X201460065Y-108599538D01*
X200530597Y-109529006D01*
X200530597Y-109529007D01*
X200655668Y-109630761D01*
X200695887Y-109689267D01*
X200698091Y-109760229D01*
X200661579Y-109821118D01*
X200597945Y-109852601D01*
X200576151Y-109854500D01*
X198435423Y-109854500D01*
X198367302Y-109834498D01*
X198346332Y-109817599D01*
X197522403Y-108993670D01*
X197488379Y-108931359D01*
X197485500Y-108904576D01*
X197485500Y-102870003D01*
X199816573Y-102870003D01*
X199836256Y-103157765D01*
X199836257Y-103157770D01*
X199836258Y-103157778D01*
X199868443Y-103312661D01*
X199894943Y-103440189D01*
X199894945Y-103440196D01*
X199991541Y-103711992D01*
X200124247Y-103968103D01*
X200290591Y-104203758D01*
X200487474Y-104414568D01*
X200487483Y-104414575D01*
X200487487Y-104414579D01*
X200711220Y-104596600D01*
X200711222Y-104596601D01*
X200711228Y-104596606D01*
X200957686Y-104746481D01*
X201222256Y-104861400D01*
X201500011Y-104939223D01*
X201785761Y-104978499D01*
X201785775Y-104978500D01*
X202074225Y-104978500D01*
X202074238Y-104978499D01*
X202286000Y-104949392D01*
X202359989Y-104939223D01*
X202637744Y-104861400D01*
X202902314Y-104746481D01*
X203148772Y-104596606D01*
X203372526Y-104414568D01*
X203569409Y-104203758D01*
X203735753Y-103968103D01*
X203868459Y-103711992D01*
X203965055Y-103440196D01*
X204023742Y-103157778D01*
X204041377Y-102899968D01*
X204043427Y-102870003D01*
X204043427Y-102869996D01*
X204023743Y-102582234D01*
X204023742Y-102582229D01*
X204023742Y-102582222D01*
X203965055Y-102299804D01*
X203868459Y-102028008D01*
X203735753Y-101771897D01*
X203569409Y-101536242D01*
X203372526Y-101325432D01*
X203372516Y-101325424D01*
X203372512Y-101325420D01*
X203148779Y-101143399D01*
X203148775Y-101143396D01*
X203148772Y-101143394D01*
X202902314Y-100993519D01*
X202902310Y-100993517D01*
X202902308Y-100993516D01*
X202724653Y-100916350D01*
X202637744Y-100878600D01*
X202399006Y-100811709D01*
X202359986Y-100800776D01*
X202359988Y-100800776D01*
X202074238Y-100761500D01*
X202074225Y-100761500D01*
X201785775Y-100761500D01*
X201785761Y-100761500D01*
X201500012Y-100800776D01*
X201327572Y-100849091D01*
X201222256Y-100878600D01*
X201222253Y-100878601D01*
X201222254Y-100878601D01*
X200957691Y-100993516D01*
X200711220Y-101143399D01*
X200487487Y-101325420D01*
X200487471Y-101325435D01*
X200290591Y-101536242D01*
X200124247Y-101771896D01*
X200124247Y-101771897D01*
X199991541Y-102028007D01*
X199894945Y-102299802D01*
X199894943Y-102299810D01*
X199836257Y-102582229D01*
X199836256Y-102582234D01*
X199816573Y-102869996D01*
X199816573Y-102870003D01*
X197485500Y-102870003D01*
X197485500Y-92874500D01*
X197505502Y-92806379D01*
X197559158Y-92759886D01*
X197611500Y-92748500D01*
X198297973Y-92748500D01*
X198366094Y-92768502D01*
G37*
%TD.AperFunction*%
%TA.AperFunction,Conductor*%
G36*
X269110386Y-36925502D02*
G01*
X269156879Y-36979158D01*
X269168145Y-37026004D01*
X269179225Y-37279762D01*
X269179225Y-37279761D01*
X269237986Y-37726096D01*
X269293735Y-37977562D01*
X269335425Y-38165614D01*
X269470797Y-38594961D01*
X269643078Y-39010885D01*
X269850953Y-39410209D01*
X270036895Y-39702079D01*
X270092838Y-39789891D01*
X270366895Y-40147049D01*
X270671038Y-40478962D01*
X271002951Y-40783105D01*
X271360109Y-41057162D01*
X271360111Y-41057163D01*
X271739791Y-41299047D01*
X272139115Y-41506922D01*
X272555039Y-41679203D01*
X272984386Y-41814575D01*
X273000174Y-41818075D01*
X273423904Y-41912014D01*
X273721461Y-41951188D01*
X273870239Y-41970775D01*
X273870237Y-41970775D01*
X273905431Y-41972311D01*
X274123997Y-41981853D01*
X274191179Y-42004807D01*
X274235287Y-42060439D01*
X274244500Y-42107733D01*
X274244500Y-110292265D01*
X274224498Y-110360386D01*
X274170842Y-110406879D01*
X274123996Y-110418145D01*
X273870238Y-110429225D01*
X273870239Y-110429225D01*
X273721461Y-110448812D01*
X273423904Y-110487986D01*
X273130892Y-110552945D01*
X272984386Y-110585425D01*
X272555039Y-110720797D01*
X272139115Y-110893078D01*
X271739791Y-111100953D01*
X271640029Y-111164509D01*
X271360109Y-111342838D01*
X271159506Y-111496766D01*
X271010888Y-111610805D01*
X271002951Y-111616895D01*
X270671038Y-111921038D01*
X270366895Y-112252951D01*
X270366892Y-112252954D01*
X270366891Y-112252956D01*
X270349749Y-112275296D01*
X270092838Y-112610109D01*
X270079653Y-112630806D01*
X269850953Y-112989791D01*
X269643078Y-113389115D01*
X269470797Y-113805039D01*
X269335425Y-114234386D01*
X269319718Y-114305235D01*
X269237986Y-114673904D01*
X269179225Y-115120239D01*
X269179225Y-115120238D01*
X269168145Y-115373996D01*
X269145190Y-115441180D01*
X269089558Y-115485288D01*
X269042265Y-115494500D01*
X188157735Y-115494500D01*
X188089614Y-115474498D01*
X188043121Y-115420842D01*
X188031855Y-115373996D01*
X188020775Y-115120238D01*
X188020775Y-115120239D01*
X187962014Y-114673904D01*
X187880282Y-114305235D01*
X187864575Y-114234386D01*
X187729203Y-113805039D01*
X187556922Y-113389115D01*
X187349047Y-112989791D01*
X187120347Y-112630806D01*
X187107162Y-112610109D01*
X186850251Y-112275296D01*
X186833109Y-112252956D01*
X186833107Y-112252954D01*
X186833105Y-112252951D01*
X186528962Y-111921038D01*
X186197049Y-111616895D01*
X186189112Y-111610805D01*
X186040494Y-111496766D01*
X185839891Y-111342838D01*
X185559971Y-111164509D01*
X185460209Y-111100953D01*
X185060885Y-110893078D01*
X184644961Y-110720797D01*
X184215614Y-110585425D01*
X184069107Y-110552945D01*
X183776096Y-110487986D01*
X183478538Y-110448812D01*
X183329761Y-110429225D01*
X183329762Y-110429225D01*
X183076004Y-110418145D01*
X183008820Y-110395190D01*
X182964712Y-110339558D01*
X182955500Y-110292265D01*
X182955500Y-102849879D01*
X193034765Y-102849879D01*
X193039220Y-102897010D01*
X193039500Y-102902943D01*
X193039500Y-112310931D01*
X193037747Y-112326803D01*
X193038038Y-112326831D01*
X193037291Y-112334721D01*
X193039499Y-112404985D01*
X193039499Y-112434984D01*
X193040382Y-112441976D01*
X193040847Y-112447885D01*
X193042334Y-112495202D01*
X193042335Y-112495207D01*
X193048014Y-112514756D01*
X193052021Y-112534107D01*
X193054572Y-112554295D01*
X193054572Y-112554297D01*
X193071998Y-112598313D01*
X193073921Y-112603929D01*
X193087129Y-112649390D01*
X193087131Y-112649395D01*
X193097492Y-112666914D01*
X193106189Y-112684666D01*
X193113681Y-112703588D01*
X193141510Y-112741892D01*
X193144764Y-112746845D01*
X193148804Y-112753676D01*
X193168865Y-112787598D01*
X193183250Y-112801983D01*
X193196090Y-112817016D01*
X193208054Y-112833483D01*
X193208057Y-112833486D01*
X193244543Y-112863670D01*
X193248924Y-112867656D01*
X194094473Y-113713205D01*
X194436182Y-114054914D01*
X194446169Y-114067379D01*
X194446393Y-114067194D01*
X194451446Y-114073302D01*
X194502709Y-114121441D01*
X194523900Y-114142633D01*
X194523908Y-114142640D01*
X194529464Y-114146950D01*
X194533978Y-114150805D01*
X194568494Y-114183217D01*
X194586335Y-114193025D01*
X194602853Y-114203876D01*
X194618933Y-114216349D01*
X194660614Y-114234386D01*
X194662375Y-114235148D01*
X194667707Y-114237761D01*
X194709193Y-114260567D01*
X194709194Y-114260567D01*
X194709197Y-114260569D01*
X194728918Y-114265632D01*
X194747620Y-114272037D01*
X194766289Y-114280116D01*
X194766290Y-114280116D01*
X194766292Y-114280117D01*
X194796453Y-114284893D01*
X194813048Y-114287522D01*
X194818860Y-114288724D01*
X194864718Y-114300500D01*
X194885066Y-114300500D01*
X194904775Y-114302050D01*
X194924879Y-114305235D01*
X194959503Y-114301962D01*
X194972011Y-114300780D01*
X194977944Y-114300500D01*
X265345930Y-114300500D01*
X265361798Y-114302252D01*
X265361826Y-114301962D01*
X265369718Y-114302708D01*
X265369718Y-114302707D01*
X265369719Y-114302708D01*
X265439985Y-114300500D01*
X265469983Y-114300500D01*
X265476969Y-114299617D01*
X265482873Y-114299152D01*
X265530205Y-114297665D01*
X265549751Y-114291985D01*
X265569102Y-114287978D01*
X265589299Y-114285427D01*
X265633332Y-114267992D01*
X265638915Y-114266081D01*
X265684393Y-114252869D01*
X265701907Y-114242510D01*
X265719656Y-114233814D01*
X265738588Y-114226319D01*
X265776903Y-114198480D01*
X265781840Y-114195237D01*
X265822598Y-114171134D01*
X265836984Y-114156747D01*
X265852018Y-114143906D01*
X265868487Y-114131942D01*
X265898678Y-114095446D01*
X265902646Y-114091084D01*
X267089917Y-112903813D01*
X267102384Y-112893827D01*
X267102198Y-112893603D01*
X267108303Y-112888553D01*
X267156441Y-112837290D01*
X267177631Y-112816101D01*
X267177631Y-112816100D01*
X267177638Y-112816094D01*
X267181962Y-112810519D01*
X267185793Y-112806033D01*
X267218217Y-112771506D01*
X267228023Y-112753667D01*
X267238870Y-112737153D01*
X267251349Y-112721067D01*
X267270149Y-112677620D01*
X267272761Y-112672290D01*
X267295569Y-112630803D01*
X267300632Y-112611079D01*
X267307031Y-112592391D01*
X267315117Y-112573708D01*
X267320590Y-112539145D01*
X267322522Y-112526951D01*
X267323727Y-112521132D01*
X267335499Y-112475288D01*
X267335500Y-112475281D01*
X267335500Y-112454934D01*
X267337051Y-112435223D01*
X267337089Y-112434983D01*
X267340235Y-112415121D01*
X267335780Y-112367988D01*
X267335500Y-112362055D01*
X267335500Y-98625423D01*
X267355502Y-98557302D01*
X267409158Y-98510809D01*
X267411253Y-98509875D01*
X267672314Y-98396481D01*
X267918772Y-98246606D01*
X268142526Y-98064568D01*
X268339409Y-97853758D01*
X268505753Y-97618103D01*
X268638459Y-97361992D01*
X268735055Y-97090196D01*
X268793742Y-96807778D01*
X268813427Y-96520000D01*
X268793742Y-96232222D01*
X268735055Y-95949804D01*
X268638459Y-95678008D01*
X268505753Y-95421897D01*
X268339409Y-95186242D01*
X268142526Y-94975432D01*
X268142516Y-94975424D01*
X268142512Y-94975420D01*
X267918779Y-94793399D01*
X267918775Y-94793396D01*
X267918772Y-94793394D01*
X267672314Y-94643519D01*
X267672310Y-94643517D01*
X267672308Y-94643516D01*
X267563713Y-94596347D01*
X267407744Y-94528600D01*
X267180354Y-94464888D01*
X267129986Y-94450776D01*
X267129988Y-94450776D01*
X266844238Y-94411500D01*
X266844225Y-94411500D01*
X266555775Y-94411500D01*
X266555761Y-94411500D01*
X266270012Y-94450776D01*
X266097572Y-94499091D01*
X265992256Y-94528600D01*
X265992253Y-94528601D01*
X265992254Y-94528601D01*
X265727691Y-94643516D01*
X265481220Y-94793399D01*
X265257487Y-94975420D01*
X265257471Y-94975435D01*
X265060591Y-95186242D01*
X264894247Y-95421896D01*
X264894247Y-95421897D01*
X264761541Y-95678007D01*
X264664945Y-95949802D01*
X264664943Y-95949810D01*
X264606257Y-96232229D01*
X264606256Y-96232234D01*
X264586573Y-96519996D01*
X264586573Y-96520003D01*
X264606256Y-96807765D01*
X264606257Y-96807770D01*
X264606258Y-96807778D01*
X264638443Y-96962661D01*
X264664943Y-97090189D01*
X264664945Y-97090197D01*
X264733379Y-97282752D01*
X264761541Y-97361992D01*
X264894247Y-97618103D01*
X265060591Y-97853758D01*
X265257474Y-98064568D01*
X265257483Y-98064575D01*
X265257487Y-98064579D01*
X265481220Y-98246600D01*
X265481222Y-98246601D01*
X265481228Y-98246606D01*
X265727686Y-98396481D01*
X265817471Y-98435480D01*
X265988697Y-98509854D01*
X266043210Y-98555340D01*
X266064477Y-98623076D01*
X266064499Y-98625423D01*
X266064499Y-112079576D01*
X266044497Y-112147697D01*
X266027595Y-112168671D01*
X265203672Y-112992595D01*
X265141359Y-113026620D01*
X265114576Y-113029500D01*
X261553423Y-113029500D01*
X261485302Y-113009498D01*
X261438809Y-112955842D01*
X261428705Y-112885568D01*
X261458199Y-112820988D01*
X261464327Y-112814405D01*
X261594066Y-112684666D01*
X262009918Y-112268812D01*
X262022383Y-112258827D01*
X262022198Y-112258603D01*
X262028303Y-112253553D01*
X262076441Y-112202290D01*
X262097631Y-112181101D01*
X262097631Y-112181100D01*
X262097638Y-112181094D01*
X262101962Y-112175519D01*
X262105793Y-112171033D01*
X262138217Y-112136506D01*
X262148023Y-112118667D01*
X262158870Y-112102153D01*
X262171349Y-112086067D01*
X262190149Y-112042620D01*
X262192761Y-112037290D01*
X262215567Y-111995806D01*
X262215569Y-111995803D01*
X262220632Y-111976079D01*
X262227031Y-111957391D01*
X262235117Y-111938708D01*
X262242522Y-111891951D01*
X262243722Y-111886147D01*
X262255500Y-111840282D01*
X262255499Y-111819932D01*
X262257050Y-111800223D01*
X262260235Y-111780121D01*
X262255778Y-111732975D01*
X262255500Y-111727077D01*
X262255500Y-98625422D01*
X262275502Y-98557302D01*
X262329158Y-98510809D01*
X262331253Y-98509875D01*
X262592314Y-98396481D01*
X262838772Y-98246606D01*
X263062526Y-98064568D01*
X263259409Y-97853758D01*
X263425753Y-97618103D01*
X263558459Y-97361992D01*
X263655055Y-97090196D01*
X263713742Y-96807778D01*
X263733427Y-96520000D01*
X263713742Y-96232222D01*
X263655055Y-95949804D01*
X263558459Y-95678008D01*
X263425753Y-95421897D01*
X263259409Y-95186242D01*
X263062526Y-94975432D01*
X263062516Y-94975424D01*
X263062512Y-94975420D01*
X262838779Y-94793399D01*
X262838775Y-94793396D01*
X262838772Y-94793394D01*
X262592314Y-94643519D01*
X262592310Y-94643517D01*
X262592308Y-94643516D01*
X262483713Y-94596347D01*
X262327744Y-94528600D01*
X262100354Y-94464888D01*
X262049986Y-94450776D01*
X262049988Y-94450776D01*
X261764238Y-94411500D01*
X261764225Y-94411500D01*
X261475775Y-94411500D01*
X261475761Y-94411500D01*
X261190012Y-94450776D01*
X261017572Y-94499091D01*
X260912256Y-94528600D01*
X260912253Y-94528601D01*
X260912254Y-94528601D01*
X260647691Y-94643516D01*
X260401220Y-94793399D01*
X260177487Y-94975420D01*
X260177471Y-94975435D01*
X259980591Y-95186242D01*
X259814247Y-95421896D01*
X259814247Y-95421897D01*
X259681541Y-95678007D01*
X259584945Y-95949802D01*
X259584943Y-95949810D01*
X259526257Y-96232229D01*
X259526256Y-96232234D01*
X259506573Y-96519996D01*
X259506573Y-96520003D01*
X259526256Y-96807765D01*
X259526257Y-96807770D01*
X259526258Y-96807778D01*
X259558443Y-96962661D01*
X259584943Y-97090189D01*
X259584945Y-97090197D01*
X259653379Y-97282752D01*
X259681541Y-97361992D01*
X259814247Y-97618103D01*
X259980591Y-97853758D01*
X260177474Y-98064568D01*
X260177483Y-98064575D01*
X260177487Y-98064579D01*
X260401220Y-98246600D01*
X260401222Y-98246601D01*
X260401228Y-98246606D01*
X260647686Y-98396481D01*
X260908699Y-98509855D01*
X260963211Y-98555340D01*
X260984478Y-98623076D01*
X260984500Y-98625423D01*
X260984500Y-111444575D01*
X260964498Y-111512696D01*
X260947596Y-111533670D01*
X260123672Y-112357595D01*
X260061359Y-112391620D01*
X260034576Y-112394500D01*
X196530424Y-112394500D01*
X196462303Y-112374498D01*
X196441328Y-112357595D01*
X195617404Y-111533670D01*
X195583379Y-111471358D01*
X195580500Y-111444575D01*
X195580500Y-110423421D01*
X195600502Y-110355300D01*
X195654158Y-110308807D01*
X195724432Y-110298703D01*
X195789012Y-110328197D01*
X195795580Y-110334312D01*
X196428498Y-110967230D01*
X196976182Y-111514914D01*
X196986169Y-111527379D01*
X196986393Y-111527194D01*
X196991446Y-111533302D01*
X197042709Y-111581441D01*
X197063900Y-111602633D01*
X197063908Y-111602640D01*
X197069464Y-111606950D01*
X197073978Y-111610805D01*
X197108494Y-111643217D01*
X197126335Y-111653025D01*
X197142853Y-111663876D01*
X197158933Y-111676349D01*
X197202375Y-111695148D01*
X197207707Y-111697761D01*
X197249193Y-111720567D01*
X197249194Y-111720567D01*
X197249197Y-111720569D01*
X197268918Y-111725632D01*
X197287620Y-111732037D01*
X197306289Y-111740116D01*
X197306290Y-111740116D01*
X197306292Y-111740117D01*
X197336453Y-111744893D01*
X197353048Y-111747522D01*
X197358860Y-111748724D01*
X197404718Y-111760500D01*
X197425066Y-111760500D01*
X197444775Y-111762050D01*
X197464879Y-111765235D01*
X197499503Y-111761962D01*
X197512011Y-111760780D01*
X197517944Y-111760500D01*
X234865930Y-111760500D01*
X234881798Y-111762252D01*
X234881826Y-111761962D01*
X234889718Y-111762708D01*
X234889718Y-111762707D01*
X234889719Y-111762708D01*
X234959985Y-111760500D01*
X234989983Y-111760500D01*
X234996969Y-111759617D01*
X235002873Y-111759152D01*
X235050205Y-111757665D01*
X235069751Y-111751985D01*
X235089102Y-111747978D01*
X235109299Y-111745427D01*
X235153332Y-111727992D01*
X235158915Y-111726081D01*
X235204393Y-111712869D01*
X235221907Y-111702510D01*
X235239656Y-111693814D01*
X235258588Y-111686319D01*
X235296903Y-111658480D01*
X235301840Y-111655237D01*
X235342598Y-111631134D01*
X235356984Y-111616747D01*
X235372018Y-111603906D01*
X235388487Y-111591942D01*
X235418678Y-111555446D01*
X235422646Y-111551084D01*
X236609917Y-110363813D01*
X236622384Y-110353827D01*
X236622198Y-110353603D01*
X236628303Y-110348553D01*
X236676441Y-110297290D01*
X236697631Y-110276101D01*
X236697631Y-110276100D01*
X236697638Y-110276094D01*
X236701962Y-110270519D01*
X236705793Y-110266033D01*
X236738217Y-110231506D01*
X236748023Y-110213667D01*
X236758870Y-110197153D01*
X236771349Y-110181067D01*
X236790149Y-110137620D01*
X236792761Y-110132290D01*
X236815567Y-110090806D01*
X236815569Y-110090803D01*
X236820632Y-110071079D01*
X236827031Y-110052391D01*
X236835117Y-110033708D01*
X236842522Y-109986951D01*
X236843727Y-109981132D01*
X236855499Y-109935288D01*
X236855500Y-109935281D01*
X236855500Y-109914934D01*
X236857051Y-109895223D01*
X236860235Y-109875121D01*
X236855780Y-109827988D01*
X236855500Y-109822055D01*
X236855500Y-98625423D01*
X236875502Y-98557302D01*
X236929158Y-98510809D01*
X236931253Y-98509875D01*
X237192314Y-98396481D01*
X237438772Y-98246606D01*
X237662526Y-98064568D01*
X237859409Y-97853758D01*
X238025753Y-97618103D01*
X238158459Y-97361992D01*
X238255055Y-97090196D01*
X238313742Y-96807778D01*
X238333427Y-96520000D01*
X238313742Y-96232222D01*
X238255055Y-95949804D01*
X238158459Y-95678008D01*
X238025753Y-95421897D01*
X237859409Y-95186242D01*
X237662526Y-94975432D01*
X237662516Y-94975424D01*
X237662512Y-94975420D01*
X237438779Y-94793399D01*
X237438775Y-94793396D01*
X237438772Y-94793394D01*
X237192314Y-94643519D01*
X237192310Y-94643517D01*
X237192308Y-94643516D01*
X237083713Y-94596347D01*
X236927744Y-94528600D01*
X236700354Y-94464888D01*
X236649986Y-94450776D01*
X236649988Y-94450776D01*
X236364238Y-94411500D01*
X236364225Y-94411500D01*
X236075775Y-94411500D01*
X236075761Y-94411500D01*
X235790012Y-94450776D01*
X235617572Y-94499091D01*
X235512256Y-94528600D01*
X235512253Y-94528601D01*
X235512254Y-94528601D01*
X235247691Y-94643516D01*
X235001220Y-94793399D01*
X234777487Y-94975420D01*
X234777471Y-94975435D01*
X234580591Y-95186242D01*
X234414247Y-95421896D01*
X234414247Y-95421897D01*
X234281541Y-95678007D01*
X234184945Y-95949802D01*
X234184943Y-95949810D01*
X234126257Y-96232229D01*
X234126256Y-96232234D01*
X234106573Y-96519996D01*
X234106573Y-96520003D01*
X234126256Y-96807765D01*
X234126257Y-96807770D01*
X234126258Y-96807778D01*
X234158443Y-96962661D01*
X234184943Y-97090189D01*
X234184945Y-97090197D01*
X234253379Y-97282752D01*
X234281541Y-97361992D01*
X234414247Y-97618103D01*
X234580591Y-97853758D01*
X234777474Y-98064568D01*
X234777483Y-98064575D01*
X234777487Y-98064579D01*
X235001220Y-98246600D01*
X235001222Y-98246601D01*
X235001228Y-98246606D01*
X235247686Y-98396481D01*
X235508699Y-98509855D01*
X235563211Y-98555340D01*
X235584478Y-98623076D01*
X235584500Y-98625423D01*
X235584500Y-109539576D01*
X235564498Y-109607697D01*
X235547595Y-109628671D01*
X234723670Y-110452596D01*
X234661360Y-110486620D01*
X234634577Y-110489500D01*
X220913423Y-110489500D01*
X220845302Y-110469498D01*
X220798809Y-110415842D01*
X220788705Y-110345568D01*
X220818199Y-110280988D01*
X220824327Y-110274405D01*
X220942215Y-110156516D01*
X221369918Y-109728812D01*
X221382383Y-109718827D01*
X221382198Y-109718603D01*
X221388303Y-109713553D01*
X221436441Y-109662290D01*
X221457631Y-109641101D01*
X221457631Y-109641100D01*
X221457638Y-109641094D01*
X221461962Y-109635519D01*
X221465793Y-109631033D01*
X221498217Y-109596506D01*
X221508023Y-109578667D01*
X221518870Y-109562153D01*
X221531349Y-109546067D01*
X221550149Y-109502620D01*
X221552761Y-109497290D01*
X221575567Y-109455806D01*
X221575569Y-109455803D01*
X221580632Y-109436079D01*
X221587031Y-109417391D01*
X221595117Y-109398708D01*
X221602522Y-109351951D01*
X221603727Y-109346132D01*
X221615499Y-109300288D01*
X221615500Y-109300281D01*
X221615500Y-109279934D01*
X221617051Y-109260223D01*
X221620235Y-109240121D01*
X221615780Y-109192988D01*
X221615500Y-109187055D01*
X221615500Y-98625423D01*
X221635502Y-98557302D01*
X221689158Y-98510809D01*
X221691253Y-98509875D01*
X221952314Y-98396481D01*
X222198772Y-98246606D01*
X222422526Y-98064568D01*
X222619409Y-97853758D01*
X222785753Y-97618103D01*
X222918459Y-97361992D01*
X223015055Y-97090196D01*
X223073742Y-96807778D01*
X223093427Y-96520003D01*
X223946573Y-96520003D01*
X223966256Y-96807765D01*
X223966257Y-96807770D01*
X223966258Y-96807778D01*
X223998443Y-96962661D01*
X224024943Y-97090189D01*
X224024945Y-97090197D01*
X224093379Y-97282752D01*
X224121541Y-97361992D01*
X224254247Y-97618103D01*
X224420591Y-97853758D01*
X224617474Y-98064568D01*
X224617483Y-98064575D01*
X224617487Y-98064579D01*
X224841220Y-98246600D01*
X224841222Y-98246601D01*
X224841228Y-98246606D01*
X225087686Y-98396481D01*
X225352256Y-98511400D01*
X225630011Y-98589223D01*
X225915761Y-98628499D01*
X225915775Y-98628500D01*
X226204225Y-98628500D01*
X226204238Y-98628499D01*
X226416000Y-98599392D01*
X226489989Y-98589223D01*
X226767744Y-98511400D01*
X227032314Y-98396481D01*
X227278772Y-98246606D01*
X227502526Y-98064568D01*
X227699409Y-97853758D01*
X227865753Y-97618103D01*
X227998459Y-97361992D01*
X228095055Y-97090196D01*
X228153742Y-96807778D01*
X228173427Y-96520003D01*
X229026573Y-96520003D01*
X229046256Y-96807765D01*
X229046257Y-96807770D01*
X229046258Y-96807778D01*
X229078443Y-96962661D01*
X229104943Y-97090189D01*
X229104945Y-97090197D01*
X229173379Y-97282752D01*
X229201541Y-97361992D01*
X229334247Y-97618103D01*
X229500591Y-97853758D01*
X229697474Y-98064568D01*
X229697483Y-98064575D01*
X229697487Y-98064579D01*
X229921220Y-98246600D01*
X229921222Y-98246601D01*
X229921228Y-98246606D01*
X230167686Y-98396481D01*
X230432256Y-98511400D01*
X230710011Y-98589223D01*
X230995761Y-98628499D01*
X230995775Y-98628500D01*
X231284225Y-98628500D01*
X231284238Y-98628499D01*
X231496000Y-98599392D01*
X231569989Y-98589223D01*
X231847744Y-98511400D01*
X232112314Y-98396481D01*
X232358772Y-98246606D01*
X232582526Y-98064568D01*
X232779409Y-97853758D01*
X232945753Y-97618103D01*
X233078459Y-97361992D01*
X233175055Y-97090196D01*
X233233742Y-96807778D01*
X233253427Y-96520000D01*
X233233742Y-96232222D01*
X233175055Y-95949804D01*
X233078459Y-95678008D01*
X232945753Y-95421897D01*
X232779409Y-95186242D01*
X232582526Y-94975432D01*
X232582516Y-94975424D01*
X232582512Y-94975420D01*
X232358779Y-94793399D01*
X232358775Y-94793396D01*
X232358772Y-94793394D01*
X232112314Y-94643519D01*
X232112310Y-94643517D01*
X232112308Y-94643516D01*
X232003713Y-94596347D01*
X231847744Y-94528600D01*
X231620354Y-94464888D01*
X231569986Y-94450776D01*
X231569988Y-94450776D01*
X231284238Y-94411500D01*
X231284225Y-94411500D01*
X230995775Y-94411500D01*
X230995761Y-94411500D01*
X230710012Y-94450776D01*
X230537572Y-94499091D01*
X230432256Y-94528600D01*
X230432253Y-94528601D01*
X230432254Y-94528601D01*
X230167691Y-94643516D01*
X229921220Y-94793399D01*
X229697487Y-94975420D01*
X229697471Y-94975435D01*
X229500591Y-95186242D01*
X229334247Y-95421896D01*
X229334247Y-95421897D01*
X229201541Y-95678007D01*
X229104945Y-95949802D01*
X229104943Y-95949810D01*
X229046257Y-96232229D01*
X229046256Y-96232234D01*
X229026573Y-96519996D01*
X229026573Y-96520003D01*
X228173427Y-96520003D01*
X228173427Y-96520000D01*
X228153742Y-96232222D01*
X228095055Y-95949804D01*
X227998459Y-95678008D01*
X227865753Y-95421897D01*
X227699409Y-95186242D01*
X227502526Y-94975432D01*
X227502516Y-94975424D01*
X227502512Y-94975420D01*
X227278779Y-94793399D01*
X227278775Y-94793396D01*
X227278772Y-94793394D01*
X227032314Y-94643519D01*
X227032310Y-94643517D01*
X227032308Y-94643516D01*
X226923713Y-94596347D01*
X226767744Y-94528600D01*
X226540354Y-94464888D01*
X226489986Y-94450776D01*
X226489988Y-94450776D01*
X226204238Y-94411500D01*
X226204225Y-94411500D01*
X225915775Y-94411500D01*
X225915761Y-94411500D01*
X225630012Y-94450776D01*
X225457572Y-94499091D01*
X225352256Y-94528600D01*
X225352253Y-94528601D01*
X225352254Y-94528601D01*
X225087691Y-94643516D01*
X224841220Y-94793399D01*
X224617487Y-94975420D01*
X224617471Y-94975435D01*
X224420591Y-95186242D01*
X224254247Y-95421896D01*
X224254247Y-95421897D01*
X224121541Y-95678007D01*
X224024945Y-95949802D01*
X224024943Y-95949810D01*
X223966257Y-96232229D01*
X223966256Y-96232234D01*
X223946573Y-96519996D01*
X223946573Y-96520003D01*
X223093427Y-96520003D01*
X223093427Y-96520000D01*
X223073742Y-96232222D01*
X223015055Y-95949804D01*
X222918459Y-95678008D01*
X222785753Y-95421897D01*
X222619409Y-95186242D01*
X222422526Y-94975432D01*
X222422516Y-94975424D01*
X222422512Y-94975420D01*
X222198779Y-94793399D01*
X222198775Y-94793396D01*
X222198772Y-94793394D01*
X221952314Y-94643519D01*
X221952310Y-94643517D01*
X221952308Y-94643516D01*
X221843713Y-94596347D01*
X221687744Y-94528600D01*
X221460354Y-94464888D01*
X221409986Y-94450776D01*
X221409988Y-94450776D01*
X221124238Y-94411500D01*
X221124225Y-94411500D01*
X220835775Y-94411500D01*
X220835761Y-94411500D01*
X220550012Y-94450776D01*
X220377572Y-94499091D01*
X220272256Y-94528600D01*
X220272253Y-94528601D01*
X220272254Y-94528601D01*
X220007691Y-94643516D01*
X219761220Y-94793399D01*
X219537487Y-94975420D01*
X219537471Y-94975435D01*
X219340591Y-95186242D01*
X219174247Y-95421896D01*
X219174247Y-95421897D01*
X219041541Y-95678007D01*
X218944945Y-95949802D01*
X218944943Y-95949810D01*
X218886257Y-96232229D01*
X218886256Y-96232234D01*
X218866573Y-96519996D01*
X218866573Y-96520003D01*
X218886256Y-96807765D01*
X218886257Y-96807770D01*
X218886258Y-96807778D01*
X218918443Y-96962661D01*
X218944943Y-97090189D01*
X218944945Y-97090197D01*
X219013379Y-97282752D01*
X219041541Y-97361992D01*
X219174247Y-97618103D01*
X219340591Y-97853758D01*
X219537474Y-98064568D01*
X219537483Y-98064575D01*
X219537487Y-98064579D01*
X219761220Y-98246600D01*
X219761222Y-98246601D01*
X219761228Y-98246606D01*
X220007686Y-98396481D01*
X220268699Y-98509855D01*
X220323211Y-98555340D01*
X220344478Y-98623076D01*
X220344500Y-98625423D01*
X220344500Y-108904575D01*
X220324498Y-108972696D01*
X220307596Y-108993670D01*
X219483672Y-109817595D01*
X219421359Y-109851620D01*
X219394576Y-109854500D01*
X209028027Y-109854500D01*
X208959906Y-109834498D01*
X208913413Y-109780842D01*
X208903309Y-109710568D01*
X208932803Y-109645988D01*
X208938932Y-109639405D01*
X209466149Y-109112186D01*
X210043401Y-108534935D01*
X210057240Y-108522975D01*
X210076822Y-108508398D01*
X210110952Y-108467721D01*
X210114651Y-108463685D01*
X210120573Y-108457765D01*
X210141245Y-108431620D01*
X210191396Y-108371853D01*
X210191398Y-108371848D01*
X210195430Y-108365720D01*
X210195483Y-108365755D01*
X210199595Y-108359300D01*
X210199541Y-108359267D01*
X210203390Y-108353025D01*
X210203395Y-108353020D01*
X210216968Y-108323913D01*
X210236377Y-108282288D01*
X210236377Y-108282287D01*
X210271394Y-108212566D01*
X210271394Y-108212564D01*
X210271396Y-108212561D01*
X210273908Y-108205661D01*
X210273966Y-108205682D01*
X210276475Y-108198462D01*
X210276416Y-108198443D01*
X210278722Y-108191478D01*
X210278725Y-108191474D01*
X210294502Y-108115061D01*
X210312500Y-108039123D01*
X210312500Y-108039116D01*
X210313352Y-108031834D01*
X210313412Y-108031841D01*
X210314190Y-108024226D01*
X210314129Y-108024221D01*
X210314767Y-108016917D01*
X210314769Y-108016909D01*
X210312500Y-107938924D01*
X210312500Y-100394726D01*
X210313830Y-100376467D01*
X210314153Y-100374257D01*
X210317366Y-100352327D01*
X210312739Y-100299450D01*
X210312500Y-100293964D01*
X210312500Y-100285585D01*
X210308629Y-100252472D01*
X210308629Y-100252471D01*
X210301830Y-100174759D01*
X210301828Y-100174754D01*
X210300346Y-100167574D01*
X210300407Y-100167561D01*
X210298749Y-100160083D01*
X210298690Y-100160098D01*
X210296998Y-100152962D01*
X210296998Y-100152958D01*
X210270301Y-100079610D01*
X210245764Y-100005559D01*
X210245761Y-100005554D01*
X210242660Y-99998902D01*
X210242715Y-99998876D01*
X210239382Y-99991991D01*
X210239327Y-99992019D01*
X210236032Y-99985457D01*
X210193154Y-99920265D01*
X210152188Y-99853850D01*
X210152186Y-99853848D01*
X210152185Y-99853846D01*
X210147639Y-99848096D01*
X210147686Y-99848058D01*
X210142845Y-99842116D01*
X210142799Y-99842156D01*
X210138082Y-99836534D01*
X210081333Y-99782994D01*
X207594942Y-97296604D01*
X207582970Y-97282752D01*
X207568398Y-97263178D01*
X207568396Y-97263176D01*
X207527730Y-97229052D01*
X207523676Y-97225338D01*
X207517771Y-97219432D01*
X207491619Y-97198753D01*
X207431855Y-97148605D01*
X207425728Y-97144576D01*
X207425761Y-97144524D01*
X207419303Y-97140410D01*
X207419272Y-97140461D01*
X207413022Y-97136606D01*
X207342294Y-97103625D01*
X207272572Y-97068608D01*
X207265671Y-97066097D01*
X207265691Y-97066039D01*
X207258459Y-97063525D01*
X207258440Y-97063583D01*
X207251476Y-97061275D01*
X207175065Y-97045498D01*
X207099120Y-97027499D01*
X207091833Y-97026648D01*
X207091840Y-97026587D01*
X207084226Y-97025809D01*
X207084221Y-97025871D01*
X207076909Y-97025231D01*
X206998924Y-97027500D01*
X204838028Y-97027500D01*
X204769907Y-97007498D01*
X204748933Y-96990595D01*
X204278341Y-96520003D01*
X208706573Y-96520003D01*
X208726256Y-96807765D01*
X208726257Y-96807770D01*
X208726258Y-96807778D01*
X208758443Y-96962661D01*
X208784943Y-97090189D01*
X208784945Y-97090197D01*
X208853379Y-97282752D01*
X208881541Y-97361992D01*
X209014247Y-97618103D01*
X209180591Y-97853758D01*
X209377474Y-98064568D01*
X209377483Y-98064575D01*
X209377487Y-98064579D01*
X209601220Y-98246600D01*
X209601222Y-98246601D01*
X209601228Y-98246606D01*
X209847686Y-98396481D01*
X210112256Y-98511400D01*
X210390011Y-98589223D01*
X210675761Y-98628499D01*
X210675775Y-98628500D01*
X210964225Y-98628500D01*
X210964238Y-98628499D01*
X211176000Y-98599392D01*
X211249989Y-98589223D01*
X211527744Y-98511400D01*
X211792314Y-98396481D01*
X212038772Y-98246606D01*
X212262526Y-98064568D01*
X212459409Y-97853758D01*
X212625753Y-97618103D01*
X212758459Y-97361992D01*
X212855055Y-97090196D01*
X212913742Y-96807778D01*
X212933427Y-96520003D01*
X213786573Y-96520003D01*
X213806256Y-96807765D01*
X213806257Y-96807770D01*
X213806258Y-96807778D01*
X213838443Y-96962661D01*
X213864943Y-97090189D01*
X213864945Y-97090197D01*
X213933379Y-97282752D01*
X213961541Y-97361992D01*
X214094247Y-97618103D01*
X214260591Y-97853758D01*
X214457474Y-98064568D01*
X214457483Y-98064575D01*
X214457487Y-98064579D01*
X214681220Y-98246600D01*
X214681222Y-98246601D01*
X214681228Y-98246606D01*
X214927686Y-98396481D01*
X215192256Y-98511400D01*
X215470011Y-98589223D01*
X215755761Y-98628499D01*
X215755775Y-98628500D01*
X216044225Y-98628500D01*
X216044238Y-98628499D01*
X216256000Y-98599392D01*
X216329989Y-98589223D01*
X216607744Y-98511400D01*
X216872314Y-98396481D01*
X217118772Y-98246606D01*
X217342526Y-98064568D01*
X217539409Y-97853758D01*
X217705753Y-97618103D01*
X217838459Y-97361992D01*
X217935055Y-97090196D01*
X217993742Y-96807778D01*
X218013427Y-96520000D01*
X217993742Y-96232222D01*
X217935055Y-95949804D01*
X217838459Y-95678008D01*
X217705753Y-95421897D01*
X217539409Y-95186242D01*
X217342526Y-94975432D01*
X217342516Y-94975424D01*
X217342512Y-94975420D01*
X217118779Y-94793399D01*
X217118775Y-94793396D01*
X217118772Y-94793394D01*
X216872314Y-94643519D01*
X216872310Y-94643517D01*
X216872308Y-94643516D01*
X216763713Y-94596347D01*
X216607744Y-94528600D01*
X216380354Y-94464888D01*
X216329986Y-94450776D01*
X216329988Y-94450776D01*
X216044238Y-94411500D01*
X216044225Y-94411500D01*
X215755775Y-94411500D01*
X215755761Y-94411500D01*
X215470012Y-94450776D01*
X215297572Y-94499091D01*
X215192256Y-94528600D01*
X215192253Y-94528601D01*
X215192254Y-94528601D01*
X214927691Y-94643516D01*
X214681220Y-94793399D01*
X214457487Y-94975420D01*
X214457471Y-94975435D01*
X214260591Y-95186242D01*
X214094247Y-95421896D01*
X214094247Y-95421897D01*
X213961541Y-95678007D01*
X213864945Y-95949802D01*
X213864943Y-95949810D01*
X213806257Y-96232229D01*
X213806256Y-96232234D01*
X213786573Y-96519996D01*
X213786573Y-96520003D01*
X212933427Y-96520003D01*
X212933427Y-96520000D01*
X212913742Y-96232222D01*
X212855055Y-95949804D01*
X212758459Y-95678008D01*
X212625753Y-95421897D01*
X212459409Y-95186242D01*
X212262526Y-94975432D01*
X212262516Y-94975424D01*
X212262512Y-94975420D01*
X212038779Y-94793399D01*
X212038775Y-94793396D01*
X212038772Y-94793394D01*
X211792314Y-94643519D01*
X211792310Y-94643517D01*
X211792308Y-94643516D01*
X211683713Y-94596347D01*
X211527744Y-94528600D01*
X211300354Y-94464888D01*
X211249986Y-94450776D01*
X211249988Y-94450776D01*
X210964238Y-94411500D01*
X210964225Y-94411500D01*
X210675775Y-94411500D01*
X210675761Y-94411500D01*
X210390012Y-94450776D01*
X210217572Y-94499091D01*
X210112256Y-94528600D01*
X210112253Y-94528601D01*
X210112254Y-94528601D01*
X209847691Y-94643516D01*
X209601220Y-94793399D01*
X209377487Y-94975420D01*
X209377471Y-94975435D01*
X209180591Y-95186242D01*
X209014247Y-95421896D01*
X209014247Y-95421897D01*
X208881541Y-95678007D01*
X208784945Y-95949802D01*
X208784943Y-95949810D01*
X208726257Y-96232229D01*
X208726256Y-96232234D01*
X208706573Y-96519996D01*
X208706573Y-96520003D01*
X204278341Y-96520003D01*
X199505405Y-91747066D01*
X199471379Y-91684754D01*
X199468500Y-91657971D01*
X199468500Y-91440000D01*
X201847004Y-91440000D01*
X201866951Y-91668002D01*
X201926186Y-91889068D01*
X201926188Y-91889073D01*
X202022911Y-92096496D01*
X202022912Y-92096498D01*
X202146866Y-92273524D01*
X202146868Y-92273524D01*
X202801976Y-91618416D01*
X202832359Y-91678045D01*
X202921955Y-91767641D01*
X202981581Y-91798022D01*
X202326474Y-92453129D01*
X202326474Y-92453132D01*
X202503501Y-92577087D01*
X202503503Y-92577088D01*
X202710926Y-92673811D01*
X202710931Y-92673813D01*
X202931999Y-92733048D01*
X202931995Y-92733048D01*
X203160000Y-92752995D01*
X203388002Y-92733048D01*
X203609068Y-92673813D01*
X203609073Y-92673811D01*
X203816497Y-92577088D01*
X203993524Y-92453131D01*
X203993524Y-92453130D01*
X203338417Y-91798022D01*
X203398045Y-91767641D01*
X203487641Y-91678045D01*
X203518023Y-91618417D01*
X204173130Y-92273524D01*
X204173131Y-92273524D01*
X204297088Y-92096497D01*
X204393811Y-91889073D01*
X204393813Y-91889068D01*
X204453048Y-91668002D01*
X204472995Y-91440000D01*
X204453048Y-91211997D01*
X204393813Y-90990931D01*
X204393811Y-90990926D01*
X204297088Y-90783503D01*
X204297087Y-90783501D01*
X204173132Y-90606474D01*
X204173129Y-90606474D01*
X203518022Y-91261581D01*
X203487641Y-91201955D01*
X203398045Y-91112359D01*
X203338416Y-91081976D01*
X203993524Y-90426868D01*
X203993524Y-90426866D01*
X203816498Y-90302912D01*
X203816496Y-90302911D01*
X203609073Y-90206188D01*
X203609068Y-90206186D01*
X203388000Y-90146951D01*
X203388004Y-90146951D01*
X203160000Y-90127004D01*
X202931997Y-90146951D01*
X202710931Y-90206186D01*
X202710926Y-90206188D01*
X202503498Y-90302913D01*
X202326474Y-90426866D01*
X202326474Y-90426869D01*
X202981582Y-91081977D01*
X202921955Y-91112359D01*
X202832359Y-91201955D01*
X202801977Y-91261582D01*
X202146869Y-90606474D01*
X202146866Y-90606474D01*
X202022913Y-90783498D01*
X201926188Y-90990926D01*
X201926186Y-90990931D01*
X201866951Y-91211997D01*
X201847004Y-91440000D01*
X199468500Y-91440000D01*
X199468500Y-91222027D01*
X199488502Y-91153906D01*
X199505405Y-91132932D01*
X200938933Y-89699405D01*
X201001245Y-89665379D01*
X201028028Y-89662500D01*
X210510263Y-89662500D01*
X210578384Y-89682502D01*
X210624877Y-89736158D01*
X210634981Y-89806432D01*
X210605487Y-89871012D01*
X210602349Y-89874500D01*
X210588345Y-89889493D01*
X210429892Y-90113971D01*
X210303477Y-90357941D01*
X210211462Y-90616845D01*
X210211460Y-90616853D01*
X210155557Y-90885877D01*
X210155556Y-90885883D01*
X210136807Y-91159995D01*
X210136807Y-91160004D01*
X210155556Y-91434116D01*
X210155557Y-91434122D01*
X210155558Y-91434130D01*
X210182784Y-91565148D01*
X210211460Y-91703146D01*
X210211462Y-91703154D01*
X210277536Y-91889068D01*
X210303477Y-91962058D01*
X210373137Y-92096497D01*
X210429892Y-92206028D01*
X210477536Y-92273524D01*
X210588343Y-92430502D01*
X210775889Y-92631314D01*
X210989031Y-92804718D01*
X211223800Y-92947484D01*
X211475823Y-93056953D01*
X211740404Y-93131085D01*
X211832264Y-93143711D01*
X212012604Y-93168499D01*
X212012615Y-93168500D01*
X212287385Y-93168500D01*
X212287395Y-93168499D01*
X212416945Y-93150692D01*
X212559596Y-93131085D01*
X212824177Y-93056953D01*
X213076200Y-92947484D01*
X213310969Y-92804718D01*
X213524111Y-92631314D01*
X213711657Y-92430502D01*
X213870111Y-92206023D01*
X213996523Y-91962058D01*
X214088538Y-91703153D01*
X214144442Y-91434130D01*
X214156326Y-91260394D01*
X214163193Y-91160004D01*
X214163193Y-91159995D01*
X214144443Y-90885883D01*
X214144442Y-90885877D01*
X214144442Y-90885870D01*
X214088538Y-90616847D01*
X213996523Y-90357942D01*
X213870111Y-90113977D01*
X213793540Y-90005500D01*
X213711654Y-89889493D01*
X213697651Y-89874500D01*
X213665774Y-89811063D01*
X213673254Y-89740461D01*
X213717717Y-89685112D01*
X213785046Y-89662587D01*
X213789737Y-89662500D01*
X217021973Y-89662500D01*
X217090094Y-89682502D01*
X217111068Y-89699405D01*
X217738308Y-90326645D01*
X217772334Y-90388957D01*
X217767938Y-90457934D01*
X217711464Y-90616840D01*
X217711460Y-90616853D01*
X217655557Y-90885877D01*
X217655556Y-90885883D01*
X217636807Y-91159995D01*
X217636807Y-91160004D01*
X217655556Y-91434116D01*
X217655557Y-91434122D01*
X217655558Y-91434130D01*
X217682784Y-91565148D01*
X217711460Y-91703146D01*
X217711462Y-91703154D01*
X217777536Y-91889068D01*
X217803477Y-91962058D01*
X217873137Y-92096497D01*
X217929892Y-92206028D01*
X217977536Y-92273524D01*
X218088343Y-92430502D01*
X218275889Y-92631314D01*
X218489031Y-92804718D01*
X218723800Y-92947484D01*
X218975823Y-93056953D01*
X219240404Y-93131085D01*
X219332264Y-93143711D01*
X219512604Y-93168499D01*
X219512615Y-93168500D01*
X219787385Y-93168500D01*
X219787395Y-93168499D01*
X219916945Y-93150692D01*
X220059596Y-93131085D01*
X220324177Y-93056953D01*
X220576200Y-92947484D01*
X220810969Y-92804718D01*
X221024111Y-92631314D01*
X221211657Y-92430502D01*
X221370111Y-92206023D01*
X221496523Y-91962058D01*
X221588538Y-91703153D01*
X221644442Y-91434130D01*
X221656326Y-91260394D01*
X221663193Y-91160004D01*
X221663193Y-91159995D01*
X221644443Y-90885883D01*
X221644442Y-90885877D01*
X221644442Y-90885870D01*
X221588538Y-90616847D01*
X221532059Y-90457933D01*
X221528095Y-90387050D01*
X221561688Y-90326647D01*
X222188933Y-89699404D01*
X222251246Y-89665379D01*
X222278029Y-89662500D01*
X225750263Y-89662500D01*
X225818384Y-89682502D01*
X225864877Y-89736158D01*
X225874981Y-89806432D01*
X225845487Y-89871012D01*
X225842349Y-89874500D01*
X225828345Y-89889493D01*
X225669892Y-90113971D01*
X225543477Y-90357941D01*
X225451462Y-90616845D01*
X225451460Y-90616853D01*
X225395557Y-90885877D01*
X225395556Y-90885883D01*
X225376807Y-91159995D01*
X225376807Y-91160004D01*
X225395556Y-91434116D01*
X225395557Y-91434122D01*
X225395558Y-91434130D01*
X225422784Y-91565148D01*
X225451460Y-91703146D01*
X225451462Y-91703154D01*
X225517536Y-91889068D01*
X225543477Y-91962058D01*
X225613137Y-92096497D01*
X225669892Y-92206028D01*
X225717536Y-92273524D01*
X225828343Y-92430502D01*
X226015889Y-92631314D01*
X226229031Y-92804718D01*
X226463800Y-92947484D01*
X226715823Y-93056953D01*
X226980404Y-93131085D01*
X227072264Y-93143711D01*
X227252604Y-93168499D01*
X227252615Y-93168500D01*
X227527385Y-93168500D01*
X227527395Y-93168499D01*
X227656945Y-93150692D01*
X227799596Y-93131085D01*
X228064177Y-93056953D01*
X228316200Y-92947484D01*
X228550969Y-92804718D01*
X228764111Y-92631314D01*
X228951657Y-92430502D01*
X229110111Y-92206023D01*
X229236523Y-91962058D01*
X229328538Y-91703153D01*
X229384442Y-91434130D01*
X229396326Y-91260394D01*
X229403193Y-91160004D01*
X229403193Y-91159995D01*
X229384443Y-90885883D01*
X229384442Y-90885877D01*
X229384442Y-90885870D01*
X229328538Y-90616847D01*
X229236523Y-90357942D01*
X229110111Y-90113977D01*
X229033540Y-90005500D01*
X228951654Y-89889493D01*
X228937651Y-89874500D01*
X228905774Y-89811063D01*
X228913254Y-89740461D01*
X228957717Y-89685112D01*
X229025046Y-89662587D01*
X229029737Y-89662500D01*
X232261973Y-89662500D01*
X232330094Y-89682502D01*
X232351068Y-89699405D01*
X232978308Y-90326645D01*
X233012334Y-90388957D01*
X233007938Y-90457934D01*
X232951464Y-90616840D01*
X232951460Y-90616853D01*
X232895557Y-90885877D01*
X232895556Y-90885883D01*
X232876807Y-91159995D01*
X232876807Y-91160004D01*
X232895556Y-91434116D01*
X232895557Y-91434122D01*
X232895558Y-91434130D01*
X232922784Y-91565148D01*
X232951460Y-91703146D01*
X232951462Y-91703154D01*
X233017536Y-91889068D01*
X233043477Y-91962058D01*
X233113137Y-92096497D01*
X233169892Y-92206028D01*
X233217536Y-92273524D01*
X233328343Y-92430502D01*
X233515889Y-92631314D01*
X233729031Y-92804718D01*
X233963800Y-92947484D01*
X234215823Y-93056953D01*
X234480404Y-93131085D01*
X234572264Y-93143711D01*
X234752604Y-93168499D01*
X234752615Y-93168500D01*
X235027385Y-93168500D01*
X235027395Y-93168499D01*
X235156945Y-93150692D01*
X235299596Y-93131085D01*
X235564177Y-93056953D01*
X235816200Y-92947484D01*
X236050969Y-92804718D01*
X236264111Y-92631314D01*
X236451657Y-92430502D01*
X236610111Y-92206023D01*
X236736523Y-91962058D01*
X236828538Y-91703153D01*
X236884442Y-91434130D01*
X236896326Y-91260394D01*
X236903193Y-91160004D01*
X236903193Y-91159995D01*
X236884443Y-90885883D01*
X236884442Y-90885877D01*
X236884442Y-90885870D01*
X236828538Y-90616847D01*
X236736523Y-90357942D01*
X236610111Y-90113977D01*
X236451657Y-89889498D01*
X236264111Y-89688686D01*
X236050969Y-89515282D01*
X235816200Y-89372516D01*
X235816201Y-89372516D01*
X235816197Y-89372514D01*
X235564180Y-89263048D01*
X235564178Y-89263047D01*
X235564177Y-89263047D01*
X235431886Y-89225980D01*
X235299593Y-89188914D01*
X235027395Y-89151500D01*
X235027385Y-89151500D01*
X234752615Y-89151500D01*
X234752604Y-89151500D01*
X234480406Y-89188914D01*
X234298014Y-89240017D01*
X234215823Y-89263047D01*
X234215821Y-89263047D01*
X234215813Y-89263050D01*
X234193773Y-89272623D01*
X234123323Y-89281413D01*
X234059304Y-89250719D01*
X234054485Y-89246147D01*
X233214942Y-88406604D01*
X233202970Y-88392752D01*
X233188398Y-88373178D01*
X233188396Y-88373176D01*
X233147730Y-88339052D01*
X233143676Y-88335338D01*
X233137771Y-88329432D01*
X233111619Y-88308753D01*
X233051855Y-88258605D01*
X233045728Y-88254576D01*
X233045761Y-88254524D01*
X233039303Y-88250410D01*
X233039272Y-88250461D01*
X233033022Y-88246606D01*
X232962294Y-88213625D01*
X232892572Y-88178608D01*
X232885671Y-88176097D01*
X232885691Y-88176039D01*
X232878459Y-88173525D01*
X232878440Y-88173583D01*
X232871476Y-88171275D01*
X232795065Y-88155498D01*
X232719120Y-88137499D01*
X232711833Y-88136648D01*
X232711840Y-88136587D01*
X232704226Y-88135809D01*
X232704221Y-88135871D01*
X232696909Y-88135231D01*
X232618924Y-88137500D01*
X221974735Y-88137500D01*
X221956475Y-88136170D01*
X221950064Y-88135231D01*
X221932328Y-88132633D01*
X221932326Y-88132633D01*
X221932325Y-88132633D01*
X221912343Y-88134381D01*
X221879439Y-88137260D01*
X221873955Y-88137500D01*
X221865588Y-88137500D01*
X221832502Y-88141366D01*
X221832503Y-88141366D01*
X221754759Y-88148168D01*
X221747574Y-88149652D01*
X221747562Y-88149594D01*
X221740083Y-88151252D01*
X221740097Y-88151310D01*
X221732956Y-88153002D01*
X221659630Y-88179690D01*
X221585567Y-88204231D01*
X221578915Y-88207334D01*
X221578890Y-88207280D01*
X221571988Y-88210622D01*
X221572015Y-88210674D01*
X221565466Y-88213962D01*
X221500275Y-88256839D01*
X221433850Y-88297811D01*
X221428094Y-88302363D01*
X221428057Y-88302316D01*
X221422122Y-88307150D01*
X221422161Y-88307196D01*
X221416540Y-88311912D01*
X221362994Y-88368667D01*
X220485513Y-89246147D01*
X220423201Y-89280173D01*
X220352386Y-89275108D01*
X220346221Y-89272621D01*
X220324187Y-89263050D01*
X220324178Y-89263047D01*
X220324177Y-89263047D01*
X220177573Y-89221970D01*
X220059593Y-89188914D01*
X219787395Y-89151500D01*
X219787385Y-89151500D01*
X219512615Y-89151500D01*
X219512604Y-89151500D01*
X219240406Y-89188914D01*
X219058014Y-89240017D01*
X218975823Y-89263047D01*
X218975821Y-89263047D01*
X218975813Y-89263050D01*
X218953773Y-89272623D01*
X218883323Y-89281413D01*
X218819304Y-89250719D01*
X218814485Y-89246147D01*
X217974942Y-88406604D01*
X217962970Y-88392752D01*
X217948398Y-88373178D01*
X217948396Y-88373176D01*
X217907730Y-88339052D01*
X217903676Y-88335338D01*
X217897771Y-88329432D01*
X217871619Y-88308753D01*
X217811855Y-88258605D01*
X217805728Y-88254576D01*
X217805761Y-88254524D01*
X217799303Y-88250410D01*
X217799272Y-88250461D01*
X217793022Y-88246606D01*
X217722294Y-88213625D01*
X217652572Y-88178608D01*
X217645671Y-88176097D01*
X217645691Y-88176039D01*
X217638459Y-88173525D01*
X217638440Y-88173583D01*
X217631476Y-88171275D01*
X217555065Y-88155498D01*
X217479120Y-88137499D01*
X217471833Y-88136648D01*
X217471840Y-88136587D01*
X217464226Y-88135809D01*
X217464221Y-88135871D01*
X217456909Y-88135231D01*
X217378924Y-88137500D01*
X200724728Y-88137500D01*
X200706468Y-88136170D01*
X200704427Y-88135871D01*
X200682328Y-88132634D01*
X200682327Y-88132634D01*
X200629445Y-88137260D01*
X200623952Y-88137500D01*
X200615583Y-88137500D01*
X200588004Y-88140723D01*
X200582488Y-88141368D01*
X200570399Y-88142425D01*
X200504766Y-88148168D01*
X200504762Y-88148168D01*
X200504760Y-88148169D01*
X200504758Y-88148169D01*
X200497573Y-88149653D01*
X200497560Y-88149594D01*
X200490083Y-88151252D01*
X200490097Y-88151310D01*
X200482956Y-88153002D01*
X200409630Y-88179690D01*
X200335567Y-88204231D01*
X200328915Y-88207334D01*
X200328890Y-88207280D01*
X200321988Y-88210622D01*
X200322015Y-88210674D01*
X200315466Y-88213962D01*
X200250261Y-88256848D01*
X200183849Y-88297813D01*
X200178098Y-88302361D01*
X200178060Y-88302314D01*
X200172123Y-88307150D01*
X200172161Y-88307196D01*
X200166540Y-88311912D01*
X200112978Y-88368684D01*
X198387067Y-90094595D01*
X198324755Y-90128620D01*
X198297972Y-90131500D01*
X197611500Y-90131500D01*
X197543379Y-90111498D01*
X197496886Y-90057842D01*
X197485500Y-90005500D01*
X197485500Y-88204231D01*
X197485500Y-86357918D01*
X197505501Y-86289801D01*
X197522395Y-86268836D01*
X199019430Y-84771802D01*
X199081740Y-84737779D01*
X199108523Y-84734900D01*
X199168661Y-84734900D01*
X199201636Y-84727890D01*
X199356777Y-84694915D01*
X199532470Y-84616691D01*
X199688060Y-84503649D01*
X199816747Y-84360727D01*
X199912907Y-84194173D01*
X199972337Y-84011266D01*
X199992440Y-83820000D01*
X199972337Y-83628734D01*
X199970631Y-83623483D01*
X199912909Y-83445832D01*
X199912907Y-83445828D01*
X199912907Y-83445827D01*
X199871726Y-83374499D01*
X199854989Y-83305504D01*
X199878210Y-83238412D01*
X199934017Y-83194525D01*
X199980846Y-83185500D01*
X205107078Y-83185500D01*
X205175199Y-83205502D01*
X205196173Y-83222405D01*
X205738518Y-83764750D01*
X205772544Y-83827062D01*
X205774733Y-83840675D01*
X205792662Y-84011266D01*
X205852090Y-84194167D01*
X205852094Y-84194175D01*
X205948250Y-84360723D01*
X205948251Y-84360725D01*
X205948253Y-84360727D01*
X205996588Y-84414409D01*
X206076939Y-84503649D01*
X206232527Y-84616689D01*
X206232528Y-84616690D01*
X206232529Y-84616690D01*
X206232530Y-84616691D01*
X206408223Y-84694915D01*
X206556353Y-84726400D01*
X206596339Y-84734900D01*
X206596340Y-84734900D01*
X206788661Y-84734900D01*
X206821636Y-84727890D01*
X206976777Y-84694915D01*
X207152470Y-84616691D01*
X207308060Y-84503649D01*
X207436747Y-84360727D01*
X207532907Y-84194173D01*
X207592337Y-84011266D01*
X207612440Y-83820000D01*
X207592337Y-83628734D01*
X207590631Y-83623483D01*
X207532909Y-83445832D01*
X207532905Y-83445824D01*
X207529190Y-83439390D01*
X207474289Y-83344297D01*
X207436749Y-83279276D01*
X207436748Y-83279275D01*
X207436747Y-83279273D01*
X207352314Y-83185500D01*
X207308060Y-83136350D01*
X207152472Y-83023310D01*
X207152471Y-83023309D01*
X206976777Y-82945085D01*
X206788661Y-82905100D01*
X206788660Y-82905100D01*
X206728523Y-82905100D01*
X206660402Y-82885098D01*
X206639428Y-82868195D01*
X205931315Y-82160082D01*
X205921331Y-82147620D01*
X205921107Y-82147806D01*
X205916054Y-82141698D01*
X205864806Y-82093573D01*
X205843599Y-82072365D01*
X205841964Y-82071097D01*
X205838020Y-82068037D01*
X205833515Y-82064189D01*
X205799006Y-82031783D01*
X205798999Y-82031778D01*
X205781173Y-82021978D01*
X205764647Y-82011123D01*
X205748566Y-81998649D01*
X205748567Y-81998649D01*
X205705112Y-81979845D01*
X205699779Y-81977232D01*
X205658305Y-81954432D01*
X205658303Y-81954431D01*
X205638585Y-81949368D01*
X205619882Y-81942964D01*
X205601206Y-81934882D01*
X205554441Y-81927475D01*
X205548635Y-81926273D01*
X205533361Y-81922351D01*
X205502786Y-81914500D01*
X205502782Y-81914500D01*
X205482434Y-81914500D01*
X205462724Y-81912949D01*
X205442621Y-81909765D01*
X205442620Y-81909765D01*
X205395489Y-81914220D01*
X205389556Y-81914500D01*
X198839070Y-81914500D01*
X198823201Y-81912747D01*
X198823174Y-81913038D01*
X198815281Y-81912292D01*
X198745029Y-81914500D01*
X198715016Y-81914500D01*
X198708012Y-81915383D01*
X198702106Y-81915848D01*
X198654794Y-81917335D01*
X198635250Y-81923013D01*
X198615905Y-81927019D01*
X198595704Y-81929572D01*
X198595695Y-81929574D01*
X198551675Y-81947002D01*
X198546060Y-81948925D01*
X198500605Y-81962132D01*
X198483093Y-81972489D01*
X198465343Y-81981184D01*
X198446420Y-81988676D01*
X198446412Y-81988680D01*
X198408110Y-82016507D01*
X198403150Y-82019765D01*
X198362400Y-82043865D01*
X198348006Y-82058260D01*
X198332981Y-82071092D01*
X198316513Y-82083058D01*
X198316512Y-82083059D01*
X198286328Y-82119543D01*
X198282332Y-82123934D01*
X195825077Y-84581188D01*
X195812616Y-84591173D01*
X195812801Y-84591397D01*
X195806697Y-84596446D01*
X195758574Y-84647692D01*
X195737358Y-84668909D01*
X195737353Y-84668914D01*
X195733032Y-84674483D01*
X195729185Y-84678987D01*
X195696785Y-84713490D01*
X195696784Y-84713492D01*
X195686976Y-84731332D01*
X195676124Y-84747850D01*
X195663654Y-84763925D01*
X195663650Y-84763932D01*
X195644843Y-84807388D01*
X195642233Y-84812716D01*
X195619433Y-84854191D01*
X195619430Y-84854199D01*
X195614370Y-84873907D01*
X195607968Y-84892607D01*
X195599882Y-84911293D01*
X195599881Y-84911297D01*
X195592476Y-84958051D01*
X195591272Y-84963865D01*
X195579499Y-85009717D01*
X195579500Y-85030065D01*
X195577949Y-85049775D01*
X195574765Y-85069878D01*
X195574765Y-85069879D01*
X195579220Y-85117010D01*
X195579500Y-85122943D01*
X195579500Y-100686991D01*
X195559498Y-100755112D01*
X195505842Y-100801605D01*
X195435568Y-100811709D01*
X195402251Y-100802098D01*
X195229277Y-100725085D01*
X195041161Y-100685100D01*
X195041160Y-100685100D01*
X194848840Y-100685100D01*
X194848839Y-100685100D01*
X194660722Y-100725085D01*
X194485028Y-100803309D01*
X194485027Y-100803310D01*
X194329439Y-100916350D01*
X194200750Y-101059276D01*
X194104594Y-101225824D01*
X194104590Y-101225832D01*
X194045162Y-101408732D01*
X194027233Y-101579323D01*
X194000220Y-101644979D01*
X193991018Y-101655247D01*
X193285077Y-102361188D01*
X193272616Y-102371173D01*
X193272801Y-102371397D01*
X193266697Y-102376446D01*
X193218574Y-102427692D01*
X193197358Y-102448909D01*
X193197353Y-102448914D01*
X193193032Y-102454483D01*
X193189185Y-102458987D01*
X193156785Y-102493490D01*
X193156784Y-102493492D01*
X193146976Y-102511332D01*
X193136124Y-102527850D01*
X193123654Y-102543925D01*
X193123650Y-102543932D01*
X193104843Y-102587388D01*
X193102233Y-102592716D01*
X193079433Y-102634191D01*
X193079430Y-102634199D01*
X193074370Y-102653907D01*
X193067968Y-102672607D01*
X193059882Y-102691293D01*
X193059881Y-102691297D01*
X193052476Y-102738051D01*
X193051272Y-102743865D01*
X193039499Y-102789717D01*
X193039500Y-102810065D01*
X193037949Y-102829775D01*
X193034765Y-102849878D01*
X193034765Y-102849879D01*
X182955500Y-102849879D01*
X182955500Y-43815000D01*
X195936496Y-43815000D01*
X195956457Y-44004927D01*
X195986526Y-44097470D01*
X196015473Y-44186556D01*
X196015476Y-44186561D01*
X196110958Y-44351941D01*
X196110961Y-44351945D01*
X196182136Y-44430992D01*
X196212853Y-44495000D01*
X196214500Y-44515303D01*
X196214500Y-46270931D01*
X196212748Y-46286801D01*
X196213038Y-46286829D01*
X196212292Y-46294718D01*
X196212292Y-46294719D01*
X196214500Y-46364985D01*
X196214500Y-46394983D01*
X196214500Y-46394986D01*
X196214499Y-46394986D01*
X196215382Y-46401977D01*
X196215847Y-46407885D01*
X196217334Y-46455202D01*
X196217335Y-46455207D01*
X196223014Y-46474756D01*
X196227021Y-46494107D01*
X196229572Y-46514295D01*
X196229572Y-46514297D01*
X196246998Y-46558313D01*
X196248921Y-46563929D01*
X196262129Y-46609390D01*
X196262131Y-46609395D01*
X196272492Y-46626914D01*
X196281189Y-46644666D01*
X196288681Y-46663588D01*
X196316510Y-46701892D01*
X196319764Y-46706845D01*
X196323771Y-46713620D01*
X196343865Y-46747598D01*
X196358250Y-46761983D01*
X196371090Y-46777016D01*
X196383054Y-46793483D01*
X196383057Y-46793486D01*
X196419536Y-46823664D01*
X196423929Y-46827661D01*
X196976188Y-47379921D01*
X196986171Y-47392382D01*
X196986396Y-47392197D01*
X196991447Y-47398303D01*
X197042693Y-47446426D01*
X197063899Y-47467633D01*
X197063903Y-47467636D01*
X197063906Y-47467639D01*
X197069472Y-47471956D01*
X197073973Y-47475800D01*
X197108494Y-47508217D01*
X197109557Y-47508801D01*
X197110230Y-47509478D01*
X197114912Y-47512880D01*
X197114363Y-47513634D01*
X197159617Y-47559146D01*
X197174511Y-47628562D01*
X197149511Y-47695012D01*
X197137953Y-47708312D01*
X196460077Y-48386188D01*
X196447616Y-48396173D01*
X196447801Y-48396397D01*
X196441697Y-48401446D01*
X196393574Y-48452692D01*
X196372358Y-48473909D01*
X196372353Y-48473914D01*
X196368032Y-48479483D01*
X196364185Y-48483987D01*
X196331785Y-48518490D01*
X196331784Y-48518492D01*
X196321976Y-48536332D01*
X196311124Y-48552850D01*
X196298654Y-48568925D01*
X196298650Y-48568932D01*
X196279843Y-48612388D01*
X196277233Y-48617716D01*
X196254433Y-48659191D01*
X196254430Y-48659199D01*
X196249370Y-48678907D01*
X196242968Y-48697607D01*
X196234882Y-48716293D01*
X196234881Y-48716297D01*
X196227476Y-48763051D01*
X196226272Y-48768865D01*
X196214500Y-48814717D01*
X196214500Y-48835065D01*
X196212949Y-48854775D01*
X196209765Y-48874878D01*
X196209765Y-48874879D01*
X196214220Y-48922010D01*
X196214500Y-48927943D01*
X196214500Y-73575931D01*
X196212748Y-73591801D01*
X196213038Y-73591829D01*
X196212292Y-73599718D01*
X196212292Y-73599719D01*
X196214500Y-73669985D01*
X196214500Y-73699983D01*
X196214500Y-73699986D01*
X196214499Y-73699986D01*
X196215382Y-73706977D01*
X196215847Y-73712885D01*
X196217334Y-73760202D01*
X196217335Y-73760207D01*
X196223014Y-73779756D01*
X196227021Y-73799107D01*
X196229572Y-73819295D01*
X196229572Y-73819297D01*
X196246998Y-73863313D01*
X196248921Y-73868929D01*
X196262129Y-73914390D01*
X196262131Y-73914395D01*
X196272492Y-73931914D01*
X196281189Y-73949666D01*
X196288681Y-73968588D01*
X196316510Y-74006892D01*
X196319764Y-74011845D01*
X196325474Y-74021500D01*
X196343865Y-74052598D01*
X196358250Y-74066983D01*
X196371090Y-74082016D01*
X196383054Y-74098483D01*
X196383057Y-74098486D01*
X196419543Y-74128670D01*
X196423924Y-74132656D01*
X197031340Y-74740072D01*
X197611182Y-75319914D01*
X197621169Y-75332379D01*
X197621393Y-75332194D01*
X197626446Y-75338302D01*
X197677709Y-75386441D01*
X197698900Y-75407633D01*
X197698908Y-75407640D01*
X197704464Y-75411950D01*
X197708978Y-75415805D01*
X197743494Y-75448217D01*
X197761335Y-75458025D01*
X197777853Y-75468876D01*
X197793933Y-75481349D01*
X197837375Y-75500148D01*
X197842707Y-75502761D01*
X197884193Y-75525567D01*
X197884194Y-75525567D01*
X197884197Y-75525569D01*
X197903918Y-75530632D01*
X197922620Y-75537037D01*
X197941289Y-75545116D01*
X197941290Y-75545116D01*
X197941292Y-75545117D01*
X197971453Y-75549893D01*
X197988048Y-75552522D01*
X197993860Y-75553724D01*
X198039718Y-75565500D01*
X198060066Y-75565500D01*
X198079775Y-75567050D01*
X198099879Y-75570235D01*
X198134014Y-75567008D01*
X198147011Y-75565780D01*
X198152944Y-75565500D01*
X203128601Y-75565500D01*
X203196722Y-75585502D01*
X203222239Y-75607192D01*
X203223745Y-75608864D01*
X203223747Y-75608866D01*
X203378248Y-75721118D01*
X203552712Y-75798794D01*
X203739513Y-75838500D01*
X203930487Y-75838500D01*
X204117288Y-75798794D01*
X204291752Y-75721118D01*
X204446253Y-75608866D01*
X204467290Y-75585502D01*
X204574034Y-75466951D01*
X204574035Y-75466949D01*
X204574040Y-75466944D01*
X204669527Y-75301556D01*
X204728542Y-75119928D01*
X204748504Y-74930000D01*
X204728542Y-74740072D01*
X204669527Y-74558444D01*
X204574040Y-74393056D01*
X204574038Y-74393054D01*
X204574034Y-74393048D01*
X204446255Y-74251135D01*
X204291752Y-74138882D01*
X204117288Y-74061206D01*
X203930487Y-74021500D01*
X203739513Y-74021500D01*
X203552711Y-74061206D01*
X203378247Y-74138882D01*
X203223745Y-74251135D01*
X203222239Y-74252808D01*
X203221123Y-74253495D01*
X203218837Y-74255554D01*
X203218460Y-74255135D01*
X203161794Y-74290049D01*
X203128601Y-74294500D01*
X198435423Y-74294500D01*
X198367302Y-74274498D01*
X198346332Y-74257599D01*
X197522403Y-73433670D01*
X197488379Y-73371359D01*
X197485500Y-73344576D01*
X197485500Y-71688422D01*
X197505502Y-71620301D01*
X197559158Y-71573808D01*
X197629432Y-71563704D01*
X197694012Y-71593198D01*
X197700595Y-71599327D01*
X198881182Y-72779914D01*
X198891169Y-72792379D01*
X198891393Y-72792194D01*
X198896446Y-72798302D01*
X198947709Y-72846441D01*
X198968900Y-72867633D01*
X198968908Y-72867640D01*
X198974464Y-72871950D01*
X198978978Y-72875805D01*
X199013494Y-72908217D01*
X199031335Y-72918025D01*
X199047853Y-72928876D01*
X199063933Y-72941349D01*
X199107375Y-72960148D01*
X199112707Y-72962761D01*
X199154193Y-72985567D01*
X199154194Y-72985567D01*
X199154197Y-72985569D01*
X199173918Y-72990632D01*
X199192620Y-72997037D01*
X199211289Y-73005116D01*
X199211290Y-73005116D01*
X199211292Y-73005117D01*
X199241453Y-73009893D01*
X199258048Y-73012522D01*
X199263860Y-73013724D01*
X199309718Y-73025500D01*
X199330066Y-73025500D01*
X199349775Y-73027050D01*
X199369879Y-73030235D01*
X199404014Y-73027008D01*
X199417011Y-73025780D01*
X199422944Y-73025500D01*
X203128601Y-73025500D01*
X203196722Y-73045502D01*
X203222239Y-73067192D01*
X203223745Y-73068864D01*
X203223747Y-73068866D01*
X203378248Y-73181118D01*
X203552712Y-73258794D01*
X203739513Y-73298500D01*
X203930487Y-73298500D01*
X204117288Y-73258794D01*
X204291752Y-73181118D01*
X204446253Y-73068866D01*
X204456980Y-73056953D01*
X204574034Y-72926951D01*
X204574035Y-72926949D01*
X204574040Y-72926944D01*
X204669527Y-72761556D01*
X204728542Y-72579928D01*
X204748504Y-72390000D01*
X204728542Y-72200072D01*
X204669527Y-72018444D01*
X204574040Y-71853056D01*
X204574038Y-71853054D01*
X204574034Y-71853048D01*
X204446255Y-71711135D01*
X204291752Y-71598882D01*
X204117288Y-71521206D01*
X203930487Y-71481500D01*
X203739513Y-71481500D01*
X203552711Y-71521206D01*
X203378247Y-71598882D01*
X203223745Y-71711135D01*
X203222239Y-71712808D01*
X203221123Y-71713495D01*
X203218837Y-71715554D01*
X203218460Y-71715135D01*
X203161794Y-71750049D01*
X203128601Y-71754500D01*
X199705423Y-71754500D01*
X199637302Y-71734498D01*
X199616332Y-71717599D01*
X198792403Y-70893670D01*
X198758379Y-70831359D01*
X198755500Y-70804576D01*
X198755500Y-49595303D01*
X198775502Y-49527182D01*
X198787864Y-49510992D01*
X198859040Y-49431944D01*
X198954527Y-49266556D01*
X199013542Y-49084928D01*
X199033504Y-48895000D01*
X199013542Y-48705072D01*
X198954527Y-48523444D01*
X198911834Y-48449498D01*
X198895097Y-48380505D01*
X198918317Y-48313413D01*
X198974124Y-48269526D01*
X199020954Y-48260500D01*
X199074578Y-48260500D01*
X199142699Y-48280502D01*
X199163673Y-48297405D01*
X199713209Y-48846941D01*
X199747235Y-48909253D01*
X199749424Y-48922865D01*
X199766457Y-49084927D01*
X199796526Y-49177470D01*
X199825473Y-49266556D01*
X199825476Y-49266561D01*
X199920958Y-49431941D01*
X199920965Y-49431951D01*
X200048744Y-49573864D01*
X200048747Y-49573866D01*
X200203248Y-49686118D01*
X200377712Y-49763794D01*
X200564513Y-49803500D01*
X200755491Y-49803500D01*
X200824802Y-49788767D01*
X200895593Y-49794168D01*
X200952226Y-49836984D01*
X200976720Y-49903622D01*
X200977000Y-49912013D01*
X200977000Y-51033431D01*
X200975248Y-51049301D01*
X200975538Y-51049329D01*
X200974792Y-51057218D01*
X200974792Y-51057219D01*
X200977000Y-51127485D01*
X200977000Y-51157483D01*
X200977000Y-51157486D01*
X200976999Y-51157486D01*
X200977882Y-51164477D01*
X200978347Y-51170385D01*
X200979834Y-51217702D01*
X200979835Y-51217707D01*
X200985514Y-51237256D01*
X200989521Y-51256607D01*
X200992072Y-51276795D01*
X200992072Y-51276797D01*
X201009498Y-51320813D01*
X201011421Y-51326429D01*
X201024629Y-51371890D01*
X201024631Y-51371895D01*
X201034992Y-51389414D01*
X201043689Y-51407166D01*
X201051181Y-51426088D01*
X201079010Y-51464392D01*
X201082264Y-51469345D01*
X201091033Y-51484172D01*
X201106365Y-51510098D01*
X201120750Y-51524483D01*
X201133590Y-51539516D01*
X201145554Y-51555983D01*
X201145557Y-51555986D01*
X201182037Y-51586165D01*
X201186430Y-51590162D01*
X201546523Y-51950255D01*
X201892595Y-52296326D01*
X201926620Y-52358639D01*
X201929500Y-52385422D01*
X201929500Y-62544264D01*
X201909498Y-62612385D01*
X201855842Y-62658878D01*
X201785568Y-62668982D01*
X201720988Y-62639488D01*
X201709864Y-62628574D01*
X201593062Y-62498852D01*
X201437472Y-62385810D01*
X201437471Y-62385809D01*
X201261777Y-62307585D01*
X201073661Y-62267600D01*
X201073660Y-62267600D01*
X200881340Y-62267600D01*
X200881339Y-62267600D01*
X200693222Y-62307585D01*
X200517528Y-62385809D01*
X200517527Y-62385810D01*
X200361939Y-62498850D01*
X200233250Y-62641776D01*
X200137094Y-62808324D01*
X200137090Y-62808332D01*
X200077662Y-62991233D01*
X200057560Y-63182500D01*
X200077662Y-63373766D01*
X200137090Y-63556667D01*
X200137094Y-63556675D01*
X200233250Y-63723223D01*
X200233251Y-63723225D01*
X200233253Y-63723227D01*
X200309637Y-63808060D01*
X200340353Y-63872066D01*
X200342000Y-63892369D01*
X200342000Y-65003431D01*
X200340248Y-65019301D01*
X200340538Y-65019329D01*
X200339792Y-65027218D01*
X200339792Y-65027219D01*
X200342000Y-65097485D01*
X200342000Y-65127483D01*
X200342000Y-65127486D01*
X200341999Y-65127486D01*
X200342882Y-65134477D01*
X200343347Y-65140385D01*
X200344834Y-65187702D01*
X200344835Y-65187707D01*
X200350514Y-65207256D01*
X200354521Y-65226607D01*
X200357072Y-65246795D01*
X200357072Y-65246797D01*
X200374498Y-65290813D01*
X200376421Y-65296429D01*
X200389629Y-65341890D01*
X200389631Y-65341895D01*
X200399992Y-65359414D01*
X200408689Y-65377166D01*
X200416181Y-65396088D01*
X200444010Y-65434392D01*
X200447264Y-65439345D01*
X200452893Y-65448862D01*
X200471365Y-65480098D01*
X200485750Y-65494483D01*
X200498590Y-65509516D01*
X200510554Y-65525983D01*
X200510557Y-65525986D01*
X200547043Y-65556170D01*
X200551424Y-65560156D01*
X204506550Y-69515282D01*
X208242594Y-73251326D01*
X208276620Y-73313638D01*
X208279499Y-73340421D01*
X208279499Y-83100937D01*
X208277748Y-83116807D01*
X208278037Y-83116835D01*
X208277291Y-83124719D01*
X208279202Y-83185500D01*
X208279500Y-83194985D01*
X208279500Y-83224983D01*
X208279500Y-83224986D01*
X208279499Y-83224986D01*
X208280382Y-83231977D01*
X208280847Y-83237885D01*
X208282334Y-83285202D01*
X208282335Y-83285207D01*
X208288014Y-83304756D01*
X208292021Y-83324107D01*
X208294572Y-83344295D01*
X208294572Y-83344297D01*
X208311998Y-83388313D01*
X208313921Y-83393929D01*
X208327129Y-83439390D01*
X208327131Y-83439395D01*
X208337492Y-83456914D01*
X208346189Y-83474666D01*
X208353681Y-83493588D01*
X208381510Y-83531892D01*
X208384764Y-83536845D01*
X208393533Y-83551672D01*
X208408865Y-83577598D01*
X208423250Y-83591983D01*
X208436090Y-83607016D01*
X208448054Y-83623483D01*
X208448057Y-83623486D01*
X208448058Y-83623487D01*
X208454401Y-83628734D01*
X208484543Y-83653670D01*
X208488924Y-83657656D01*
X211826767Y-86995500D01*
X212216185Y-87384918D01*
X212226172Y-87397382D01*
X212226396Y-87397197D01*
X212231447Y-87403303D01*
X212282693Y-87451426D01*
X212303901Y-87472635D01*
X212309472Y-87476956D01*
X212313986Y-87480812D01*
X212348494Y-87513217D01*
X212348496Y-87513218D01*
X212366324Y-87523019D01*
X212382852Y-87533876D01*
X212398933Y-87546350D01*
X212398932Y-87546350D01*
X212411585Y-87551825D01*
X212442394Y-87565157D01*
X212447711Y-87567762D01*
X212489197Y-87590569D01*
X212508912Y-87595630D01*
X212527614Y-87602034D01*
X212546292Y-87610117D01*
X212558521Y-87612053D01*
X212593047Y-87617522D01*
X212598860Y-87618724D01*
X212644718Y-87630500D01*
X212665067Y-87630500D01*
X212684776Y-87632050D01*
X212704880Y-87635235D01*
X212738562Y-87632051D01*
X212752012Y-87630780D01*
X212757945Y-87630500D01*
X234634578Y-87630500D01*
X234702699Y-87650502D01*
X234723673Y-87667405D01*
X241252672Y-94196405D01*
X241286698Y-94258717D01*
X241281633Y-94329532D01*
X241239086Y-94386368D01*
X241172566Y-94411179D01*
X241163577Y-94411500D01*
X241155761Y-94411500D01*
X240870012Y-94450776D01*
X240697572Y-94499091D01*
X240592256Y-94528600D01*
X240592253Y-94528601D01*
X240592254Y-94528601D01*
X240327691Y-94643516D01*
X240081220Y-94793399D01*
X239857487Y-94975420D01*
X239857471Y-94975435D01*
X239660591Y-95186242D01*
X239494247Y-95421896D01*
X239494247Y-95421897D01*
X239361541Y-95678007D01*
X239264945Y-95949802D01*
X239264943Y-95949810D01*
X239206257Y-96232229D01*
X239206256Y-96232234D01*
X239186573Y-96519996D01*
X239186573Y-96520003D01*
X239206256Y-96807765D01*
X239206257Y-96807770D01*
X239206258Y-96807778D01*
X239238443Y-96962661D01*
X239264943Y-97090189D01*
X239264945Y-97090197D01*
X239333379Y-97282752D01*
X239361541Y-97361992D01*
X239494247Y-97618103D01*
X239660591Y-97853758D01*
X239857474Y-98064568D01*
X239857483Y-98064575D01*
X239857487Y-98064579D01*
X240081220Y-98246600D01*
X240081222Y-98246601D01*
X240081228Y-98246606D01*
X240327686Y-98396481D01*
X240592256Y-98511400D01*
X240870011Y-98589223D01*
X241155761Y-98628499D01*
X241155775Y-98628500D01*
X241444225Y-98628500D01*
X241444238Y-98628499D01*
X241656000Y-98599392D01*
X241729989Y-98589223D01*
X242007744Y-98511400D01*
X242272314Y-98396481D01*
X242518772Y-98246606D01*
X242742526Y-98064568D01*
X242939409Y-97853758D01*
X242977766Y-97799418D01*
X243033388Y-97755303D01*
X243104034Y-97748261D01*
X243167273Y-97780532D01*
X243203026Y-97841869D01*
X243206640Y-97868120D01*
X243207334Y-97890201D01*
X243207335Y-97890207D01*
X243213014Y-97909756D01*
X243217021Y-97929107D01*
X243219572Y-97949295D01*
X243219572Y-97949297D01*
X243236998Y-97993313D01*
X243238921Y-97998929D01*
X243252129Y-98044390D01*
X243252131Y-98044395D01*
X243262492Y-98061914D01*
X243271189Y-98079666D01*
X243278681Y-98098588D01*
X243306510Y-98136892D01*
X243309764Y-98141845D01*
X243318533Y-98156672D01*
X243333865Y-98182598D01*
X243348250Y-98196983D01*
X243361090Y-98212016D01*
X243373054Y-98228483D01*
X243373057Y-98228486D01*
X243409543Y-98258670D01*
X243413924Y-98262656D01*
X244601182Y-99449914D01*
X244611169Y-99462379D01*
X244611393Y-99462194D01*
X244616446Y-99468302D01*
X244667709Y-99516441D01*
X244688900Y-99537633D01*
X244688908Y-99537640D01*
X244694464Y-99541950D01*
X244698978Y-99545805D01*
X244733494Y-99578217D01*
X244751335Y-99588025D01*
X244767853Y-99598876D01*
X244783933Y-99611349D01*
X244827375Y-99630148D01*
X244832707Y-99632761D01*
X244874193Y-99655567D01*
X244874194Y-99655567D01*
X244874197Y-99655569D01*
X244893918Y-99660632D01*
X244912620Y-99667037D01*
X244931289Y-99675116D01*
X244931290Y-99675116D01*
X244931292Y-99675117D01*
X244961453Y-99679893D01*
X244978048Y-99682522D01*
X244983860Y-99683724D01*
X245029718Y-99695500D01*
X245050066Y-99695500D01*
X245069775Y-99697050D01*
X245089879Y-99700235D01*
X245124503Y-99696962D01*
X245137011Y-99695780D01*
X245142944Y-99695500D01*
X248835930Y-99695500D01*
X248851798Y-99697252D01*
X248851826Y-99696962D01*
X248859718Y-99697708D01*
X248859718Y-99697707D01*
X248859719Y-99697708D01*
X248929985Y-99695500D01*
X248959983Y-99695500D01*
X248966969Y-99694617D01*
X248972873Y-99694152D01*
X249020205Y-99692665D01*
X249039751Y-99686985D01*
X249059102Y-99682978D01*
X249079299Y-99680427D01*
X249123332Y-99662992D01*
X249128915Y-99661081D01*
X249174393Y-99647869D01*
X249191907Y-99637510D01*
X249209656Y-99628814D01*
X249228588Y-99621319D01*
X249266903Y-99593480D01*
X249271840Y-99590237D01*
X249312598Y-99566134D01*
X249326984Y-99551747D01*
X249342018Y-99538906D01*
X249358487Y-99526942D01*
X249388678Y-99490446D01*
X249392646Y-99486084D01*
X250423259Y-98455471D01*
X250485569Y-98421447D01*
X250556384Y-98426512D01*
X250562548Y-98428998D01*
X250752256Y-98511400D01*
X251030011Y-98589223D01*
X251315761Y-98628499D01*
X251315775Y-98628500D01*
X251604225Y-98628500D01*
X251604238Y-98628499D01*
X251816000Y-98599392D01*
X251889989Y-98589223D01*
X252167744Y-98511400D01*
X252432314Y-98396481D01*
X252678772Y-98246606D01*
X252902526Y-98064568D01*
X253099409Y-97853758D01*
X253265753Y-97618103D01*
X253398459Y-97361992D01*
X253495055Y-97090196D01*
X253553742Y-96807778D01*
X253573427Y-96520003D01*
X254426573Y-96520003D01*
X254446256Y-96807765D01*
X254446257Y-96807770D01*
X254446258Y-96807778D01*
X254478443Y-96962661D01*
X254504943Y-97090189D01*
X254504945Y-97090197D01*
X254573379Y-97282752D01*
X254601541Y-97361992D01*
X254734247Y-97618103D01*
X254900591Y-97853758D01*
X255097474Y-98064568D01*
X255097483Y-98064575D01*
X255097487Y-98064579D01*
X255321220Y-98246600D01*
X255321222Y-98246601D01*
X255321228Y-98246606D01*
X255567686Y-98396481D01*
X255832256Y-98511400D01*
X256110011Y-98589223D01*
X256395761Y-98628499D01*
X256395775Y-98628500D01*
X256684225Y-98628500D01*
X256684238Y-98628499D01*
X256896000Y-98599392D01*
X256969989Y-98589223D01*
X257247744Y-98511400D01*
X257512314Y-98396481D01*
X257758772Y-98246606D01*
X257982526Y-98064568D01*
X258179409Y-97853758D01*
X258345753Y-97618103D01*
X258478459Y-97361992D01*
X258575055Y-97090196D01*
X258633742Y-96807778D01*
X258653427Y-96520000D01*
X258633742Y-96232222D01*
X258575055Y-95949804D01*
X258478459Y-95678008D01*
X258345753Y-95421897D01*
X258179409Y-95186242D01*
X257982526Y-94975432D01*
X257982516Y-94975424D01*
X257982512Y-94975420D01*
X257758779Y-94793399D01*
X257758775Y-94793396D01*
X257758772Y-94793394D01*
X257512314Y-94643519D01*
X257512310Y-94643517D01*
X257512308Y-94643516D01*
X257403713Y-94596347D01*
X257247744Y-94528600D01*
X257020354Y-94464888D01*
X256969986Y-94450776D01*
X256969988Y-94450776D01*
X256684238Y-94411500D01*
X256684225Y-94411500D01*
X256395775Y-94411500D01*
X256395761Y-94411500D01*
X256110012Y-94450776D01*
X255937572Y-94499091D01*
X255832256Y-94528600D01*
X255832253Y-94528601D01*
X255832254Y-94528601D01*
X255567691Y-94643516D01*
X255321220Y-94793399D01*
X255097487Y-94975420D01*
X255097471Y-94975435D01*
X254900591Y-95186242D01*
X254734247Y-95421896D01*
X254734247Y-95421897D01*
X254601541Y-95678007D01*
X254504945Y-95949802D01*
X254504943Y-95949810D01*
X254446257Y-96232229D01*
X254446256Y-96232234D01*
X254426573Y-96519996D01*
X254426573Y-96520003D01*
X253573427Y-96520003D01*
X253573427Y-96520000D01*
X253553742Y-96232222D01*
X253495055Y-95949804D01*
X253398459Y-95678008D01*
X253265753Y-95421897D01*
X253099409Y-95186242D01*
X252902526Y-94975432D01*
X252902516Y-94975424D01*
X252902512Y-94975420D01*
X252678779Y-94793399D01*
X252678775Y-94793396D01*
X252678772Y-94793394D01*
X252432314Y-94643519D01*
X252432310Y-94643517D01*
X252432308Y-94643516D01*
X252323713Y-94596347D01*
X252167744Y-94528600D01*
X251940354Y-94464888D01*
X251889986Y-94450776D01*
X251889988Y-94450776D01*
X251604238Y-94411500D01*
X251604225Y-94411500D01*
X251315775Y-94411500D01*
X251315761Y-94411500D01*
X251030012Y-94450776D01*
X250857572Y-94499091D01*
X250752256Y-94528600D01*
X250752253Y-94528601D01*
X250752254Y-94528601D01*
X250487691Y-94643516D01*
X250241220Y-94793399D01*
X250017487Y-94975420D01*
X250017471Y-94975435D01*
X249820591Y-95186242D01*
X249654247Y-95421896D01*
X249654247Y-95421897D01*
X249521541Y-95678007D01*
X249424945Y-95949802D01*
X249424943Y-95949810D01*
X249366257Y-96232229D01*
X249366256Y-96232234D01*
X249346573Y-96519996D01*
X249346573Y-96520003D01*
X249366256Y-96807765D01*
X249366257Y-96807770D01*
X249366258Y-96807778D01*
X249398443Y-96962661D01*
X249424943Y-97090189D01*
X249424945Y-97090197D01*
X249445703Y-97148604D01*
X249521541Y-97361992D01*
X249521543Y-97361996D01*
X249521545Y-97362001D01*
X249546608Y-97410371D01*
X249560189Y-97480056D01*
X249533939Y-97546022D01*
X249523831Y-97557434D01*
X248693672Y-98387595D01*
X248631359Y-98421620D01*
X248604576Y-98424500D01*
X247734641Y-98424500D01*
X247666520Y-98404498D01*
X247620027Y-98350842D01*
X247609923Y-98280568D01*
X247639417Y-98215988D01*
X247655124Y-98200761D01*
X247822512Y-98064579D01*
X247822526Y-98064568D01*
X248019409Y-97853758D01*
X248185753Y-97618103D01*
X248318459Y-97361992D01*
X248415055Y-97090196D01*
X248473742Y-96807778D01*
X248493427Y-96520000D01*
X248473742Y-96232222D01*
X248415055Y-95949804D01*
X248318459Y-95678008D01*
X248185753Y-95421897D01*
X248019409Y-95186242D01*
X247822526Y-94975432D01*
X247822516Y-94975424D01*
X247822512Y-94975420D01*
X247598779Y-94793399D01*
X247598775Y-94793396D01*
X247598772Y-94793394D01*
X247352314Y-94643519D01*
X247352315Y-94643519D01*
X247352311Y-94643517D01*
X247091301Y-94530145D01*
X247036789Y-94484659D01*
X247015522Y-94416923D01*
X247015500Y-94414576D01*
X247015500Y-91524075D01*
X247017252Y-91508202D01*
X247016963Y-91508175D01*
X247017709Y-91500282D01*
X247015500Y-91429996D01*
X247015500Y-91400020D01*
X247015500Y-91400017D01*
X247014615Y-91393020D01*
X247014152Y-91387136D01*
X247012665Y-91339795D01*
X247006984Y-91320243D01*
X247002977Y-91300895D01*
X247000427Y-91280701D01*
X246982995Y-91236673D01*
X246981081Y-91231083D01*
X246967869Y-91185607D01*
X246957507Y-91168087D01*
X246953547Y-91160004D01*
X248116807Y-91160004D01*
X248135556Y-91434116D01*
X248135557Y-91434122D01*
X248135558Y-91434130D01*
X248162784Y-91565148D01*
X248191460Y-91703146D01*
X248191462Y-91703154D01*
X248257536Y-91889068D01*
X248283477Y-91962058D01*
X248353137Y-92096497D01*
X248409892Y-92206028D01*
X248457536Y-92273524D01*
X248568343Y-92430502D01*
X248755889Y-92631314D01*
X248969031Y-92804718D01*
X249203800Y-92947484D01*
X249455823Y-93056953D01*
X249720404Y-93131085D01*
X249812264Y-93143711D01*
X249992604Y-93168499D01*
X249992615Y-93168500D01*
X250267385Y-93168500D01*
X250267395Y-93168499D01*
X250396945Y-93150692D01*
X250539596Y-93131085D01*
X250804177Y-93056953D01*
X251056200Y-92947484D01*
X251290969Y-92804718D01*
X251504111Y-92631314D01*
X251691657Y-92430502D01*
X251850111Y-92206023D01*
X251976523Y-91962058D01*
X252068538Y-91703153D01*
X252124442Y-91434130D01*
X252136326Y-91260394D01*
X252143193Y-91160004D01*
X255856807Y-91160004D01*
X255875556Y-91434116D01*
X255875557Y-91434122D01*
X255875558Y-91434130D01*
X255902784Y-91565148D01*
X255931460Y-91703146D01*
X255931462Y-91703154D01*
X255997536Y-91889068D01*
X256023477Y-91962058D01*
X256093137Y-92096497D01*
X256149892Y-92206028D01*
X256197536Y-92273524D01*
X256308343Y-92430502D01*
X256495889Y-92631314D01*
X256709031Y-92804718D01*
X256943800Y-92947484D01*
X257195823Y-93056953D01*
X257460404Y-93131085D01*
X257552264Y-93143711D01*
X257732604Y-93168499D01*
X257732615Y-93168500D01*
X258007385Y-93168500D01*
X258007395Y-93168499D01*
X258136945Y-93150692D01*
X258279596Y-93131085D01*
X258544177Y-93056953D01*
X258796200Y-92947484D01*
X259030969Y-92804718D01*
X259244111Y-92631314D01*
X259431657Y-92430502D01*
X259590111Y-92206023D01*
X259716523Y-91962058D01*
X259808538Y-91703153D01*
X259864442Y-91434130D01*
X259876326Y-91260394D01*
X259883193Y-91160004D01*
X263356807Y-91160004D01*
X263375556Y-91434116D01*
X263375557Y-91434122D01*
X263375558Y-91434130D01*
X263402784Y-91565148D01*
X263431460Y-91703146D01*
X263431462Y-91703154D01*
X263497536Y-91889068D01*
X263523477Y-91962058D01*
X263593137Y-92096497D01*
X263649892Y-92206028D01*
X263697536Y-92273524D01*
X263808343Y-92430502D01*
X263995889Y-92631314D01*
X264209031Y-92804718D01*
X264443800Y-92947484D01*
X264695823Y-93056953D01*
X264960404Y-93131085D01*
X265052264Y-93143711D01*
X265232604Y-93168499D01*
X265232615Y-93168500D01*
X265507385Y-93168500D01*
X265507395Y-93168499D01*
X265636945Y-93150692D01*
X265779596Y-93131085D01*
X266044177Y-93056953D01*
X266296200Y-92947484D01*
X266530969Y-92804718D01*
X266744111Y-92631314D01*
X266931657Y-92430502D01*
X267090111Y-92206023D01*
X267216523Y-91962058D01*
X267308538Y-91703153D01*
X267364442Y-91434130D01*
X267376326Y-91260394D01*
X267383193Y-91160004D01*
X267383193Y-91159995D01*
X267364443Y-90885883D01*
X267364442Y-90885877D01*
X267364442Y-90885870D01*
X267308538Y-90616847D01*
X267216523Y-90357942D01*
X267090111Y-90113977D01*
X266931657Y-89889498D01*
X266744111Y-89688686D01*
X266530969Y-89515282D01*
X266296200Y-89372516D01*
X266296201Y-89372516D01*
X266296197Y-89372514D01*
X266044180Y-89263048D01*
X266044178Y-89263047D01*
X266044177Y-89263047D01*
X265911886Y-89225980D01*
X265779593Y-89188914D01*
X265507395Y-89151500D01*
X265507385Y-89151500D01*
X265232615Y-89151500D01*
X265232604Y-89151500D01*
X264960406Y-89188914D01*
X264695819Y-89263048D01*
X264443802Y-89372514D01*
X264209028Y-89515284D01*
X263995886Y-89688688D01*
X263808343Y-89889498D01*
X263649892Y-90113971D01*
X263523477Y-90357941D01*
X263431462Y-90616845D01*
X263431460Y-90616853D01*
X263375557Y-90885877D01*
X263375556Y-90885883D01*
X263356807Y-91159995D01*
X263356807Y-91160004D01*
X259883193Y-91160004D01*
X259883193Y-91159995D01*
X259864443Y-90885883D01*
X259864442Y-90885877D01*
X259864442Y-90885870D01*
X259808538Y-90616847D01*
X259716523Y-90357942D01*
X259590111Y-90113977D01*
X259431657Y-89889498D01*
X259244111Y-89688686D01*
X259030969Y-89515282D01*
X258796200Y-89372516D01*
X258796201Y-89372516D01*
X258796197Y-89372514D01*
X258544180Y-89263048D01*
X258544178Y-89263047D01*
X258544177Y-89263047D01*
X258411886Y-89225980D01*
X258279593Y-89188914D01*
X258007395Y-89151500D01*
X258007385Y-89151500D01*
X257732615Y-89151500D01*
X257732604Y-89151500D01*
X257460406Y-89188914D01*
X257195819Y-89263048D01*
X256943802Y-89372514D01*
X256709028Y-89515284D01*
X256495886Y-89688688D01*
X256308343Y-89889498D01*
X256149892Y-90113971D01*
X256023477Y-90357941D01*
X255931462Y-90616845D01*
X255931460Y-90616853D01*
X255875557Y-90885877D01*
X255875556Y-90885883D01*
X255856807Y-91159995D01*
X255856807Y-91160004D01*
X252143193Y-91160004D01*
X252143193Y-91159995D01*
X252124443Y-90885883D01*
X252124442Y-90885877D01*
X252124442Y-90885870D01*
X252068538Y-90616847D01*
X251976523Y-90357942D01*
X251850111Y-90113977D01*
X251691657Y-89889498D01*
X251504111Y-89688686D01*
X251290969Y-89515282D01*
X251056200Y-89372516D01*
X251056201Y-89372516D01*
X251056197Y-89372514D01*
X250804180Y-89263048D01*
X250804178Y-89263047D01*
X250804177Y-89263047D01*
X250671886Y-89225980D01*
X250539593Y-89188914D01*
X250267395Y-89151500D01*
X250267385Y-89151500D01*
X249992615Y-89151500D01*
X249992604Y-89151500D01*
X249720406Y-89188914D01*
X249455819Y-89263048D01*
X249203802Y-89372514D01*
X248969028Y-89515284D01*
X248755886Y-89688688D01*
X248568343Y-89889498D01*
X248409892Y-90113971D01*
X248283477Y-90357941D01*
X248191462Y-90616845D01*
X248191460Y-90616853D01*
X248135557Y-90885877D01*
X248135556Y-90885883D01*
X248116807Y-91159995D01*
X248116807Y-91160004D01*
X246953547Y-91160004D01*
X246948809Y-91150331D01*
X246941319Y-91131412D01*
X246913486Y-91093104D01*
X246910234Y-91088154D01*
X246886134Y-91047402D01*
X246886131Y-91047398D01*
X246871749Y-91033016D01*
X246858908Y-91017983D01*
X246846941Y-91001512D01*
X246837712Y-90993877D01*
X246810447Y-90971322D01*
X246806073Y-90967341D01*
X241808815Y-85970082D01*
X241798831Y-85957620D01*
X241798607Y-85957806D01*
X241793554Y-85951698D01*
X241742306Y-85903573D01*
X241721099Y-85882365D01*
X241721094Y-85882361D01*
X241715520Y-85878037D01*
X241711015Y-85874189D01*
X241676506Y-85841783D01*
X241676499Y-85841778D01*
X241658673Y-85831978D01*
X241642147Y-85821123D01*
X241626066Y-85808649D01*
X241626067Y-85808649D01*
X241582612Y-85789845D01*
X241577279Y-85787232D01*
X241535805Y-85764432D01*
X241535803Y-85764431D01*
X241516085Y-85759368D01*
X241497382Y-85752964D01*
X241478706Y-85744882D01*
X241431941Y-85737475D01*
X241426135Y-85736273D01*
X241410861Y-85732351D01*
X241380286Y-85724500D01*
X241380282Y-85724500D01*
X241359934Y-85724500D01*
X241340224Y-85722949D01*
X241320121Y-85719765D01*
X241320120Y-85719765D01*
X241272989Y-85724220D01*
X241267056Y-85724500D01*
X213675423Y-85724500D01*
X213607302Y-85704498D01*
X213586328Y-85687595D01*
X210222405Y-82323672D01*
X210188379Y-82261360D01*
X210185500Y-82234577D01*
X210185500Y-77251416D01*
X210205502Y-77183295D01*
X210259158Y-77136802D01*
X210329432Y-77126698D01*
X210394012Y-77156192D01*
X210423374Y-77193449D01*
X210429890Y-77206026D01*
X210527005Y-77343606D01*
X210588343Y-77430502D01*
X210775889Y-77631314D01*
X210989031Y-77804718D01*
X211223800Y-77947484D01*
X211475823Y-78056953D01*
X211740404Y-78131085D01*
X211835504Y-78144156D01*
X212012604Y-78168499D01*
X212012615Y-78168500D01*
X212287385Y-78168500D01*
X212287395Y-78168499D01*
X212416945Y-78150692D01*
X212559596Y-78131085D01*
X212824177Y-78056953D01*
X213076200Y-77947484D01*
X213310969Y-77804718D01*
X213524111Y-77631314D01*
X213711657Y-77430502D01*
X213870111Y-77206023D01*
X213996523Y-76962058D01*
X214088538Y-76703153D01*
X214144442Y-76434130D01*
X214163193Y-76160004D01*
X217636807Y-76160004D01*
X217655556Y-76434116D01*
X217655557Y-76434122D01*
X217655558Y-76434130D01*
X217685500Y-76578217D01*
X217711460Y-76703146D01*
X217711462Y-76703153D01*
X217803477Y-76962058D01*
X217918112Y-77183295D01*
X217929892Y-77206028D01*
X217997797Y-77302227D01*
X218088343Y-77430502D01*
X218275889Y-77631314D01*
X218489031Y-77804718D01*
X218723800Y-77947484D01*
X218975823Y-78056953D01*
X219240404Y-78131085D01*
X219335504Y-78144156D01*
X219512604Y-78168499D01*
X219512615Y-78168500D01*
X219787385Y-78168500D01*
X219787395Y-78168499D01*
X219916945Y-78150692D01*
X220059596Y-78131085D01*
X220324177Y-78056953D01*
X220576200Y-77947484D01*
X220810969Y-77804718D01*
X221024111Y-77631314D01*
X221211657Y-77430502D01*
X221370111Y-77206023D01*
X221496523Y-76962058D01*
X221588538Y-76703153D01*
X221644442Y-76434130D01*
X221663193Y-76160004D01*
X225376807Y-76160004D01*
X225395556Y-76434116D01*
X225395557Y-76434122D01*
X225395558Y-76434130D01*
X225425500Y-76578217D01*
X225451460Y-76703146D01*
X225451462Y-76703153D01*
X225543477Y-76962058D01*
X225658112Y-77183295D01*
X225669892Y-77206028D01*
X225737797Y-77302227D01*
X225828343Y-77430502D01*
X226015889Y-77631314D01*
X226229031Y-77804718D01*
X226463800Y-77947484D01*
X226715823Y-78056953D01*
X226980404Y-78131085D01*
X227075504Y-78144156D01*
X227252604Y-78168499D01*
X227252615Y-78168500D01*
X227527385Y-78168500D01*
X227527395Y-78168499D01*
X227656945Y-78150692D01*
X227799596Y-78131085D01*
X228064177Y-78056953D01*
X228316200Y-77947484D01*
X228550969Y-77804718D01*
X228764111Y-77631314D01*
X228951657Y-77430502D01*
X229110111Y-77206023D01*
X229236523Y-76962058D01*
X229328538Y-76703153D01*
X229384442Y-76434130D01*
X229403193Y-76160004D01*
X232876807Y-76160004D01*
X232895556Y-76434116D01*
X232895557Y-76434122D01*
X232895558Y-76434130D01*
X232925500Y-76578217D01*
X232951460Y-76703146D01*
X232951462Y-76703153D01*
X233043477Y-76962058D01*
X233158112Y-77183295D01*
X233169892Y-77206028D01*
X233237797Y-77302227D01*
X233328343Y-77430502D01*
X233515889Y-77631314D01*
X233729031Y-77804718D01*
X233963800Y-77947484D01*
X234215823Y-78056953D01*
X234480404Y-78131085D01*
X234575504Y-78144156D01*
X234752604Y-78168499D01*
X234752615Y-78168500D01*
X235027385Y-78168500D01*
X235027395Y-78168499D01*
X235156945Y-78150692D01*
X235299596Y-78131085D01*
X235564177Y-78056953D01*
X235816200Y-77947484D01*
X236050969Y-77804718D01*
X236264111Y-77631314D01*
X236451657Y-77430502D01*
X236610111Y-77206023D01*
X236736523Y-76962058D01*
X236828538Y-76703153D01*
X236884442Y-76434130D01*
X236903193Y-76160004D01*
X240616807Y-76160004D01*
X240635556Y-76434116D01*
X240635557Y-76434122D01*
X240635558Y-76434130D01*
X240665500Y-76578217D01*
X240691460Y-76703146D01*
X240691462Y-76703153D01*
X240783477Y-76962058D01*
X240898112Y-77183295D01*
X240909892Y-77206028D01*
X240977797Y-77302227D01*
X241068343Y-77430502D01*
X241255889Y-77631314D01*
X241469031Y-77804718D01*
X241703800Y-77947484D01*
X241955823Y-78056953D01*
X242220404Y-78131085D01*
X242315504Y-78144156D01*
X242492604Y-78168499D01*
X242492615Y-78168500D01*
X242767385Y-78168500D01*
X242767395Y-78168499D01*
X242896945Y-78150692D01*
X243039596Y-78131085D01*
X243304177Y-78056953D01*
X243556200Y-77947484D01*
X243790969Y-77804718D01*
X244004111Y-77631314D01*
X244191657Y-77430502D01*
X244350111Y-77206023D01*
X244476523Y-76962058D01*
X244568538Y-76703153D01*
X244624442Y-76434130D01*
X244643193Y-76160004D01*
X248116807Y-76160004D01*
X248135556Y-76434116D01*
X248135557Y-76434122D01*
X248135558Y-76434130D01*
X248165500Y-76578217D01*
X248191460Y-76703146D01*
X248191462Y-76703153D01*
X248283477Y-76962058D01*
X248398112Y-77183295D01*
X248409892Y-77206028D01*
X248477797Y-77302227D01*
X248568343Y-77430502D01*
X248755889Y-77631314D01*
X248969031Y-77804718D01*
X249203800Y-77947484D01*
X249455823Y-78056953D01*
X249720404Y-78131085D01*
X249815504Y-78144156D01*
X249992604Y-78168499D01*
X249992615Y-78168500D01*
X250267385Y-78168500D01*
X250267395Y-78168499D01*
X250396945Y-78150692D01*
X250539596Y-78131085D01*
X250804177Y-78056953D01*
X251056200Y-77947484D01*
X251290969Y-77804718D01*
X251504111Y-77631314D01*
X251691657Y-77430502D01*
X251850111Y-77206023D01*
X251976523Y-76962058D01*
X252068538Y-76703153D01*
X252124442Y-76434130D01*
X252143193Y-76160004D01*
X255856807Y-76160004D01*
X255875556Y-76434116D01*
X255875557Y-76434122D01*
X255875558Y-76434130D01*
X255905500Y-76578217D01*
X255931460Y-76703146D01*
X255931462Y-76703153D01*
X256023477Y-76962058D01*
X256138112Y-77183295D01*
X256149892Y-77206028D01*
X256217797Y-77302227D01*
X256308343Y-77430502D01*
X256495889Y-77631314D01*
X256709031Y-77804718D01*
X256943800Y-77947484D01*
X257195823Y-78056953D01*
X257460404Y-78131085D01*
X257555504Y-78144156D01*
X257732604Y-78168499D01*
X257732615Y-78168500D01*
X258007385Y-78168500D01*
X258007395Y-78168499D01*
X258136945Y-78150692D01*
X258279596Y-78131085D01*
X258544177Y-78056953D01*
X258796200Y-77947484D01*
X259030969Y-77804718D01*
X259244111Y-77631314D01*
X259431657Y-77430502D01*
X259590111Y-77206023D01*
X259716523Y-76962058D01*
X259808538Y-76703153D01*
X259864442Y-76434130D01*
X259883193Y-76160004D01*
X263356807Y-76160004D01*
X263375556Y-76434116D01*
X263375557Y-76434122D01*
X263375558Y-76434130D01*
X263405500Y-76578217D01*
X263431460Y-76703146D01*
X263431462Y-76703153D01*
X263523477Y-76962058D01*
X263638112Y-77183295D01*
X263649892Y-77206028D01*
X263717797Y-77302227D01*
X263808343Y-77430502D01*
X263995889Y-77631314D01*
X264209031Y-77804718D01*
X264443800Y-77947484D01*
X264695823Y-78056953D01*
X264960404Y-78131085D01*
X265055504Y-78144156D01*
X265232604Y-78168499D01*
X265232615Y-78168500D01*
X265507385Y-78168500D01*
X265507395Y-78168499D01*
X265636945Y-78150692D01*
X265779596Y-78131085D01*
X266044177Y-78056953D01*
X266296200Y-77947484D01*
X266530969Y-77804718D01*
X266744111Y-77631314D01*
X266931657Y-77430502D01*
X267090111Y-77206023D01*
X267216523Y-76962058D01*
X267308538Y-76703153D01*
X267364442Y-76434130D01*
X267383193Y-76160000D01*
X267364442Y-75885870D01*
X267308538Y-75616847D01*
X267216523Y-75357942D01*
X267090111Y-75113977D01*
X266931657Y-74889498D01*
X266744111Y-74688686D01*
X266530969Y-74515282D01*
X266329977Y-74393056D01*
X266296197Y-74372514D01*
X266044180Y-74263048D01*
X266044178Y-74263047D01*
X266044177Y-74263047D01*
X265830384Y-74203145D01*
X265779593Y-74188914D01*
X265507395Y-74151500D01*
X265507385Y-74151500D01*
X265232615Y-74151500D01*
X265232604Y-74151500D01*
X264960406Y-74188914D01*
X264695819Y-74263048D01*
X264443802Y-74372514D01*
X264209028Y-74515284D01*
X263995886Y-74688688D01*
X263808343Y-74889498D01*
X263649892Y-75113971D01*
X263523477Y-75357941D01*
X263431462Y-75616845D01*
X263431460Y-75616853D01*
X263375557Y-75885877D01*
X263375556Y-75885883D01*
X263356807Y-76159995D01*
X263356807Y-76160004D01*
X259883193Y-76160004D01*
X259883193Y-76160000D01*
X259864442Y-75885870D01*
X259808538Y-75616847D01*
X259716523Y-75357942D01*
X259716519Y-75357934D01*
X259709067Y-75343551D01*
X259695487Y-75273866D01*
X259721738Y-75207900D01*
X259731838Y-75196497D01*
X263236346Y-71691990D01*
X263298656Y-71657966D01*
X263369472Y-71663031D01*
X263426307Y-71705578D01*
X263444163Y-71738890D01*
X263523477Y-71962058D01*
X263646805Y-72200072D01*
X263649892Y-72206028D01*
X263717797Y-72302227D01*
X263808343Y-72430502D01*
X263995889Y-72631314D01*
X264209031Y-72804718D01*
X264443800Y-72947484D01*
X264695823Y-73056953D01*
X264960404Y-73131085D01*
X265055504Y-73144156D01*
X265232604Y-73168499D01*
X265232615Y-73168500D01*
X265507385Y-73168500D01*
X265507395Y-73168499D01*
X265636945Y-73150692D01*
X265779596Y-73131085D01*
X266044177Y-73056953D01*
X266296200Y-72947484D01*
X266530969Y-72804718D01*
X266744111Y-72631314D01*
X266931657Y-72430502D01*
X267090111Y-72206023D01*
X267216523Y-71962058D01*
X267308538Y-71703153D01*
X267364442Y-71434130D01*
X267375033Y-71279299D01*
X267383193Y-71160004D01*
X267383193Y-71159995D01*
X267364443Y-70885883D01*
X267364442Y-70885877D01*
X267364442Y-70885870D01*
X267308538Y-70616847D01*
X267216523Y-70357942D01*
X267090111Y-70113977D01*
X266931657Y-69889498D01*
X266744111Y-69688686D01*
X266530969Y-69515282D01*
X266296200Y-69372516D01*
X266296201Y-69372516D01*
X266296197Y-69372514D01*
X266044180Y-69263048D01*
X266044178Y-69263047D01*
X266044177Y-69263047D01*
X265911886Y-69225981D01*
X265779593Y-69188914D01*
X265507395Y-69151500D01*
X265507385Y-69151500D01*
X265232615Y-69151500D01*
X265232604Y-69151500D01*
X264960406Y-69188914D01*
X264695819Y-69263048D01*
X264443802Y-69372514D01*
X264209028Y-69515284D01*
X263995886Y-69688688D01*
X263810585Y-69887097D01*
X263749471Y-69923229D01*
X263678523Y-69920585D01*
X263620268Y-69880003D01*
X263593201Y-69814369D01*
X263592500Y-69801095D01*
X263592500Y-67518904D01*
X263612502Y-67450783D01*
X263666158Y-67404290D01*
X263736432Y-67394186D01*
X263801012Y-67423680D01*
X263810579Y-67432896D01*
X263995889Y-67631314D01*
X264209031Y-67804718D01*
X264443800Y-67947484D01*
X264695823Y-68056953D01*
X264960404Y-68131085D01*
X265055504Y-68144156D01*
X265232604Y-68168499D01*
X265232615Y-68168500D01*
X265507385Y-68168500D01*
X265507395Y-68168499D01*
X265636945Y-68150692D01*
X265779596Y-68131085D01*
X266044177Y-68056953D01*
X266296200Y-67947484D01*
X266530969Y-67804718D01*
X266744111Y-67631314D01*
X266931657Y-67430502D01*
X267090111Y-67206023D01*
X267216523Y-66962058D01*
X267308538Y-66703153D01*
X267364442Y-66434130D01*
X267383193Y-66160000D01*
X267364442Y-65885870D01*
X267308538Y-65616847D01*
X267216523Y-65357942D01*
X267090111Y-65113977D01*
X266931657Y-64889498D01*
X266744111Y-64688686D01*
X266530969Y-64515282D01*
X266296200Y-64372516D01*
X266296201Y-64372516D01*
X266296197Y-64372514D01*
X266044180Y-64263048D01*
X266044178Y-64263047D01*
X266044177Y-64263047D01*
X265793123Y-64192705D01*
X265779593Y-64188914D01*
X265507395Y-64151500D01*
X265507385Y-64151500D01*
X265232615Y-64151500D01*
X265232604Y-64151500D01*
X264960406Y-64188914D01*
X264695819Y-64263048D01*
X264443802Y-64372514D01*
X264209028Y-64515284D01*
X263995886Y-64688688D01*
X263810585Y-64887097D01*
X263749471Y-64923229D01*
X263678523Y-64920585D01*
X263620268Y-64880003D01*
X263593201Y-64814369D01*
X263592500Y-64801095D01*
X263592500Y-60118027D01*
X263612502Y-60049906D01*
X263629405Y-60028932D01*
X264553279Y-59105058D01*
X265788476Y-57869860D01*
X265850786Y-57835837D01*
X265921601Y-57840901D01*
X265927741Y-57843377D01*
X265992256Y-57871400D01*
X266270011Y-57949223D01*
X266555761Y-57988499D01*
X266555775Y-57988500D01*
X266844225Y-57988500D01*
X266844238Y-57988499D01*
X267064341Y-57958246D01*
X267129989Y-57949223D01*
X267407744Y-57871400D01*
X267672314Y-57756481D01*
X267918772Y-57606606D01*
X268142526Y-57424568D01*
X268339409Y-57213758D01*
X268505753Y-56978103D01*
X268638459Y-56721992D01*
X268735055Y-56450196D01*
X268793742Y-56167778D01*
X268813427Y-55880000D01*
X268793742Y-55592222D01*
X268735055Y-55309804D01*
X268638459Y-55038008D01*
X268505753Y-54781897D01*
X268339409Y-54546242D01*
X268142526Y-54335432D01*
X268142516Y-54335424D01*
X268142512Y-54335420D01*
X267918779Y-54153399D01*
X267918775Y-54153396D01*
X267918772Y-54153394D01*
X267672314Y-54003519D01*
X267672310Y-54003517D01*
X267672308Y-54003516D01*
X267563713Y-53956347D01*
X267407744Y-53888600D01*
X267180354Y-53824888D01*
X267129986Y-53810776D01*
X267129988Y-53810776D01*
X266844238Y-53771500D01*
X266844225Y-53771500D01*
X266555775Y-53771500D01*
X266555761Y-53771500D01*
X266270012Y-53810776D01*
X266097572Y-53859091D01*
X265992256Y-53888600D01*
X265992253Y-53888601D01*
X265992254Y-53888601D01*
X265727691Y-54003516D01*
X265481220Y-54153399D01*
X265257487Y-54335420D01*
X265257471Y-54335435D01*
X265060591Y-54546242D01*
X264894247Y-54781896D01*
X264894247Y-54781897D01*
X264761541Y-55038007D01*
X264664945Y-55309802D01*
X264664943Y-55309810D01*
X264606257Y-55592229D01*
X264606256Y-55592234D01*
X264586573Y-55879996D01*
X264586573Y-55880003D01*
X264606256Y-56167765D01*
X264606257Y-56167770D01*
X264606258Y-56167778D01*
X264638443Y-56322661D01*
X264664943Y-56450189D01*
X264664944Y-56450192D01*
X264664945Y-56450196D01*
X264739638Y-56660362D01*
X264743603Y-56731248D01*
X264710008Y-56791652D01*
X262336602Y-59165058D01*
X262322753Y-59177028D01*
X262303179Y-59191601D01*
X262303176Y-59191603D01*
X262269056Y-59232265D01*
X262265349Y-59236311D01*
X262259428Y-59242233D01*
X262259428Y-59242234D01*
X262238754Y-59268379D01*
X262188604Y-59328147D01*
X262184574Y-59334275D01*
X262184523Y-59334242D01*
X262180405Y-59340706D01*
X262180455Y-59340737D01*
X262176607Y-59346974D01*
X262143625Y-59417705D01*
X262108604Y-59487438D01*
X262106095Y-59494332D01*
X262106039Y-59494311D01*
X262103525Y-59501545D01*
X262103582Y-59501564D01*
X262101275Y-59508524D01*
X262085498Y-59584934D01*
X262067499Y-59660878D01*
X262066648Y-59668167D01*
X262066587Y-59668159D01*
X262065809Y-59675773D01*
X262065871Y-59675779D01*
X262065231Y-59683090D01*
X262067500Y-59761075D01*
X262067500Y-70651970D01*
X262047498Y-70720091D01*
X262030595Y-70741065D01*
X258568515Y-74203145D01*
X258506203Y-74237171D01*
X258445426Y-74235378D01*
X258380690Y-74217240D01*
X258279597Y-74188915D01*
X258279590Y-74188914D01*
X258007395Y-74151500D01*
X258007385Y-74151500D01*
X257732615Y-74151500D01*
X257732604Y-74151500D01*
X257460406Y-74188914D01*
X257195819Y-74263048D01*
X256943802Y-74372514D01*
X256709028Y-74515284D01*
X256495886Y-74688688D01*
X256308343Y-74889498D01*
X256149892Y-75113971D01*
X256023477Y-75357941D01*
X255931462Y-75616845D01*
X255931460Y-75616853D01*
X255875557Y-75885877D01*
X255875556Y-75885883D01*
X255856807Y-76159995D01*
X255856807Y-76160004D01*
X252143193Y-76160004D01*
X252143193Y-76160000D01*
X252124442Y-75885870D01*
X252068538Y-75616847D01*
X251976523Y-75357942D01*
X251850111Y-75113977D01*
X251691657Y-74889498D01*
X251504111Y-74688686D01*
X251290969Y-74515282D01*
X251089977Y-74393056D01*
X251056197Y-74372514D01*
X250804180Y-74263048D01*
X250804178Y-74263047D01*
X250804177Y-74263047D01*
X250590384Y-74203145D01*
X250539593Y-74188914D01*
X250267395Y-74151500D01*
X250267385Y-74151500D01*
X249992615Y-74151500D01*
X249992604Y-74151500D01*
X249720406Y-74188914D01*
X249455819Y-74263048D01*
X249203802Y-74372514D01*
X248969028Y-74515284D01*
X248755886Y-74688688D01*
X248568343Y-74889498D01*
X248409892Y-75113971D01*
X248283477Y-75357941D01*
X248191462Y-75616845D01*
X248191460Y-75616853D01*
X248135557Y-75885877D01*
X248135556Y-75885883D01*
X248116807Y-76159995D01*
X248116807Y-76160004D01*
X244643193Y-76160004D01*
X244643193Y-76160000D01*
X244624442Y-75885870D01*
X244568538Y-75616847D01*
X244476523Y-75357942D01*
X244476519Y-75357934D01*
X244469067Y-75343551D01*
X244455487Y-75273866D01*
X244481738Y-75207900D01*
X244491838Y-75196497D01*
X247996346Y-71691990D01*
X248058656Y-71657966D01*
X248129472Y-71663031D01*
X248186307Y-71705578D01*
X248204163Y-71738890D01*
X248283477Y-71962058D01*
X248406805Y-72200072D01*
X248409892Y-72206028D01*
X248477797Y-72302227D01*
X248568343Y-72430502D01*
X248755889Y-72631314D01*
X248969031Y-72804718D01*
X249203800Y-72947484D01*
X249455823Y-73056953D01*
X249720404Y-73131085D01*
X249815504Y-73144156D01*
X249992604Y-73168499D01*
X249992615Y-73168500D01*
X250267385Y-73168500D01*
X250267395Y-73168499D01*
X250396945Y-73150692D01*
X250539596Y-73131085D01*
X250804177Y-73056953D01*
X251056200Y-72947484D01*
X251290969Y-72804718D01*
X251504111Y-72631314D01*
X251691657Y-72430502D01*
X251850111Y-72206023D01*
X251976523Y-71962058D01*
X252068538Y-71703153D01*
X252124442Y-71434130D01*
X252135033Y-71279299D01*
X252143193Y-71160004D01*
X252143193Y-71159995D01*
X252124443Y-70885883D01*
X252124442Y-70885877D01*
X252124442Y-70885870D01*
X252068538Y-70616847D01*
X251976523Y-70357942D01*
X251850111Y-70113977D01*
X251691657Y-69889498D01*
X251504111Y-69688686D01*
X251290969Y-69515282D01*
X251056200Y-69372516D01*
X251056201Y-69372516D01*
X251056197Y-69372514D01*
X250804180Y-69263048D01*
X250804178Y-69263047D01*
X250804177Y-69263047D01*
X250671886Y-69225980D01*
X250539593Y-69188914D01*
X250267395Y-69151500D01*
X250267385Y-69151500D01*
X249992615Y-69151500D01*
X249992604Y-69151500D01*
X249720406Y-69188914D01*
X249455819Y-69263048D01*
X249203802Y-69372514D01*
X248969028Y-69515284D01*
X248755886Y-69688688D01*
X248570585Y-69887097D01*
X248509471Y-69923229D01*
X248438523Y-69920585D01*
X248380268Y-69880003D01*
X248353201Y-69814369D01*
X248352500Y-69801095D01*
X248352500Y-67518904D01*
X248372502Y-67450783D01*
X248426158Y-67404290D01*
X248496432Y-67394186D01*
X248561012Y-67423680D01*
X248570579Y-67432896D01*
X248755889Y-67631314D01*
X248969031Y-67804718D01*
X249203800Y-67947484D01*
X249455823Y-68056953D01*
X249720404Y-68131085D01*
X249815504Y-68144156D01*
X249992604Y-68168499D01*
X249992615Y-68168500D01*
X250267385Y-68168500D01*
X250267395Y-68168499D01*
X250396945Y-68150692D01*
X250539596Y-68131085D01*
X250804177Y-68056953D01*
X251056200Y-67947484D01*
X251290969Y-67804718D01*
X251504111Y-67631314D01*
X251691657Y-67430502D01*
X251850111Y-67206023D01*
X251976523Y-66962058D01*
X252068538Y-66703153D01*
X252124442Y-66434130D01*
X252143193Y-66160000D01*
X252124442Y-65885870D01*
X252068538Y-65616847D01*
X251976523Y-65357942D01*
X251850111Y-65113977D01*
X251691657Y-64889498D01*
X251504111Y-64688686D01*
X251290969Y-64515282D01*
X251056200Y-64372516D01*
X251056201Y-64372516D01*
X251056197Y-64372514D01*
X250804180Y-64263048D01*
X250804178Y-64263047D01*
X250804177Y-64263047D01*
X250553123Y-64192705D01*
X250539593Y-64188914D01*
X250267395Y-64151500D01*
X250267385Y-64151500D01*
X249992615Y-64151500D01*
X249992604Y-64151500D01*
X249720406Y-64188914D01*
X249455819Y-64263048D01*
X249203802Y-64372514D01*
X248969028Y-64515284D01*
X248755886Y-64688688D01*
X248570585Y-64887097D01*
X248509471Y-64923229D01*
X248438523Y-64920585D01*
X248380268Y-64880003D01*
X248353201Y-64814369D01*
X248352500Y-64801095D01*
X248352500Y-62498850D01*
X248352500Y-60118023D01*
X248372501Y-60049906D01*
X248389399Y-60028937D01*
X250548476Y-57869860D01*
X250610786Y-57835836D01*
X250681601Y-57840901D01*
X250687741Y-57843377D01*
X250752256Y-57871400D01*
X251030011Y-57949223D01*
X251315761Y-57988499D01*
X251315775Y-57988500D01*
X251604225Y-57988500D01*
X251604238Y-57988499D01*
X251824341Y-57958246D01*
X251889989Y-57949223D01*
X252167744Y-57871400D01*
X252432314Y-57756481D01*
X252678772Y-57606606D01*
X252902526Y-57424568D01*
X253099409Y-57213758D01*
X253265753Y-56978103D01*
X253398459Y-56721992D01*
X253495055Y-56450196D01*
X253553742Y-56167778D01*
X253573427Y-55880003D01*
X254426573Y-55880003D01*
X254446256Y-56167765D01*
X254446257Y-56167770D01*
X254446258Y-56167778D01*
X254478443Y-56322661D01*
X254504943Y-56450189D01*
X254504945Y-56450196D01*
X254601541Y-56721992D01*
X254734247Y-56978103D01*
X254900591Y-57213758D01*
X255097474Y-57424568D01*
X255097483Y-57424575D01*
X255097487Y-57424579D01*
X255321220Y-57606600D01*
X255321222Y-57606601D01*
X255321228Y-57606606D01*
X255567686Y-57756481D01*
X255832256Y-57871400D01*
X256110011Y-57949223D01*
X256395761Y-57988499D01*
X256395775Y-57988500D01*
X256684225Y-57988500D01*
X256684238Y-57988499D01*
X256904343Y-57958246D01*
X256974553Y-57968785D01*
X257027919Y-58015610D01*
X257047500Y-58083072D01*
X257047500Y-64244828D01*
X257027498Y-64312949D01*
X256973842Y-64359442D01*
X256971701Y-64360395D01*
X256943810Y-64372510D01*
X256709028Y-64515284D01*
X256495886Y-64688688D01*
X256308343Y-64889498D01*
X256149892Y-65113971D01*
X256023477Y-65357941D01*
X255931462Y-65616845D01*
X255931460Y-65616853D01*
X255875557Y-65885877D01*
X255875556Y-65885883D01*
X255856807Y-66159995D01*
X255856807Y-66160004D01*
X255875556Y-66434116D01*
X255875557Y-66434122D01*
X255875558Y-66434130D01*
X255906217Y-66581670D01*
X255931460Y-66703146D01*
X255931462Y-66703154D01*
X256023477Y-66962058D01*
X256149892Y-67206028D01*
X256152499Y-67209721D01*
X256308343Y-67430502D01*
X256495889Y-67631314D01*
X256709031Y-67804718D01*
X256943800Y-67947484D01*
X257195823Y-68056953D01*
X257460404Y-68131085D01*
X257555504Y-68144156D01*
X257732604Y-68168499D01*
X257732615Y-68168500D01*
X258007385Y-68168500D01*
X258007395Y-68168499D01*
X258136945Y-68150692D01*
X258279596Y-68131085D01*
X258544177Y-68056953D01*
X258796200Y-67947484D01*
X259030969Y-67804718D01*
X259244111Y-67631314D01*
X259309414Y-67561390D01*
X259370527Y-67525259D01*
X259441475Y-67527903D01*
X259499730Y-67568484D01*
X259526798Y-67634118D01*
X259527499Y-67647393D01*
X259527499Y-68191972D01*
X259507497Y-68260093D01*
X259490594Y-68281068D01*
X258568515Y-69203146D01*
X258506203Y-69237171D01*
X258445426Y-69235378D01*
X258330388Y-69203146D01*
X258279597Y-69188915D01*
X258279590Y-69188914D01*
X258007395Y-69151500D01*
X258007385Y-69151500D01*
X257732615Y-69151500D01*
X257732604Y-69151500D01*
X257460406Y-69188914D01*
X257195819Y-69263048D01*
X256943802Y-69372514D01*
X256709028Y-69515284D01*
X256495886Y-69688688D01*
X256308343Y-69889498D01*
X256149892Y-70113971D01*
X256023477Y-70357941D01*
X255931462Y-70616845D01*
X255931460Y-70616853D01*
X255910007Y-70720092D01*
X255880713Y-70861066D01*
X255875557Y-70885877D01*
X255875556Y-70885883D01*
X255856807Y-71159995D01*
X255856807Y-71160004D01*
X255875556Y-71434116D01*
X255875557Y-71434122D01*
X255875558Y-71434130D01*
X255899412Y-71548922D01*
X255931460Y-71703146D01*
X255931462Y-71703154D01*
X256023477Y-71962057D01*
X256023477Y-71962058D01*
X256146805Y-72200072D01*
X256149892Y-72206028D01*
X256217797Y-72302227D01*
X256308343Y-72430502D01*
X256495889Y-72631314D01*
X256709031Y-72804718D01*
X256943800Y-72947484D01*
X257195823Y-73056953D01*
X257460404Y-73131085D01*
X257555504Y-73144156D01*
X257732604Y-73168499D01*
X257732615Y-73168500D01*
X258007385Y-73168500D01*
X258007395Y-73168499D01*
X258136945Y-73150692D01*
X258279596Y-73131085D01*
X258544177Y-73056953D01*
X258796200Y-72947484D01*
X259030969Y-72804718D01*
X259244111Y-72631314D01*
X259431657Y-72430502D01*
X259590111Y-72206023D01*
X259716523Y-71962058D01*
X259808538Y-71703153D01*
X259864442Y-71434130D01*
X259875033Y-71279299D01*
X259883193Y-71160004D01*
X259883193Y-71159995D01*
X259864443Y-70885883D01*
X259864442Y-70885877D01*
X259864442Y-70885870D01*
X259808538Y-70616847D01*
X259716523Y-70357942D01*
X259716519Y-70357934D01*
X259709067Y-70343551D01*
X259695487Y-70273866D01*
X259721738Y-70207900D01*
X259731837Y-70196498D01*
X260783401Y-69144935D01*
X260797240Y-69132975D01*
X260816822Y-69118398D01*
X260850952Y-69077721D01*
X260854651Y-69073685D01*
X260860573Y-69067765D01*
X260881242Y-69041624D01*
X260931396Y-68981853D01*
X260931399Y-68981848D01*
X260935430Y-68975720D01*
X260935483Y-68975754D01*
X260939594Y-68969301D01*
X260939541Y-68969268D01*
X260943394Y-68963021D01*
X260976371Y-68892301D01*
X260976370Y-68892300D01*
X261011394Y-68822566D01*
X261011394Y-68822564D01*
X261011396Y-68822561D01*
X261013907Y-68815663D01*
X261013965Y-68815684D01*
X261016477Y-68808455D01*
X261016417Y-68808435D01*
X261018722Y-68801477D01*
X261018725Y-68801473D01*
X261034500Y-68725068D01*
X261052500Y-68649123D01*
X261052500Y-68649116D01*
X261053352Y-68641835D01*
X261053411Y-68641842D01*
X261054190Y-68634225D01*
X261054129Y-68634220D01*
X261054767Y-68626917D01*
X261054769Y-68626908D01*
X261052500Y-68548908D01*
X261052500Y-58074825D01*
X261072502Y-58006704D01*
X261126158Y-57960211D01*
X261195657Y-57949999D01*
X261475761Y-57988499D01*
X261475775Y-57988500D01*
X261764225Y-57988500D01*
X261764238Y-57988499D01*
X261984341Y-57958246D01*
X262049989Y-57949223D01*
X262327744Y-57871400D01*
X262592314Y-57756481D01*
X262838772Y-57606606D01*
X263062526Y-57424568D01*
X263259409Y-57213758D01*
X263425753Y-56978103D01*
X263558459Y-56721992D01*
X263655055Y-56450196D01*
X263713742Y-56167778D01*
X263733427Y-55880000D01*
X263713742Y-55592222D01*
X263655055Y-55309804D01*
X263558459Y-55038008D01*
X263425753Y-54781897D01*
X263259409Y-54546242D01*
X263062526Y-54335432D01*
X263062516Y-54335424D01*
X263062512Y-54335420D01*
X262838779Y-54153399D01*
X262838775Y-54153396D01*
X262838772Y-54153394D01*
X262592314Y-54003519D01*
X262592310Y-54003517D01*
X262592308Y-54003516D01*
X262483713Y-53956347D01*
X262327744Y-53888600D01*
X262100354Y-53824888D01*
X262049986Y-53810776D01*
X262049988Y-53810776D01*
X261764238Y-53771500D01*
X261764225Y-53771500D01*
X261475775Y-53771500D01*
X261475761Y-53771500D01*
X261190012Y-53810776D01*
X261017572Y-53859091D01*
X260912256Y-53888600D01*
X260912253Y-53888601D01*
X260912254Y-53888601D01*
X260647691Y-54003516D01*
X260401220Y-54153399D01*
X260177487Y-54335420D01*
X260177471Y-54335435D01*
X259980591Y-54546242D01*
X259814247Y-54781896D01*
X259814247Y-54781897D01*
X259681541Y-55038007D01*
X259584945Y-55309802D01*
X259584943Y-55309810D01*
X259526257Y-55592229D01*
X259526256Y-55592234D01*
X259506573Y-55879996D01*
X259506573Y-55880003D01*
X259526256Y-56167765D01*
X259526257Y-56167770D01*
X259526258Y-56167778D01*
X259558443Y-56322661D01*
X259584943Y-56450189D01*
X259584947Y-56450202D01*
X259664259Y-56673366D01*
X259668224Y-56744251D01*
X259650813Y-56784787D01*
X259644582Y-56794263D01*
X259644531Y-56794229D01*
X259640405Y-56800706D01*
X259640455Y-56800737D01*
X259636607Y-56806974D01*
X259603625Y-56877705D01*
X259568604Y-56947438D01*
X259566095Y-56954332D01*
X259566039Y-56954311D01*
X259563525Y-56961545D01*
X259563582Y-56961564D01*
X259561275Y-56968524D01*
X259545498Y-57044934D01*
X259527499Y-57120878D01*
X259526648Y-57128167D01*
X259526587Y-57128159D01*
X259525809Y-57135773D01*
X259525871Y-57135779D01*
X259525231Y-57143090D01*
X259527500Y-57221075D01*
X259527499Y-64672606D01*
X259507497Y-64740727D01*
X259453841Y-64787220D01*
X259383567Y-64797323D01*
X259318987Y-64767830D01*
X259309414Y-64758608D01*
X259244113Y-64688688D01*
X259110607Y-64580072D01*
X259030969Y-64515282D01*
X258796200Y-64372516D01*
X258796197Y-64372514D01*
X258796191Y-64372511D01*
X258648301Y-64308273D01*
X258593789Y-64262788D01*
X258572522Y-64195051D01*
X258572500Y-64192705D01*
X258572500Y-57214728D01*
X258573830Y-57196468D01*
X258574213Y-57193851D01*
X258577366Y-57172328D01*
X258574754Y-57142482D01*
X258572740Y-57119444D01*
X258572500Y-57113951D01*
X258572500Y-57105585D01*
X258568631Y-57072489D01*
X258566148Y-57044107D01*
X258561831Y-56994760D01*
X258561830Y-56994756D01*
X258560347Y-56987573D01*
X258560406Y-56987560D01*
X258558750Y-56980085D01*
X258558691Y-56980100D01*
X258556998Y-56972959D01*
X258551683Y-56958357D01*
X258530309Y-56899630D01*
X258505765Y-56825560D01*
X258505762Y-56825556D01*
X258502664Y-56818910D01*
X258502719Y-56818884D01*
X258499380Y-56811987D01*
X258499325Y-56812015D01*
X258492738Y-56798898D01*
X258495631Y-56797444D01*
X258479089Y-56743407D01*
X258486354Y-56699775D01*
X258575055Y-56450196D01*
X258633742Y-56167778D01*
X258653427Y-55880000D01*
X258633742Y-55592222D01*
X258575055Y-55309804D01*
X258478459Y-55038008D01*
X258345753Y-54781897D01*
X258179409Y-54546242D01*
X257982526Y-54335432D01*
X257982516Y-54335424D01*
X257982512Y-54335420D01*
X257758779Y-54153399D01*
X257758775Y-54153396D01*
X257758772Y-54153394D01*
X257512314Y-54003519D01*
X257512310Y-54003517D01*
X257512308Y-54003516D01*
X257403713Y-53956347D01*
X257247744Y-53888600D01*
X257020354Y-53824888D01*
X256969986Y-53810776D01*
X256969988Y-53810776D01*
X256684238Y-53771500D01*
X256684225Y-53771500D01*
X256395775Y-53771500D01*
X256395761Y-53771500D01*
X256110012Y-53810776D01*
X255937572Y-53859091D01*
X255832256Y-53888600D01*
X255832253Y-53888601D01*
X255832254Y-53888601D01*
X255567691Y-54003516D01*
X255321220Y-54153399D01*
X255097487Y-54335420D01*
X255097471Y-54335435D01*
X254900591Y-54546242D01*
X254734247Y-54781896D01*
X254734247Y-54781897D01*
X254601541Y-55038007D01*
X254504945Y-55309802D01*
X254504943Y-55309810D01*
X254446257Y-55592229D01*
X254446256Y-55592234D01*
X254426573Y-55879996D01*
X254426573Y-55880003D01*
X253573427Y-55880003D01*
X253573427Y-55880000D01*
X253553742Y-55592222D01*
X253495055Y-55309804D01*
X253398459Y-55038008D01*
X253265753Y-54781897D01*
X253099409Y-54546242D01*
X252902526Y-54335432D01*
X252902516Y-54335424D01*
X252902512Y-54335420D01*
X252678779Y-54153399D01*
X252678775Y-54153396D01*
X252678772Y-54153394D01*
X252432314Y-54003519D01*
X252432310Y-54003517D01*
X252432308Y-54003516D01*
X252323713Y-53956347D01*
X252167744Y-53888600D01*
X251940354Y-53824888D01*
X251889986Y-53810776D01*
X251889988Y-53810776D01*
X251604238Y-53771500D01*
X251604225Y-53771500D01*
X251315775Y-53771500D01*
X251315761Y-53771500D01*
X251030012Y-53810776D01*
X250857572Y-53859091D01*
X250752256Y-53888600D01*
X250752253Y-53888601D01*
X250752254Y-53888601D01*
X250487691Y-54003516D01*
X250241220Y-54153399D01*
X250017487Y-54335420D01*
X250017471Y-54335435D01*
X249820591Y-54546242D01*
X249654247Y-54781896D01*
X249654247Y-54781897D01*
X249521541Y-55038007D01*
X249424945Y-55309802D01*
X249424943Y-55309810D01*
X249366257Y-55592229D01*
X249366256Y-55592234D01*
X249346573Y-55879996D01*
X249346573Y-55880003D01*
X249366256Y-56167765D01*
X249366257Y-56167770D01*
X249366258Y-56167778D01*
X249398443Y-56322661D01*
X249424943Y-56450189D01*
X249424944Y-56450192D01*
X249424945Y-56450196D01*
X249499638Y-56660362D01*
X249503603Y-56731248D01*
X249470008Y-56791652D01*
X247096602Y-59165058D01*
X247082753Y-59177028D01*
X247063179Y-59191601D01*
X247063176Y-59191603D01*
X247029056Y-59232265D01*
X247025349Y-59236311D01*
X247019428Y-59242233D01*
X247019428Y-59242234D01*
X246998754Y-59268379D01*
X246948604Y-59328147D01*
X246944574Y-59334275D01*
X246944523Y-59334242D01*
X246940405Y-59340706D01*
X246940455Y-59340737D01*
X246936607Y-59346974D01*
X246903625Y-59417705D01*
X246868604Y-59487438D01*
X246866095Y-59494332D01*
X246866039Y-59494311D01*
X246863525Y-59501545D01*
X246863582Y-59501564D01*
X246861275Y-59508524D01*
X246845498Y-59584934D01*
X246827499Y-59660878D01*
X246826649Y-59668156D01*
X246826590Y-59668149D01*
X246825811Y-59675776D01*
X246825870Y-59675782D01*
X246825231Y-59683087D01*
X246827500Y-59761075D01*
X246827499Y-70651971D01*
X246807497Y-70720092D01*
X246790594Y-70741066D01*
X243328515Y-74203145D01*
X243266203Y-74237171D01*
X243205426Y-74235378D01*
X243140690Y-74217240D01*
X243039597Y-74188915D01*
X243039590Y-74188914D01*
X242767395Y-74151500D01*
X242767385Y-74151500D01*
X242492615Y-74151500D01*
X242492604Y-74151500D01*
X242220406Y-74188914D01*
X241955819Y-74263048D01*
X241703802Y-74372514D01*
X241469028Y-74515284D01*
X241255886Y-74688688D01*
X241068343Y-74889498D01*
X240909892Y-75113971D01*
X240783477Y-75357941D01*
X240691462Y-75616845D01*
X240691460Y-75616853D01*
X240635557Y-75885877D01*
X240635556Y-75885883D01*
X240616807Y-76159995D01*
X240616807Y-76160004D01*
X236903193Y-76160004D01*
X236903193Y-76160000D01*
X236884442Y-75885870D01*
X236828538Y-75616847D01*
X236736523Y-75357942D01*
X236610111Y-75113977D01*
X236451657Y-74889498D01*
X236264111Y-74688686D01*
X236050969Y-74515282D01*
X235849977Y-74393056D01*
X235816197Y-74372514D01*
X235564180Y-74263048D01*
X235564178Y-74263047D01*
X235564177Y-74263047D01*
X235350384Y-74203145D01*
X235299593Y-74188914D01*
X235027395Y-74151500D01*
X235027385Y-74151500D01*
X234752615Y-74151500D01*
X234752604Y-74151500D01*
X234480406Y-74188914D01*
X234215819Y-74263048D01*
X233963802Y-74372514D01*
X233729028Y-74515284D01*
X233515886Y-74688688D01*
X233328343Y-74889498D01*
X233169892Y-75113971D01*
X233043477Y-75357941D01*
X232951462Y-75616845D01*
X232951460Y-75616853D01*
X232895557Y-75885877D01*
X232895556Y-75885883D01*
X232876807Y-76159995D01*
X232876807Y-76160004D01*
X229403193Y-76160004D01*
X229403193Y-76160000D01*
X229384442Y-75885870D01*
X229328538Y-75616847D01*
X229236523Y-75357942D01*
X229236519Y-75357934D01*
X229229067Y-75343551D01*
X229215487Y-75273866D01*
X229241738Y-75207900D01*
X229251838Y-75196497D01*
X232756346Y-71691990D01*
X232818656Y-71657966D01*
X232889472Y-71663031D01*
X232946307Y-71705578D01*
X232964163Y-71738890D01*
X233043477Y-71962058D01*
X233166805Y-72200072D01*
X233169892Y-72206028D01*
X233237797Y-72302227D01*
X233328343Y-72430502D01*
X233515889Y-72631314D01*
X233729031Y-72804718D01*
X233963800Y-72947484D01*
X234215823Y-73056953D01*
X234480404Y-73131085D01*
X234575504Y-73144156D01*
X234752604Y-73168499D01*
X234752615Y-73168500D01*
X235027385Y-73168500D01*
X235027395Y-73168499D01*
X235156945Y-73150692D01*
X235299596Y-73131085D01*
X235564177Y-73056953D01*
X235816200Y-72947484D01*
X236050969Y-72804718D01*
X236264111Y-72631314D01*
X236451657Y-72430502D01*
X236610111Y-72206023D01*
X236736523Y-71962058D01*
X236828538Y-71703153D01*
X236884442Y-71434130D01*
X236895033Y-71279299D01*
X236903193Y-71160004D01*
X236903193Y-71159995D01*
X236884443Y-70885883D01*
X236884442Y-70885877D01*
X236884442Y-70885870D01*
X236828538Y-70616847D01*
X236736523Y-70357942D01*
X236610111Y-70113977D01*
X236451657Y-69889498D01*
X236264111Y-69688686D01*
X236050969Y-69515282D01*
X235816200Y-69372516D01*
X235816201Y-69372516D01*
X235816197Y-69372514D01*
X235564180Y-69263048D01*
X235564178Y-69263047D01*
X235564177Y-69263047D01*
X235431886Y-69225980D01*
X235299593Y-69188914D01*
X235027395Y-69151500D01*
X235027385Y-69151500D01*
X234752615Y-69151500D01*
X234752604Y-69151500D01*
X234480406Y-69188914D01*
X234215819Y-69263048D01*
X233963802Y-69372514D01*
X233729028Y-69515284D01*
X233515886Y-69688688D01*
X233330585Y-69887097D01*
X233269471Y-69923229D01*
X233198523Y-69920585D01*
X233140268Y-69880003D01*
X233113201Y-69814369D01*
X233112500Y-69801095D01*
X233112500Y-67518904D01*
X233132502Y-67450783D01*
X233186158Y-67404290D01*
X233256432Y-67394186D01*
X233321012Y-67423680D01*
X233330579Y-67432896D01*
X233515889Y-67631314D01*
X233729031Y-67804718D01*
X233963800Y-67947484D01*
X234215823Y-68056953D01*
X234480404Y-68131085D01*
X234575504Y-68144156D01*
X234752604Y-68168499D01*
X234752615Y-68168500D01*
X235027385Y-68168500D01*
X235027395Y-68168499D01*
X235156945Y-68150692D01*
X235299596Y-68131085D01*
X235564177Y-68056953D01*
X235816200Y-67947484D01*
X236050969Y-67804718D01*
X236264111Y-67631314D01*
X236451657Y-67430502D01*
X236610111Y-67206023D01*
X236736523Y-66962058D01*
X236828538Y-66703153D01*
X236884442Y-66434130D01*
X236903193Y-66160000D01*
X236884442Y-65885870D01*
X236828538Y-65616847D01*
X236736523Y-65357942D01*
X236610111Y-65113977D01*
X236451657Y-64889498D01*
X236264111Y-64688686D01*
X236050969Y-64515282D01*
X235816200Y-64372516D01*
X235816201Y-64372516D01*
X235816197Y-64372514D01*
X235564180Y-64263048D01*
X235564178Y-64263047D01*
X235564177Y-64263047D01*
X235313123Y-64192705D01*
X235299593Y-64188914D01*
X235027395Y-64151500D01*
X235027385Y-64151500D01*
X234752615Y-64151500D01*
X234752604Y-64151500D01*
X234480406Y-64188914D01*
X234215819Y-64263048D01*
X233963802Y-64372514D01*
X233729028Y-64515284D01*
X233515886Y-64688688D01*
X233330585Y-64887097D01*
X233269471Y-64923229D01*
X233198523Y-64920585D01*
X233140268Y-64880003D01*
X233113201Y-64814369D01*
X233112500Y-64801095D01*
X233112500Y-60118027D01*
X233132502Y-60049906D01*
X233149405Y-60028932D01*
X234073279Y-59105058D01*
X235308476Y-57869860D01*
X235370786Y-57835837D01*
X235441601Y-57840901D01*
X235447741Y-57843377D01*
X235512256Y-57871400D01*
X235790011Y-57949223D01*
X236075761Y-57988499D01*
X236075775Y-57988500D01*
X236364225Y-57988500D01*
X236364238Y-57988499D01*
X236584341Y-57958246D01*
X236649989Y-57949223D01*
X236927744Y-57871400D01*
X237192314Y-57756481D01*
X237438772Y-57606606D01*
X237662526Y-57424568D01*
X237859409Y-57213758D01*
X238025753Y-56978103D01*
X238158459Y-56721992D01*
X238255055Y-56450196D01*
X238313742Y-56167778D01*
X238333427Y-55880003D01*
X239186573Y-55880003D01*
X239206256Y-56167765D01*
X239206257Y-56167770D01*
X239206258Y-56167778D01*
X239238443Y-56322661D01*
X239264943Y-56450189D01*
X239264945Y-56450196D01*
X239361541Y-56721992D01*
X239494247Y-56978103D01*
X239660591Y-57213758D01*
X239857474Y-57424568D01*
X239857483Y-57424575D01*
X239857487Y-57424579D01*
X240081220Y-57606600D01*
X240081222Y-57606601D01*
X240081228Y-57606606D01*
X240327686Y-57756481D01*
X240592256Y-57871400D01*
X240870011Y-57949223D01*
X241155761Y-57988499D01*
X241155775Y-57988500D01*
X241444225Y-57988500D01*
X241444238Y-57988499D01*
X241664343Y-57958246D01*
X241734553Y-57968785D01*
X241787919Y-58015610D01*
X241807500Y-58083072D01*
X241807500Y-64244828D01*
X241787498Y-64312949D01*
X241733842Y-64359442D01*
X241731701Y-64360395D01*
X241703810Y-64372510D01*
X241469028Y-64515284D01*
X241255886Y-64688688D01*
X241068343Y-64889498D01*
X240909892Y-65113971D01*
X240783477Y-65357941D01*
X240691462Y-65616845D01*
X240691460Y-65616853D01*
X240635557Y-65885877D01*
X240635556Y-65885883D01*
X240616807Y-66159995D01*
X240616807Y-66160004D01*
X240635556Y-66434116D01*
X240635557Y-66434122D01*
X240635558Y-66434130D01*
X240666217Y-66581670D01*
X240691460Y-66703146D01*
X240691462Y-66703154D01*
X240783477Y-66962058D01*
X240909892Y-67206028D01*
X240912499Y-67209721D01*
X241068343Y-67430502D01*
X241255889Y-67631314D01*
X241469031Y-67804718D01*
X241703800Y-67947484D01*
X241955823Y-68056953D01*
X242220404Y-68131085D01*
X242315504Y-68144156D01*
X242492604Y-68168499D01*
X242492615Y-68168500D01*
X242767385Y-68168500D01*
X242767395Y-68168499D01*
X242896945Y-68150692D01*
X243039596Y-68131085D01*
X243304177Y-68056953D01*
X243556200Y-67947484D01*
X243790969Y-67804718D01*
X244004111Y-67631314D01*
X244069415Y-67561389D01*
X244130528Y-67525258D01*
X244201476Y-67527902D01*
X244259731Y-67568483D01*
X244286799Y-67634117D01*
X244287500Y-67647392D01*
X244287500Y-68191971D01*
X244267498Y-68260092D01*
X244250595Y-68281067D01*
X243328515Y-69203146D01*
X243266203Y-69237171D01*
X243205426Y-69235378D01*
X243090388Y-69203146D01*
X243039597Y-69188915D01*
X243039590Y-69188914D01*
X242767395Y-69151500D01*
X242767385Y-69151500D01*
X242492615Y-69151500D01*
X242492604Y-69151500D01*
X242220406Y-69188914D01*
X241955819Y-69263048D01*
X241703802Y-69372514D01*
X241469028Y-69515284D01*
X241255886Y-69688688D01*
X241068343Y-69889498D01*
X240909892Y-70113971D01*
X240783477Y-70357941D01*
X240691462Y-70616845D01*
X240691460Y-70616853D01*
X240670007Y-70720092D01*
X240640713Y-70861066D01*
X240635557Y-70885877D01*
X240635556Y-70885883D01*
X240616807Y-71159995D01*
X240616807Y-71160004D01*
X240635556Y-71434116D01*
X240635557Y-71434122D01*
X240635558Y-71434130D01*
X240659412Y-71548922D01*
X240691460Y-71703146D01*
X240691462Y-71703154D01*
X240783476Y-71962057D01*
X240783477Y-71962058D01*
X240906805Y-72200072D01*
X240909892Y-72206028D01*
X240977797Y-72302227D01*
X241068343Y-72430502D01*
X241255889Y-72631314D01*
X241469031Y-72804718D01*
X241703800Y-72947484D01*
X241955823Y-73056953D01*
X242220404Y-73131085D01*
X242315504Y-73144156D01*
X242492604Y-73168499D01*
X242492615Y-73168500D01*
X242767385Y-73168500D01*
X242767395Y-73168499D01*
X242896945Y-73150692D01*
X243039596Y-73131085D01*
X243304177Y-73056953D01*
X243556200Y-72947484D01*
X243790969Y-72804718D01*
X244004111Y-72631314D01*
X244191657Y-72430502D01*
X244350111Y-72206023D01*
X244476523Y-71962058D01*
X244568538Y-71703153D01*
X244624442Y-71434130D01*
X244635033Y-71279299D01*
X244643193Y-71160004D01*
X244643193Y-71159995D01*
X244624443Y-70885883D01*
X244624442Y-70885877D01*
X244624442Y-70885870D01*
X244568538Y-70616847D01*
X244476523Y-70357942D01*
X244476519Y-70357934D01*
X244469067Y-70343551D01*
X244455487Y-70273866D01*
X244481738Y-70207900D01*
X244491837Y-70196498D01*
X245543401Y-69144935D01*
X245557240Y-69132975D01*
X245576822Y-69118398D01*
X245610952Y-69077721D01*
X245614651Y-69073685D01*
X245620573Y-69067765D01*
X245641242Y-69041624D01*
X245691396Y-68981853D01*
X245691399Y-68981848D01*
X245695430Y-68975720D01*
X245695483Y-68975754D01*
X245699594Y-68969301D01*
X245699541Y-68969268D01*
X245703394Y-68963021D01*
X245736371Y-68892301D01*
X245736370Y-68892300D01*
X245771394Y-68822566D01*
X245771394Y-68822564D01*
X245771396Y-68822561D01*
X245773907Y-68815663D01*
X245773965Y-68815684D01*
X245776477Y-68808455D01*
X245776417Y-68808435D01*
X245778722Y-68801477D01*
X245778725Y-68801473D01*
X245794500Y-68725068D01*
X245812500Y-68649123D01*
X245812500Y-68649116D01*
X245813352Y-68641835D01*
X245813411Y-68641842D01*
X245814190Y-68634225D01*
X245814129Y-68634220D01*
X245814767Y-68626917D01*
X245814769Y-68626908D01*
X245812500Y-68548908D01*
X245812500Y-58074821D01*
X245832501Y-58006704D01*
X245886157Y-57960211D01*
X245955656Y-57949999D01*
X246235761Y-57988499D01*
X246235775Y-57988500D01*
X246524225Y-57988500D01*
X246524238Y-57988499D01*
X246744341Y-57958246D01*
X246809989Y-57949223D01*
X247087744Y-57871400D01*
X247352314Y-57756481D01*
X247598772Y-57606606D01*
X247822526Y-57424568D01*
X248019409Y-57213758D01*
X248185753Y-56978103D01*
X248318459Y-56721992D01*
X248415055Y-56450196D01*
X248473742Y-56167778D01*
X248493427Y-55880000D01*
X248473742Y-55592222D01*
X248415055Y-55309804D01*
X248318459Y-55038008D01*
X248185753Y-54781897D01*
X248019409Y-54546242D01*
X247822526Y-54335432D01*
X247822516Y-54335424D01*
X247822512Y-54335420D01*
X247598779Y-54153399D01*
X247598775Y-54153396D01*
X247598772Y-54153394D01*
X247352314Y-54003519D01*
X247352310Y-54003517D01*
X247352308Y-54003516D01*
X247243713Y-53956347D01*
X247087744Y-53888600D01*
X246860354Y-53824888D01*
X246809986Y-53810776D01*
X246809988Y-53810776D01*
X246524238Y-53771500D01*
X246524225Y-53771500D01*
X246235775Y-53771500D01*
X246235761Y-53771500D01*
X245950012Y-53810776D01*
X245777572Y-53859091D01*
X245672256Y-53888600D01*
X245672253Y-53888601D01*
X245672254Y-53888601D01*
X245407691Y-54003516D01*
X245161220Y-54153399D01*
X244937487Y-54335420D01*
X244937471Y-54335435D01*
X244740591Y-54546242D01*
X244574247Y-54781896D01*
X244574247Y-54781897D01*
X244441541Y-55038007D01*
X244344945Y-55309802D01*
X244344943Y-55309810D01*
X244286257Y-55592229D01*
X244286256Y-55592234D01*
X244266573Y-55879996D01*
X244266573Y-55880003D01*
X244286256Y-56167765D01*
X244286257Y-56167770D01*
X244286258Y-56167778D01*
X244318443Y-56322661D01*
X244344943Y-56450189D01*
X244344947Y-56450202D01*
X244424259Y-56673366D01*
X244428224Y-56744251D01*
X244410813Y-56784787D01*
X244404582Y-56794263D01*
X244404531Y-56794229D01*
X244400405Y-56800706D01*
X244400455Y-56800737D01*
X244396607Y-56806974D01*
X244363625Y-56877705D01*
X244328604Y-56947438D01*
X244326095Y-56954332D01*
X244326039Y-56954311D01*
X244323525Y-56961545D01*
X244323582Y-56961564D01*
X244321275Y-56968524D01*
X244305498Y-57044934D01*
X244287499Y-57120878D01*
X244286648Y-57128167D01*
X244286587Y-57128159D01*
X244285809Y-57135773D01*
X244285871Y-57135779D01*
X244285231Y-57143090D01*
X244287500Y-57221075D01*
X244287500Y-64672607D01*
X244267498Y-64740728D01*
X244213842Y-64787221D01*
X244143568Y-64797325D01*
X244078988Y-64767831D01*
X244069415Y-64758609D01*
X244004113Y-64688688D01*
X243870607Y-64580072D01*
X243790969Y-64515282D01*
X243556200Y-64372516D01*
X243556197Y-64372514D01*
X243556191Y-64372511D01*
X243408301Y-64308273D01*
X243353789Y-64262788D01*
X243332522Y-64195051D01*
X243332500Y-64192705D01*
X243332500Y-57214727D01*
X243333830Y-57196467D01*
X243336724Y-57176708D01*
X243337366Y-57172327D01*
X243332739Y-57119444D01*
X243332500Y-57113964D01*
X243332500Y-57105585D01*
X243328629Y-57072472D01*
X243327615Y-57060878D01*
X243321830Y-56994759D01*
X243321828Y-56994754D01*
X243320346Y-56987574D01*
X243320407Y-56987561D01*
X243318751Y-56980091D01*
X243318692Y-56980106D01*
X243316998Y-56972966D01*
X243316998Y-56972958D01*
X243290307Y-56899627D01*
X243265765Y-56825559D01*
X243265764Y-56825557D01*
X243265763Y-56825554D01*
X243262665Y-56818911D01*
X243262720Y-56818885D01*
X243259383Y-56811992D01*
X243259328Y-56812020D01*
X243252740Y-56798902D01*
X243255632Y-56797449D01*
X243239089Y-56743408D01*
X243246355Y-56699774D01*
X243335055Y-56450196D01*
X243393742Y-56167778D01*
X243413427Y-55880000D01*
X243393742Y-55592222D01*
X243335055Y-55309804D01*
X243238459Y-55038008D01*
X243105753Y-54781897D01*
X242939409Y-54546242D01*
X242742526Y-54335432D01*
X242742516Y-54335424D01*
X242742512Y-54335420D01*
X242518779Y-54153399D01*
X242518775Y-54153396D01*
X242518772Y-54153394D01*
X242272314Y-54003519D01*
X242272310Y-54003517D01*
X242272308Y-54003516D01*
X242163713Y-53956347D01*
X242007744Y-53888600D01*
X241780354Y-53824888D01*
X241729986Y-53810776D01*
X241729988Y-53810776D01*
X241444238Y-53771500D01*
X241444225Y-53771500D01*
X241155775Y-53771500D01*
X241155761Y-53771500D01*
X240870012Y-53810776D01*
X240697572Y-53859091D01*
X240592256Y-53888600D01*
X240592253Y-53888601D01*
X240592254Y-53888601D01*
X240327691Y-54003516D01*
X240081220Y-54153399D01*
X239857487Y-54335420D01*
X239857471Y-54335435D01*
X239660591Y-54546242D01*
X239494247Y-54781896D01*
X239494247Y-54781897D01*
X239361541Y-55038007D01*
X239264945Y-55309802D01*
X239264943Y-55309810D01*
X239206257Y-55592229D01*
X239206256Y-55592234D01*
X239186573Y-55879996D01*
X239186573Y-55880003D01*
X238333427Y-55880003D01*
X238333427Y-55880000D01*
X238313742Y-55592222D01*
X238255055Y-55309804D01*
X238158459Y-55038008D01*
X238025753Y-54781897D01*
X237859409Y-54546242D01*
X237662526Y-54335432D01*
X237662516Y-54335424D01*
X237662512Y-54335420D01*
X237438779Y-54153399D01*
X237438775Y-54153396D01*
X237438772Y-54153394D01*
X237192314Y-54003519D01*
X237192310Y-54003517D01*
X237192308Y-54003516D01*
X237083713Y-53956347D01*
X236927744Y-53888600D01*
X236700354Y-53824888D01*
X236649986Y-53810776D01*
X236649988Y-53810776D01*
X236364238Y-53771500D01*
X236364225Y-53771500D01*
X236075775Y-53771500D01*
X236075761Y-53771500D01*
X235790012Y-53810776D01*
X235617572Y-53859091D01*
X235512256Y-53888600D01*
X235512253Y-53888601D01*
X235512254Y-53888601D01*
X235247691Y-54003516D01*
X235001220Y-54153399D01*
X234777487Y-54335420D01*
X234777471Y-54335435D01*
X234580591Y-54546242D01*
X234414247Y-54781896D01*
X234414247Y-54781897D01*
X234281541Y-55038007D01*
X234184945Y-55309802D01*
X234184943Y-55309810D01*
X234126257Y-55592229D01*
X234126256Y-55592234D01*
X234106573Y-55879996D01*
X234106573Y-55880003D01*
X234126256Y-56167765D01*
X234126257Y-56167770D01*
X234126258Y-56167778D01*
X234158443Y-56322661D01*
X234184943Y-56450189D01*
X234184944Y-56450192D01*
X234184945Y-56450196D01*
X234259638Y-56660362D01*
X234263603Y-56731248D01*
X234230008Y-56791652D01*
X231856602Y-59165058D01*
X231842753Y-59177028D01*
X231823179Y-59191601D01*
X231823176Y-59191603D01*
X231789056Y-59232265D01*
X231785349Y-59236311D01*
X231779428Y-59242233D01*
X231779428Y-59242234D01*
X231758754Y-59268379D01*
X231708604Y-59328147D01*
X231704574Y-59334275D01*
X231704523Y-59334242D01*
X231700405Y-59340706D01*
X231700455Y-59340737D01*
X231696607Y-59346974D01*
X231663625Y-59417705D01*
X231628604Y-59487438D01*
X231626095Y-59494332D01*
X231626039Y-59494311D01*
X231623525Y-59501545D01*
X231623582Y-59501564D01*
X231621275Y-59508524D01*
X231605498Y-59584934D01*
X231587499Y-59660878D01*
X231586649Y-59668156D01*
X231586590Y-59668149D01*
X231585811Y-59675776D01*
X231585870Y-59675782D01*
X231585231Y-59683087D01*
X231587500Y-59761075D01*
X231587500Y-70651971D01*
X231567498Y-70720092D01*
X231550595Y-70741066D01*
X228088515Y-74203145D01*
X228026203Y-74237171D01*
X227965426Y-74235378D01*
X227900690Y-74217240D01*
X227799597Y-74188915D01*
X227799590Y-74188914D01*
X227527395Y-74151500D01*
X227527385Y-74151500D01*
X227252615Y-74151500D01*
X227252604Y-74151500D01*
X226980406Y-74188914D01*
X226715819Y-74263048D01*
X226463802Y-74372514D01*
X226229028Y-74515284D01*
X226015886Y-74688688D01*
X225828343Y-74889498D01*
X225669892Y-75113971D01*
X225543477Y-75357941D01*
X225451462Y-75616845D01*
X225451460Y-75616853D01*
X225395557Y-75885877D01*
X225395556Y-75885883D01*
X225376807Y-76159995D01*
X225376807Y-76160004D01*
X221663193Y-76160004D01*
X221663193Y-76160000D01*
X221644442Y-75885870D01*
X221588538Y-75616847D01*
X221496523Y-75357942D01*
X221370111Y-75113977D01*
X221211657Y-74889498D01*
X221024111Y-74688686D01*
X220810969Y-74515282D01*
X220609977Y-74393056D01*
X220576197Y-74372514D01*
X220324180Y-74263048D01*
X220324178Y-74263047D01*
X220324177Y-74263047D01*
X220110384Y-74203145D01*
X220059593Y-74188914D01*
X219787395Y-74151500D01*
X219787385Y-74151500D01*
X219512615Y-74151500D01*
X219512604Y-74151500D01*
X219240406Y-74188914D01*
X218975819Y-74263048D01*
X218723802Y-74372514D01*
X218489028Y-74515284D01*
X218275886Y-74688688D01*
X218088343Y-74889498D01*
X217929892Y-75113971D01*
X217803477Y-75357941D01*
X217711462Y-75616845D01*
X217711460Y-75616853D01*
X217655557Y-75885877D01*
X217655556Y-75885883D01*
X217636807Y-76159995D01*
X217636807Y-76160004D01*
X214163193Y-76160004D01*
X214163193Y-76160000D01*
X214144442Y-75885870D01*
X214088538Y-75616847D01*
X214032059Y-75457934D01*
X214028095Y-75387049D01*
X214061688Y-75326647D01*
X217563544Y-71824792D01*
X217625854Y-71790768D01*
X217696670Y-71795833D01*
X217753505Y-71838380D01*
X217771360Y-71871691D01*
X217803477Y-71962058D01*
X217926805Y-72200072D01*
X217929892Y-72206028D01*
X217997797Y-72302227D01*
X218088343Y-72430502D01*
X218275889Y-72631314D01*
X218489031Y-72804718D01*
X218723800Y-72947484D01*
X218975823Y-73056953D01*
X219240404Y-73131085D01*
X219335504Y-73144156D01*
X219512604Y-73168499D01*
X219512615Y-73168500D01*
X219787385Y-73168500D01*
X219787395Y-73168499D01*
X219916945Y-73150692D01*
X220059596Y-73131085D01*
X220324177Y-73056953D01*
X220576200Y-72947484D01*
X220810969Y-72804718D01*
X221024111Y-72631314D01*
X221211657Y-72430502D01*
X221370111Y-72206023D01*
X221496523Y-71962058D01*
X221588538Y-71703153D01*
X221644442Y-71434130D01*
X221655033Y-71279299D01*
X221663193Y-71160004D01*
X221663193Y-71159995D01*
X221644443Y-70885883D01*
X221644442Y-70885877D01*
X221644442Y-70885870D01*
X221588538Y-70616847D01*
X221496523Y-70357942D01*
X221370111Y-70113977D01*
X221211657Y-69889498D01*
X221024111Y-69688686D01*
X220810969Y-69515282D01*
X220576200Y-69372516D01*
X220576201Y-69372516D01*
X220576197Y-69372514D01*
X220324180Y-69263048D01*
X220324178Y-69263047D01*
X220324177Y-69263047D01*
X220191886Y-69225980D01*
X220059593Y-69188914D01*
X219787395Y-69151500D01*
X219787385Y-69151500D01*
X219512615Y-69151500D01*
X219512604Y-69151500D01*
X219240406Y-69188914D01*
X218975819Y-69263048D01*
X218723802Y-69372514D01*
X218489028Y-69515284D01*
X218275886Y-69688688D01*
X218150585Y-69822853D01*
X218089471Y-69858985D01*
X218018523Y-69856341D01*
X217960268Y-69815759D01*
X217933201Y-69750125D01*
X217932500Y-69736851D01*
X217932500Y-67583148D01*
X217952502Y-67515027D01*
X218006158Y-67468534D01*
X218076432Y-67458430D01*
X218141012Y-67487924D01*
X218150578Y-67497140D01*
X218275889Y-67631314D01*
X218489031Y-67804718D01*
X218723800Y-67947484D01*
X218975823Y-68056953D01*
X219240404Y-68131085D01*
X219335504Y-68144156D01*
X219512604Y-68168499D01*
X219512615Y-68168500D01*
X219787385Y-68168500D01*
X219787395Y-68168499D01*
X219916945Y-68150692D01*
X220059596Y-68131085D01*
X220324177Y-68056953D01*
X220576200Y-67947484D01*
X220810969Y-67804718D01*
X221024111Y-67631314D01*
X221211657Y-67430502D01*
X221370111Y-67206023D01*
X221496523Y-66962058D01*
X221588538Y-66703153D01*
X221644442Y-66434130D01*
X221663193Y-66160000D01*
X221644442Y-65885870D01*
X221588538Y-65616847D01*
X221496523Y-65357942D01*
X221370111Y-65113977D01*
X221211657Y-64889498D01*
X221024111Y-64688686D01*
X220810969Y-64515282D01*
X220576200Y-64372516D01*
X220576201Y-64372516D01*
X220576197Y-64372514D01*
X220324180Y-64263048D01*
X220324178Y-64263047D01*
X220324177Y-64263047D01*
X220073123Y-64192705D01*
X220059593Y-64188914D01*
X219787395Y-64151500D01*
X219787385Y-64151500D01*
X219512615Y-64151500D01*
X219512604Y-64151500D01*
X219240406Y-64188914D01*
X218975819Y-64263048D01*
X218723802Y-64372514D01*
X218489028Y-64515284D01*
X218275886Y-64688688D01*
X218150584Y-64822853D01*
X218089469Y-64858986D01*
X218018522Y-64856341D01*
X217960267Y-64815759D01*
X217933200Y-64750125D01*
X217932499Y-64736868D01*
X217932499Y-60058026D01*
X217952501Y-59989906D01*
X217969404Y-59968932D01*
X218833278Y-59105058D01*
X220068476Y-57869860D01*
X220130786Y-57835836D01*
X220201601Y-57840901D01*
X220207741Y-57843377D01*
X220272256Y-57871400D01*
X220550011Y-57949223D01*
X220835761Y-57988499D01*
X220835775Y-57988500D01*
X221124225Y-57988500D01*
X221124238Y-57988499D01*
X221344341Y-57958246D01*
X221409989Y-57949223D01*
X221687744Y-57871400D01*
X221952314Y-57756481D01*
X222198772Y-57606606D01*
X222422526Y-57424568D01*
X222619409Y-57213758D01*
X222785753Y-56978103D01*
X222918459Y-56721992D01*
X223015055Y-56450196D01*
X223073742Y-56167778D01*
X223093427Y-55880003D01*
X223946573Y-55880003D01*
X223966256Y-56167765D01*
X223966257Y-56167770D01*
X223966258Y-56167778D01*
X223998443Y-56322661D01*
X224024943Y-56450189D01*
X224024945Y-56450196D01*
X224121541Y-56721992D01*
X224254247Y-56978103D01*
X224420591Y-57213758D01*
X224617474Y-57424568D01*
X224617483Y-57424575D01*
X224617487Y-57424579D01*
X224841220Y-57606600D01*
X224841222Y-57606601D01*
X224841228Y-57606606D01*
X225087686Y-57756481D01*
X225352256Y-57871400D01*
X225630011Y-57949223D01*
X225915761Y-57988499D01*
X225915775Y-57988500D01*
X226204225Y-57988500D01*
X226204238Y-57988499D01*
X226424343Y-57958246D01*
X226494553Y-57968785D01*
X226547919Y-58015610D01*
X226567500Y-58083072D01*
X226567500Y-64244828D01*
X226547498Y-64312949D01*
X226493842Y-64359442D01*
X226491701Y-64360395D01*
X226463810Y-64372510D01*
X226229028Y-64515284D01*
X226015886Y-64688688D01*
X225828343Y-64889498D01*
X225669892Y-65113971D01*
X225543477Y-65357941D01*
X225451462Y-65616845D01*
X225451460Y-65616853D01*
X225395557Y-65885877D01*
X225395556Y-65885883D01*
X225376807Y-66159995D01*
X225376807Y-66160004D01*
X225395556Y-66434116D01*
X225395557Y-66434122D01*
X225395558Y-66434130D01*
X225426217Y-66581670D01*
X225451460Y-66703146D01*
X225451462Y-66703154D01*
X225543477Y-66962058D01*
X225669892Y-67206028D01*
X225672499Y-67209721D01*
X225828343Y-67430502D01*
X226015889Y-67631314D01*
X226229031Y-67804718D01*
X226463800Y-67947484D01*
X226715823Y-68056953D01*
X226980404Y-68131085D01*
X227075504Y-68144156D01*
X227252604Y-68168499D01*
X227252615Y-68168500D01*
X227527385Y-68168500D01*
X227527395Y-68168499D01*
X227656945Y-68150692D01*
X227799596Y-68131085D01*
X228064177Y-68056953D01*
X228316200Y-67947484D01*
X228550969Y-67804718D01*
X228764111Y-67631314D01*
X228829415Y-67561389D01*
X228890528Y-67525258D01*
X228961476Y-67527902D01*
X229019731Y-67568483D01*
X229046799Y-67634117D01*
X229047500Y-67647392D01*
X229047500Y-68191971D01*
X229027498Y-68260092D01*
X229010595Y-68281067D01*
X228088515Y-69203146D01*
X228026203Y-69237171D01*
X227965426Y-69235378D01*
X227850388Y-69203146D01*
X227799597Y-69188915D01*
X227799590Y-69188914D01*
X227527395Y-69151500D01*
X227527385Y-69151500D01*
X227252615Y-69151500D01*
X227252604Y-69151500D01*
X226980406Y-69188914D01*
X226715819Y-69263048D01*
X226463802Y-69372514D01*
X226229028Y-69515284D01*
X226015886Y-69688688D01*
X225828343Y-69889498D01*
X225669892Y-70113971D01*
X225543477Y-70357941D01*
X225451462Y-70616845D01*
X225451460Y-70616853D01*
X225430007Y-70720092D01*
X225400713Y-70861066D01*
X225395557Y-70885877D01*
X225395556Y-70885883D01*
X225376807Y-71159995D01*
X225376807Y-71160004D01*
X225395556Y-71434116D01*
X225395557Y-71434122D01*
X225395558Y-71434130D01*
X225419412Y-71548922D01*
X225451460Y-71703146D01*
X225451462Y-71703154D01*
X225543476Y-71962057D01*
X225543477Y-71962058D01*
X225666805Y-72200072D01*
X225669892Y-72206028D01*
X225737797Y-72302227D01*
X225828343Y-72430502D01*
X226015889Y-72631314D01*
X226229031Y-72804718D01*
X226463800Y-72947484D01*
X226715823Y-73056953D01*
X226980404Y-73131085D01*
X227075504Y-73144156D01*
X227252604Y-73168499D01*
X227252615Y-73168500D01*
X227527385Y-73168500D01*
X227527395Y-73168499D01*
X227656945Y-73150692D01*
X227799596Y-73131085D01*
X228064177Y-73056953D01*
X228316200Y-72947484D01*
X228550969Y-72804718D01*
X228764111Y-72631314D01*
X228951657Y-72430502D01*
X229110111Y-72206023D01*
X229236523Y-71962058D01*
X229328538Y-71703153D01*
X229384442Y-71434130D01*
X229395033Y-71279299D01*
X229403193Y-71160004D01*
X229403193Y-71159995D01*
X229384443Y-70885883D01*
X229384442Y-70885877D01*
X229384442Y-70885870D01*
X229328538Y-70616847D01*
X229236523Y-70357942D01*
X229236519Y-70357934D01*
X229229067Y-70343551D01*
X229215487Y-70273866D01*
X229241738Y-70207900D01*
X229251837Y-70196498D01*
X230303401Y-69144935D01*
X230317240Y-69132975D01*
X230336822Y-69118398D01*
X230370952Y-69077721D01*
X230374651Y-69073685D01*
X230380573Y-69067765D01*
X230401242Y-69041624D01*
X230451396Y-68981853D01*
X230451399Y-68981848D01*
X230455430Y-68975720D01*
X230455483Y-68975754D01*
X230459594Y-68969301D01*
X230459541Y-68969268D01*
X230463394Y-68963021D01*
X230496371Y-68892301D01*
X230496370Y-68892300D01*
X230531394Y-68822566D01*
X230531394Y-68822564D01*
X230531396Y-68822561D01*
X230533907Y-68815663D01*
X230533965Y-68815684D01*
X230536477Y-68808455D01*
X230536417Y-68808435D01*
X230538722Y-68801477D01*
X230538725Y-68801473D01*
X230554500Y-68725068D01*
X230572500Y-68649123D01*
X230572500Y-68649116D01*
X230573352Y-68641835D01*
X230573411Y-68641842D01*
X230574190Y-68634225D01*
X230574129Y-68634220D01*
X230574767Y-68626917D01*
X230574769Y-68626908D01*
X230572500Y-68548908D01*
X230572500Y-58074825D01*
X230592502Y-58006704D01*
X230646158Y-57960211D01*
X230715657Y-57949999D01*
X230995761Y-57988499D01*
X230995775Y-57988500D01*
X231284225Y-57988500D01*
X231284238Y-57988499D01*
X231504341Y-57958246D01*
X231569989Y-57949223D01*
X231847744Y-57871400D01*
X232112314Y-57756481D01*
X232358772Y-57606606D01*
X232582526Y-57424568D01*
X232779409Y-57213758D01*
X232945753Y-56978103D01*
X233078459Y-56721992D01*
X233175055Y-56450196D01*
X233233742Y-56167778D01*
X233253427Y-55880000D01*
X233233742Y-55592222D01*
X233175055Y-55309804D01*
X233078459Y-55038008D01*
X232945753Y-54781897D01*
X232779409Y-54546242D01*
X232582526Y-54335432D01*
X232582516Y-54335424D01*
X232582512Y-54335420D01*
X232358779Y-54153399D01*
X232358775Y-54153396D01*
X232358772Y-54153394D01*
X232112314Y-54003519D01*
X232112310Y-54003517D01*
X232112308Y-54003516D01*
X232003713Y-53956347D01*
X231847744Y-53888600D01*
X231620354Y-53824888D01*
X231569986Y-53810776D01*
X231569988Y-53810776D01*
X231284238Y-53771500D01*
X231284225Y-53771500D01*
X230995775Y-53771500D01*
X230995761Y-53771500D01*
X230710012Y-53810776D01*
X230537572Y-53859091D01*
X230432256Y-53888600D01*
X230432253Y-53888601D01*
X230432254Y-53888601D01*
X230167691Y-54003516D01*
X229921220Y-54153399D01*
X229697487Y-54335420D01*
X229697471Y-54335435D01*
X229500591Y-54546242D01*
X229334247Y-54781896D01*
X229334247Y-54781897D01*
X229201541Y-55038007D01*
X229104945Y-55309802D01*
X229104943Y-55309810D01*
X229046257Y-55592229D01*
X229046256Y-55592234D01*
X229026573Y-55879996D01*
X229026573Y-55880003D01*
X229046256Y-56167765D01*
X229046257Y-56167770D01*
X229046258Y-56167778D01*
X229078443Y-56322661D01*
X229104943Y-56450189D01*
X229104947Y-56450202D01*
X229184259Y-56673366D01*
X229188224Y-56744251D01*
X229170813Y-56784787D01*
X229164582Y-56794263D01*
X229164531Y-56794229D01*
X229160405Y-56800706D01*
X229160455Y-56800737D01*
X229156607Y-56806974D01*
X229123625Y-56877705D01*
X229088604Y-56947438D01*
X229086095Y-56954332D01*
X229086039Y-56954311D01*
X229083525Y-56961545D01*
X229083582Y-56961564D01*
X229081275Y-56968524D01*
X229065498Y-57044934D01*
X229047499Y-57120878D01*
X229046648Y-57128167D01*
X229046587Y-57128159D01*
X229045809Y-57135773D01*
X229045871Y-57135779D01*
X229045231Y-57143090D01*
X229047500Y-57221075D01*
X229047500Y-64672607D01*
X229027498Y-64740728D01*
X228973842Y-64787221D01*
X228903568Y-64797325D01*
X228838988Y-64767831D01*
X228829415Y-64758609D01*
X228764113Y-64688688D01*
X228630607Y-64580072D01*
X228550969Y-64515282D01*
X228316200Y-64372516D01*
X228316197Y-64372514D01*
X228316191Y-64372511D01*
X228168301Y-64308273D01*
X228113789Y-64262788D01*
X228092522Y-64195051D01*
X228092500Y-64192705D01*
X228092500Y-57214727D01*
X228093830Y-57196467D01*
X228096724Y-57176708D01*
X228097366Y-57172327D01*
X228092739Y-57119444D01*
X228092500Y-57113964D01*
X228092500Y-57105585D01*
X228088629Y-57072472D01*
X228087615Y-57060878D01*
X228081830Y-56994759D01*
X228081828Y-56994754D01*
X228080346Y-56987574D01*
X228080407Y-56987561D01*
X228078751Y-56980091D01*
X228078692Y-56980106D01*
X228076998Y-56972966D01*
X228076998Y-56972958D01*
X228050307Y-56899627D01*
X228025765Y-56825559D01*
X228025764Y-56825557D01*
X228025763Y-56825554D01*
X228022665Y-56818911D01*
X228022720Y-56818885D01*
X228019383Y-56811992D01*
X228019328Y-56812020D01*
X228012740Y-56798902D01*
X228015632Y-56797449D01*
X227999089Y-56743408D01*
X228006355Y-56699774D01*
X228095055Y-56450196D01*
X228153742Y-56167778D01*
X228173427Y-55880000D01*
X228153742Y-55592222D01*
X228095055Y-55309804D01*
X227998459Y-55038008D01*
X227865753Y-54781897D01*
X227699409Y-54546242D01*
X227502526Y-54335432D01*
X227502516Y-54335424D01*
X227502512Y-54335420D01*
X227278779Y-54153399D01*
X227278775Y-54153396D01*
X227278772Y-54153394D01*
X227032314Y-54003519D01*
X227032310Y-54003517D01*
X227032308Y-54003516D01*
X226923713Y-53956347D01*
X226767744Y-53888600D01*
X226540354Y-53824888D01*
X226489986Y-53810776D01*
X226489988Y-53810776D01*
X226204238Y-53771500D01*
X226204225Y-53771500D01*
X225915775Y-53771500D01*
X225915761Y-53771500D01*
X225630012Y-53810776D01*
X225457572Y-53859091D01*
X225352256Y-53888600D01*
X225352253Y-53888601D01*
X225352254Y-53888601D01*
X225087691Y-54003516D01*
X224841220Y-54153399D01*
X224617487Y-54335420D01*
X224617471Y-54335435D01*
X224420591Y-54546242D01*
X224254247Y-54781896D01*
X224254247Y-54781897D01*
X224121541Y-55038007D01*
X224024945Y-55309802D01*
X224024943Y-55309810D01*
X223966257Y-55592229D01*
X223966256Y-55592234D01*
X223946573Y-55879996D01*
X223946573Y-55880003D01*
X223093427Y-55880003D01*
X223093427Y-55880000D01*
X223073742Y-55592222D01*
X223015055Y-55309804D01*
X222918459Y-55038008D01*
X222785753Y-54781897D01*
X222619409Y-54546242D01*
X222422526Y-54335432D01*
X222422516Y-54335424D01*
X222422512Y-54335420D01*
X222198779Y-54153399D01*
X222198775Y-54153396D01*
X222198772Y-54153394D01*
X221952314Y-54003519D01*
X221952310Y-54003517D01*
X221952308Y-54003516D01*
X221843713Y-53956347D01*
X221687744Y-53888600D01*
X221460354Y-53824888D01*
X221409986Y-53810776D01*
X221409988Y-53810776D01*
X221124238Y-53771500D01*
X221124225Y-53771500D01*
X220835775Y-53771500D01*
X220835761Y-53771500D01*
X220550012Y-53810776D01*
X220377572Y-53859091D01*
X220272256Y-53888600D01*
X220272253Y-53888601D01*
X220272254Y-53888601D01*
X220007691Y-54003516D01*
X219761220Y-54153399D01*
X219537487Y-54335420D01*
X219537471Y-54335435D01*
X219340591Y-54546242D01*
X219174247Y-54781896D01*
X219174247Y-54781897D01*
X219041541Y-55038007D01*
X218944945Y-55309802D01*
X218944943Y-55309810D01*
X218886257Y-55592229D01*
X218886256Y-55592234D01*
X218866573Y-55879996D01*
X218866573Y-55880003D01*
X218886256Y-56167765D01*
X218886257Y-56167770D01*
X218886258Y-56167778D01*
X218918443Y-56322661D01*
X218944943Y-56450189D01*
X218944944Y-56450192D01*
X218944945Y-56450196D01*
X219019638Y-56660362D01*
X219023603Y-56731248D01*
X218990008Y-56791652D01*
X216676602Y-59105058D01*
X216662753Y-59117028D01*
X216643179Y-59131601D01*
X216643176Y-59131603D01*
X216609056Y-59172265D01*
X216605349Y-59176311D01*
X216599428Y-59182233D01*
X216599427Y-59182235D01*
X216578753Y-59208378D01*
X216578754Y-59208379D01*
X216528604Y-59268147D01*
X216524574Y-59274275D01*
X216524523Y-59274242D01*
X216520405Y-59280706D01*
X216520455Y-59280737D01*
X216516607Y-59286974D01*
X216483625Y-59357705D01*
X216448604Y-59427438D01*
X216446095Y-59434332D01*
X216446039Y-59434311D01*
X216443525Y-59441545D01*
X216443582Y-59441564D01*
X216441275Y-59448524D01*
X216425498Y-59524934D01*
X216407499Y-59600878D01*
X216406648Y-59608167D01*
X216406587Y-59608159D01*
X216405809Y-59615773D01*
X216405871Y-59615779D01*
X216405231Y-59623090D01*
X216407500Y-59701075D01*
X216407499Y-70771971D01*
X216387497Y-70840092D01*
X216370594Y-70861066D01*
X212985513Y-74246147D01*
X212923201Y-74280173D01*
X212852386Y-74275108D01*
X212846221Y-74272621D01*
X212824187Y-74263050D01*
X212824178Y-74263047D01*
X212824177Y-74263047D01*
X212610384Y-74203145D01*
X212559593Y-74188914D01*
X212287395Y-74151500D01*
X212287385Y-74151500D01*
X212012615Y-74151500D01*
X212012604Y-74151500D01*
X211740406Y-74188914D01*
X211475819Y-74263048D01*
X211223802Y-74372514D01*
X210989028Y-74515284D01*
X210775886Y-74688688D01*
X210588343Y-74889498D01*
X210429892Y-75113971D01*
X210429888Y-75113977D01*
X210429889Y-75113977D01*
X210426806Y-75119928D01*
X210423373Y-75126553D01*
X210374273Y-75177833D01*
X210305243Y-75194428D01*
X210238199Y-75171067D01*
X210194428Y-75115169D01*
X210185500Y-75068583D01*
X210185500Y-72251416D01*
X210205502Y-72183295D01*
X210259158Y-72136802D01*
X210329432Y-72126698D01*
X210394012Y-72156192D01*
X210423374Y-72193449D01*
X210429890Y-72206026D01*
X210527005Y-72343606D01*
X210588343Y-72430502D01*
X210775889Y-72631314D01*
X210989031Y-72804718D01*
X211223800Y-72947484D01*
X211475823Y-73056953D01*
X211740404Y-73131085D01*
X211835504Y-73144156D01*
X212012604Y-73168499D01*
X212012615Y-73168500D01*
X212287385Y-73168500D01*
X212287395Y-73168499D01*
X212416945Y-73150692D01*
X212559596Y-73131085D01*
X212824177Y-73056953D01*
X213076200Y-72947484D01*
X213310969Y-72804718D01*
X213524111Y-72631314D01*
X213711657Y-72430502D01*
X213870111Y-72206023D01*
X213996523Y-71962058D01*
X214088538Y-71703153D01*
X214144442Y-71434130D01*
X214155033Y-71279299D01*
X214163193Y-71160004D01*
X214163193Y-71159995D01*
X214144443Y-70885883D01*
X214144442Y-70885877D01*
X214144442Y-70885870D01*
X214088538Y-70616847D01*
X214032059Y-70457934D01*
X214028095Y-70387049D01*
X214061688Y-70326647D01*
X215123401Y-69264935D01*
X215137240Y-69252975D01*
X215156822Y-69238398D01*
X215190952Y-69197721D01*
X215194651Y-69193685D01*
X215200573Y-69187765D01*
X215221242Y-69161624D01*
X215271396Y-69101853D01*
X215271399Y-69101848D01*
X215275430Y-69095720D01*
X215275483Y-69095754D01*
X215279594Y-69089301D01*
X215279541Y-69089268D01*
X215283394Y-69083021D01*
X215316371Y-69012301D01*
X215334743Y-68975720D01*
X215351394Y-68942566D01*
X215351394Y-68942564D01*
X215351396Y-68942561D01*
X215353907Y-68935663D01*
X215353965Y-68935684D01*
X215356477Y-68928455D01*
X215356417Y-68928435D01*
X215358722Y-68921477D01*
X215358725Y-68921473D01*
X215374500Y-68845068D01*
X215392500Y-68769123D01*
X215392500Y-68769116D01*
X215393352Y-68761835D01*
X215393411Y-68761842D01*
X215394190Y-68754225D01*
X215394129Y-68754220D01*
X215394767Y-68746917D01*
X215394769Y-68746908D01*
X215392500Y-68668908D01*
X215392500Y-58083071D01*
X215412502Y-58014951D01*
X215466158Y-57968458D01*
X215535657Y-57958246D01*
X215755761Y-57988499D01*
X215755775Y-57988500D01*
X216044225Y-57988500D01*
X216044238Y-57988499D01*
X216264341Y-57958246D01*
X216329989Y-57949223D01*
X216607744Y-57871400D01*
X216872314Y-57756481D01*
X217118772Y-57606606D01*
X217342526Y-57424568D01*
X217539409Y-57213758D01*
X217705753Y-56978103D01*
X217838459Y-56721992D01*
X217935055Y-56450196D01*
X217993742Y-56167778D01*
X218013427Y-55880000D01*
X217993742Y-55592222D01*
X217935055Y-55309804D01*
X217838459Y-55038008D01*
X217705753Y-54781897D01*
X217539409Y-54546242D01*
X217342526Y-54335432D01*
X217342516Y-54335424D01*
X217342512Y-54335420D01*
X217118779Y-54153399D01*
X217118775Y-54153396D01*
X217118772Y-54153394D01*
X216872314Y-54003519D01*
X216872310Y-54003517D01*
X216872308Y-54003516D01*
X216763713Y-53956347D01*
X216607744Y-53888600D01*
X216380354Y-53824888D01*
X216329986Y-53810776D01*
X216329988Y-53810776D01*
X216044238Y-53771500D01*
X216044225Y-53771500D01*
X215755775Y-53771500D01*
X215755761Y-53771500D01*
X215470012Y-53810776D01*
X215297572Y-53859091D01*
X215192256Y-53888600D01*
X215192253Y-53888601D01*
X215192254Y-53888601D01*
X214927691Y-54003516D01*
X214681220Y-54153399D01*
X214457487Y-54335420D01*
X214457471Y-54335435D01*
X214260591Y-54546242D01*
X214094247Y-54781896D01*
X214094247Y-54781897D01*
X213961541Y-55038007D01*
X213864945Y-55309802D01*
X213864943Y-55309810D01*
X213806257Y-55592229D01*
X213806256Y-55592234D01*
X213786573Y-55879996D01*
X213786573Y-55880003D01*
X213806256Y-56167765D01*
X213806257Y-56167770D01*
X213806258Y-56167778D01*
X213838443Y-56322661D01*
X213864943Y-56450189D01*
X213864947Y-56450202D01*
X213955805Y-56705855D01*
X213959770Y-56776741D01*
X213951278Y-56801291D01*
X213949334Y-56805461D01*
X213943625Y-56817705D01*
X213939683Y-56825554D01*
X213908606Y-56887431D01*
X213906095Y-56894332D01*
X213906039Y-56894311D01*
X213903525Y-56901545D01*
X213903582Y-56901564D01*
X213901275Y-56908524D01*
X213885498Y-56984934D01*
X213867499Y-57060878D01*
X213866648Y-57068167D01*
X213866587Y-57068159D01*
X213865809Y-57075773D01*
X213865871Y-57075779D01*
X213865231Y-57083090D01*
X213867500Y-57161075D01*
X213867499Y-64736850D01*
X213847497Y-64804971D01*
X213793841Y-64851464D01*
X213723567Y-64861567D01*
X213658987Y-64832074D01*
X213649414Y-64822852D01*
X213524113Y-64688688D01*
X213390607Y-64580072D01*
X213310969Y-64515282D01*
X213076200Y-64372516D01*
X213076198Y-64372515D01*
X213076193Y-64372512D01*
X212988301Y-64334335D01*
X212933789Y-64288850D01*
X212912522Y-64221113D01*
X212912500Y-64218767D01*
X212912500Y-57274728D01*
X212913830Y-57256468D01*
X212914213Y-57253851D01*
X212917366Y-57232328D01*
X212914229Y-57196467D01*
X212912740Y-57179444D01*
X212912500Y-57173951D01*
X212912500Y-57165585D01*
X212908631Y-57132489D01*
X212907009Y-57113951D01*
X212901831Y-57054760D01*
X212901830Y-57054756D01*
X212900347Y-57047573D01*
X212900406Y-57047560D01*
X212898750Y-57040085D01*
X212898691Y-57040100D01*
X212896998Y-57032959D01*
X212880474Y-56987560D01*
X212870309Y-56959630D01*
X212845765Y-56885560D01*
X212845762Y-56885556D01*
X212842664Y-56878910D01*
X212842718Y-56878884D01*
X212839380Y-56871988D01*
X212839325Y-56872016D01*
X212836029Y-56865452D01*
X212793152Y-56800262D01*
X212785210Y-56787387D01*
X212766470Y-56718908D01*
X212773722Y-56679045D01*
X212855055Y-56450196D01*
X212913742Y-56167778D01*
X212933427Y-55880000D01*
X212913742Y-55592222D01*
X212855055Y-55309804D01*
X212758459Y-55038008D01*
X212625753Y-54781897D01*
X212459409Y-54546242D01*
X212262526Y-54335432D01*
X212262516Y-54335424D01*
X212262512Y-54335420D01*
X212038779Y-54153399D01*
X212038775Y-54153396D01*
X212038772Y-54153394D01*
X211792314Y-54003519D01*
X211792310Y-54003517D01*
X211792308Y-54003516D01*
X211683713Y-53956347D01*
X211527744Y-53888600D01*
X211300354Y-53824888D01*
X211249986Y-53810776D01*
X211249988Y-53810776D01*
X210964238Y-53771500D01*
X210964225Y-53771500D01*
X210675775Y-53771500D01*
X210675761Y-53771500D01*
X210390012Y-53810776D01*
X210217572Y-53859091D01*
X210112256Y-53888600D01*
X210112253Y-53888601D01*
X210112254Y-53888601D01*
X209847691Y-54003516D01*
X209601220Y-54153399D01*
X209377487Y-54335420D01*
X209377471Y-54335435D01*
X209180591Y-54546242D01*
X209014247Y-54781896D01*
X209014247Y-54781897D01*
X208881541Y-55038007D01*
X208784945Y-55309802D01*
X208784943Y-55309810D01*
X208726257Y-55592229D01*
X208726256Y-55592234D01*
X208706573Y-55879996D01*
X208706573Y-55880003D01*
X208726256Y-56167765D01*
X208726257Y-56167770D01*
X208726258Y-56167778D01*
X208758443Y-56322661D01*
X208784943Y-56450189D01*
X208784945Y-56450196D01*
X208881541Y-56721992D01*
X209014247Y-56978103D01*
X209180591Y-57213758D01*
X209377474Y-57424568D01*
X209377483Y-57424575D01*
X209377487Y-57424579D01*
X209601220Y-57606600D01*
X209601222Y-57606601D01*
X209601228Y-57606606D01*
X209847686Y-57756481D01*
X210112256Y-57871400D01*
X210390011Y-57949223D01*
X210675761Y-57988499D01*
X210675775Y-57988500D01*
X210964225Y-57988500D01*
X210964238Y-57988499D01*
X211244343Y-57949999D01*
X211314553Y-57960538D01*
X211367919Y-58007363D01*
X211387500Y-58074825D01*
X211387500Y-64218767D01*
X211367498Y-64286888D01*
X211313842Y-64333381D01*
X211311699Y-64334335D01*
X211223806Y-64372512D01*
X210989028Y-64515284D01*
X210775886Y-64688688D01*
X210588343Y-64889498D01*
X210429892Y-65113971D01*
X210303477Y-65357941D01*
X210211462Y-65616845D01*
X210211460Y-65616853D01*
X210155557Y-65885877D01*
X210155556Y-65885883D01*
X210136807Y-66159995D01*
X210136807Y-66160004D01*
X210155556Y-66434116D01*
X210155557Y-66434122D01*
X210155558Y-66434130D01*
X210186217Y-66581670D01*
X210211460Y-66703146D01*
X210211462Y-66703154D01*
X210303477Y-66962058D01*
X210429892Y-67206028D01*
X210432499Y-67209721D01*
X210588343Y-67430502D01*
X210775889Y-67631314D01*
X210989031Y-67804718D01*
X211223800Y-67947484D01*
X211475823Y-68056953D01*
X211740404Y-68131085D01*
X211835504Y-68144156D01*
X212012604Y-68168499D01*
X212012615Y-68168500D01*
X212287385Y-68168500D01*
X212287395Y-68168499D01*
X212416945Y-68150692D01*
X212559596Y-68131085D01*
X212824177Y-68056953D01*
X213076200Y-67947484D01*
X213310969Y-67804718D01*
X213524111Y-67631314D01*
X213649415Y-67497146D01*
X213710528Y-67461015D01*
X213781475Y-67463659D01*
X213839730Y-67504240D01*
X213866798Y-67569874D01*
X213867499Y-67583149D01*
X213867499Y-68311971D01*
X213847497Y-68380092D01*
X213830594Y-68401066D01*
X212985513Y-69246147D01*
X212923201Y-69280173D01*
X212852386Y-69275108D01*
X212846221Y-69272621D01*
X212824187Y-69263050D01*
X212824178Y-69263047D01*
X212824177Y-69263047D01*
X212677573Y-69221970D01*
X212559593Y-69188914D01*
X212287395Y-69151500D01*
X212287385Y-69151500D01*
X212012615Y-69151500D01*
X212012604Y-69151500D01*
X211740406Y-69188914D01*
X211475819Y-69263048D01*
X211223802Y-69372514D01*
X210989028Y-69515284D01*
X210775886Y-69688688D01*
X210588343Y-69889498D01*
X210429892Y-70113971D01*
X210303477Y-70357941D01*
X210211462Y-70616845D01*
X210211460Y-70616853D01*
X210190007Y-70720092D01*
X210160713Y-70861066D01*
X210155557Y-70885877D01*
X210155556Y-70885883D01*
X210137589Y-71148559D01*
X210112985Y-71215156D01*
X210056282Y-71257879D01*
X209985482Y-71263164D01*
X209923065Y-71229333D01*
X204374695Y-65680963D01*
X204340669Y-65618651D01*
X204345734Y-65547836D01*
X204388281Y-65491000D01*
X204389593Y-65490031D01*
X204446253Y-65448866D01*
X204574040Y-65306944D01*
X204669527Y-65141556D01*
X204728542Y-64959928D01*
X204748504Y-64770000D01*
X204728542Y-64580072D01*
X204669527Y-64398444D01*
X204574040Y-64233056D01*
X204574038Y-64233054D01*
X204574034Y-64233048D01*
X204446255Y-64091135D01*
X204291752Y-63978882D01*
X204117288Y-63901206D01*
X203930487Y-63861500D01*
X203877423Y-63861500D01*
X203809302Y-63841498D01*
X203788332Y-63824599D01*
X203237404Y-63273670D01*
X203203379Y-63211359D01*
X203200500Y-63184576D01*
X203200500Y-63136002D01*
X203220502Y-63067881D01*
X203274158Y-63021388D01*
X203344432Y-63011284D01*
X203377749Y-63020895D01*
X203378245Y-63021115D01*
X203378248Y-63021118D01*
X203552712Y-63098794D01*
X203739513Y-63138500D01*
X203930487Y-63138500D01*
X204117288Y-63098794D01*
X204291752Y-63021118D01*
X204446253Y-62908866D01*
X204536779Y-62808327D01*
X204574034Y-62766951D01*
X204574035Y-62766949D01*
X204574040Y-62766944D01*
X204669527Y-62601556D01*
X204728542Y-62419928D01*
X204748504Y-62230000D01*
X204728542Y-62040072D01*
X204669527Y-61858444D01*
X204574040Y-61693056D01*
X204574038Y-61693054D01*
X204574034Y-61693048D01*
X204502864Y-61614006D01*
X204472146Y-61549999D01*
X204470500Y-61529696D01*
X204470500Y-52154069D01*
X204472252Y-52138201D01*
X204471962Y-52138174D01*
X204472708Y-52130281D01*
X204470500Y-52060014D01*
X204470500Y-52030018D01*
X204470500Y-52030017D01*
X204469616Y-52023026D01*
X204469152Y-52017128D01*
X204467665Y-51969795D01*
X204461984Y-51950243D01*
X204457977Y-51930895D01*
X204455427Y-51910701D01*
X204437995Y-51866673D01*
X204436081Y-51861083D01*
X204422869Y-51815607D01*
X204412507Y-51798087D01*
X204403809Y-51780331D01*
X204396319Y-51761412D01*
X204368486Y-51723104D01*
X204365234Y-51718154D01*
X204341134Y-51677402D01*
X204341131Y-51677398D01*
X204326749Y-51663016D01*
X204313908Y-51647983D01*
X204301940Y-51631510D01*
X204265457Y-51601330D01*
X204261074Y-51597342D01*
X202919905Y-50256172D01*
X202885879Y-50193860D01*
X202883000Y-50167077D01*
X202883000Y-49912013D01*
X202903002Y-49843892D01*
X202956658Y-49797399D01*
X203026932Y-49787295D01*
X203035198Y-49788767D01*
X203104509Y-49803500D01*
X203104513Y-49803500D01*
X203157578Y-49803500D01*
X203225699Y-49823502D01*
X203246673Y-49840405D01*
X203961182Y-50554914D01*
X203971169Y-50567379D01*
X203971393Y-50567194D01*
X203976446Y-50573302D01*
X204027709Y-50621441D01*
X204048900Y-50642633D01*
X204048908Y-50642640D01*
X204054464Y-50646950D01*
X204058978Y-50650805D01*
X204093494Y-50683217D01*
X204111335Y-50693025D01*
X204127853Y-50703876D01*
X204143933Y-50716349D01*
X204187375Y-50735148D01*
X204192707Y-50737761D01*
X204234193Y-50760567D01*
X204234194Y-50760567D01*
X204234197Y-50760569D01*
X204253918Y-50765632D01*
X204272620Y-50772037D01*
X204291289Y-50780116D01*
X204291290Y-50780116D01*
X204291292Y-50780117D01*
X204321453Y-50784893D01*
X204338048Y-50787522D01*
X204343860Y-50788724D01*
X204389718Y-50800500D01*
X204410066Y-50800500D01*
X204429775Y-50802050D01*
X204449879Y-50805235D01*
X204484014Y-50802008D01*
X204497011Y-50800780D01*
X204502944Y-50800500D01*
X209869578Y-50800500D01*
X209937699Y-50820502D01*
X209958673Y-50837405D01*
X212413209Y-53291942D01*
X212447235Y-53354254D01*
X212449424Y-53367866D01*
X212466457Y-53529927D01*
X212496526Y-53622470D01*
X212525473Y-53711556D01*
X212525476Y-53711561D01*
X212620958Y-53876941D01*
X212620965Y-53876951D01*
X212748744Y-54018864D01*
X212748747Y-54018866D01*
X212903248Y-54131118D01*
X213077712Y-54208794D01*
X213264513Y-54248500D01*
X213455487Y-54248500D01*
X213642288Y-54208794D01*
X213816752Y-54131118D01*
X213971253Y-54018866D01*
X213971255Y-54018864D01*
X214099034Y-53876951D01*
X214099035Y-53876949D01*
X214099040Y-53876944D01*
X214194527Y-53711556D01*
X214253542Y-53529928D01*
X214273504Y-53340000D01*
X214253542Y-53150072D01*
X214194527Y-52968444D01*
X214099040Y-52803056D01*
X214099038Y-52803054D01*
X214099034Y-52803048D01*
X213971255Y-52661135D01*
X213816752Y-52548882D01*
X213642288Y-52471206D01*
X213455487Y-52431500D01*
X213402422Y-52431500D01*
X213334301Y-52411498D01*
X213313327Y-52394595D01*
X210693815Y-49775082D01*
X210683831Y-49762620D01*
X210683607Y-49762806D01*
X210678554Y-49756699D01*
X210678553Y-49756697D01*
X210669664Y-49748350D01*
X210633699Y-49687138D01*
X210636536Y-49616198D01*
X210677276Y-49558054D01*
X210742984Y-49531165D01*
X210755917Y-49530500D01*
X223839578Y-49530500D01*
X223907699Y-49550502D01*
X223928673Y-49567405D01*
X227653209Y-53291941D01*
X227687235Y-53354253D01*
X227689424Y-53367865D01*
X227706457Y-53529927D01*
X227736526Y-53622470D01*
X227765473Y-53711556D01*
X227765476Y-53711561D01*
X227860958Y-53876941D01*
X227860965Y-53876951D01*
X227988744Y-54018864D01*
X227988747Y-54018866D01*
X228143248Y-54131118D01*
X228317712Y-54208794D01*
X228504513Y-54248500D01*
X228695487Y-54248500D01*
X228882288Y-54208794D01*
X229056752Y-54131118D01*
X229211253Y-54018866D01*
X229211255Y-54018864D01*
X229339034Y-53876951D01*
X229339035Y-53876949D01*
X229339040Y-53876944D01*
X229434527Y-53711556D01*
X229493542Y-53529928D01*
X229513504Y-53340000D01*
X229493542Y-53150072D01*
X229434527Y-52968444D01*
X229339040Y-52803056D01*
X229339038Y-52803054D01*
X229339034Y-52803048D01*
X229211255Y-52661135D01*
X229056752Y-52548882D01*
X228882288Y-52471206D01*
X228695487Y-52431500D01*
X228642423Y-52431500D01*
X228574302Y-52411498D01*
X228553328Y-52394595D01*
X224663815Y-48505082D01*
X224653831Y-48492620D01*
X224653607Y-48492806D01*
X224648554Y-48486699D01*
X224648553Y-48486697D01*
X224639664Y-48478350D01*
X224603699Y-48417138D01*
X224606536Y-48346198D01*
X224647276Y-48288054D01*
X224712984Y-48261165D01*
X224725917Y-48260500D01*
X237809578Y-48260500D01*
X237877699Y-48280502D01*
X237898673Y-48297405D01*
X242893209Y-53291942D01*
X242927235Y-53354254D01*
X242929424Y-53367866D01*
X242946457Y-53529927D01*
X242976526Y-53622470D01*
X243005473Y-53711556D01*
X243005476Y-53711561D01*
X243100958Y-53876941D01*
X243100965Y-53876951D01*
X243228744Y-54018864D01*
X243228747Y-54018866D01*
X243383248Y-54131118D01*
X243557712Y-54208794D01*
X243744513Y-54248500D01*
X243935487Y-54248500D01*
X244122288Y-54208794D01*
X244296752Y-54131118D01*
X244451253Y-54018866D01*
X244451255Y-54018864D01*
X244579034Y-53876951D01*
X244579035Y-53876949D01*
X244579040Y-53876944D01*
X244674527Y-53711556D01*
X244733542Y-53529928D01*
X244753504Y-53340000D01*
X244733542Y-53150072D01*
X244674527Y-52968444D01*
X244579040Y-52803056D01*
X244579038Y-52803054D01*
X244579034Y-52803048D01*
X244451255Y-52661135D01*
X244296752Y-52548882D01*
X244122288Y-52471206D01*
X243935487Y-52431500D01*
X243882423Y-52431500D01*
X243814302Y-52411498D01*
X243793328Y-52394595D01*
X238633815Y-47235082D01*
X238623831Y-47222620D01*
X238623607Y-47222806D01*
X238618554Y-47216699D01*
X238618553Y-47216697D01*
X238609664Y-47208350D01*
X238573699Y-47147138D01*
X238576536Y-47076198D01*
X238617276Y-47018054D01*
X238682984Y-46991165D01*
X238695917Y-46990500D01*
X251779578Y-46990500D01*
X251847699Y-47010502D01*
X251868673Y-47027405D01*
X258133209Y-53291942D01*
X258167235Y-53354254D01*
X258169424Y-53367866D01*
X258186457Y-53529927D01*
X258216526Y-53622470D01*
X258245473Y-53711556D01*
X258245476Y-53711561D01*
X258340958Y-53876941D01*
X258340965Y-53876951D01*
X258468744Y-54018864D01*
X258468747Y-54018866D01*
X258623248Y-54131118D01*
X258797712Y-54208794D01*
X258984513Y-54248500D01*
X259175487Y-54248500D01*
X259362288Y-54208794D01*
X259536752Y-54131118D01*
X259691253Y-54018866D01*
X259691255Y-54018864D01*
X259819034Y-53876951D01*
X259819035Y-53876949D01*
X259819040Y-53876944D01*
X259914527Y-53711556D01*
X259973542Y-53529928D01*
X259993504Y-53340000D01*
X259973542Y-53150072D01*
X259914527Y-52968444D01*
X259819040Y-52803056D01*
X259819038Y-52803054D01*
X259819034Y-52803048D01*
X259691255Y-52661135D01*
X259536752Y-52548882D01*
X259362288Y-52471206D01*
X259175487Y-52431500D01*
X259122422Y-52431500D01*
X259054301Y-52411498D01*
X259033327Y-52394595D01*
X252603815Y-45965082D01*
X252593831Y-45952620D01*
X252593607Y-45952806D01*
X252588554Y-45946698D01*
X252537306Y-45898573D01*
X252516099Y-45877365D01*
X252514464Y-45876097D01*
X252510520Y-45873037D01*
X252506015Y-45869189D01*
X252471506Y-45836783D01*
X252471499Y-45836778D01*
X252453673Y-45826978D01*
X252437147Y-45816123D01*
X252421066Y-45803649D01*
X252421067Y-45803649D01*
X252377612Y-45784845D01*
X252372279Y-45782232D01*
X252330805Y-45759432D01*
X252330803Y-45759431D01*
X252311085Y-45754368D01*
X252292382Y-45747964D01*
X252273706Y-45739882D01*
X252226941Y-45732475D01*
X252221135Y-45731273D01*
X252205861Y-45727351D01*
X252175286Y-45719500D01*
X252175282Y-45719500D01*
X252154934Y-45719500D01*
X252135224Y-45717949D01*
X252115121Y-45714765D01*
X252115120Y-45714765D01*
X252067989Y-45719220D01*
X252062056Y-45719500D01*
X204554070Y-45719500D01*
X204538201Y-45717747D01*
X204538174Y-45718038D01*
X204530281Y-45717291D01*
X204460015Y-45719500D01*
X204430017Y-45719500D01*
X204423021Y-45720382D01*
X204417114Y-45720847D01*
X204369796Y-45722334D01*
X204369793Y-45722335D01*
X204350244Y-45728014D01*
X204330893Y-45732021D01*
X204310704Y-45734572D01*
X204310703Y-45734572D01*
X204266681Y-45752000D01*
X204261067Y-45753922D01*
X204215611Y-45767129D01*
X204215604Y-45767132D01*
X204198083Y-45777493D01*
X204180343Y-45786184D01*
X204161413Y-45793680D01*
X204123118Y-45821502D01*
X204118157Y-45824761D01*
X204077401Y-45848865D01*
X204063006Y-45863260D01*
X204047981Y-45876092D01*
X204031513Y-45888058D01*
X204031512Y-45888059D01*
X204001333Y-45924537D01*
X203997337Y-45928928D01*
X203246672Y-46679595D01*
X203184359Y-46713620D01*
X203157576Y-46716500D01*
X203104511Y-46716500D01*
X203033555Y-46731582D01*
X202962765Y-46726180D01*
X202906132Y-46683363D01*
X202881639Y-46616725D01*
X202881422Y-46612322D01*
X202880165Y-46572295D01*
X202874484Y-46552743D01*
X202870477Y-46533395D01*
X202867927Y-46513201D01*
X202850495Y-46469173D01*
X202848581Y-46463583D01*
X202835369Y-46418107D01*
X202825007Y-46400587D01*
X202816309Y-46382831D01*
X202808819Y-46363912D01*
X202808817Y-46363910D01*
X202808817Y-46363908D01*
X202783721Y-46329368D01*
X202780989Y-46325607D01*
X202777734Y-46320651D01*
X202757731Y-46286829D01*
X202753634Y-46279901D01*
X202753633Y-46279900D01*
X202753629Y-46279895D01*
X202739246Y-46265512D01*
X202726405Y-46250478D01*
X202714442Y-46234013D01*
X202714441Y-46234012D01*
X202707094Y-46227935D01*
X202677952Y-46203826D01*
X202673579Y-46199846D01*
X200336789Y-43863056D01*
X200302763Y-43800744D01*
X200300576Y-43787146D01*
X200283542Y-43625072D01*
X200224527Y-43443444D01*
X200129040Y-43278056D01*
X200129038Y-43278054D01*
X200129034Y-43278048D01*
X200001255Y-43136135D01*
X199846752Y-43023882D01*
X199672288Y-42946206D01*
X199485487Y-42906500D01*
X199294513Y-42906500D01*
X199107711Y-42946206D01*
X198933247Y-43023882D01*
X198778744Y-43136135D01*
X198650965Y-43278048D01*
X198650958Y-43278058D01*
X198555476Y-43443438D01*
X198555473Y-43443445D01*
X198496457Y-43625072D01*
X198476496Y-43815000D01*
X198496457Y-44004927D01*
X198526526Y-44097470D01*
X198555473Y-44186556D01*
X198555476Y-44186561D01*
X198650958Y-44351941D01*
X198650965Y-44351951D01*
X198778744Y-44493864D01*
X198778747Y-44493866D01*
X198933248Y-44606118D01*
X199107712Y-44683794D01*
X199294513Y-44723500D01*
X199347578Y-44723500D01*
X199415699Y-44743502D01*
X199436673Y-44760405D01*
X200503246Y-45826978D01*
X200815674Y-46139405D01*
X200849699Y-46201717D01*
X200844635Y-46272532D01*
X200802088Y-46329368D01*
X200735568Y-46354179D01*
X200726579Y-46354500D01*
X200719934Y-46354500D01*
X200700224Y-46352949D01*
X200680121Y-46349765D01*
X200680120Y-46349765D01*
X200632989Y-46354220D01*
X200627056Y-46354500D01*
X197800423Y-46354500D01*
X197732302Y-46334498D01*
X197711328Y-46317595D01*
X197522405Y-46128672D01*
X197488379Y-46066360D01*
X197485500Y-46039577D01*
X197485500Y-44515303D01*
X197505502Y-44447182D01*
X197517864Y-44430992D01*
X197589040Y-44351944D01*
X197684527Y-44186556D01*
X197743542Y-44004928D01*
X197763504Y-43815000D01*
X197743542Y-43625072D01*
X197684527Y-43443444D01*
X197589040Y-43278056D01*
X197589038Y-43278054D01*
X197589034Y-43278048D01*
X197461255Y-43136135D01*
X197306752Y-43023882D01*
X197132288Y-42946206D01*
X196945487Y-42906500D01*
X196754513Y-42906500D01*
X196567711Y-42946206D01*
X196393247Y-43023882D01*
X196238744Y-43136135D01*
X196110965Y-43278048D01*
X196110958Y-43278058D01*
X196015476Y-43443438D01*
X196015473Y-43443445D01*
X195956457Y-43625072D01*
X195936496Y-43815000D01*
X182955500Y-43815000D01*
X182955500Y-42107733D01*
X182975502Y-42039612D01*
X183029158Y-41993119D01*
X183076000Y-41981853D01*
X183294568Y-41972311D01*
X183329763Y-41970775D01*
X183329761Y-41970775D01*
X183478538Y-41951187D01*
X183776096Y-41912014D01*
X184199826Y-41818075D01*
X184215614Y-41814575D01*
X184644961Y-41679203D01*
X185060885Y-41506922D01*
X185460209Y-41299047D01*
X185839889Y-41057163D01*
X185839891Y-41057162D01*
X186197049Y-40783105D01*
X186528962Y-40478962D01*
X186833105Y-40147049D01*
X187107162Y-39789891D01*
X187163104Y-39702079D01*
X187349047Y-39410209D01*
X187556922Y-39010885D01*
X187729203Y-38594961D01*
X187864575Y-38165614D01*
X187906265Y-37977562D01*
X187962014Y-37726096D01*
X188020775Y-37279761D01*
X188020775Y-37279762D01*
X188031855Y-37026004D01*
X188054810Y-36958820D01*
X188110442Y-36914712D01*
X188157735Y-36905500D01*
X269042265Y-36905500D01*
X269110386Y-36925502D01*
G37*
%TD.AperFunction*%
%TD*%
M02*
