M48
; DRILL file {KiCad 7.0.6} date Fri Jul 28 23:09:11 2023
; FORMAT={-:-/ absolute / inch / decimal}
; #@! TF.CreationDate,2023-07-28T23:09:11+08:00
; #@! TF.GenerationSoftware,Kicad,Pcbnew,7.0.6
; #@! TF.FileFunction,Plated,1,2,PTH
FMAT,2
INCH
; #@! TA.AperFunction,Plated,PTH,ViaDrill
T1C0.0160
; #@! TA.AperFunction,Plated,PTH,ViaDrill
T2C0.0240
; #@! TA.AperFunction,Plated,PTH,ComponentDrill
T3C0.0400
; #@! TA.AperFunction,Plated,PTH,ComponentDrill
T4C0.0630
%
G90
G05
T1
X4.3Y-3.15
X4.3Y-3.6
T2
X4.3Y-4.55
T3
X3.1Y-4.3524
X3.1Y-4.6476
X3.9Y-4.3524
X3.9Y-4.6476
X4.7Y-4.3524
X4.7Y-4.6476
X5.5Y-4.3524
X5.5Y-4.6476
T4
X3.1Y-5.05
X3.3Y-5.05
X3.5Y-5.05
X3.7Y-5.05
X3.8Y-3.35
X4.0Y-3.35
X4.6Y-3.35
X4.8Y-3.35
X4.9Y-5.05
X5.1Y-5.05
X5.3Y-5.05
X5.5Y-5.05
T3
G00X4.115Y-5.15
M15
G01X4.115Y-5.07
M16
G05
G00X4.115Y-5.335
M15
G01X4.115Y-5.255
M16
G05
G00X4.3Y-5.15
M15
G01X4.3Y-5.07
M16
G05
G00X4.3Y-5.33
M15
G01X4.3Y-5.25
M16
G05
G00X4.485Y-5.15
M15
G01X4.485Y-5.07
M16
G05
G00X4.485Y-5.33
M15
G01X4.485Y-5.25
M16
G05
T0
M30
