%TF.GenerationSoftware,KiCad,Pcbnew,7.0.6*%
%TF.CreationDate,2023-07-28T23:09:07+08:00*%
%TF.ProjectId,PowerToggleMK1_KiCad,506f7765-7254-46f6-9767-6c654d4b315f,rev?*%
%TF.SameCoordinates,Original*%
%TF.FileFunction,Copper,L2,Bot*%
%TF.FilePolarity,Positive*%
%FSLAX46Y46*%
G04 Gerber Fmt 4.6, Leading zero omitted, Abs format (unit mm)*
G04 Created by KiCad (PCBNEW 7.0.6) date 2023-07-28 23:09:07*
%MOMM*%
%LPD*%
G01*
G04 APERTURE LIST*
%TA.AperFunction,ComponentPad*%
%ADD10R,1.524000X1.524000*%
%TD*%
%TA.AperFunction,ComponentPad*%
%ADD11C,1.524000*%
%TD*%
%TA.AperFunction,ComponentPad*%
%ADD12C,3.200000*%
%TD*%
%TA.AperFunction,ComponentPad*%
%ADD13O,2.032000X4.064000*%
%TD*%
%TA.AperFunction,ViaPad*%
%ADD14C,0.812800*%
%TD*%
%TA.AperFunction,ViaPad*%
%ADD15C,1.219200*%
%TD*%
%TA.AperFunction,Conductor*%
%ADD16C,0.508000*%
%TD*%
%TA.AperFunction,Conductor*%
%ADD17C,2.540000*%
%TD*%
G04 APERTURE END LIST*
D10*
%TO.P,C2,1*%
%TO.N,VOUT*%
X99060000Y-118050000D03*
D11*
%TO.P,C2,2*%
%TO.N,GNDREF*%
X99060000Y-110550000D03*
%TD*%
D12*
%TO.P,J2,1,Pin_1*%
%TO.N,GNDREF*%
X121920000Y-85090000D03*
%TO.P,J2,2,Pin_2*%
%TO.N,VIN2*%
X116840000Y-85090000D03*
%TD*%
D10*
%TO.P,C4,1*%
%TO.N,VOUT*%
X139700000Y-118050000D03*
D11*
%TO.P,C4,2*%
%TO.N,GNDREF*%
X139700000Y-110550000D03*
%TD*%
D12*
%TO.P,J3,1,Pin_1*%
%TO.N,VOUT*%
X78740000Y-128270000D03*
%TO.P,J3,2,Pin_2*%
X83820000Y-128270000D03*
%TO.P,J3,3,Pin_3*%
X88900000Y-128270000D03*
%TO.P,J3,4,Pin_4*%
X93980000Y-128270000D03*
%TD*%
%TO.P,J4,1,Pin_1*%
%TO.N,GNDREF*%
X124460000Y-128270000D03*
%TO.P,J4,2,Pin_2*%
X129540000Y-128270000D03*
%TO.P,J4,3,Pin_3*%
X134620000Y-128270000D03*
%TO.P,J4,4,Pin_4*%
X139700000Y-128270000D03*
%TD*%
%TO.P,J1,1,Pin_1*%
%TO.N,VIN1*%
X101600000Y-85090000D03*
%TO.P,J1,2,Pin_2*%
%TO.N,GNDREF*%
X96520000Y-85090000D03*
%TD*%
D10*
%TO.P,C1,1*%
%TO.N,VOUT*%
X78740000Y-118050000D03*
D11*
%TO.P,C1,2*%
%TO.N,GNDREF*%
X78740000Y-110550000D03*
%TD*%
D10*
%TO.P,C3,1*%
%TO.N,VOUT*%
X119380000Y-118050000D03*
D11*
%TO.P,C3,2*%
%TO.N,GNDREF*%
X119380000Y-110550000D03*
%TD*%
D13*
%TO.P,SW1,1,A*%
%TO.N,Net-(SW1A-A)*%
X104521000Y-134493000D03*
%TO.P,SW1,2,B*%
%TO.N,VOUT*%
X109220000Y-134366000D03*
%TO.P,SW1,3,C*%
%TO.N,Net-(SW1A-C)*%
X113919000Y-134366000D03*
%TO.P,SW1,4,A*%
%TO.N,VIN1*%
X104521000Y-129794000D03*
%TO.P,SW1,5,B*%
%TO.N,VOUT*%
X109220000Y-129794000D03*
%TO.P,SW1,6,C*%
%TO.N,VIN2*%
X113919000Y-129794000D03*
%TD*%
D14*
%TO.N,VOUT*%
X109220000Y-91440000D03*
X109220000Y-80010000D03*
D15*
X109220000Y-115570000D03*
%TD*%
D16*
%TO.N,VOUT*%
X109220000Y-80010000D02*
X109220000Y-91440000D01*
X109220000Y-115570000D02*
X109220000Y-91440000D01*
D17*
%TO.N,VIN1*%
X103060500Y-86550500D02*
X101600000Y-85090000D01*
X104521000Y-90076458D02*
X104521000Y-129794000D01*
X104521017Y-90076458D02*
G75*
G03*
X103060500Y-86550500I-4986517J-42D01*
G01*
%TO.N,VIN2*%
X115379500Y-86550500D02*
X116840000Y-85090000D01*
X113919000Y-90076458D02*
X113919000Y-129794000D01*
X115379533Y-86550533D02*
G75*
G03*
X113919000Y-90076458I3525867J-3525967D01*
G01*
%TD*%
%TA.AperFunction,Conductor*%
%TO.N,GNDREF*%
G36*
X145059725Y-76220002D02*
G01*
X145106218Y-76273658D01*
X145116322Y-76343932D01*
X145086828Y-76408512D01*
X145075563Y-76419951D01*
X145035638Y-76455629D01*
X144794225Y-76725769D01*
X144794224Y-76725771D01*
X144584585Y-77021230D01*
X144409349Y-77338298D01*
X144409341Y-77338313D01*
X144270709Y-77673001D01*
X144170413Y-78021134D01*
X144109730Y-78378294D01*
X144089418Y-78740000D01*
X144109730Y-79101705D01*
X144170413Y-79458865D01*
X144170414Y-79458871D01*
X144170415Y-79458872D01*
X144173412Y-79469276D01*
X144270709Y-79806998D01*
X144409341Y-80141686D01*
X144409346Y-80141697D01*
X144446313Y-80208583D01*
X144584585Y-80458769D01*
X144584588Y-80458773D01*
X144794229Y-80754235D01*
X145035634Y-81024366D01*
X145305765Y-81265771D01*
X145477050Y-81387304D01*
X145601230Y-81475414D01*
X145669915Y-81513374D01*
X145918303Y-81650654D01*
X146253006Y-81789292D01*
X146601128Y-81889585D01*
X146958290Y-81950269D01*
X147320000Y-81970582D01*
X147681710Y-81950269D01*
X148038872Y-81889585D01*
X148386994Y-81789292D01*
X148721697Y-81650654D01*
X149038773Y-81475412D01*
X149334235Y-81265771D01*
X149604366Y-81024366D01*
X149640048Y-80984437D01*
X149700355Y-80946971D01*
X149771343Y-80948057D01*
X149830475Y-80987350D01*
X149858977Y-81052374D01*
X149860000Y-81068396D01*
X149860000Y-122131603D01*
X149839998Y-122199724D01*
X149786342Y-122246217D01*
X149716068Y-122256321D01*
X149651488Y-122226827D01*
X149640050Y-122215563D01*
X149604370Y-122175638D01*
X149604366Y-122175634D01*
X149334235Y-121934229D01*
X149334232Y-121934227D01*
X149334230Y-121934225D01*
X149334228Y-121934224D01*
X149038769Y-121724585D01*
X148880235Y-121636967D01*
X148721697Y-121549346D01*
X148721689Y-121549342D01*
X148721686Y-121549341D01*
X148386998Y-121410709D01*
X148038865Y-121310413D01*
X147681705Y-121249730D01*
X147320000Y-121229418D01*
X146958294Y-121249730D01*
X146601134Y-121310413D01*
X146253001Y-121410709D01*
X145918313Y-121549341D01*
X145918305Y-121549344D01*
X145918303Y-121549346D01*
X145918298Y-121549349D01*
X145601230Y-121724585D01*
X145305771Y-121934224D01*
X145305769Y-121934225D01*
X145035634Y-122175634D01*
X144794225Y-122445769D01*
X144794224Y-122445771D01*
X144584585Y-122741230D01*
X144409349Y-123058298D01*
X144409341Y-123058313D01*
X144270709Y-123393001D01*
X144170413Y-123741134D01*
X144109730Y-124098294D01*
X144089418Y-124460000D01*
X144109730Y-124821705D01*
X144170413Y-125178865D01*
X144270709Y-125526998D01*
X144409341Y-125861686D01*
X144409346Y-125861697D01*
X144446313Y-125928583D01*
X144584585Y-126178769D01*
X144655754Y-126279073D01*
X144794229Y-126474235D01*
X145035634Y-126744366D01*
X145305765Y-126985771D01*
X145568461Y-127172163D01*
X145601230Y-127195414D01*
X145669915Y-127233374D01*
X145918303Y-127370654D01*
X146253006Y-127509292D01*
X146601128Y-127609585D01*
X146958290Y-127670269D01*
X147320000Y-127690582D01*
X147681710Y-127670269D01*
X148038872Y-127609585D01*
X148386994Y-127509292D01*
X148721697Y-127370654D01*
X149038773Y-127195412D01*
X149334235Y-126985771D01*
X149604366Y-126744366D01*
X149640048Y-126704437D01*
X149700355Y-126666971D01*
X149771343Y-126668057D01*
X149830475Y-126707350D01*
X149858977Y-126772374D01*
X149860000Y-126788396D01*
X149860000Y-134618097D01*
X149859885Y-134621902D01*
X149841711Y-134922355D01*
X149840793Y-134929914D01*
X149786880Y-135224108D01*
X149785057Y-135231502D01*
X149696074Y-135517057D01*
X149693374Y-135524177D01*
X149570624Y-135796917D01*
X149567085Y-135803659D01*
X149412351Y-136059622D01*
X149408025Y-136065888D01*
X149223568Y-136301331D01*
X149218519Y-136307030D01*
X149007030Y-136518519D01*
X149001331Y-136523568D01*
X148765888Y-136708025D01*
X148759622Y-136712351D01*
X148503659Y-136867085D01*
X148496917Y-136870624D01*
X148224177Y-136993374D01*
X148217057Y-136996074D01*
X147931502Y-137085057D01*
X147924108Y-137086880D01*
X147629914Y-137140793D01*
X147622355Y-137141711D01*
X147358782Y-137157654D01*
X147321900Y-137159885D01*
X147318097Y-137160000D01*
X114006487Y-137160000D01*
X113966925Y-137148383D01*
X113953567Y-137156227D01*
X113922965Y-137160000D01*
X109307487Y-137160000D01*
X109267925Y-137148383D01*
X109254567Y-137156227D01*
X109223965Y-137160000D01*
X105157209Y-137160000D01*
X105089088Y-137139998D01*
X105042595Y-137086342D01*
X105032491Y-137016068D01*
X105061985Y-136951488D01*
X105103191Y-136920166D01*
X105285730Y-136833551D01*
X105488300Y-136693727D01*
X105665817Y-136523220D01*
X105813684Y-136326444D01*
X105823874Y-136307030D01*
X105928071Y-136108499D01*
X105928072Y-136108496D01*
X105944389Y-136059622D01*
X106006017Y-135875024D01*
X106045500Y-135632070D01*
X106045500Y-133415559D01*
X106030654Y-133231657D01*
X105971749Y-132992669D01*
X105875270Y-132766224D01*
X105743716Y-132558189D01*
X105580494Y-132373950D01*
X105480446Y-132292263D01*
X105416454Y-132240015D01*
X105376337Y-132181439D01*
X105374258Y-132110473D01*
X105410876Y-132049648D01*
X105424560Y-132038723D01*
X105488300Y-131994727D01*
X105665817Y-131824220D01*
X105813684Y-131627444D01*
X105928072Y-131409497D01*
X106006017Y-131176024D01*
X106045500Y-130933070D01*
X106045500Y-130744249D01*
X106062381Y-130681249D01*
X106127866Y-130567826D01*
X106225252Y-130319692D01*
X106284567Y-130059815D01*
X106299500Y-129860547D01*
X106299499Y-127627387D01*
X106319501Y-127559267D01*
X106373157Y-127512774D01*
X106443431Y-127502670D01*
X106508011Y-127532164D01*
X106508481Y-127532572D01*
X106522269Y-127544664D01*
X106557847Y-127575866D01*
X106570820Y-127586513D01*
X106570825Y-127586517D01*
X106590697Y-127601767D01*
X106604371Y-127611566D01*
X106847286Y-127773878D01*
X106861566Y-127782757D01*
X106883248Y-127795274D01*
X106891166Y-127799505D01*
X106898062Y-127803192D01*
X107136338Y-127920697D01*
X107160073Y-127932402D01*
X107175385Y-127939340D01*
X107198532Y-127948927D01*
X107198534Y-127948928D01*
X107214260Y-127954847D01*
X107490880Y-128048746D01*
X107506962Y-128053624D01*
X107531166Y-128060110D01*
X107547530Y-128063926D01*
X107692068Y-128092676D01*
X107754978Y-128125583D01*
X107790110Y-128187278D01*
X107787003Y-128256155D01*
X107734982Y-128411977D01*
X107695501Y-128654917D01*
X107695500Y-128654934D01*
X107695500Y-130871445D01*
X107710345Y-131055338D01*
X107769251Y-131294332D01*
X107865729Y-131520774D01*
X107997284Y-131728811D01*
X108160505Y-131913049D01*
X108242110Y-131979678D01*
X108282226Y-132038255D01*
X108284305Y-132109221D01*
X108249705Y-132168149D01*
X108075180Y-132335782D01*
X108075176Y-132335787D01*
X107927314Y-132532558D01*
X107927312Y-132532560D01*
X107812928Y-132750500D01*
X107812927Y-132750503D01*
X107734982Y-132983977D01*
X107695501Y-133226917D01*
X107695500Y-133226934D01*
X107695500Y-135443445D01*
X107710345Y-135627338D01*
X107769251Y-135866332D01*
X107854274Y-136065888D01*
X107865730Y-136092776D01*
X107997284Y-136300811D01*
X108160506Y-136485050D01*
X108351168Y-136640721D01*
X108564332Y-136763791D01*
X108794478Y-136851074D01*
X109035644Y-136900309D01*
X109229040Y-136908102D01*
X109262288Y-136919338D01*
X109271989Y-136913104D01*
X109292298Y-136908919D01*
X109525931Y-136880551D01*
X109762345Y-136812072D01*
X109762348Y-136812072D01*
X109762349Y-136812071D01*
X109762354Y-136812070D01*
X109984730Y-136706551D01*
X110187300Y-136566727D01*
X110364817Y-136396220D01*
X110512684Y-136199444D01*
X110560418Y-136108496D01*
X110627071Y-135981499D01*
X110627072Y-135981496D01*
X110662618Y-135875024D01*
X110705017Y-135748024D01*
X110744500Y-135505070D01*
X110744500Y-133288559D01*
X110739906Y-133231657D01*
X110729654Y-133104661D01*
X110729654Y-133104657D01*
X110670749Y-132865669D01*
X110574270Y-132639224D01*
X110442716Y-132431189D01*
X110279494Y-132246950D01*
X110197886Y-132180319D01*
X110157773Y-132121746D01*
X110155693Y-132050780D01*
X110190292Y-131991852D01*
X110364817Y-131824220D01*
X110512684Y-131627444D01*
X110627072Y-131409497D01*
X110705017Y-131176024D01*
X110744500Y-130933070D01*
X110744500Y-128716559D01*
X110729654Y-128532657D01*
X110670749Y-128293669D01*
X110670748Y-128293664D01*
X110658636Y-128265237D01*
X110650336Y-128194727D01*
X110681474Y-128130924D01*
X110742164Y-128094083D01*
X110749965Y-128092271D01*
X110781969Y-128085905D01*
X110892469Y-128063926D01*
X110905019Y-128060998D01*
X110908836Y-128060109D01*
X110920936Y-128056866D01*
X110933037Y-128053624D01*
X110949118Y-128048746D01*
X111225739Y-127954847D01*
X111241465Y-127948928D01*
X111264614Y-127939340D01*
X111279925Y-127932402D01*
X111541931Y-127803195D01*
X111556746Y-127795277D01*
X111578440Y-127782753D01*
X111592712Y-127773878D01*
X111592717Y-127773875D01*
X111835625Y-127611570D01*
X111849302Y-127601768D01*
X111849303Y-127601767D01*
X111869179Y-127586513D01*
X111882153Y-127575865D01*
X111931425Y-127532654D01*
X111995827Y-127502779D01*
X112066160Y-127512465D01*
X112120091Y-127558638D01*
X112140498Y-127626638D01*
X112140500Y-127627387D01*
X112140500Y-129860547D01*
X112155433Y-130059815D01*
X112155434Y-130059819D01*
X112214746Y-130319687D01*
X112312130Y-130567819D01*
X112312132Y-130567823D01*
X112377619Y-130681249D01*
X112394500Y-130744249D01*
X112394500Y-130871445D01*
X112409345Y-131055338D01*
X112468251Y-131294332D01*
X112564729Y-131520774D01*
X112696284Y-131728811D01*
X112859505Y-131913049D01*
X112941110Y-131979678D01*
X112981226Y-132038255D01*
X112983305Y-132109221D01*
X112948705Y-132168149D01*
X112774180Y-132335782D01*
X112774176Y-132335787D01*
X112626314Y-132532558D01*
X112626312Y-132532560D01*
X112511928Y-132750500D01*
X112511927Y-132750503D01*
X112433982Y-132983977D01*
X112394501Y-133226917D01*
X112394500Y-133226934D01*
X112394500Y-135443445D01*
X112409345Y-135627338D01*
X112468251Y-135866332D01*
X112553274Y-136065888D01*
X112564730Y-136092776D01*
X112696284Y-136300811D01*
X112859506Y-136485050D01*
X113050168Y-136640721D01*
X113263332Y-136763791D01*
X113493478Y-136851074D01*
X113734644Y-136900309D01*
X113928040Y-136908102D01*
X113961288Y-136919338D01*
X113970989Y-136913104D01*
X113991298Y-136908919D01*
X114224931Y-136880551D01*
X114461345Y-136812072D01*
X114461348Y-136812072D01*
X114461349Y-136812071D01*
X114461354Y-136812070D01*
X114683730Y-136706551D01*
X114886300Y-136566727D01*
X115063817Y-136396220D01*
X115211684Y-136199444D01*
X115259418Y-136108496D01*
X115326071Y-135981499D01*
X115326072Y-135981496D01*
X115361618Y-135875024D01*
X115404017Y-135748024D01*
X115443500Y-135505070D01*
X115443500Y-133288559D01*
X115438906Y-133231657D01*
X115428654Y-133104661D01*
X115428654Y-133104657D01*
X115369749Y-132865669D01*
X115273270Y-132639224D01*
X115141716Y-132431189D01*
X114978494Y-132246950D01*
X114896886Y-132180319D01*
X114856773Y-132121746D01*
X114854693Y-132050780D01*
X114889292Y-131991852D01*
X115063817Y-131824220D01*
X115211684Y-131627444D01*
X115326072Y-131409497D01*
X115404017Y-131176024D01*
X115443500Y-130933070D01*
X115443500Y-130744249D01*
X115460381Y-130681249D01*
X115525866Y-130567826D01*
X115623252Y-130319692D01*
X115682567Y-130059815D01*
X115697500Y-129860547D01*
X115697500Y-128270004D01*
X122347074Y-128270004D01*
X122366752Y-128557696D01*
X122366753Y-128557702D01*
X122425425Y-128840054D01*
X122425427Y-128840062D01*
X122522002Y-129111798D01*
X122654672Y-129367836D01*
X122654676Y-129367842D01*
X122798787Y-129572001D01*
X123741155Y-128629633D01*
X123830577Y-128771948D01*
X123958052Y-128899423D01*
X124100364Y-128988843D01*
X123159630Y-129929577D01*
X123241514Y-129996194D01*
X123487922Y-130146038D01*
X123752422Y-130260926D01*
X124030111Y-130338731D01*
X124030120Y-130338733D01*
X124315795Y-130377999D01*
X124315809Y-130378000D01*
X124604191Y-130378000D01*
X124604204Y-130377999D01*
X124889879Y-130338733D01*
X124889888Y-130338731D01*
X125167577Y-130260926D01*
X125432077Y-130146038D01*
X125678490Y-129996191D01*
X125760367Y-129929578D01*
X125760367Y-129929577D01*
X124819634Y-128988844D01*
X124961948Y-128899423D01*
X125089423Y-128771948D01*
X125178844Y-128629634D01*
X126121212Y-129572001D01*
X126265319Y-129367850D01*
X126265328Y-129367835D01*
X126397997Y-129111798D01*
X126494572Y-128840062D01*
X126494574Y-128840054D01*
X126553246Y-128557702D01*
X126553247Y-128557696D01*
X126572926Y-128270004D01*
X127427074Y-128270004D01*
X127446752Y-128557696D01*
X127446753Y-128557702D01*
X127505425Y-128840054D01*
X127505427Y-128840062D01*
X127602002Y-129111798D01*
X127734672Y-129367836D01*
X127734676Y-129367842D01*
X127878787Y-129572002D01*
X128821155Y-128629633D01*
X128910577Y-128771948D01*
X129038052Y-128899423D01*
X129180364Y-128988843D01*
X128239630Y-129929577D01*
X128321514Y-129996194D01*
X128567922Y-130146038D01*
X128832422Y-130260926D01*
X129110111Y-130338731D01*
X129110120Y-130338733D01*
X129395795Y-130377999D01*
X129395809Y-130378000D01*
X129684191Y-130378000D01*
X129684204Y-130377999D01*
X129969879Y-130338733D01*
X129969888Y-130338731D01*
X130247577Y-130260926D01*
X130512077Y-130146038D01*
X130758490Y-129996191D01*
X130840367Y-129929578D01*
X130840367Y-129929577D01*
X129899634Y-128988844D01*
X130041948Y-128899423D01*
X130169423Y-128771948D01*
X130258843Y-128629634D01*
X131201211Y-129572002D01*
X131201212Y-129572001D01*
X131345319Y-129367850D01*
X131345328Y-129367835D01*
X131477997Y-129111798D01*
X131574572Y-128840062D01*
X131574574Y-128840054D01*
X131633246Y-128557702D01*
X131633247Y-128557696D01*
X131652926Y-128270004D01*
X132507074Y-128270004D01*
X132526752Y-128557696D01*
X132526753Y-128557702D01*
X132585425Y-128840054D01*
X132585427Y-128840062D01*
X132682002Y-129111798D01*
X132814672Y-129367836D01*
X132814676Y-129367842D01*
X132958787Y-129572002D01*
X133901155Y-128629634D01*
X133990577Y-128771948D01*
X134118052Y-128899423D01*
X134260364Y-128988843D01*
X133319630Y-129929577D01*
X133401514Y-129996194D01*
X133647922Y-130146038D01*
X133912422Y-130260926D01*
X134190111Y-130338731D01*
X134190120Y-130338733D01*
X134475795Y-130377999D01*
X134475809Y-130378000D01*
X134764191Y-130378000D01*
X134764204Y-130377999D01*
X135049879Y-130338733D01*
X135049888Y-130338731D01*
X135327577Y-130260926D01*
X135592077Y-130146038D01*
X135838490Y-129996191D01*
X135920367Y-129929578D01*
X135920367Y-129929577D01*
X134979634Y-128988844D01*
X135121948Y-128899423D01*
X135249423Y-128771948D01*
X135338844Y-128629634D01*
X136281211Y-129572002D01*
X136281212Y-129572001D01*
X136425319Y-129367850D01*
X136425328Y-129367835D01*
X136557997Y-129111798D01*
X136654572Y-128840062D01*
X136654574Y-128840054D01*
X136713246Y-128557702D01*
X136713247Y-128557696D01*
X136732926Y-128270004D01*
X137587074Y-128270004D01*
X137606752Y-128557696D01*
X137606753Y-128557702D01*
X137665425Y-128840054D01*
X137665427Y-128840062D01*
X137762002Y-129111798D01*
X137894672Y-129367836D01*
X137894676Y-129367842D01*
X138038787Y-129572002D01*
X138981155Y-128629634D01*
X139070577Y-128771948D01*
X139198052Y-128899423D01*
X139340364Y-128988843D01*
X138399630Y-129929577D01*
X138481514Y-129996194D01*
X138727922Y-130146038D01*
X138992422Y-130260926D01*
X139270111Y-130338731D01*
X139270120Y-130338733D01*
X139555795Y-130377999D01*
X139555809Y-130378000D01*
X139844191Y-130378000D01*
X139844204Y-130377999D01*
X140129879Y-130338733D01*
X140129888Y-130338731D01*
X140407577Y-130260926D01*
X140672077Y-130146038D01*
X140918490Y-129996191D01*
X141000367Y-129929578D01*
X141000367Y-129929577D01*
X140059634Y-128988844D01*
X140201948Y-128899423D01*
X140329423Y-128771948D01*
X140418844Y-128629634D01*
X141361211Y-129572002D01*
X141361212Y-129572001D01*
X141505319Y-129367850D01*
X141505328Y-129367835D01*
X141637997Y-129111798D01*
X141734572Y-128840062D01*
X141734574Y-128840054D01*
X141793246Y-128557702D01*
X141793247Y-128557696D01*
X141812926Y-128270004D01*
X141812926Y-128269995D01*
X141793247Y-127982303D01*
X141793246Y-127982297D01*
X141734574Y-127699945D01*
X141734572Y-127699937D01*
X141637997Y-127428201D01*
X141505327Y-127172163D01*
X141505324Y-127172157D01*
X141361211Y-126967997D01*
X140418843Y-127910364D01*
X140329423Y-127768052D01*
X140201948Y-127640577D01*
X140059634Y-127551155D01*
X141000368Y-126610422D01*
X141000367Y-126610421D01*
X140918485Y-126543805D01*
X140672077Y-126393961D01*
X140407577Y-126279073D01*
X140129888Y-126201268D01*
X140129879Y-126201266D01*
X139844204Y-126162000D01*
X139555795Y-126162000D01*
X139270120Y-126201266D01*
X139270111Y-126201268D01*
X138992422Y-126279073D01*
X138727918Y-126393962D01*
X138481517Y-126543802D01*
X138399631Y-126610421D01*
X138399630Y-126610421D01*
X139340365Y-127551156D01*
X139198052Y-127640577D01*
X139070577Y-127768052D01*
X138981156Y-127910365D01*
X138038787Y-126967996D01*
X137894674Y-127172160D01*
X137894672Y-127172163D01*
X137762002Y-127428201D01*
X137665427Y-127699937D01*
X137665425Y-127699945D01*
X137606753Y-127982297D01*
X137606752Y-127982303D01*
X137587074Y-128269995D01*
X137587074Y-128270004D01*
X136732926Y-128270004D01*
X136732926Y-128269995D01*
X136713247Y-127982303D01*
X136713246Y-127982297D01*
X136654574Y-127699945D01*
X136654572Y-127699937D01*
X136557997Y-127428201D01*
X136425327Y-127172163D01*
X136425324Y-127172157D01*
X136281211Y-126967997D01*
X135338843Y-127910364D01*
X135249423Y-127768052D01*
X135121948Y-127640577D01*
X134979634Y-127551155D01*
X135920368Y-126610422D01*
X135920367Y-126610421D01*
X135838485Y-126543805D01*
X135592077Y-126393961D01*
X135327577Y-126279073D01*
X135049888Y-126201268D01*
X135049879Y-126201266D01*
X134764204Y-126162000D01*
X134475795Y-126162000D01*
X134190120Y-126201266D01*
X134190111Y-126201268D01*
X133912422Y-126279073D01*
X133647918Y-126393962D01*
X133401517Y-126543802D01*
X133319631Y-126610421D01*
X133319630Y-126610421D01*
X134260365Y-127551156D01*
X134118052Y-127640577D01*
X133990577Y-127768052D01*
X133901156Y-127910365D01*
X132958787Y-126967996D01*
X132814674Y-127172160D01*
X132814672Y-127172163D01*
X132682002Y-127428201D01*
X132585427Y-127699937D01*
X132585425Y-127699945D01*
X132526753Y-127982297D01*
X132526752Y-127982303D01*
X132507074Y-128269995D01*
X132507074Y-128270004D01*
X131652926Y-128270004D01*
X131652926Y-128269995D01*
X131633247Y-127982303D01*
X131633246Y-127982297D01*
X131574574Y-127699945D01*
X131574572Y-127699937D01*
X131477997Y-127428201D01*
X131345327Y-127172163D01*
X131345324Y-127172157D01*
X131201211Y-126967997D01*
X130258843Y-127910364D01*
X130169423Y-127768052D01*
X130041948Y-127640577D01*
X129899634Y-127551155D01*
X130840368Y-126610422D01*
X130840367Y-126610421D01*
X130758485Y-126543805D01*
X130512077Y-126393961D01*
X130247577Y-126279073D01*
X129969888Y-126201268D01*
X129969879Y-126201266D01*
X129684204Y-126162000D01*
X129395795Y-126162000D01*
X129110120Y-126201266D01*
X129110111Y-126201268D01*
X128832422Y-126279073D01*
X128567918Y-126393962D01*
X128321517Y-126543802D01*
X128239631Y-126610421D01*
X128239630Y-126610421D01*
X129180365Y-127551156D01*
X129038052Y-127640577D01*
X128910577Y-127768052D01*
X128821155Y-127910365D01*
X127878787Y-126967996D01*
X127734674Y-127172160D01*
X127734672Y-127172163D01*
X127602002Y-127428201D01*
X127505427Y-127699937D01*
X127505425Y-127699945D01*
X127446753Y-127982297D01*
X127446752Y-127982303D01*
X127427074Y-128269995D01*
X127427074Y-128270004D01*
X126572926Y-128270004D01*
X126572926Y-128269995D01*
X126553247Y-127982303D01*
X126553246Y-127982297D01*
X126494574Y-127699945D01*
X126494572Y-127699937D01*
X126397997Y-127428201D01*
X126265327Y-127172163D01*
X126265324Y-127172157D01*
X126121211Y-126967997D01*
X125178843Y-127910364D01*
X125089423Y-127768052D01*
X124961948Y-127640577D01*
X124819634Y-127551155D01*
X125760368Y-126610421D01*
X125678485Y-126543805D01*
X125432077Y-126393961D01*
X125167577Y-126279073D01*
X124889888Y-126201268D01*
X124889879Y-126201266D01*
X124604204Y-126162000D01*
X124315795Y-126162000D01*
X124030120Y-126201266D01*
X124030111Y-126201268D01*
X123752422Y-126279073D01*
X123487918Y-126393962D01*
X123241517Y-126543802D01*
X123159631Y-126610421D01*
X123159630Y-126610422D01*
X124100364Y-127551156D01*
X123958052Y-127640577D01*
X123830577Y-127768052D01*
X123741156Y-127910365D01*
X122798787Y-126967996D01*
X122654674Y-127172160D01*
X122654672Y-127172163D01*
X122522002Y-127428201D01*
X122425427Y-127699937D01*
X122425425Y-127699945D01*
X122366753Y-127982297D01*
X122366752Y-127982303D01*
X122347074Y-128269995D01*
X122347074Y-128270004D01*
X115697500Y-128270004D01*
X115697500Y-118860649D01*
X118109500Y-118860649D01*
X118116009Y-118921196D01*
X118116011Y-118921204D01*
X118167110Y-119058202D01*
X118167112Y-119058207D01*
X118254738Y-119175261D01*
X118371792Y-119262887D01*
X118371794Y-119262888D01*
X118371796Y-119262889D01*
X118430875Y-119284924D01*
X118508795Y-119313988D01*
X118508803Y-119313990D01*
X118569350Y-119320499D01*
X118569355Y-119320499D01*
X118569362Y-119320500D01*
X118569368Y-119320500D01*
X120190632Y-119320500D01*
X120190638Y-119320500D01*
X120190645Y-119320499D01*
X120190649Y-119320499D01*
X120251196Y-119313990D01*
X120251199Y-119313989D01*
X120251201Y-119313989D01*
X120388204Y-119262889D01*
X120505261Y-119175261D01*
X120592889Y-119058204D01*
X120643989Y-118921201D01*
X120650499Y-118860649D01*
X138429500Y-118860649D01*
X138436009Y-118921196D01*
X138436011Y-118921204D01*
X138487110Y-119058202D01*
X138487112Y-119058207D01*
X138574738Y-119175261D01*
X138691792Y-119262887D01*
X138691794Y-119262888D01*
X138691796Y-119262889D01*
X138750875Y-119284924D01*
X138828795Y-119313988D01*
X138828803Y-119313990D01*
X138889350Y-119320499D01*
X138889355Y-119320499D01*
X138889362Y-119320500D01*
X138889368Y-119320500D01*
X140510632Y-119320500D01*
X140510638Y-119320500D01*
X140510645Y-119320499D01*
X140510649Y-119320499D01*
X140571196Y-119313990D01*
X140571199Y-119313989D01*
X140571201Y-119313989D01*
X140708204Y-119262889D01*
X140825261Y-119175261D01*
X140912889Y-119058204D01*
X140963989Y-118921201D01*
X140970500Y-118860638D01*
X140970500Y-117239362D01*
X140970499Y-117239350D01*
X140963990Y-117178803D01*
X140963988Y-117178795D01*
X140912889Y-117041797D01*
X140912887Y-117041792D01*
X140825261Y-116924738D01*
X140708207Y-116837112D01*
X140708202Y-116837110D01*
X140571204Y-116786011D01*
X140571196Y-116786009D01*
X140510649Y-116779500D01*
X140510638Y-116779500D01*
X138889362Y-116779500D01*
X138889350Y-116779500D01*
X138828803Y-116786009D01*
X138828795Y-116786011D01*
X138691797Y-116837110D01*
X138691792Y-116837112D01*
X138574738Y-116924738D01*
X138487112Y-117041792D01*
X138487110Y-117041797D01*
X138436011Y-117178795D01*
X138436009Y-117178803D01*
X138429500Y-117239350D01*
X138429500Y-118860649D01*
X120650499Y-118860649D01*
X120650500Y-118860638D01*
X120650500Y-117239362D01*
X120650499Y-117239350D01*
X120643990Y-117178803D01*
X120643988Y-117178795D01*
X120592889Y-117041797D01*
X120592887Y-117041792D01*
X120505261Y-116924738D01*
X120388207Y-116837112D01*
X120388202Y-116837110D01*
X120251204Y-116786011D01*
X120251196Y-116786009D01*
X120190649Y-116779500D01*
X120190638Y-116779500D01*
X118569362Y-116779500D01*
X118569350Y-116779500D01*
X118508803Y-116786009D01*
X118508795Y-116786011D01*
X118371797Y-116837110D01*
X118371792Y-116837112D01*
X118254738Y-116924738D01*
X118167112Y-117041792D01*
X118167110Y-117041797D01*
X118116011Y-117178795D01*
X118116009Y-117178803D01*
X118109500Y-117239350D01*
X118109500Y-118860649D01*
X115697500Y-118860649D01*
X115697500Y-110549999D01*
X118105149Y-110549999D01*
X118124517Y-110771374D01*
X118182031Y-110986023D01*
X118182033Y-110986027D01*
X118275946Y-111187425D01*
X118320184Y-111250603D01*
X118320185Y-111250603D01*
X118889193Y-110681595D01*
X118913155Y-110763201D01*
X118992131Y-110886090D01*
X119102530Y-110981752D01*
X119235408Y-111042435D01*
X119245345Y-111043863D01*
X118679395Y-111609813D01*
X118679395Y-111609814D01*
X118742575Y-111654053D01*
X118742574Y-111654053D01*
X118943972Y-111747966D01*
X118943976Y-111747968D01*
X119158625Y-111805482D01*
X119380000Y-111824850D01*
X119601374Y-111805482D01*
X119816023Y-111747968D01*
X119816027Y-111747966D01*
X120017425Y-111654053D01*
X120017426Y-111654052D01*
X120080603Y-111609814D01*
X120080603Y-111609812D01*
X119514654Y-111043863D01*
X119524592Y-111042435D01*
X119657470Y-110981752D01*
X119767869Y-110886090D01*
X119846845Y-110763201D01*
X119870805Y-110681596D01*
X120439812Y-111250603D01*
X120439814Y-111250603D01*
X120484052Y-111187426D01*
X120484053Y-111187425D01*
X120577966Y-110986027D01*
X120577968Y-110986023D01*
X120635482Y-110771374D01*
X120654850Y-110549999D01*
X138425149Y-110549999D01*
X138444517Y-110771374D01*
X138502031Y-110986023D01*
X138502033Y-110986027D01*
X138595946Y-111187425D01*
X138640185Y-111250603D01*
X139209193Y-110681594D01*
X139233155Y-110763201D01*
X139312131Y-110886090D01*
X139422530Y-110981752D01*
X139555408Y-111042435D01*
X139565345Y-111043863D01*
X138999395Y-111609813D01*
X138999395Y-111609814D01*
X139062575Y-111654053D01*
X139062574Y-111654053D01*
X139263972Y-111747966D01*
X139263976Y-111747968D01*
X139478625Y-111805482D01*
X139700000Y-111824850D01*
X139921374Y-111805482D01*
X140136023Y-111747968D01*
X140136027Y-111747966D01*
X140337425Y-111654053D01*
X140337426Y-111654052D01*
X140400603Y-111609814D01*
X140400603Y-111609812D01*
X139834654Y-111043863D01*
X139844592Y-111042435D01*
X139977470Y-110981752D01*
X140087869Y-110886090D01*
X140166845Y-110763201D01*
X140190805Y-110681596D01*
X140759812Y-111250603D01*
X140759814Y-111250603D01*
X140804052Y-111187426D01*
X140804053Y-111187425D01*
X140897966Y-110986027D01*
X140897968Y-110986023D01*
X140955482Y-110771374D01*
X140974850Y-110550000D01*
X140955482Y-110328625D01*
X140897968Y-110113976D01*
X140897966Y-110113972D01*
X140804051Y-109912571D01*
X140759814Y-109849395D01*
X140190805Y-110418402D01*
X140166845Y-110336799D01*
X140087869Y-110213910D01*
X139977470Y-110118248D01*
X139844592Y-110057565D01*
X139834652Y-110056135D01*
X140400603Y-109490185D01*
X140337424Y-109445946D01*
X140337425Y-109445946D01*
X140136027Y-109352033D01*
X140136023Y-109352031D01*
X139921374Y-109294517D01*
X139700000Y-109275149D01*
X139478625Y-109294517D01*
X139263976Y-109352031D01*
X139263972Y-109352033D01*
X139062575Y-109445946D01*
X138999394Y-109490185D01*
X139565345Y-110056136D01*
X139555408Y-110057565D01*
X139422530Y-110118248D01*
X139312131Y-110213910D01*
X139233155Y-110336799D01*
X139209194Y-110418403D01*
X138640185Y-109849394D01*
X138595946Y-109912575D01*
X138502033Y-110113972D01*
X138502031Y-110113976D01*
X138444517Y-110328625D01*
X138425149Y-110549999D01*
X120654850Y-110549999D01*
X120635482Y-110328625D01*
X120577968Y-110113976D01*
X120577966Y-110113972D01*
X120484051Y-109912571D01*
X120439815Y-109849395D01*
X120439813Y-109849395D01*
X119870805Y-110418402D01*
X119846845Y-110336799D01*
X119767869Y-110213910D01*
X119657470Y-110118248D01*
X119524592Y-110057565D01*
X119514653Y-110056136D01*
X120080603Y-109490185D01*
X120080603Y-109490184D01*
X120017425Y-109445946D01*
X119816027Y-109352033D01*
X119816023Y-109352031D01*
X119601374Y-109294517D01*
X119380000Y-109275149D01*
X119158625Y-109294517D01*
X118943976Y-109352031D01*
X118943972Y-109352033D01*
X118742575Y-109445946D01*
X118679394Y-109490185D01*
X119245345Y-110056136D01*
X119235408Y-110057565D01*
X119102530Y-110118248D01*
X118992131Y-110213910D01*
X118913155Y-110336799D01*
X118889194Y-110418403D01*
X118320185Y-109849394D01*
X118275946Y-109912575D01*
X118182033Y-110113972D01*
X118182031Y-110113976D01*
X118124517Y-110328625D01*
X118105149Y-110549999D01*
X115697500Y-110549999D01*
X115697500Y-90078015D01*
X115697576Y-90074923D01*
X115700771Y-90009911D01*
X115712798Y-89765134D01*
X115713404Y-89758979D01*
X115713405Y-89758973D01*
X115758692Y-89453689D01*
X115759896Y-89447640D01*
X115834890Y-89148261D01*
X115836682Y-89142351D01*
X115940661Y-88851761D01*
X115943017Y-88846071D01*
X116074987Y-88567052D01*
X116077890Y-88561624D01*
X116236570Y-88296888D01*
X116239979Y-88291785D01*
X116423856Y-88043863D01*
X116427754Y-88039115D01*
X116636735Y-87808546D01*
X116638789Y-87806389D01*
X116727017Y-87718164D01*
X116727018Y-87718160D01*
X116732062Y-87713118D01*
X116732080Y-87713098D01*
X117268841Y-87176336D01*
X117323937Y-87144106D01*
X117547744Y-87081400D01*
X117812314Y-86966481D01*
X118058772Y-86816606D01*
X118282526Y-86634568D01*
X118479409Y-86423758D01*
X118645753Y-86188103D01*
X118778459Y-85931992D01*
X118875055Y-85660196D01*
X118933742Y-85377778D01*
X118936328Y-85339971D01*
X118953427Y-85090004D01*
X119807074Y-85090004D01*
X119826752Y-85377696D01*
X119826753Y-85377702D01*
X119885425Y-85660054D01*
X119885427Y-85660062D01*
X119982002Y-85931798D01*
X120114672Y-86187836D01*
X120114676Y-86187842D01*
X120258787Y-86392002D01*
X121201155Y-85449634D01*
X121290577Y-85591948D01*
X121418052Y-85719423D01*
X121560364Y-85808843D01*
X120619630Y-86749577D01*
X120701514Y-86816194D01*
X120947922Y-86966038D01*
X121212422Y-87080926D01*
X121490111Y-87158731D01*
X121490120Y-87158733D01*
X121775795Y-87197999D01*
X121775809Y-87198000D01*
X122064191Y-87198000D01*
X122064204Y-87197999D01*
X122349879Y-87158733D01*
X122349888Y-87158731D01*
X122627577Y-87080926D01*
X122892077Y-86966038D01*
X123138490Y-86816191D01*
X123220367Y-86749578D01*
X123220367Y-86749577D01*
X122279634Y-85808844D01*
X122421948Y-85719423D01*
X122549423Y-85591948D01*
X122638843Y-85449634D01*
X123581211Y-86392002D01*
X123581212Y-86392001D01*
X123725319Y-86187850D01*
X123725328Y-86187835D01*
X123857997Y-85931798D01*
X123954572Y-85660062D01*
X123954574Y-85660054D01*
X124013246Y-85377702D01*
X124013247Y-85377696D01*
X124032926Y-85090004D01*
X124032926Y-85089995D01*
X124013247Y-84802303D01*
X124013246Y-84802297D01*
X123954574Y-84519945D01*
X123954572Y-84519937D01*
X123857997Y-84248201D01*
X123725327Y-83992163D01*
X123725324Y-83992157D01*
X123581211Y-83787997D01*
X122638843Y-84730364D01*
X122549423Y-84588052D01*
X122421948Y-84460577D01*
X122279634Y-84371155D01*
X123220368Y-83430422D01*
X123220367Y-83430421D01*
X123138485Y-83363805D01*
X122892077Y-83213961D01*
X122627577Y-83099073D01*
X122349888Y-83021268D01*
X122349879Y-83021266D01*
X122064204Y-82982000D01*
X121775795Y-82982000D01*
X121490120Y-83021266D01*
X121490111Y-83021268D01*
X121212422Y-83099073D01*
X120947918Y-83213962D01*
X120701517Y-83363802D01*
X120619631Y-83430421D01*
X120619630Y-83430421D01*
X121560365Y-84371156D01*
X121418052Y-84460577D01*
X121290577Y-84588052D01*
X121201156Y-84730365D01*
X120258787Y-83787996D01*
X120114674Y-83992160D01*
X120114672Y-83992163D01*
X119982002Y-84248201D01*
X119885427Y-84519937D01*
X119885425Y-84519945D01*
X119826753Y-84802297D01*
X119826752Y-84802303D01*
X119807074Y-85089995D01*
X119807074Y-85090004D01*
X118953427Y-85090004D01*
X118953427Y-85090003D01*
X118953427Y-85089996D01*
X118933743Y-84802234D01*
X118933742Y-84802229D01*
X118933742Y-84802222D01*
X118875055Y-84519804D01*
X118778459Y-84248008D01*
X118645753Y-83991897D01*
X118479409Y-83756242D01*
X118282526Y-83545432D01*
X118282516Y-83545424D01*
X118282512Y-83545420D01*
X118058779Y-83363399D01*
X118058775Y-83363396D01*
X118058772Y-83363394D01*
X117812314Y-83213519D01*
X117812310Y-83213517D01*
X117812308Y-83213516D01*
X117703713Y-83166347D01*
X117547744Y-83098600D01*
X117320354Y-83034888D01*
X117269986Y-83020776D01*
X117269988Y-83020776D01*
X116984238Y-82981500D01*
X116984225Y-82981500D01*
X116695775Y-82981500D01*
X116695761Y-82981500D01*
X116410012Y-83020776D01*
X116237572Y-83069091D01*
X116132256Y-83098600D01*
X116132253Y-83098601D01*
X116132254Y-83098601D01*
X115867691Y-83213516D01*
X115621220Y-83363399D01*
X115397487Y-83545420D01*
X115397471Y-83545435D01*
X115200591Y-83756242D01*
X115034247Y-83991896D01*
X115034247Y-83991897D01*
X114901541Y-84248007D01*
X114804945Y-84519802D01*
X114804940Y-84519822D01*
X114788974Y-84596654D01*
X114755531Y-84659281D01*
X114754706Y-84660113D01*
X114074827Y-85339994D01*
X114073994Y-85340890D01*
X113951114Y-85463767D01*
X113634666Y-85828958D01*
X113345080Y-86215790D01*
X113345079Y-86215791D01*
X113083823Y-86622302D01*
X112852235Y-87046412D01*
X112852231Y-87046420D01*
X112852231Y-87046419D01*
X112651497Y-87485952D01*
X112651492Y-87485964D01*
X112530913Y-87809238D01*
X112482617Y-87938721D01*
X112482616Y-87938722D01*
X112482616Y-87938721D01*
X112451735Y-88043889D01*
X112346474Y-88402362D01*
X112243753Y-88874540D01*
X112174979Y-89352842D01*
X112140502Y-89834832D01*
X112140502Y-89834837D01*
X112140500Y-90009903D01*
X112140500Y-90076443D01*
X112140499Y-90206217D01*
X112140500Y-90206241D01*
X112140500Y-116190109D01*
X112120498Y-116258230D01*
X112066842Y-116304723D01*
X111996568Y-116314827D01*
X111931988Y-116285333D01*
X111925405Y-116279204D01*
X110661701Y-115015502D01*
X110643276Y-114998473D01*
X110454458Y-114837208D01*
X110454455Y-114837206D01*
X110438623Y-114824724D01*
X110422468Y-114812986D01*
X110406315Y-114801249D01*
X110389554Y-114790051D01*
X110389541Y-114790042D01*
X110184135Y-114664169D01*
X110166536Y-114654313D01*
X110130949Y-114636182D01*
X110122506Y-114632289D01*
X110112636Y-114627739D01*
X110060280Y-114606052D01*
X110005000Y-114561503D01*
X109982580Y-114494139D01*
X109982500Y-114489644D01*
X109982500Y-91982872D01*
X109999380Y-91919873D01*
X110060407Y-91814173D01*
X110119837Y-91631266D01*
X110139940Y-91440000D01*
X110119837Y-91248734D01*
X110060407Y-91065827D01*
X109999381Y-90960126D01*
X109982500Y-90897126D01*
X109982500Y-80552872D01*
X109999381Y-80489872D01*
X110060407Y-80384173D01*
X110119837Y-80201266D01*
X110139940Y-80010000D01*
X110119837Y-79818734D01*
X110116024Y-79806998D01*
X110060409Y-79635832D01*
X110060405Y-79635824D01*
X109964249Y-79469276D01*
X109964248Y-79469275D01*
X109964247Y-79469273D01*
X109907907Y-79406701D01*
X109835560Y-79326350D01*
X109679972Y-79213310D01*
X109679971Y-79213309D01*
X109504277Y-79135085D01*
X109316161Y-79095100D01*
X109316160Y-79095100D01*
X109123840Y-79095100D01*
X109123839Y-79095100D01*
X108935722Y-79135085D01*
X108760028Y-79213309D01*
X108760027Y-79213310D01*
X108604439Y-79326350D01*
X108475750Y-79469276D01*
X108379594Y-79635824D01*
X108379590Y-79635832D01*
X108320162Y-79818733D01*
X108300060Y-80009999D01*
X108320162Y-80201266D01*
X108379592Y-80384172D01*
X108379593Y-80384174D01*
X108440618Y-80489872D01*
X108457499Y-80552872D01*
X108457499Y-90897126D01*
X108440619Y-90960125D01*
X108379592Y-91065827D01*
X108379590Y-91065832D01*
X108320162Y-91248733D01*
X108300060Y-91440000D01*
X108320162Y-91631266D01*
X108379591Y-91814171D01*
X108410342Y-91867431D01*
X108440619Y-91919873D01*
X108457500Y-91982872D01*
X108457500Y-114489644D01*
X108437498Y-114557765D01*
X108383842Y-114604258D01*
X108379719Y-114606052D01*
X108327364Y-114627739D01*
X108327362Y-114627740D01*
X108309065Y-114636175D01*
X108273489Y-114654298D01*
X108255873Y-114664162D01*
X108255874Y-114664162D01*
X108050444Y-114790050D01*
X108050443Y-114790051D01*
X108033662Y-114801265D01*
X108020071Y-114811139D01*
X108001368Y-114824730D01*
X107985544Y-114837206D01*
X107796708Y-114998486D01*
X107778308Y-115015492D01*
X106514595Y-116279204D01*
X106452283Y-116313230D01*
X106381468Y-116308165D01*
X106324632Y-116265618D01*
X106299821Y-116199098D01*
X106299500Y-116190109D01*
X106299500Y-90203650D01*
X106299501Y-90203644D01*
X106299500Y-90128649D01*
X106299516Y-90128593D01*
X106299516Y-90076443D01*
X106299517Y-90076443D01*
X106299515Y-89834832D01*
X106265039Y-89352843D01*
X106265038Y-89352842D01*
X106265038Y-89352830D01*
X106196266Y-88874543D01*
X106196266Y-88874541D01*
X106196266Y-88874540D01*
X106093547Y-88402363D01*
X106062581Y-88296906D01*
X105957403Y-87938709D01*
X105957403Y-87938710D01*
X105957402Y-87938709D01*
X105873249Y-87713088D01*
X105788535Y-87485963D01*
X105788533Y-87485959D01*
X105788531Y-87485953D01*
X105788530Y-87485952D01*
X105587797Y-87046413D01*
X105587796Y-87046411D01*
X105356211Y-86622298D01*
X105094961Y-86215787D01*
X104805377Y-85828949D01*
X104488934Y-85463755D01*
X104366309Y-85341131D01*
X104366293Y-85341114D01*
X104115174Y-85089995D01*
X103685292Y-84660113D01*
X103651269Y-84597803D01*
X103651024Y-84596655D01*
X103651024Y-84596654D01*
X103635055Y-84519804D01*
X103538459Y-84248008D01*
X103405753Y-83991897D01*
X103239409Y-83756242D01*
X103042526Y-83545432D01*
X103042516Y-83545424D01*
X103042512Y-83545420D01*
X102818779Y-83363399D01*
X102818775Y-83363396D01*
X102818772Y-83363394D01*
X102572314Y-83213519D01*
X102572310Y-83213517D01*
X102572308Y-83213516D01*
X102463713Y-83166347D01*
X102307744Y-83098600D01*
X102080354Y-83034888D01*
X102029986Y-83020776D01*
X102029988Y-83020776D01*
X101744238Y-82981500D01*
X101744225Y-82981500D01*
X101455775Y-82981500D01*
X101455761Y-82981500D01*
X101170012Y-83020776D01*
X100997572Y-83069091D01*
X100892256Y-83098600D01*
X100892253Y-83098601D01*
X100892254Y-83098601D01*
X100627691Y-83213516D01*
X100381220Y-83363399D01*
X100157487Y-83545420D01*
X100157471Y-83545435D01*
X99960591Y-83756242D01*
X99794247Y-83991896D01*
X99794247Y-83991897D01*
X99661541Y-84248007D01*
X99564945Y-84519802D01*
X99564943Y-84519810D01*
X99506257Y-84802229D01*
X99506256Y-84802234D01*
X99486573Y-85089996D01*
X99486573Y-85090003D01*
X99506256Y-85377765D01*
X99506257Y-85377770D01*
X99506258Y-85377778D01*
X99519043Y-85439303D01*
X99564943Y-85660189D01*
X99564945Y-85660197D01*
X99624920Y-85828950D01*
X99661541Y-85931992D01*
X99794247Y-86188103D01*
X99960591Y-86423758D01*
X100157474Y-86634568D01*
X100157483Y-86634575D01*
X100157487Y-86634579D01*
X100381220Y-86816600D01*
X100381222Y-86816601D01*
X100381228Y-86816606D01*
X100627686Y-86966481D01*
X100892256Y-87081400D01*
X101116059Y-87144106D01*
X101171158Y-87176338D01*
X101801839Y-87807018D01*
X101803952Y-87809238D01*
X102012258Y-88039068D01*
X102016168Y-88043833D01*
X102016210Y-88043889D01*
X102200018Y-88291725D01*
X102203454Y-88296869D01*
X102362121Y-88561584D01*
X102365037Y-88567040D01*
X102496994Y-88846038D01*
X102499361Y-88851753D01*
X102603331Y-89142326D01*
X102605127Y-89148246D01*
X102680119Y-89447625D01*
X102681326Y-89453693D01*
X102726612Y-89758973D01*
X102727218Y-89765129D01*
X102742424Y-90074578D01*
X102742500Y-90077669D01*
X102742500Y-129860547D01*
X102757433Y-130059815D01*
X102757434Y-130059819D01*
X102816746Y-130319687D01*
X102914130Y-130567819D01*
X102914132Y-130567823D01*
X102979619Y-130681249D01*
X102996500Y-130744249D01*
X102996500Y-130871445D01*
X103011345Y-131055338D01*
X103070251Y-131294332D01*
X103166729Y-131520774D01*
X103298284Y-131728811D01*
X103461506Y-131913050D01*
X103461510Y-131913053D01*
X103625545Y-132046984D01*
X103665662Y-132105560D01*
X103667741Y-132176526D01*
X103631123Y-132237351D01*
X103617434Y-132248279D01*
X103553711Y-132292263D01*
X103553698Y-132292274D01*
X103376180Y-132462783D01*
X103376176Y-132462787D01*
X103228314Y-132659558D01*
X103228312Y-132659560D01*
X103113928Y-132877500D01*
X103113927Y-132877503D01*
X103035982Y-133110977D01*
X102996501Y-133353917D01*
X102996500Y-133353934D01*
X102996500Y-135570445D01*
X103011345Y-135754338D01*
X103070251Y-135993332D01*
X103119319Y-136108499D01*
X103166730Y-136219776D01*
X103298284Y-136427811D01*
X103461506Y-136612050D01*
X103577250Y-136706552D01*
X103647348Y-136763786D01*
X103652168Y-136767721D01*
X103865332Y-136890791D01*
X103932299Y-136916188D01*
X103988900Y-136959047D01*
X104013344Y-137025702D01*
X103997872Y-137094992D01*
X103947394Y-137144918D01*
X103887618Y-137160000D01*
X71121903Y-137160000D01*
X71118099Y-137159885D01*
X71074300Y-137157235D01*
X70817644Y-137141711D01*
X70810085Y-137140793D01*
X70621039Y-137106149D01*
X70515887Y-137086879D01*
X70508497Y-137085057D01*
X70222942Y-136996074D01*
X70215822Y-136993374D01*
X69943078Y-136870622D01*
X69936340Y-136867085D01*
X69832622Y-136804386D01*
X69680369Y-136712345D01*
X69674111Y-136708025D01*
X69655869Y-136693733D01*
X69438661Y-136523562D01*
X69432977Y-136518526D01*
X69221472Y-136307021D01*
X69216438Y-136301339D01*
X69031970Y-136065882D01*
X69027656Y-136059634D01*
X68872914Y-135803659D01*
X68869380Y-135796927D01*
X68746621Y-135524167D01*
X68743925Y-135517057D01*
X68740188Y-135505065D01*
X68654940Y-135231497D01*
X68653123Y-135224124D01*
X68599205Y-134929907D01*
X68598289Y-134922365D01*
X68580114Y-134621900D01*
X68580000Y-134618097D01*
X68580000Y-128270003D01*
X76626573Y-128270003D01*
X76646256Y-128557765D01*
X76646257Y-128557770D01*
X76646258Y-128557778D01*
X76666447Y-128654934D01*
X76704943Y-128840189D01*
X76704945Y-128840197D01*
X76781242Y-129054877D01*
X76801541Y-129111992D01*
X76934247Y-129368103D01*
X77100591Y-129603758D01*
X77297474Y-129814568D01*
X77297483Y-129814575D01*
X77297487Y-129814579D01*
X77521220Y-129996600D01*
X77521222Y-129996601D01*
X77521228Y-129996606D01*
X77767686Y-130146481D01*
X78032256Y-130261400D01*
X78310011Y-130339223D01*
X78595761Y-130378499D01*
X78595775Y-130378500D01*
X78884225Y-130378500D01*
X78884238Y-130378499D01*
X79096000Y-130349392D01*
X79169989Y-130339223D01*
X79447744Y-130261400D01*
X79712314Y-130146481D01*
X79958772Y-129996606D01*
X80182526Y-129814568D01*
X80379409Y-129603758D01*
X80545753Y-129368103D01*
X80678459Y-129111992D01*
X80775055Y-128840196D01*
X80833742Y-128557778D01*
X80843715Y-128411977D01*
X80853427Y-128270003D01*
X81706573Y-128270003D01*
X81726256Y-128557765D01*
X81726257Y-128557770D01*
X81726258Y-128557778D01*
X81746447Y-128654934D01*
X81784943Y-128840189D01*
X81784945Y-128840197D01*
X81861242Y-129054877D01*
X81881541Y-129111992D01*
X82014247Y-129368103D01*
X82180591Y-129603758D01*
X82377474Y-129814568D01*
X82377483Y-129814575D01*
X82377487Y-129814579D01*
X82601220Y-129996600D01*
X82601222Y-129996601D01*
X82601228Y-129996606D01*
X82847686Y-130146481D01*
X83112256Y-130261400D01*
X83390011Y-130339223D01*
X83675761Y-130378499D01*
X83675775Y-130378500D01*
X83964225Y-130378500D01*
X83964238Y-130378499D01*
X84176000Y-130349392D01*
X84249989Y-130339223D01*
X84527744Y-130261400D01*
X84792314Y-130146481D01*
X85038772Y-129996606D01*
X85262526Y-129814568D01*
X85459409Y-129603758D01*
X85625753Y-129368103D01*
X85758459Y-129111992D01*
X85855055Y-128840196D01*
X85913742Y-128557778D01*
X85923715Y-128411977D01*
X85933427Y-128270003D01*
X86786573Y-128270003D01*
X86806256Y-128557765D01*
X86806257Y-128557770D01*
X86806258Y-128557778D01*
X86826447Y-128654934D01*
X86864943Y-128840189D01*
X86864945Y-128840197D01*
X86941242Y-129054877D01*
X86961541Y-129111992D01*
X87094247Y-129368103D01*
X87260591Y-129603758D01*
X87457474Y-129814568D01*
X87457483Y-129814575D01*
X87457487Y-129814579D01*
X87681220Y-129996600D01*
X87681222Y-129996601D01*
X87681228Y-129996606D01*
X87927686Y-130146481D01*
X88192256Y-130261400D01*
X88470011Y-130339223D01*
X88755761Y-130378499D01*
X88755775Y-130378500D01*
X89044225Y-130378500D01*
X89044238Y-130378499D01*
X89256000Y-130349392D01*
X89329989Y-130339223D01*
X89607744Y-130261400D01*
X89872314Y-130146481D01*
X90118772Y-129996606D01*
X90342526Y-129814568D01*
X90539409Y-129603758D01*
X90705753Y-129368103D01*
X90838459Y-129111992D01*
X90935055Y-128840196D01*
X90993742Y-128557778D01*
X91003715Y-128411977D01*
X91013427Y-128270003D01*
X91866573Y-128270003D01*
X91886256Y-128557765D01*
X91886257Y-128557770D01*
X91886258Y-128557778D01*
X91906447Y-128654934D01*
X91944943Y-128840189D01*
X91944945Y-128840197D01*
X92021242Y-129054877D01*
X92041541Y-129111992D01*
X92174247Y-129368103D01*
X92340591Y-129603758D01*
X92537474Y-129814568D01*
X92537483Y-129814575D01*
X92537487Y-129814579D01*
X92761220Y-129996600D01*
X92761222Y-129996601D01*
X92761228Y-129996606D01*
X93007686Y-130146481D01*
X93272256Y-130261400D01*
X93550011Y-130339223D01*
X93835761Y-130378499D01*
X93835775Y-130378500D01*
X94124225Y-130378500D01*
X94124238Y-130378499D01*
X94336000Y-130349392D01*
X94409989Y-130339223D01*
X94687744Y-130261400D01*
X94952314Y-130146481D01*
X95198772Y-129996606D01*
X95422526Y-129814568D01*
X95619409Y-129603758D01*
X95785753Y-129368103D01*
X95918459Y-129111992D01*
X96015055Y-128840196D01*
X96073742Y-128557778D01*
X96083715Y-128411977D01*
X96093427Y-128270003D01*
X96093427Y-128269996D01*
X96073743Y-127982234D01*
X96073742Y-127982229D01*
X96073742Y-127982222D01*
X96015055Y-127699804D01*
X95918459Y-127428008D01*
X95785753Y-127171897D01*
X95619409Y-126936242D01*
X95422526Y-126725432D01*
X95422516Y-126725424D01*
X95422512Y-126725420D01*
X95198779Y-126543399D01*
X95198775Y-126543396D01*
X95198772Y-126543394D01*
X94952314Y-126393519D01*
X94952310Y-126393517D01*
X94952308Y-126393516D01*
X94843713Y-126346347D01*
X94687744Y-126278600D01*
X94460354Y-126214888D01*
X94409986Y-126200776D01*
X94409988Y-126200776D01*
X94124238Y-126161500D01*
X94124225Y-126161500D01*
X93835775Y-126161500D01*
X93835761Y-126161500D01*
X93550012Y-126200776D01*
X93377572Y-126249091D01*
X93272256Y-126278600D01*
X93272253Y-126278601D01*
X93272254Y-126278601D01*
X93007691Y-126393516D01*
X92761220Y-126543399D01*
X92537487Y-126725420D01*
X92537471Y-126725435D01*
X92340591Y-126936242D01*
X92174247Y-127171896D01*
X92174247Y-127171897D01*
X92041541Y-127428007D01*
X91944945Y-127699802D01*
X91944943Y-127699810D01*
X91923460Y-127803195D01*
X91896611Y-127932403D01*
X91886257Y-127982229D01*
X91886256Y-127982234D01*
X91866573Y-128269996D01*
X91866573Y-128270003D01*
X91013427Y-128270003D01*
X91013427Y-128269996D01*
X90993743Y-127982234D01*
X90993742Y-127982229D01*
X90993742Y-127982222D01*
X90935055Y-127699804D01*
X90838459Y-127428008D01*
X90705753Y-127171897D01*
X90539409Y-126936242D01*
X90342526Y-126725432D01*
X90342516Y-126725424D01*
X90342512Y-126725420D01*
X90118779Y-126543399D01*
X90118775Y-126543396D01*
X90118772Y-126543394D01*
X89872314Y-126393519D01*
X89872310Y-126393517D01*
X89872308Y-126393516D01*
X89763713Y-126346347D01*
X89607744Y-126278600D01*
X89380354Y-126214888D01*
X89329986Y-126200776D01*
X89329988Y-126200776D01*
X89044238Y-126161500D01*
X89044225Y-126161500D01*
X88755775Y-126161500D01*
X88755761Y-126161500D01*
X88470012Y-126200776D01*
X88297572Y-126249091D01*
X88192256Y-126278600D01*
X88192253Y-126278601D01*
X88192254Y-126278601D01*
X87927691Y-126393516D01*
X87681220Y-126543399D01*
X87457487Y-126725420D01*
X87457471Y-126725435D01*
X87260591Y-126936242D01*
X87094247Y-127171896D01*
X87094247Y-127171897D01*
X86961541Y-127428007D01*
X86864945Y-127699802D01*
X86864943Y-127699810D01*
X86843460Y-127803195D01*
X86816611Y-127932403D01*
X86806257Y-127982229D01*
X86806256Y-127982234D01*
X86786573Y-128269996D01*
X86786573Y-128270003D01*
X85933427Y-128270003D01*
X85933427Y-128269996D01*
X85913743Y-127982234D01*
X85913742Y-127982229D01*
X85913742Y-127982222D01*
X85855055Y-127699804D01*
X85758459Y-127428008D01*
X85625753Y-127171897D01*
X85459409Y-126936242D01*
X85262526Y-126725432D01*
X85262516Y-126725424D01*
X85262512Y-126725420D01*
X85038779Y-126543399D01*
X85038775Y-126543396D01*
X85038772Y-126543394D01*
X84792314Y-126393519D01*
X84792310Y-126393517D01*
X84792308Y-126393516D01*
X84683713Y-126346347D01*
X84527744Y-126278600D01*
X84300354Y-126214888D01*
X84249986Y-126200776D01*
X84249988Y-126200776D01*
X83964238Y-126161500D01*
X83964225Y-126161500D01*
X83675775Y-126161500D01*
X83675761Y-126161500D01*
X83390012Y-126200776D01*
X83217572Y-126249091D01*
X83112256Y-126278600D01*
X83112253Y-126278601D01*
X83112254Y-126278601D01*
X82847691Y-126393516D01*
X82601220Y-126543399D01*
X82377487Y-126725420D01*
X82377471Y-126725435D01*
X82180591Y-126936242D01*
X82014247Y-127171896D01*
X82014247Y-127171897D01*
X81881541Y-127428007D01*
X81784945Y-127699802D01*
X81784943Y-127699810D01*
X81763460Y-127803195D01*
X81736611Y-127932403D01*
X81726257Y-127982229D01*
X81726256Y-127982234D01*
X81706573Y-128269996D01*
X81706573Y-128270003D01*
X80853427Y-128270003D01*
X80853427Y-128269996D01*
X80833743Y-127982234D01*
X80833742Y-127982229D01*
X80833742Y-127982222D01*
X80775055Y-127699804D01*
X80678459Y-127428008D01*
X80545753Y-127171897D01*
X80379409Y-126936242D01*
X80182526Y-126725432D01*
X80182516Y-126725424D01*
X80182512Y-126725420D01*
X79958779Y-126543399D01*
X79958775Y-126543396D01*
X79958772Y-126543394D01*
X79712314Y-126393519D01*
X79712310Y-126393517D01*
X79712308Y-126393516D01*
X79603713Y-126346347D01*
X79447744Y-126278600D01*
X79220354Y-126214888D01*
X79169986Y-126200776D01*
X79169988Y-126200776D01*
X78884238Y-126161500D01*
X78884225Y-126161500D01*
X78595775Y-126161500D01*
X78595761Y-126161500D01*
X78310012Y-126200776D01*
X78137572Y-126249091D01*
X78032256Y-126278600D01*
X78032253Y-126278601D01*
X78032254Y-126278601D01*
X77767691Y-126393516D01*
X77521220Y-126543399D01*
X77297487Y-126725420D01*
X77297471Y-126725435D01*
X77100591Y-126936242D01*
X76934247Y-127171896D01*
X76934247Y-127171897D01*
X76801541Y-127428007D01*
X76704945Y-127699802D01*
X76704943Y-127699810D01*
X76683460Y-127803195D01*
X76656611Y-127932403D01*
X76646257Y-127982229D01*
X76646256Y-127982234D01*
X76626573Y-128269996D01*
X76626573Y-128270003D01*
X68580000Y-128270003D01*
X68580000Y-126788396D01*
X68600002Y-126720275D01*
X68653658Y-126673782D01*
X68723932Y-126663678D01*
X68788512Y-126693172D01*
X68799951Y-126704437D01*
X68835629Y-126744361D01*
X68835631Y-126744363D01*
X68835634Y-126744366D01*
X69105765Y-126985771D01*
X69368461Y-127172163D01*
X69401230Y-127195414D01*
X69469915Y-127233374D01*
X69718303Y-127370654D01*
X70053006Y-127509292D01*
X70401128Y-127609585D01*
X70758290Y-127670269D01*
X71120000Y-127690582D01*
X71481710Y-127670269D01*
X71838872Y-127609585D01*
X72186994Y-127509292D01*
X72521697Y-127370654D01*
X72838773Y-127195412D01*
X73134235Y-126985771D01*
X73404366Y-126744366D01*
X73645771Y-126474235D01*
X73855412Y-126178773D01*
X74030654Y-125861697D01*
X74169292Y-125526994D01*
X74269585Y-125178872D01*
X74330269Y-124821710D01*
X74350582Y-124460000D01*
X74330269Y-124098290D01*
X74269585Y-123741128D01*
X74169292Y-123393006D01*
X74030654Y-123058303D01*
X73885011Y-122794782D01*
X73855414Y-122741230D01*
X73789931Y-122648940D01*
X73645771Y-122445765D01*
X73404366Y-122175634D01*
X73134235Y-121934229D01*
X73134232Y-121934227D01*
X73134230Y-121934225D01*
X73134228Y-121934224D01*
X72838769Y-121724585D01*
X72680235Y-121636967D01*
X72521697Y-121549346D01*
X72521689Y-121549342D01*
X72521686Y-121549341D01*
X72186998Y-121410709D01*
X71838865Y-121310413D01*
X71481705Y-121249730D01*
X71120000Y-121229418D01*
X70758294Y-121249730D01*
X70401134Y-121310413D01*
X70053001Y-121410709D01*
X69718313Y-121549341D01*
X69718305Y-121549344D01*
X69718303Y-121549346D01*
X69718298Y-121549349D01*
X69401230Y-121724585D01*
X69105771Y-121934224D01*
X69105769Y-121934225D01*
X68835629Y-122175638D01*
X68799950Y-122215563D01*
X68739644Y-122253028D01*
X68668655Y-122251942D01*
X68609524Y-122212648D01*
X68581023Y-122147624D01*
X68580000Y-122131603D01*
X68580000Y-118860649D01*
X77469500Y-118860649D01*
X77476009Y-118921196D01*
X77476011Y-118921204D01*
X77527110Y-119058202D01*
X77527112Y-119058207D01*
X77614738Y-119175261D01*
X77731792Y-119262887D01*
X77731794Y-119262888D01*
X77731796Y-119262889D01*
X77790875Y-119284924D01*
X77868795Y-119313988D01*
X77868803Y-119313990D01*
X77929350Y-119320499D01*
X77929355Y-119320499D01*
X77929362Y-119320500D01*
X77929368Y-119320500D01*
X79550632Y-119320500D01*
X79550638Y-119320500D01*
X79550645Y-119320499D01*
X79550649Y-119320499D01*
X79611196Y-119313990D01*
X79611199Y-119313989D01*
X79611201Y-119313989D01*
X79748204Y-119262889D01*
X79865261Y-119175261D01*
X79952889Y-119058204D01*
X80003989Y-118921201D01*
X80010499Y-118860649D01*
X97789500Y-118860649D01*
X97796009Y-118921196D01*
X97796011Y-118921204D01*
X97847110Y-119058202D01*
X97847112Y-119058207D01*
X97934738Y-119175261D01*
X98051792Y-119262887D01*
X98051794Y-119262888D01*
X98051796Y-119262889D01*
X98110875Y-119284924D01*
X98188795Y-119313988D01*
X98188803Y-119313990D01*
X98249350Y-119320499D01*
X98249355Y-119320499D01*
X98249362Y-119320500D01*
X98249368Y-119320500D01*
X99870632Y-119320500D01*
X99870638Y-119320500D01*
X99870645Y-119320499D01*
X99870649Y-119320499D01*
X99931196Y-119313990D01*
X99931199Y-119313989D01*
X99931201Y-119313989D01*
X100068204Y-119262889D01*
X100185261Y-119175261D01*
X100272889Y-119058204D01*
X100323989Y-118921201D01*
X100330500Y-118860638D01*
X100330500Y-117239362D01*
X100330499Y-117239350D01*
X100323990Y-117178803D01*
X100323988Y-117178795D01*
X100272889Y-117041797D01*
X100272887Y-117041792D01*
X100185261Y-116924738D01*
X100068207Y-116837112D01*
X100068202Y-116837110D01*
X99931204Y-116786011D01*
X99931196Y-116786009D01*
X99870649Y-116779500D01*
X99870638Y-116779500D01*
X98249362Y-116779500D01*
X98249350Y-116779500D01*
X98188803Y-116786009D01*
X98188795Y-116786011D01*
X98051797Y-116837110D01*
X98051792Y-116837112D01*
X97934738Y-116924738D01*
X97847112Y-117041792D01*
X97847110Y-117041797D01*
X97796011Y-117178795D01*
X97796009Y-117178803D01*
X97789500Y-117239350D01*
X97789500Y-118860649D01*
X80010499Y-118860649D01*
X80010500Y-118860638D01*
X80010500Y-117239362D01*
X80010499Y-117239350D01*
X80003990Y-117178803D01*
X80003988Y-117178795D01*
X79952889Y-117041797D01*
X79952887Y-117041792D01*
X79865261Y-116924738D01*
X79748207Y-116837112D01*
X79748202Y-116837110D01*
X79611204Y-116786011D01*
X79611196Y-116786009D01*
X79550649Y-116779500D01*
X79550638Y-116779500D01*
X77929362Y-116779500D01*
X77929350Y-116779500D01*
X77868803Y-116786009D01*
X77868795Y-116786011D01*
X77731797Y-116837110D01*
X77731792Y-116837112D01*
X77614738Y-116924738D01*
X77527112Y-117041792D01*
X77527110Y-117041797D01*
X77476011Y-117178795D01*
X77476009Y-117178803D01*
X77469500Y-117239350D01*
X77469500Y-118860649D01*
X68580000Y-118860649D01*
X68580000Y-110550000D01*
X77465149Y-110550000D01*
X77484517Y-110771374D01*
X77542031Y-110986023D01*
X77542033Y-110986027D01*
X77635946Y-111187425D01*
X77680184Y-111250603D01*
X77680185Y-111250603D01*
X78249193Y-110681595D01*
X78273155Y-110763201D01*
X78352131Y-110886090D01*
X78462530Y-110981752D01*
X78595408Y-111042435D01*
X78605345Y-111043863D01*
X78039395Y-111609813D01*
X78039395Y-111609814D01*
X78102575Y-111654053D01*
X78102574Y-111654053D01*
X78303972Y-111747966D01*
X78303976Y-111747968D01*
X78518625Y-111805482D01*
X78739999Y-111824850D01*
X78961374Y-111805482D01*
X79176023Y-111747968D01*
X79176027Y-111747966D01*
X79377425Y-111654053D01*
X79377426Y-111654052D01*
X79440603Y-111609814D01*
X79440603Y-111609812D01*
X78874654Y-111043863D01*
X78884592Y-111042435D01*
X79017470Y-110981752D01*
X79127869Y-110886090D01*
X79206845Y-110763201D01*
X79230805Y-110681596D01*
X79799812Y-111250603D01*
X79799814Y-111250603D01*
X79844052Y-111187426D01*
X79844053Y-111187425D01*
X79937966Y-110986027D01*
X79937968Y-110986023D01*
X79995482Y-110771374D01*
X80014850Y-110550000D01*
X97785149Y-110550000D01*
X97804517Y-110771374D01*
X97862031Y-110986023D01*
X97862033Y-110986027D01*
X97955946Y-111187425D01*
X98000184Y-111250603D01*
X98000185Y-111250603D01*
X98569193Y-110681595D01*
X98593155Y-110763201D01*
X98672131Y-110886090D01*
X98782530Y-110981752D01*
X98915408Y-111042435D01*
X98925345Y-111043863D01*
X98359395Y-111609813D01*
X98359395Y-111609814D01*
X98422575Y-111654053D01*
X98422574Y-111654053D01*
X98623972Y-111747966D01*
X98623976Y-111747968D01*
X98838625Y-111805482D01*
X99060000Y-111824850D01*
X99281374Y-111805482D01*
X99496023Y-111747968D01*
X99496027Y-111747966D01*
X99697425Y-111654053D01*
X99697426Y-111654052D01*
X99760603Y-111609814D01*
X99760603Y-111609812D01*
X99194654Y-111043863D01*
X99204592Y-111042435D01*
X99337470Y-110981752D01*
X99447869Y-110886090D01*
X99526845Y-110763201D01*
X99550805Y-110681596D01*
X100119812Y-111250603D01*
X100119814Y-111250603D01*
X100164052Y-111187426D01*
X100164053Y-111187425D01*
X100257966Y-110986027D01*
X100257968Y-110986023D01*
X100315482Y-110771374D01*
X100334850Y-110549999D01*
X100315482Y-110328625D01*
X100257968Y-110113976D01*
X100257966Y-110113972D01*
X100164051Y-109912571D01*
X100119815Y-109849395D01*
X100119813Y-109849395D01*
X99550805Y-110418402D01*
X99526845Y-110336799D01*
X99447869Y-110213910D01*
X99337470Y-110118248D01*
X99204592Y-110057565D01*
X99194653Y-110056136D01*
X99760603Y-109490185D01*
X99760603Y-109490184D01*
X99697425Y-109445946D01*
X99496027Y-109352033D01*
X99496023Y-109352031D01*
X99281374Y-109294517D01*
X99060000Y-109275149D01*
X98838625Y-109294517D01*
X98623976Y-109352031D01*
X98623972Y-109352033D01*
X98422575Y-109445946D01*
X98359394Y-109490185D01*
X98925345Y-110056136D01*
X98915408Y-110057565D01*
X98782530Y-110118248D01*
X98672131Y-110213910D01*
X98593155Y-110336799D01*
X98569194Y-110418403D01*
X98000185Y-109849394D01*
X97955946Y-109912575D01*
X97862033Y-110113972D01*
X97862031Y-110113976D01*
X97804517Y-110328625D01*
X97785149Y-110550000D01*
X80014850Y-110550000D01*
X79995482Y-110328625D01*
X79937968Y-110113976D01*
X79937966Y-110113972D01*
X79844051Y-109912571D01*
X79799815Y-109849395D01*
X79799813Y-109849395D01*
X79230805Y-110418402D01*
X79206845Y-110336799D01*
X79127869Y-110213910D01*
X79017470Y-110118248D01*
X78884592Y-110057565D01*
X78874653Y-110056136D01*
X79440603Y-109490185D01*
X79440603Y-109490184D01*
X79377425Y-109445946D01*
X79176027Y-109352033D01*
X79176023Y-109352031D01*
X78961374Y-109294517D01*
X78739999Y-109275149D01*
X78518625Y-109294517D01*
X78303976Y-109352031D01*
X78303972Y-109352033D01*
X78102575Y-109445946D01*
X78039394Y-109490185D01*
X78605345Y-110056136D01*
X78595408Y-110057565D01*
X78462530Y-110118248D01*
X78352131Y-110213910D01*
X78273155Y-110336799D01*
X78249194Y-110418403D01*
X77680185Y-109849394D01*
X77635946Y-109912575D01*
X77542033Y-110113972D01*
X77542031Y-110113976D01*
X77484517Y-110328625D01*
X77465149Y-110550000D01*
X68580000Y-110550000D01*
X68580000Y-85090004D01*
X94407074Y-85090004D01*
X94426752Y-85377696D01*
X94426753Y-85377702D01*
X94485425Y-85660054D01*
X94485427Y-85660062D01*
X94582002Y-85931798D01*
X94714672Y-86187836D01*
X94714676Y-86187842D01*
X94858787Y-86392002D01*
X95801155Y-85449634D01*
X95890577Y-85591948D01*
X96018052Y-85719423D01*
X96160364Y-85808843D01*
X95219630Y-86749577D01*
X95301514Y-86816194D01*
X95547922Y-86966038D01*
X95812422Y-87080926D01*
X96090111Y-87158731D01*
X96090120Y-87158733D01*
X96375795Y-87197999D01*
X96375809Y-87198000D01*
X96664191Y-87198000D01*
X96664204Y-87197999D01*
X96949879Y-87158733D01*
X96949888Y-87158731D01*
X97227577Y-87080926D01*
X97492077Y-86966038D01*
X97738490Y-86816191D01*
X97820367Y-86749578D01*
X97820367Y-86749577D01*
X96879634Y-85808844D01*
X97021948Y-85719423D01*
X97149423Y-85591948D01*
X97238843Y-85449634D01*
X98181211Y-86392002D01*
X98181212Y-86392001D01*
X98325319Y-86187850D01*
X98325328Y-86187835D01*
X98457997Y-85931798D01*
X98554572Y-85660062D01*
X98554574Y-85660054D01*
X98613246Y-85377702D01*
X98613247Y-85377696D01*
X98632926Y-85090004D01*
X98632926Y-85089995D01*
X98613247Y-84802303D01*
X98613246Y-84802297D01*
X98554574Y-84519945D01*
X98554572Y-84519937D01*
X98457997Y-84248201D01*
X98325327Y-83992163D01*
X98325324Y-83992157D01*
X98181211Y-83787997D01*
X97238843Y-84730364D01*
X97149423Y-84588052D01*
X97021948Y-84460577D01*
X96879634Y-84371155D01*
X97820368Y-83430421D01*
X97738485Y-83363805D01*
X97492077Y-83213961D01*
X97227577Y-83099073D01*
X96949888Y-83021268D01*
X96949879Y-83021266D01*
X96664204Y-82982000D01*
X96375795Y-82982000D01*
X96090120Y-83021266D01*
X96090111Y-83021268D01*
X95812422Y-83099073D01*
X95547918Y-83213962D01*
X95301517Y-83363802D01*
X95219631Y-83430421D01*
X95219630Y-83430422D01*
X96160364Y-84371156D01*
X96018052Y-84460577D01*
X95890577Y-84588052D01*
X95801156Y-84730365D01*
X94858787Y-83787996D01*
X94714674Y-83992160D01*
X94714672Y-83992163D01*
X94582002Y-84248201D01*
X94485427Y-84519937D01*
X94485425Y-84519945D01*
X94426753Y-84802297D01*
X94426752Y-84802303D01*
X94407074Y-85089995D01*
X94407074Y-85090004D01*
X68580000Y-85090004D01*
X68580000Y-81068396D01*
X68600002Y-81000275D01*
X68653658Y-80953782D01*
X68723932Y-80943678D01*
X68788512Y-80973172D01*
X68799951Y-80984437D01*
X68835629Y-81024361D01*
X68835631Y-81024363D01*
X68835634Y-81024366D01*
X69105765Y-81265771D01*
X69277050Y-81387304D01*
X69401230Y-81475414D01*
X69469915Y-81513374D01*
X69718303Y-81650654D01*
X70053006Y-81789292D01*
X70401128Y-81889585D01*
X70758290Y-81950269D01*
X71120000Y-81970582D01*
X71481710Y-81950269D01*
X71838872Y-81889585D01*
X72186994Y-81789292D01*
X72521697Y-81650654D01*
X72838773Y-81475412D01*
X73134235Y-81265771D01*
X73404366Y-81024366D01*
X73645771Y-80754235D01*
X73855412Y-80458773D01*
X74030654Y-80141697D01*
X74169292Y-79806994D01*
X74269585Y-79458872D01*
X74330269Y-79101710D01*
X74350582Y-78740000D01*
X74330269Y-78378290D01*
X74269585Y-78021128D01*
X74169292Y-77673006D01*
X74030654Y-77338303D01*
X73885011Y-77074782D01*
X73855414Y-77021230D01*
X73789931Y-76928940D01*
X73645771Y-76725765D01*
X73404366Y-76455634D01*
X73404363Y-76455631D01*
X73404361Y-76455629D01*
X73364437Y-76419951D01*
X73326971Y-76359645D01*
X73328057Y-76288657D01*
X73367350Y-76229525D01*
X73432374Y-76201023D01*
X73448396Y-76200000D01*
X144991604Y-76200000D01*
X145059725Y-76220002D01*
G37*
%TD.AperFunction*%
%TD*%
%TA.AperFunction,Conductor*%
%TO.N,VOUT*%
G36*
X109449932Y-114953096D02*
G01*
X109469460Y-114956189D01*
X109576774Y-114981952D01*
X109684090Y-115007717D01*
X109702893Y-115013827D01*
X109906815Y-115098294D01*
X109924432Y-115107270D01*
X110112639Y-115222603D01*
X110128632Y-115234223D01*
X110302138Y-115382412D01*
X110305752Y-115385752D01*
X111649594Y-116729594D01*
X111652399Y-116732589D01*
X111867393Y-116977742D01*
X111872414Y-116984285D01*
X112052412Y-117253670D01*
X112056527Y-117260798D01*
X112127506Y-117404728D01*
X112140500Y-117460456D01*
X112140500Y-126448688D01*
X112127505Y-126504419D01*
X112106367Y-126547280D01*
X112102243Y-126554423D01*
X111949284Y-126783344D01*
X111944262Y-126789889D01*
X111762725Y-126996892D01*
X111756892Y-127002725D01*
X111549889Y-127184261D01*
X111543344Y-127189284D01*
X111314423Y-127342244D01*
X111307283Y-127346366D01*
X111181754Y-127408270D01*
X111060348Y-127468141D01*
X111052726Y-127471298D01*
X110792017Y-127559796D01*
X110784049Y-127561931D01*
X110514011Y-127615646D01*
X110505832Y-127616722D01*
X110293496Y-127630639D01*
X110229031Y-127634865D01*
X110224914Y-127635000D01*
X108215086Y-127635000D01*
X108210967Y-127634865D01*
X108165092Y-127631858D01*
X107934167Y-127616722D01*
X107925990Y-127615646D01*
X107873160Y-127605137D01*
X107655950Y-127561931D01*
X107647982Y-127559796D01*
X107387273Y-127471298D01*
X107379651Y-127468141D01*
X107132709Y-127346362D01*
X107125581Y-127342247D01*
X106896650Y-127189280D01*
X106890110Y-127184261D01*
X106683107Y-127002725D01*
X106677274Y-126996892D01*
X106495737Y-126789889D01*
X106490721Y-126783352D01*
X106337756Y-126554423D01*
X106333632Y-126547280D01*
X106332191Y-126544358D01*
X106312492Y-126504414D01*
X106299500Y-126448692D01*
X106299500Y-117460452D01*
X106312492Y-117404732D01*
X106383473Y-117260796D01*
X106387586Y-117253672D01*
X106567592Y-116984275D01*
X106572606Y-116977743D01*
X106787600Y-116732589D01*
X106790389Y-116729610D01*
X108134259Y-115385740D01*
X108137848Y-115382423D01*
X108311373Y-115234219D01*
X108327352Y-115222608D01*
X108515572Y-115107266D01*
X108533178Y-115098297D01*
X108737110Y-115013825D01*
X108755905Y-115007718D01*
X108970540Y-114956188D01*
X108990067Y-114953096D01*
X109210115Y-114935778D01*
X109229885Y-114935778D01*
X109449932Y-114953096D01*
G37*
%TD.AperFunction*%
%TD*%
M02*
